  999
DXF Polyline File Exported from Leapfrog Geo
  0
SECTION
  2
ENTITIES
  0
POLYLINE
  8
0
  66
1
  70
8
  0
VERTEX
  8
0
  10
257373.222217
  20
386147.48147
  30
144.291994083
  70
32
  0
VERTEX
  8
0
  10
257376.891682
  20
386163.499053
  30
123.855347926
  70
32
  0
VERTEX
  8
0
  10
257369.340781
  20
386165.293284
  30
123.846516472
  70
32
  0
VERTEX
  8
0
  10
257375.741153
  20
386193.279318
  30
88.1425989341
  70
32
  0
VERTEX
  8
0
  10
257413.627892
  20
386184.168403
  30
88.3180345692
  70
32
  0
VERTEX
  8
0
  10
257404.116993
  20
386140.209237
  30
144.244711315
  70
32
  0
VERTEX
  8
0
  10
257373.222217
  20
386147.48147
  30
144.291994083
  70
32
  0
SEQEND
  0
POLYLINE
  8
0
  66
1
  70
8
  0
VERTEX
  8
0
  10
256934.092354
  20
386343.681712
  30
32.6086172756
  70
32
  0
VERTEX
  8
0
  10
257009.883632
  20
386314.90432
  30
45.7295096477
  70
32
  0
VERTEX
  8
0
  10
257094.968764
  20
386289.282423
  30
52.3695062367
  70
32
  0
VERTEX
  8
0
  10
257151.790209
  20
386273.440335
  30
55.2683522111
  70
32
  0
VERTEX
  8
0
  10
257196.528666
  20
386260.786372
  30
57.7694216962
  70
32
  0
VERTEX
  8
0
  10
257279.916224
  20
386241.358148
  30
57.3995851578
  70
32
  0
VERTEX
  8
0
  10
257354.194946
  20
386223.585116
  30
57.6354056324
  70
32
  0
VERTEX
  8
0
  10
257393.100389
  20
386214.9877
  30
56.8975961219
  70
32
  0
SEQEND
  0
POLYLINE
  8
0
  66
1
  70
8
  0
VERTEX
  8
0
  10
257393.994355
  20
386308.505239
  30
-56.5402798947
  70
32
  0
VERTEX
  8
0
  10
257367.379145
  20
386314.810825
  30
-56.5488149032
  70
32
  0
VERTEX
  8
0
  10
257377.086015
  20
386356.53284
  30
-109.824055259
  70
32
  0
VERTEX
  8
0
  10
257408.667217
  20
386349.220741
  30
-110.019690013
  70
32
  0
VERTEX
  8
0
  10
257397.839075
  20
386301.954817
  30
-49.7136546807
  70
32
  0
VERTEX
  8
0
  10
257393.594507
  20
386302.953934
  30
-49.7071586018
  70
32
  0
VERTEX
  8
0
  10
257393.994355
  20
386308.505239
  30
-56.5402798947
  70
32
  0
SEQEND
  0
POLYLINE
  8
0
  66
1
  70
8
  0
VERTEX
  8
0
  10
257782.853295
  20
386201.22551
  30
-38.0768120319
  70
32
  0
VERTEX
  8
0
  10
257694.023513
  20
386237.256021
  30
-56.2415643399
  70
32
  0
VERTEX
  8
0
  10
257632.358885
  20
386297.342648
  30
-111.301265729
  70
32
  0
VERTEX
  8
0
  10
257630.201185
  20
386330.793667
  30
-151.168164958
  70
32
  0
VERTEX
  8
0
  10
257617.613192
  20
386362.355749
  30
-185.761558846
  70
32
  0
VERTEX
  8
0
  10
257584.275622
  20
386401.470174
  30
-223.552399993
  70
32
  0
VERTEX
  8
0
  10
257575.56893
  20
386436.677595
  30
-263.669307875
  70
32
  0
VERTEX
  8
0
  10
257578.171808
  20
386468.105759
  30
-302.451491708
  70
32
  0
VERTEX
  8
0
  10
257612.197207
  20
386460.096618
  30
-302.503565724
  70
32
  0
VERTEX
  8
0
  10
257615.80251
  20
386405.851303
  30
-237.884486989
  70
32
  0
VERTEX
  8
0
  10
257662.701709
  20
386344.012844
  30
-176.47557293
  70
32
  0
VERTEX
  8
0
  10
257681.818546
  20
386335.822699
  30
-172.038571539
  70
32
  0
VERTEX
  8
0
  10
257683.753153
  20
386323.096887
  30
-157.190951529
  70
32
  0
VERTEX
  8
0
  10
257693.888343
  20
386318.880189
  30
-154.990445086
  70
32
  0
VERTEX
  8
0
  10
257690.525526
  20
386305.794735
  30
-138.190307284
  70
32
  0
VERTEX
  8
0
  10
257712.96144
  20
386301.590593
  30
-139.528089152
  70
32
  0
VERTEX
  8
0
  10
257728.619293
  20
386257.218608
  30
-90.3104529369
  70
32
  0
VERTEX
  8
0
  10
257787.845724
  20
386234.266348
  30
-79.4951720179
  70
32
  0
VERTEX
  8
0
  10
257782.853295
  20
386201.22551
  30
-38.0768120319
  70
32
  0
SEQEND
  0
POLYLINE
  8
0
  66
1
  70
8
  0
VERTEX
  8
0
  10
256934.092354
  20
386343.681712
  30
32.6086172756
  70
32
  0
VERTEX
  8
0
  10
256874.641076
  20
386336.731685
  30
58.0476909313
  70
32
  0
VERTEX
  8
0
  10
256849.809649
  20
386314.527773
  30
92.0325571963
  70
32
  0
VERTEX
  8
0
  10
256803.765249
  20
386326.512077
  30
90.7159969153
  70
32
  0
VERTEX
  8
0
  10
256804.942713
  20
386339.75321
  30
74.3533585318
  70
32
  0
VERTEX
  8
0
  10
256815.076483
  20
386337.231627
  30
74.5027176385
  70
32
  0
VERTEX
  8
0
  10
256836.538102
  20
386358.070941
  30
43.1345472679
  70
32
  0
VERTEX
  8
0
  10
256862.285982
  20
386365.424892
  30
26.8597171785
  70
32
  0
VERTEX
  8
0
  10
256878.373773
  20
386360.051316
  30
28.7554577358
  70
32
  0
VERTEX
  8
0
  10
256933.601396
  20
386363.667642
  30
8.56078571152
  70
32
  0
VERTEX
  8
0
  10
256953.76971
  20
386380.821339
  30
-17.9763581393
  70
32
  0
VERTEX
  8
0
  10
256953.885387
  20
386406.124242
  30
-48.632932565
  70
32
  0
VERTEX
  8
0
  10
256983.0016
  20
386399.270661
  30
-48.6774933377
  70
32
  0
VERTEX
  8
0
  10
256991.383303
  20
386405.621894
  30
-58.7648561319
  70
32
  0
VERTEX
  8
0
  10
257040.71544
  20
386394.009744
  30
-58.8403562719
  70
32
  0
VERTEX
  8
0
  10
257143.451597
  20
386434.947377
  30
-137.811107968
  70
32
  0
VERTEX
  8
0
  10
257160.073359
  20
386431.034829
  30
-137.836546667
  70
32
  0
VERTEX
  8
0
  10
257220.255865
  20
386449.966455
  30
-177.986070389
  70
32
  0
VERTEX
  8
0
  10
257248.82639
  20
386443.241321
  30
-178.029796016
  70
32
  0
VERTEX
  8
0
  10
257346.381814
  20
386448.649018
  30
-212.515763704
  70
32
  0
VERTEX
  8
0
  10
257406.309005
  20
386470.271641
  30
-255.849005454
  70
32
  0
VERTEX
  8
0
  10
257496.079038
  20
386487.42934
  30
-302.325853209
  70
32
  0
VERTEX
  8
0
  10
257524.149172
  20
386480.821992
  30
-302.368813015
  70
32
  0
VERTEX
  8
0
  10
257478.768943
  20
386473.092072
  30
-280.015990215
  70
32
  0
VERTEX
  8
0
  10
257472.834608
  20
386471.855973
  30
-276.820300356
  70
32
  0
VERTEX
  8
0
  10
257492.407419
  20
386462.43212
  30
-271.020771505
  70
32
  0
VERTEX
  8
0
  10
257500.923456
  20
386432.625951
  30
-237.386250082
  70
32
  0
VERTEX
  8
0
  10
257555.075152
  20
386415.395251
  30
-232.042152696
  70
32
  0
VERTEX
  8
0
  10
257555.163127
  20
386412.29851
  30
-228.319445417
  70
32
  0
VERTEX
  8
0
  10
257531.93109
  20
386403.599083
  30
-211.136790534
  70
32
  0
VERTEX
  8
0
  10
257510.127391
  20
386398.725287
  30
-198.993293895
  70
32
  0
VERTEX
  8
0
  10
257447.611357
  20
386413.931225
  30
-199.491217129
  70
32
  0
VERTEX
  8
0
  10
257445.127664
  20
386402.956622
  30
-185.497579167
  70
32
  0
VERTEX
  8
0
  10
257422.185776
  20
386408.230601
  30
-185.309676065
  70
32
  0
VERTEX
  8
0
  10
257384.252778
  20
386417.159541
  30
-185.251621683
  70
32
  0
VERTEX
  8
0
  10
257383.985582
  20
386402.596607
  30
-167.549955058
  70
32
  0
VERTEX
  8
0
  10
257385.989413
  20
386397.795088
  30
-162.312726937
  70
32
  0
VERTEX
  8
0
  10
257385.615727
  20
386383.355597
  30
-144.729959951
  70
32
  0
VERTEX
  8
0
  10
257384.913739
  20
386371.775353
  30
-130.513634668
  70
32
  0
VERTEX
  8
0
  10
257344.177775
  20
386382.09455
  30
-131.335365363
  70
32
  0
VERTEX
  8
0
  10
257345.232675
  20
386393.265698
  30
-145.157651557
  70
32
  0
VERTEX
  8
0
  10
257344.358912
  20
386409.151231
  30
-164.13323943
  70
32
  0
VERTEX
  8
0
  10
257343.899081
  20
386412.162946
  30
-167.64653711
  70
32
  0
VERTEX
  8
0
  10
257329.713397
  20
386415.384412
  30
-167.482424951
  70
32
  0
VERTEX
  8
0
  10
257333.824879
  20
386433.331443
  30
-190.380829687
  70
32
  0
VERTEX
  8
0
  10
257256.47492
  20
386422.622417
  30
-155.265916025
  70
32
  0
VERTEX
  8
0
  10
257225.581297
  20
386429.768518
  30
-155.066310744
  70
32
  0
VERTEX
  8
0
  10
257186.172451
  20
386415.966001
  30
-127.074265924
  70
32
  0
VERTEX
  8
0
  10
257138.968834
  20
386416.738247
  30
-114.489150568
  70
32
  0
VERTEX
  8
0
  10
257089.182723
  20
386396.16994
  30
-75.3364607714
  70
32
  0
VERTEX
  8
0
  10
257041.198881
  20
386375.672207
  30
-36.7853793243
  70
32
  0
VERTEX
  8
0
  10
256988.803038
  20
386388.005514
  30
-36.7051903492
  70
32
  0
VERTEX
  8
0
  10
256934.092354
  20
386343.681712
  30
32.6086172756
  70
32
  0
VERTEX
  8
0
  10
256922.309801
  20
386342.304298
  30
37.6503463572
  70
32
  0
VERTEX
  8
0
  10
257008.650456
  20
386309.521385
  30
52.5975338726
  70
32
  0
VERTEX
  8
0
  10
257093.735588
  20
386283.899487
  30
59.2375304616
  70
32
  0
VERTEX
  8
0
  10
257150.426348
  20
386268.094363
  30
62.129070581
  70
32
  0
VERTEX
  8
0
  10
257195.29549
  20
386255.403437
  30
64.637445921
  70
32
  0
VERTEX
  8
0
  10
257406.522687
  20
386206.190228
  30
63.700621082
  70
32
  0
VERTEX
  8
0
  10
257492.648942
  20
386189.541138
  30
59.1828711241
  70
32
  0
VERTEX
  8
0
  10
257546.52559
  20
386173.716701
  30
62.9037835019
  70
32
  0
VERTEX
  8
0
  10
257547.758766
  20
386179.099637
  30
56.035759277
  70
32
  0
VERTEX
  8
0
  10
257493.882118
  20
386194.924074
  30
52.3148468992
  70
32
  0
VERTEX
  8
0
  10
257489.015047
  20
386196.06972
  30
52.3222956867
  70
32
  0
VERTEX
  8
0
  10
257407.755863
  20
386211.573163
  30
56.8325968571
  70
32
  0
VERTEX
  8
0
  10
257393.100389
  20
386214.9877
  30
56.8975961219
  70
32
  0
SEQEND
  0
POLYLINE
  8
0
  66
1
  70
8
  0
VERTEX
  8
0
  10
257662.760537
  20
386012.494487
  30
224.735575093
  70
32
  0
VERTEX
  8
0
  10
257630.779377
  20
386019.951645
  30
224.870201839
  70
32
  0
VERTEX
  8
0
  10
257624.206406
  20
386035.524587
  30
207.905263665
  70
32
  0
VERTEX
  8
0
  10
257594.487403
  20
386051.284472
  30
197.343406317
  70
32
  0
VERTEX
  8
0
  10
257594.389131
  20
386057.933461
  30
189.324455718
  70
32
  0
VERTEX
  8
0
  10
257620.495257
  20
386051.775633
  30
189.299970565
  70
32
  0
VERTEX
  8
0
  10
257674.00097
  20
386039.159125
  30
189.244651601
  70
32
  0
VERTEX
  8
0
  10
257674.593063
  20
386037.530988
  30
191.045559776
  70
32
  0
VERTEX
  8
0
  10
257673.94766
  20
386023.406471
  30
208.324945347
  70
32
  0
VERTEX
  8
0
  10
257665.947003
  20
386013.780895
  30
222.266023177
  70
32
  0
VERTEX
  8
0
  10
257662.760537
  20
386012.494487
  30
224.735575093
  70
32
  0
SEQEND
  0
POLYLINE
  8
0
  66
1
  70
8
  0
VERTEX
  8
0
  10
257339.325545
  20
386141.135078
  30
161.681324118
  70
32
  0
VERTEX
  8
0
  10
257333.018372
  20
386113.603638
  30
196.808364258
  70
32
  0
VERTEX
  8
0
  10
257309.28315
  20
386108.691791
  30
209.551128115
  70
32
  0
VERTEX
  8
0
  10
257276.443313
  20
386116.636419
  30
209.341720314
  70
32
  0
VERTEX
  8
0
  10
257263.789692
  20
386134.504386
  30
191.34075256
  70
32
  0
VERTEX
  8
0
  10
257230.606715
  20
386143.077106
  30
190.469460422
  70
32
  0
VERTEX
  8
0
  10
257205.648486
  20
386124.37636
  30
220.250853347
  70
32
  0
VERTEX
  8
0
  10
257118.919644
  20
386146.199773
  30
218.678844114
  70
32
  0
VERTEX
  8
0
  10
257070.655388
  20
386157.15393
  30
219.244840753
  70
32
  0
VERTEX
  8
0
  10
257041.732819
  20
386173.113841
  30
208.212786797
  70
32
  0
VERTEX
  8
0
  10
256992.128426
  20
386190.771366
  30
201.049705687
  70
32
  0
VERTEX
  8
0
  10
256956.043847
  20
386194.243973
  30
207.182004739
  70
32
  0
VERTEX
  8
0
  10
256917.985384
  20
386206.085794
  30
203.750609477
  70
32
  0
VERTEX
  8
0
  10
256887.346824
  20
386215.801697
  30
200.76699814
  70
32
  0
VERTEX
  8
0
  10
256838.397478
  20
386228.002766
  30
200.020107774
  70
32
  0
VERTEX
  8
0
  10
256824.094321
  20
386240.751986
  30
188.686675469
  70
32
  0
VERTEX
  8
0
  10
256845.532123
  20
386234.800632
  30
189.749371919
  70
32
  0
VERTEX
  8
0
  10
256945.179063
  20
386211.020565
  30
189.98955252
  70
32
  0
VERTEX
  8
0
  10
256949.240938
  20
386225.844541
  30
170.885106618
  70
32
  0
VERTEX
  8
0
  10
256869.504909
  20
386244.168633
  30
171.54539944
  70
32
  0
VERTEX
  8
0
  10
256848.84678
  20
386248.919536
  30
171.712269022
  70
32
  0
VERTEX
  8
0
  10
256797.186974
  20
386264.736038
  30
167.366027219
  70
32
  0
VERTEX
  8
0
  10
256795.212612
  20
386275.879119
  30
154.445331496
  70
32
  0
VERTEX
  8
0
  10
256795.897624
  20
386280.118812
  30
149.117944895
  70
32
  0
VERTEX
  8
0
  10
256953.192526
  20
386243.093617
  30
148.87721364
  70
32
  0
VERTEX
  8
0
  10
256949.240938
  20
386225.844541
  30
170.885106618
  70
32
  0
VERTEX
  8
0
  10
257112.010014
  20
386187.530797
  30
170.635997439
  70
32
  0
VERTEX
  8
0
  10
257258.443343
  20
386139.826234
  30
186.431124603
  70
32
  0
VERTEX
  8
0
  10
257260.487805
  20
386148.750512
  30
175.044743652
  70
32
  0
VERTEX
  8
0
  10
257301.774843
  20
386139.032074
  30
174.981556094
  70
32
  0
VERTEX
  8
0
  10
257304.153278
  20
386149.414177
  30
161.735153351
  70
32
  0
VERTEX
  8
0
  10
257339.325545
  20
386141.135078
  30
161.681324118
  70
32
  0
SEQEND
  0
ENDSEC
  0
EOF
