  999
DXF Polyline File Exported from Leapfrog Geo
  0
SECTION
  2
ENTITIES
  0
POLYLINE
  8
0
  66
1
  70
8
  0
VERTEX
  8
0
  10
257352.269176
  20
386152.413546
  30
144.324061568
  70
32
  0
VERTEX
  8
0
  10
257356.049949
  20
386168.916998
  30
123.267500861
  70
32
  0
VERTEX
  8
0
  10
257376.891682
  20
386163.499053
  30
123.855347926
  70
32
  0
VERTEX
  8
0
  10
257373.166792
  20
386147.494516
  30
144.292078908
  70
32
  0
VERTEX
  8
0
  10
257352.269176
  20
386152.413546
  30
144.324061568
  70
32
  0
SEQEND
  0
POLYLINE
  8
0
  66
1
  70
8
  0
VERTEX
  8
0
  10
257260.487805
  20
386148.750512
  30
175.044743652
  70
32
  0
VERTEX
  8
0
  10
257262.866239
  20
386159.132615
  30
161.798340909
  70
32
  0
VERTEX
  8
0
  10
257304.153278
  20
386149.414177
  30
161.735153351
  70
32
  0
VERTEX
  8
0
  10
257301.774843
  20
386139.032074
  30
174.981556094
  70
32
  0
VERTEX
  8
0
  10
257260.487805
  20
386148.750512
  30
175.044743652
  70
32
  0
SEQEND
  0
POLYLINE
  8
0
  66
1
  70
8
  0
VERTEX
  8
0
  10
257403.932351
  20
386140.2527
  30
144.2449939
  70
32
  0
VERTEX
  8
0
  10
257407.65306
  20
386156.390877
  30
123.647718701
  70
32
  0
VERTEX
  8
0
  10
257447.603558
  20
386147.168951
  30
123.366420491
  70
32
  0
VERTEX
  8
0
  10
257443.00056
  20
386131.056546
  30
144.18520214
  70
32
  0
VERTEX
  8
0
  10
257403.932351
  20
386140.2527
  30
144.2449939
  70
32
  0
SEQEND
  0
POLYLINE
  8
0
  66
1
  70
8
  0
VERTEX
  8
0
  10
257490.041659
  20
386178.160086
  30
73.7038226171
  70
32
  0
VERTEX
  8
0
  10
257492.648942
  20
386189.541138
  30
59.1828711241
  70
32
  0
VERTEX
  8
0
  10
257546.52559
  20
386173.716701
  30
62.9037835019
  70
32
  0
VERTEX
  8
0
  10
257544.601401
  20
386165.317425
  30
73.6203219119
  70
32
  0
VERTEX
  8
0
  10
257490.041659
  20
386178.160086
  30
73.7038226171
  70
32
  0
SEQEND
  0
POLYLINE
  8
0
  66
1
  70
8
  0
VERTEX
  8
0
  10
257570.933279
  20
386063.463838
  30
189.34925386
  70
32
  0
VERTEX
  8
0
  10
257581.769117
  20
386110.763355
  30
129.000356591
  70
32
  0
VERTEX
  8
0
  10
257681.053281
  20
386087.393141
  30
128.848407602
  70
32
  0
VERTEX
  8
0
  10
257674.00097
  20
386039.159125
  30
189.244651601
  70
32
  0
VERTEX
  8
0
  10
257570.933279
  20
386063.463838
  30
189.34925386
  70
32
  0
SEQEND
  0
POLYLINE
  8
0
  66
1
  70
8
  0
VERTEX
  8
0
  10
257493.882118
  20
386194.924074
  30
52.3148468992
  70
32
  0
VERTEX
  8
0
  10
257499.765167
  20
386220.604168
  30
19.5499169258
  70
32
  0
VERTEX
  8
0
  10
257554.324909
  20
386207.761508
  30
19.4664162206
  70
32
  0
VERTEX
  8
0
  10
257547.758766
  20
386179.099637
  30
56.035759277
  70
32
  0
VERTEX
  8
0
  10
257493.882118
  20
386194.924074
  30
52.3148468992
  70
32
  0
SEQEND
  0
POLYLINE
  8
0
  66
1
  70
8
  0
VERTEX
  8
0
  10
256849.809649
  20
386314.527773
  30
92.0325571963
  70
32
  0
VERTEX
  8
0
  10
256839.571786
  20
386269.838477
  30
149.051103977
  70
32
  0
VERTEX
  8
0
  10
256795.897624
  20
386280.118812
  30
149.117944895
  70
32
  0
VERTEX
  8
0
  10
256803.765249
  20
386326.512077
  30
90.7159969153
  70
32
  0
VERTEX
  8
0
  10
256849.809649
  20
386314.527773
  30
92.0325571963
  70
32
  0
SEQEND
  0
POLYLINE
  8
0
  66
1
  70
8
  0
VERTEX
  8
0
  10
257157.297568
  20
386298.087926
  30
23.8606360998
  70
32
  0
VERTEX
  8
0
  10
257151.790209
  20
386273.440335
  30
55.2683522111
  70
32
  0
VERTEX
  8
0
  10
257094.968764
  20
386289.282423
  30
52.3695062367
  70
32
  0
VERTEX
  8
0
  10
257100.071898
  20
386311.558112
  30
23.9482168628
  70
32
  0
VERTEX
  8
0
  10
257157.297568
  20
386298.087926
  30
23.8606360998
  70
32
  0
SEQEND
  0
POLYLINE
  8
0
  66
1
  70
8
  0
VERTEX
  8
0
  10
257093.735588
  20
386283.899487
  30
59.2375304616
  70
32
  0
VERTEX
  8
0
  10
257150.426348
  20
386268.094363
  30
62.129070581
  70
32
  0
VERTEX
  8
0
  10
257144.004424
  20
386240.062023
  30
97.8952023533
  70
32
  0
VERTEX
  8
0
  10
257086.778754
  20
386253.532209
  30
97.9827831163
  70
32
  0
VERTEX
  8
0
  10
257093.735588
  20
386283.899487
  30
59.2375304616
  70
32
  0
SEQEND
  0
POLYLINE
  8
0
  66
1
  70
8
  0
VERTEX
  8
0
  10
256848.84678
  20
386248.919536
  30
171.712269022
  70
32
  0
VERTEX
  8
0
  10
256949.237485
  20
386225.831941
  30
170.901345844
  70
32
  0
VERTEX
  8
0
  10
256945.179063
  20
386211.020565
  30
189.98955252
  70
32
  0
VERTEX
  8
0
  10
256845.520045
  20
386234.749189
  30
189.815090445
  70
32
  0
VERTEX
  8
0
  10
256824.094321
  20
386240.751986
  30
188.686675469
  70
32
  0
VERTEX
  8
0
  10
256797.186974
  20
386264.736038
  30
167.366027219
  70
32
  0
VERTEX
  8
0
  10
256848.84678
  20
386248.919536
  30
171.712269022
  70
32
  0
SEQEND
  0
POLYLINE
  8
0
  66
1
  70
8
  0
VERTEX
  8
0
  10
257713.172495
  20
386316.551642
  30
-157.695503633
  70
32
  0
VERTEX
  8
0
  10
257712.96144
  20
386301.590593
  30
-139.528089152
  70
32
  0
VERTEX
  8
0
  10
257690.525526
  20
386305.794735
  30
-138.190307284
  70
32
  0
VERTEX
  8
0
  10
257693.888343
  20
386318.880189
  30
-154.990445086
  70
32
  0
VERTEX
  8
0
  10
257683.753153
  20
386323.096887
  30
-157.190951529
  70
32
  0
VERTEX
  8
0
  10
257681.818546
  20
386335.822699
  30
-172.038571539
  70
32
  0
VERTEX
  8
0
  10
257713.172495
  20
386316.551642
  30
-157.695503633
  70
32
  0
SEQEND
  0
POLYLINE
  8
0
  66
1
  70
8
  0
VERTEX
  8
0
  10
256825.534676
  20
386361.60063
  30
42.0141859386
  70
32
  0
VERTEX
  8
0
  10
256836.538102
  20
386358.070941
  30
43.1345472679
  70
32
  0
VERTEX
  8
0
  10
256815.076483
  20
386337.231627
  30
74.5027176385
  70
32
  0
VERTEX
  8
0
  10
256804.942713
  20
386339.75321
  30
74.3533585318
  70
32
  0
VERTEX
  8
0
  10
256804.747319
  20
386366.563778
  30
41.9611931506
  70
32
  0
VERTEX
  8
0
  10
256825.534676
  20
386361.60063
  30
42.0141859386
  70
32
  0
SEQEND
  0
POLYLINE
  8
0
  66
1
  70
8
  0
VERTEX
  8
0
  10
257089.182723
  20
386396.16994
  30
-75.3364607714
  70
32
  0
VERTEX
  8
0
  10
257080.041638
  20
386356.268191
  30
-24.4262888481
  70
32
  0
VERTEX
  8
0
  10
257054.357548
  20
386362.313895
  30
-24.3869807505
  70
32
  0
VERTEX
  8
0
  10
257056.587949
  20
386372.049819
  30
-36.8089314525
  70
32
  0
VERTEX
  8
0
  10
257041.198881
  20
386375.672207
  30
-36.7853793243
  70
32
  0
VERTEX
  8
0
  10
257089.182723
  20
386396.16994
  30
-75.3364607714
  70
32
  0
SEQEND
  0
POLYLINE
  8
0
  66
1
  70
8
  0
VERTEX
  8
0
  10
257383.985582
  20
386402.596607
  30
-167.549955058
  70
32
  0
VERTEX
  8
0
  10
257384.252778
  20
386417.159541
  30
-185.251621683
  70
32
  0
VERTEX
  8
0
  10
257422.213218
  20
386408.350387
  30
-185.462509858
  70
32
  0
VERTEX
  8
0
  10
257408.667217
  20
386349.220741
  30
-110.019690013
  70
32
  0
VERTEX
  8
0
  10
257377.086015
  20
386356.53284
  30
-109.824055259
  70
32
  0
VERTEX
  8
0
  10
257367.379145
  20
386314.810825
  30
-56.5488149032
  70
32
  0
VERTEX
  8
0
  10
257393.994355
  20
386308.505239
  30
-56.5402798947
  70
32
  0
VERTEX
  8
0
  10
257393.594507
  20
386302.953934
  30
-49.7071586018
  70
32
  0
VERTEX
  8
0
  10
257308.543098
  20
386322.973941
  30
-49.5769920653
  70
32
  0
VERTEX
  8
0
  10
257329.713397
  20
386415.384412
  30
-167.482424951
  70
32
  0
VERTEX
  8
0
  10
257343.899081
  20
386412.162946
  30
-167.64653711
  70
32
  0
VERTEX
  8
0
  10
257345.415993
  20
386393.053196
  30
-144.952970397
  70
32
  0
VERTEX
  8
0
  10
257344.359215
  20
386381.915661
  30
-131.170827496
  70
32
  0
VERTEX
  8
0
  10
257384.913739
  20
386371.775353
  30
-130.513634668
  70
32
  0
VERTEX
  8
0
  10
257385.989413
  20
386397.795088
  30
-162.312726937
  70
32
  0
VERTEX
  8
0
  10
257383.985582
  20
386402.596607
  30
-167.549955058
  70
32
  0
SEQEND
  0
POLYLINE
  8
0
  66
1
  70
8
  0
VERTEX
  8
0
  10
257447.611357
  20
386413.931225
  30
-199.491217129
  70
32
  0
VERTEX
  8
0
  10
257510.127391
  20
386398.725287
  30
-198.993293895
  70
32
  0
VERTEX
  8
0
  10
257507.71015
  20
386388.22551
  30
-185.593358243
  70
32
  0
VERTEX
  8
0
  10
257445.098747
  20
386402.963429
  30
-185.49753491
  70
32
  0
VERTEX
  8
0
  10
257447.611357
  20
386413.931225
  30
-199.491217129
  70
32
  0
SEQEND
  0
ENDSEC
  0
EOF
