  999
DXF Polyline File Exported from Leapfrog Geo
  0
SECTION
  2
ENTITIES
  0
POLYLINE
  8
0
  66
1
  70
8
  0
VERTEX
  8
0
  10
257079.024846
  20
386248.973115
  30
105.721358484
  70
32
  0
VERTEX
  8
0
  10
257142.229523
  20
386232.314403
  30
107.780299651
  70
32
  0
VERTEX
  8
0
  10
257194.061377
  20
386218.746776
  30
109.355509964
  70
32
  0
VERTEX
  8
0
  10
257112.010014
  20
386187.530797
  30
170.635997439
  70
32
  0
VERTEX
  8
0
  10
257022.417077
  20
386208.619821
  30
170.773114535
  70
32
  0
VERTEX
  8
0
  10
256993.939173
  20
386273.91959
  30
99.8989629173
  70
32
  0
VERTEX
  8
0
  10
257028.29126
  20
386262.717355
  30
103.617838437
  70
32
  0
VERTEX
  8
0
  10
257079.024846
  20
386248.973115
  30
105.721358484
  70
32
  0
SEQEND
  0
POLYLINE
  8
0
  66
1
  70
8
  0
VERTEX
  8
0
  10
257681.053281
  20
386087.393141
  30
128.848407602
  70
32
  0
VERTEX
  8
0
  10
257581.769117
  20
386110.763355
  30
129.000356591
  70
32
  0
VERTEX
  8
0
  10
257589.029941
  20
386142.45758
  30
88.5620684545
  70
32
  0
VERTEX
  8
0
  10
257633.896515
  20
386132.427755
  30
87.850518399
  70
32
  0
VERTEX
  8
0
  10
257662.949832
  20
386126.425599
  30
86.7935128574
  70
32
  0
VERTEX
  8
0
  10
257683.05982
  20
386096.025408
  30
117.826300828
  70
32
  0
VERTEX
  8
0
  10
257681.053281
  20
386087.393141
  30
128.848407602
  70
32
  0
SEQEND
  0
POLYLINE
  8
0
  66
1
  70
8
  0
VERTEX
  8
0
  10
257308.543098
  20
386322.973941
  30
-49.5769920653
  70
32
  0
VERTEX
  8
0
  10
257198.930977
  20
386348.775223
  30
-49.4092367014
  70
32
  0
VERTEX
  8
0
  10
257185.782964
  20
386291.382831
  30
23.8170407576
  70
32
  0
VERTEX
  8
0
  10
257100.071898
  20
386311.558112
  30
23.9482168628
  70
32
  0
VERTEX
  8
0
  10
257094.968764
  20
386289.282423
  30
52.3695062367
  70
32
  0
VERTEX
  8
0
  10
257009.883632
  20
386314.90432
  30
45.7295096477
  70
32
  0
VERTEX
  8
0
  10
256934.092354
  20
386343.681712
  30
32.6086172756
  70
32
  0
VERTEX
  8
0
  10
256988.803038
  20
386388.005514
  30
-36.7051903492
  70
32
  0
VERTEX
  8
0
  10
257056.587949
  20
386372.049819
  30
-36.8089314525
  70
32
  0
VERTEX
  8
0
  10
257054.357548
  20
386362.313895
  30
-24.3869807505
  70
32
  0
VERTEX
  8
0
  10
257080.041638
  20
386356.268191
  30
-24.4262888481
  70
32
  0
VERTEX
  8
0
  10
257089.182723
  20
386396.16994
  30
-75.3364607714
  70
32
  0
VERTEX
  8
0
  10
257138.968834
  20
386416.738247
  30
-114.489150568
  70
32
  0
VERTEX
  8
0
  10
257186.172451
  20
386415.966001
  30
-127.074265924
  70
32
  0
VERTEX
  8
0
  10
257225.581297
  20
386429.768518
  30
-155.066310744
  70
32
  0
VERTEX
  8
0
  10
257256.47492
  20
386422.622417
  30
-155.265916025
  70
32
  0
VERTEX
  8
0
  10
257333.824879
  20
386433.331443
  30
-190.380829687
  70
32
  0
VERTEX
  8
0
  10
257308.543098
  20
386322.973941
  30
-49.5769920653
  70
32
  0
SEQEND
  0
POLYLINE
  8
0
  66
1
  70
8
  0
VERTEX
  8
0
  10
256901.882215
  20
386361.590658
  30
20.1593016607
  70
32
  0
VERTEX
  8
0
  10
256878.373773
  20
386360.051316
  30
28.7554577358
  70
32
  0
VERTEX
  8
0
  10
256862.285982
  20
386365.424892
  30
26.8597171785
  70
32
  0
VERTEX
  8
0
  10
256861.814127
  20
386378.172093
  30
11.5672586015
  70
32
  0
VERTEX
  8
0
  10
256903.56921
  20
386368.95456
  30
10.7637851423
  70
32
  0
VERTEX
  8
0
  10
256901.882215
  20
386361.590658
  30
20.1593016607
  70
32
  0
SEQEND
  0
POLYLINE
  8
0
  66
1
  70
8
  0
VERTEX
  8
0
  10
257143.451597
  20
386434.947377
  30
-137.811107968
  70
32
  0
VERTEX
  8
0
  10
257040.71544
  20
386394.009744
  30
-58.8403562719
  70
32
  0
VERTEX
  8
0
  10
257001.082944
  20
386403.338723
  30
-58.7797009014
  70
32
  0
VERTEX
  8
0
  10
257013.944049
  20
386459.478735
  30
-130.408080595
  70
32
  0
VERTEX
  8
0
  10
257031.949915
  20
386455.14726
  30
-130.322930236
  70
32
  0
VERTEX
  8
0
  10
257034.279068
  20
386526.810642
  30
-217.722347495
  70
32
  0
VERTEX
  8
0
  10
257063.367367
  20
386520.767936
  30
-218.740294314
  70
32
  0
VERTEX
  8
0
  10
257172.56887
  20
386491.04913
  30
-214.049166201
  70
32
  0
VERTEX
  8
0
  10
257264.69645
  20
386474.203299
  30
-220.047665303
  70
32
  0
VERTEX
  8
0
  10
257331.50103
  20
386459.035442
  30
-220.824126149
  70
32
  0
VERTEX
  8
0
  10
257356.419716
  20
386452.270843
  30
-219.774152199
  70
32
  0
VERTEX
  8
0
  10
257346.381814
  20
386448.649018
  30
-212.515763704
  70
32
  0
VERTEX
  8
0
  10
257248.82639
  20
386443.241321
  30
-178.029796016
  70
32
  0
VERTEX
  8
0
  10
257220.255865
  20
386449.966455
  30
-177.986070389
  70
32
  0
VERTEX
  8
0
  10
257160.073359
  20
386431.034829
  30
-137.836546667
  70
32
  0
VERTEX
  8
0
  10
257143.451597
  20
386434.947377
  30
-137.811107968
  70
32
  0
SEQEND
  0
POLYLINE
  8
0
  66
1
  70
8
  0
VERTEX
  8
0
  10
257553.874434
  20
386285.82496
  30
-74.8827163826
  70
32
  0
VERTEX
  8
0
  10
257521.541024
  20
386277.86489
  30
-55.9881325835
  70
32
  0
VERTEX
  8
0
  10
257521.360268
  20
386272.879519
  30
-49.9026971194
  70
32
  0
VERTEX
  8
0
  10
257397.839075
  20
386301.954817
  30
-49.7136546807
  70
32
  0
VERTEX
  8
0
  10
257408.480792
  20
386349.263905
  30
-110.018535172
  70
32
  0
VERTEX
  8
0
  10
257422.185776
  20
386408.230601
  30
-185.309676065
  70
32
  0
VERTEX
  8
0
  10
257507.71015
  20
386388.22551
  30
-185.593358243
  70
32
  0
VERTEX
  8
0
  10
257617.613192
  20
386362.355749
  30
-185.761558846
  70
32
  0
VERTEX
  8
0
  10
257630.145725
  20
386331.045803
  30
-151.457433744
  70
32
  0
VERTEX
  8
0
  10
257631.423097
  20
386311.850254
  30
-128.591419987
  70
32
  0
VERTEX
  8
0
  10
257627.847478
  20
386312.956134
  30
-128.905732343
  70
32
  0
VERTEX
  8
0
  10
257603.382704
  20
386302.690339
  30
-109.47427248
  70
32
  0
VERTEX
  8
0
  10
257553.874434
  20
386285.82496
  30
-74.8827163826
  70
32
  0
SEQEND
  0
POLYLINE
  8
0
  66
1
  70
8
  0
VERTEX
  8
0
  10
257406.309005
  20
386470.271641
  30
-255.849005454
  70
32
  0
VERTEX
  8
0
  10
257385.152508
  20
386462.638062
  30
-240.550781799
  70
32
  0
VERTEX
  8
0
  10
257384.441081
  20
386490.719124
  30
-274.332793741
  70
32
  0
VERTEX
  8
0
  10
257439.249886
  20
386476.567615
  30
-272.903564514
  70
32
  0
VERTEX
  8
0
  10
257406.309005
  20
386470.271641
  30
-255.849005454
  70
32
  0
SEQEND
  0
ENDSEC
  0
EOF
