  999
DXF Polyline File Exported from Leapfrog Geo
  0
SECTION
  2
ENTITIES
  0
POLYLINE
  8
0
  66
1
  70
8
  0
VERTEX
  8
0
  10
257001.082944
  20
386403.338723
  30
-58.7797009014
  70
32
  0
VERTEX
  8
0
  10
256991.383303
  20
386405.621894
  30
-58.7648561319
  70
32
  0
VERTEX
  8
0
  10
256983.0016
  20
386399.270661
  30
-48.6774933377
  70
32
  0
VERTEX
  8
0
  10
256953.885387
  20
386406.124242
  30
-48.632932565
  70
32
  0
VERTEX
  8
0
  10
256953.920165
  20
386416.917553
  30
-61.7057547113
  70
32
  0
VERTEX
  8
0
  10
256975.970082
  20
386429.879135
  30
-83.7082085108
  70
32
  0
VERTEX
  8
0
  10
256977.131459
  20
386455.38636
  30
-114.911569288
  70
32
  0
VERTEX
  8
0
  10
256962.222134
  20
386461.722865
  30
-118.310246821
  70
32
  0
VERTEX
  8
0
  10
256940.437495
  20
386475.204348
  30
-128.38712153
  70
32
  0
VERTEX
  8
0
  10
256940.660006
  20
386477.941172
  30
-131.763159197
  70
32
  0
VERTEX
  8
0
  10
256985.675027
  20
386467.274435
  30
-131.746388007
  70
32
  0
VERTEX
  8
0
  10
257013.900678
  20
386459.289416
  30
-130.166531085
  70
32
  0
VERTEX
  8
0
  10
257001.082944
  20
386403.338723
  30
-58.7797009014
  70
32
  0
SEQEND
  0
POLYLINE
  8
0
  66
1
  70
8
  0
VERTEX
  8
0
  10
257646.875445
  20
386364.880403
  30
-197.198180031
  70
32
  0
VERTEX
  8
0
  10
257666.431578
  20
386359.320321
  30
-196.070095475
  70
32
  0
VERTEX
  8
0
  10
257710.974098
  20
386337.323994
  30
-182.206087962
  70
32
  0
VERTEX
  8
0
  10
257713.172495
  20
386316.551642
  30
-157.695503633
  70
32
  0
VERTEX
  8
0
  10
257681.818546
  20
386335.822699
  30
-172.038571539
  70
32
  0
VERTEX
  8
0
  10
257662.701709
  20
386344.012844
  30
-176.47557293
  70
32
  0
VERTEX
  8
0
  10
257646.875445
  20
386364.880403
  30
-197.198180031
  70
32
  0
SEQEND
  0
POLYLINE
  8
0
  66
1
  70
8
  0
VERTEX
  8
0
  10
257112.010014
  20
386187.530797
  30
170.635997439
  70
32
  0
VERTEX
  8
0
  10
256949.240938
  20
386225.844541
  30
170.885106618
  70
32
  0
VERTEX
  8
0
  10
256953.192526
  20
386243.093617
  30
148.87721364
  70
32
  0
VERTEX
  8
0
  10
256839.571786
  20
386269.838477
  30
149.051103977
  70
32
  0
VERTEX
  8
0
  10
256849.809649
  20
386314.527773
  30
92.0325571963
  70
32
  0
VERTEX
  8
0
  10
256874.641076
  20
386336.731685
  30
58.0476909313
  70
32
  0
VERTEX
  8
0
  10
256922.309801
  20
386342.304298
  30
37.6503463572
  70
32
  0
VERTEX
  8
0
  10
257008.650456
  20
386309.521385
  30
52.5975338726
  70
32
  0
VERTEX
  8
0
  10
257093.735588
  20
386283.899487
  30
59.2375304616
  70
32
  0
VERTEX
  8
0
  10
257088.905997
  20
386262.817839
  30
86.13535714
  70
32
  0
VERTEX
  8
0
  10
257086.778754
  20
386253.532209
  30
97.9827831163
  70
32
  0
VERTEX
  8
0
  10
257143.590898
  20
386240.159362
  30
97.8958352319
  70
32
  0
VERTEX
  8
0
  10
257150.426348
  20
386268.094363
  30
62.129070581
  70
32
  0
VERTEX
  8
0
  10
257195.29549
  20
386255.403437
  30
64.637445921
  70
32
  0
VERTEX
  8
0
  10
257406.522687
  20
386206.190228
  30
63.700621082
  70
32
  0
VERTEX
  8
0
  10
257492.648942
  20
386189.541138
  30
59.1828711241
  70
32
  0
VERTEX
  8
0
  10
257490.092463
  20
386178.381849
  30
73.4208766802
  70
32
  0
SEQEND
  0
POLYLINE
  8
0
  66
1
  70
8
  0
VERTEX
  8
0
  10
257151.657258
  20
386273.467406
  30
55.2736671012
  70
32
  0
VERTEX
  8
0
  10
257157.297568
  20
386298.087926
  30
23.8606360998
  70
32
  0
VERTEX
  8
0
  10
257185.782964
  20
386291.382831
  30
23.8170407576
  70
32
  0
VERTEX
  8
0
  10
257198.930977
  20
386348.775223
  30
-49.4092367014
  70
32
  0
VERTEX
  8
0
  10
257521.360268
  20
386272.879519
  30
-49.9026971194
  70
32
  0
VERTEX
  8
0
  10
257541.594388
  20
386236.645563
  30
-11.845009385
  70
32
  0
VERTEX
  8
0
  10
257540.883631
  20
386225.59216
  30
1.73620549183
  70
32
  0
VERTEX
  8
0
  10
257512.610314
  20
386217.580586
  30
19.5302581295
  70
32
  0
VERTEX
  8
0
  10
257499.765167
  20
386220.604168
  30
19.5499169258
  70
32
  0
VERTEX
  8
0
  10
257493.882118
  20
386194.924074
  30
52.3148468992
  70
32
  0
VERTEX
  8
0
  10
257407.755863
  20
386211.573163
  30
56.8325968571
  70
32
  0
VERTEX
  8
0
  10
257354.194946
  20
386223.585116
  30
57.6354056324
  70
32
  0
VERTEX
  8
0
  10
257196.528666
  20
386260.786372
  30
57.7694216962
  70
32
  0
VERTEX
  8
0
  10
257151.657258
  20
386273.467406
  30
55.2736671012
  70
32
  0
SEQEND
  0
POLYLINE
  8
0
  66
1
  70
8
  0
VERTEX
  8
0
  10
257490.092463
  20
386178.381849
  30
73.4208766802
  70
32
  0
VERTEX
  8
0
  10
257490.041659
  20
386178.160086
  30
73.7038226171
  70
32
  0
VERTEX
  8
0
  10
257544.601401
  20
386165.317425
  30
73.6203219119
  70
32
  0
VERTEX
  8
0
  10
257542.089366
  20
386155.821252
  30
85.8327713258
  70
32
  0
VERTEX
  8
0
  10
257589.029941
  20
386142.45758
  30
88.5620684545
  70
32
  0
VERTEX
  8
0
  10
257570.933279
  20
386063.463838
  30
189.34925386
  70
32
  0
VERTEX
  8
0
  10
257388.935944
  20
386106.303667
  30
189.62779084
  70
32
  0
VERTEX
  8
0
  10
257371.664917
  20
386121.625143
  30
176.031261593
  70
32
  0
VERTEX
  8
0
  10
257333.021535
  20
386113.617445
  30
196.790748437
  70
32
  0
VERTEX
  8
0
  10
257339.325545
  20
386141.135078
  30
161.681324118
  70
32
  0
VERTEX
  8
0
  10
257262.866239
  20
386159.132615
  30
161.798340909
  70
32
  0
VERTEX
  8
0
  10
257258.443343
  20
386139.826234
  30
186.431124603
  70
32
  0
VERTEX
  8
0
  10
257112.010014
  20
386187.530797
  30
170.635997439
  70
32
  0
SEQEND
  0
ENDSEC
  0
EOF
