  999
DXF Polyline File Exported from Leapfrog Geo
  0
SECTION
  2
ENTITIES
  0
POLYLINE
  8
0
  66
1
  70
8
  0
VERTEX
  8
0
  10
256944.145451
  20
386210.8874
  30
88.6952715505
  70
32
  0
VERTEX
  8
0
  10
256775.986503
  20
386264.958777
  30
66.6013860877
  70
32
  0
VERTEX
  8
0
  10
256742.615356
  20
386276.086472
  30
61.6344193946
  70
32
  0
VERTEX
  8
0
  10
256752.699208
  20
386305.993158
  30
14.354564913
  70
32
  0
VERTEX
  8
0
  10
256808.645474
  20
386290.210522
  30
18.4694025072
  70
32
  0
VERTEX
  8
0
  10
256813.237386
  20
386279.613667
  30
32.4453522382
  70
32
  0
VERTEX
  8
0
  10
256860.397851
  20
386263.098623
  30
40.6219792449
  70
32
  0
VERTEX
  8
0
  10
256863.223418
  20
386279.158389
  30
16.1135113323
  70
32
  0
VERTEX
  8
0
  10
256927.272564
  20
386265.718732
  30
14.037318967
  70
32
  0
VERTEX
  8
0
  10
256942.270585
  20
386262.241577
  30
14.0351087755
  70
32
  0
VERTEX
  8
0
  10
257025.711079
  20
386242.172089
  30
15.0852046969
  70
32
  0
VERTEX
  8
0
  10
257033.606615
  20
386232.622763
  30
26.4017146758
  70
32
  0
VERTEX
  8
0
  10
257035.548488
  20
386218.417377
  30
46.5698846379
  70
32
  0
VERTEX
  8
0
  10
257042.657557
  20
386207.262357
  30
60.5081969818
  70
32
  0
VERTEX
  8
0
  10
257057.364787
  20
386189.325384
  30
81.806507886
  70
32
  0
VERTEX
  8
0
  10
257056.572901
  20
386182.038738
  30
92.7598177601
  70
32
  0
VERTEX
  8
0
  10
257032.422272
  20
386187.630477
  30
92.774175098
  70
32
  0
VERTEX
  8
0
  10
257031.181318
  20
386182.213588
  30
101.138685401
  70
32
  0
VERTEX
  8
0
  10
256962.190326
  20
386202.653712
  30
94.6311193251
  70
32
  0
VERTEX
  8
0
  10
256943.266302
  20
386207.049827
  30
94.6210753777
  70
32
  0
VERTEX
  8
0
  10
256944.145451
  20
386210.8874
  30
88.6952715505
  70
32
  0
SEQEND
  0
POLYLINE
  8
0
  66
1
  70
8
  0
VERTEX
  8
0
  10
257031.496376
  20
386156.202141
  30
139.170677076
  70
32
  0
VERTEX
  8
0
  10
257031.530046
  20
386148.751865
  30
150.083151466
  70
32
  0
VERTEX
  8
0
  10
257016.564916
  20
386139.920084
  30
168.122084583
  70
32
  0
VERTEX
  8
0
  10
257008.98071
  20
386139.270859
  30
171.65326527
  70
32
  0
VERTEX
  8
0
  10
256980.690456
  20
386144.388352
  30
173.770798797
  70
32
  0
VERTEX
  8
0
  10
256980.90081
  20
386140.006165
  30
180.124618128
  70
32
  0
VERTEX
  8
0
  10
256975.332312
  20
386141.776118
  30
179.423184958
  70
32
  0
VERTEX
  8
0
  10
256958.19718
  20
386146.615656
  30
178.154603305
  70
32
  0
VERTEX
  8
0
  10
256964.265281
  20
386173.103522
  30
137.253261604
  70
32
  0
VERTEX
  8
0
  10
256936.939004
  20
386179.430539
  30
137.269506837
  70
32
  0
VERTEX
  8
0
  10
256942.872784
  20
386205.332081
  30
97.2735392578
  70
32
  0
VERTEX
  8
0
  10
256961.796808
  20
386200.935966
  30
97.2835832053
  70
32
  0
VERTEX
  8
0
  10
257030.7878
  20
386180.495842
  30
103.791149281
  70
32
  0
VERTEX
  8
0
  10
257027.514494
  20
386166.207534
  30
125.854495446
  70
32
  0
VERTEX
  8
0
  10
257031.55625
  20
386165.271722
  30
125.852092657
  70
32
  0
VERTEX
  8
0
  10
257031.496376
  20
386156.202141
  30
139.170677076
  70
32
  0
SEQEND
  0
POLYLINE
  8
0
  66
1
  70
8
  0
VERTEX
  8
0
  10
256861.607963
  20
386239.574138
  30
74.7030837164
  70
32
  0
VERTEX
  8
0
  10
256865.523332
  20
386256.665115
  30
48.311985163
  70
32
  0
VERTEX
  8
0
  10
256893.11289
  20
386250.27714
  30
48.2955834116
  70
32
  0
VERTEX
  8
0
  10
256889.197521
  20
386233.186163
  30
74.686681965
  70
32
  0
VERTEX
  8
0
  10
256861.607963
  20
386239.574138
  30
74.7030837164
  70
32
  0
SEQEND
  0
ENDSEC
  0
EOF
