  999
DXF Polyline File Exported from Leapfrog Geo
  0
SECTION
  2
ENTITIES
  0
POLYLINE
  8
0
  66
1
  70
8
  0
VERTEX
  8
0
  10
257348.06213
  20
386055.164728
  30
50.9188971356
  70
32
  0
VERTEX
  8
0
  10
257348.679235
  20
386062.975823
  30
39.1808771757
  70
32
  0
VERTEX
  8
0
  10
257374.556443
  20
386056.421789
  30
39.0287807529
  70
32
  0
VERTEX
  8
0
  10
257369.216106
  20
386054.162986
  30
44.3790091803
  70
32
  0
VERTEX
  8
0
  10
257350.186773
  20
386038.656956
  30
74.426550593
  70
32
  0
VERTEX
  8
0
  10
257339.437957
  20
386032.430905
  30
87.6690249191
  70
32
  0
VERTEX
  8
0
  10
257274.752049
  20
386045.574866
  30
92.8201041052
  70
32
  0
VERTEX
  8
0
  10
257207.82538
  20
386076.090628
  30
73.234983117
  70
32
  0
VERTEX
  8
0
  10
257209.22282
  20
386081.572234
  30
64.632170739
  70
32
  0
VERTEX
  8
0
  10
257254.448442
  20
386069.766213
  30
64.8840859261
  70
32
  0
VERTEX
  8
0
  10
257301.169857
  20
386056.441412
  30
66.8061068324
  70
32
  0
VERTEX
  8
0
  10
257309.401749
  20
386061.068012
  30
56.8729707537
  70
32
  0
VERTEX
  8
0
  10
257317.452346
  20
386063.501837
  30
50.2380519556
  70
32
  0
VERTEX
  8
0
  10
257348.06213
  20
386055.164728
  30
50.9188971356
  70
32
  0
SEQEND
  0
POLYLINE
  8
0
  66
1
  70
8
  0
VERTEX
  8
0
  10
256818.083746
  20
386136.552186
  30
131.860434204
  70
32
  0
VERTEX
  8
0
  10
256810.83039
  20
386130.932501
  30
142.885420704
  70
32
  0
VERTEX
  8
0
  10
256803.607128
  20
386127.658138
  30
150.444808208
  70
32
  0
VERTEX
  8
0
  10
256803.304077
  20
386112.608822
  30
172.72429895
  70
32
  0
VERTEX
  8
0
  10
256723.694511
  20
386132.489888
  30
173.607540363
  70
32
  0
VERTEX
  8
0
  10
256701.838472
  20
386169.913441
  30
126.771317978
  70
32
  0
VERTEX
  8
0
  10
256701.786426
  20
386173.509654
  30
121.494528092
  70
32
  0
VERTEX
  8
0
  10
256752.785107
  20
386161.527625
  30
119.818251811
  70
32
  0
VERTEX
  8
0
  10
256760.238682
  20
386164.483072
  30
112.641297421
  70
32
  0
VERTEX
  8
0
  10
256775.120039
  20
386165.667423
  30
105.258427478
  70
32
  0
VERTEX
  8
0
  10
256782.474207
  20
386163.886007
  30
105.095601671
  70
32
  0
VERTEX
  8
0
  10
256804.090978
  20
386156.532913
  30
107.734644759
  70
32
  0
VERTEX
  8
0
  10
256811.243321
  20
386152.494995
  30
110.971672813
  70
32
  0
VERTEX
  8
0
  10
256818.27308
  20
386138.821373
  30
128.44663239
  70
32
  0
VERTEX
  8
0
  10
256818.083746
  20
386136.552186
  30
131.860434204
  70
32
  0
SEQEND
  0
POLYLINE
  8
0
  66
1
  70
8
  0
VERTEX
  8
0
  10
257428.070317
  20
386099.954832
  30
-45.3632209373
  70
32
  0
VERTEX
  8
0
  10
257386.804954
  20
386110.500613
  30
-45.259596873
  70
32
  0
VERTEX
  8
0
  10
257338.788694
  20
386182.98593
  30
-133.822735667
  70
32
  0
VERTEX
  8
0
  10
257418.949151
  20
386160.136458
  30
-130.542834495
  70
32
  0
VERTEX
  8
0
  10
257430.549482
  20
386099.339937
  30
-45.3969594798
  70
32
  0
VERTEX
  8
0
  10
257428.070317
  20
386099.954832
  30
-45.3632209373
  70
32
  0
SEQEND
  0
POLYLINE
  8
0
  66
1
  70
8
  0
VERTEX
  8
0
  10
256987.204142
  20
386123.10223
  30
87.589728225
  70
32
  0
VERTEX
  8
0
  10
256979.514867
  20
386097.727163
  30
127.87565358
  70
32
  0
VERTEX
  8
0
  10
256950.769147
  20
386099.334252
  30
136.400501889
  70
32
  0
VERTEX
  8
0
  10
256928.143505
  20
386105.250291
  30
136.260217761
  70
32
  0
VERTEX
  8
0
  10
256905.352249
  20
386116.171799
  30
128.81061952
  70
32
  0
VERTEX
  8
0
  10
256906.994545
  20
386141.408895
  30
91.0191021438
  70
32
  0
VERTEX
  8
0
  10
256907.209217
  20
386144.138332
  30
86.9178420612
  70
32
  0
VERTEX
  8
0
  10
256885.759369
  20
386155.673269
  30
78.0565236585
  70
32
  0
VERTEX
  8
0
  10
256811.876887
  20
386173.833463
  30
79.3042718623
  70
32
  0
VERTEX
  8
0
  10
256812.699381
  20
386185.219929
  30
62.2226163591
  70
32
  0
VERTEX
  8
0
  10
256805.692582
  20
386194.032929
  30
51.8976924008
  70
32
  0
VERTEX
  8
0
  10
256790.812715
  20
386202.607236
  30
44.9074251521
  70
32
  0
VERTEX
  8
0
  10
256790.800602
  20
386205.980788
  30
39.9434407488
  70
32
  0
VERTEX
  8
0
  10
256901.356282
  20
386171.273928
  30
49.170157608
  70
32
  0
VERTEX
  8
0
  10
256946.378781
  20
386158.530892
  30
50.8790743732
  70
32
  0
VERTEX
  8
0
  10
256958.575641
  20
386148.440903
  30
61.1182332871
  70
32
  0
VERTEX
  8
0
  10
256980.015632
  20
386143.728737
  30
59.9346946957
  70
32
  0
VERTEX
  8
0
  10
257002.155218
  20
386138.306225
  30
59.5322795251
  70
32
  0
VERTEX
  8
0
  10
257010.085168
  20
386135.940178
  30
60.0123346524
  70
32
  0
VERTEX
  8
0
  10
257009.865763
  20
386126.317722
  30
74.2674408243
  70
32
  0
VERTEX
  8
0
  10
257001.461836
  20
386124.32772
  30
80.382574235
  70
32
  0
VERTEX
  8
0
  10
256987.204142
  20
386123.10223
  30
87.589728225
  70
32
  0
SEQEND
  0
POLYLINE
  8
0
  66
1
  70
8
  0
VERTEX
  8
0
  10
257067.066082
  20
386183.829782
  30
-32.1096849668
  70
32
  0
VERTEX
  8
0
  10
257059.339053
  20
386188.451219
  30
-35.988370581
  70
32
  0
VERTEX
  8
0
  10
257059.952549
  20
386202.511326
  30
-56.9285809851
  70
32
  0
VERTEX
  8
0
  10
257068.011279
  20
386202.475462
  30
-59.929218581
  70
32
  0
VERTEX
  8
0
  10
257105.178429
  20
386193.165985
  30
-60.3008574547
  70
32
  0
VERTEX
  8
0
  10
257111.69814
  20
386177.549308
  30
-39.7709054531
  70
32
  0
VERTEX
  8
0
  10
257111.688417
  20
386172.63632
  30
-32.5313612572
  70
32
  0
VERTEX
  8
0
  10
257105.307029
  20
386173.430005
  30
-31.2823912374
  70
32
  0
VERTEX
  8
0
  10
257098.280969
  20
386174.878271
  30
-30.7532204427
  70
32
  0
VERTEX
  8
0
  10
257067.066082
  20
386183.829782
  30
-32.1096849668
  70
32
  0
SEQEND
  0
ENDSEC
  0
EOF
