  999
DXF Polyline File Exported from Leapfrog Geo
  0
SECTION
  2
ENTITIES
  0
POLYLINE
  8
0
  66
1
  70
8
  0
VERTEX
  8
0
  10
256956.781011
  20
386140.867383
  30
187.064590994
  70
32
  0
VERTEX
  8
0
  10
256938.919961
  20
386150.414266
  30
179.1407646
  70
32
  0
VERTEX
  8
0
  10
256931.332092
  20
386154.955809
  30
175.062255546
  70
32
  0
VERTEX
  8
0
  10
256936.939004
  20
386179.430539
  30
137.269506837
  70
32
  0
VERTEX
  8
0
  10
256964.265281
  20
386173.103522
  30
137.253261604
  70
32
  0
VERTEX
  8
0
  10
256958.19718
  20
386146.615656
  30
178.154603305
  70
32
  0
VERTEX
  8
0
  10
256980.90081
  20
386140.006165
  30
180.124618128
  70
32
  0
VERTEX
  8
0
  10
256981.216631
  20
386133.426832
  30
189.664122995
  70
32
  0
VERTEX
  8
0
  10
256956.781011
  20
386140.867383
  30
187.064590994
  70
32
  0
SEQEND
  0
POLYLINE
  8
0
  66
1
  70
8
  0
VERTEX
  8
0
  10
256813.505329
  20
386186.061304
  30
169.52485461
  70
32
  0
VERTEX
  8
0
  10
256816.375686
  20
386198.590696
  30
150.177545241
  70
32
  0
VERTEX
  8
0
  10
256854.879607
  20
386189.675653
  30
150.154654996
  70
32
  0
VERTEX
  8
0
  10
256851.558357
  20
386175.178066
  30
172.541161474
  70
32
  0
VERTEX
  8
0
  10
256874.639026
  20
386167.788591
  30
175.526598219
  70
32
  0
VERTEX
  8
0
  10
256829.984348
  20
386169.112633
  30
188.771517974
  70
32
  0
VERTEX
  8
0
  10
256791.908731
  20
386191.381507
  30
169.068769085
  70
32
  0
VERTEX
  8
0
  10
256813.505329
  20
386186.061304
  30
169.52485461
  70
32
  0
SEQEND
  0
POLYLINE
  8
0
  66
1
  70
8
  0
VERTEX
  8
0
  10
257064.19394
  20
386172.726763
  30
103.821664714
  70
32
  0
VERTEX
  8
0
  10
257063.497112
  20
386170.449671
  30
107.397416928
  70
32
  0
VERTEX
  8
0
  10
257034.723742
  20
386179.020395
  30
104.615969333
  70
32
  0
VERTEX
  8
0
  10
257031.55625
  20
386165.271722
  30
125.852092657
  70
32
  0
VERTEX
  8
0
  10
257027.514494
  20
386166.207534
  30
125.854495446
  70
32
  0
VERTEX
  8
0
  10
257030.7878
  20
386180.495842
  30
103.791149281
  70
32
  0
VERTEX
  8
0
  10
256961.796808
  20
386200.935966
  30
97.2835832053
  70
32
  0
VERTEX
  8
0
  10
256906.435463
  20
386213.796595
  30
97.2542001077
  70
32
  0
SEQEND
  0
POLYLINE
  8
0
  66
1
  70
8
  0
VERTEX
  8
0
  10
256906.435463
  20
386213.796595
  30
97.2542001077
  70
32
  0
VERTEX
  8
0
  10
256850.748488
  20
386228.871991
  30
94.0881681912
  70
32
  0
VERTEX
  8
0
  10
256780.764182
  20
386251.645634
  30
84.4969011841
  70
32
  0
VERTEX
  8
0
  10
256741.098019
  20
386263.175501
  30
81.0810786776
  70
32
  0
VERTEX
  8
0
  10
256740.655853
  20
386265.154686
  30
78.3294832477
  70
32
  0
VERTEX
  8
0
  10
256781.799129
  20
386253.772889
  30
81.0258582757
  70
32
  0
VERTEX
  8
0
  10
256851.431753
  20
386231.046254
  30
90.6678001201
  70
32
  0
VERTEX
  8
0
  10
256906.040897
  20
386215.627973
  30
94.7031377785
  70
32
  0
VERTEX
  8
0
  10
256943.266302
  20
386207.049827
  30
94.6210753777
  70
32
  0
VERTEX
  8
0
  10
256962.190326
  20
386202.653712
  30
94.6311193251
  70
32
  0
VERTEX
  8
0
  10
257031.181318
  20
386182.213588
  30
101.138685401
  70
32
  0
VERTEX
  8
0
  10
257064.19394
  20
386172.726763
  30
103.821664714
  70
32
  0
SEQEND
  0
ENDSEC
  0
EOF
