  999
DXF Polyline File Exported from Leapfrog Geo
  0
SECTION
  2
ENTITIES
  0
POLYLINE
  8
0
  66
1
  70
8
  0
VERTEX
  8
0
  10
257192.518122
  20
386285.802422
  30
50.4013272038
  70
32
  0
VERTEX
  8
0
  10
257192.436532
  20
386282.023697
  30
55.5125958944
  70
32
  0
VERTEX
  8
0
  10
257184.257559
  20
386282.30288
  30
58.3796992706
  70
32
  0
VERTEX
  8
0
  10
257184.226526
  20
386268.945795
  30
76.3450495217
  70
32
  0
VERTEX
  8
0
  10
257168.908243
  20
386265.730466
  30
86.739274846
  70
32
  0
VERTEX
  8
0
  10
257146.246106
  20
386272.549139
  30
86.5582432569
  70
32
  0
VERTEX
  8
0
  10
257126.634643
  20
386283.931551
  30
79.033797762
  70
32
  0
VERTEX
  8
0
  10
257120.196231
  20
386293.040092
  30
69.3434994096
  70
32
  0
VERTEX
  8
0
  10
257119.918295
  20
386307.162753
  30
50.4716340205
  70
32
  0
VERTEX
  8
0
  10
257141.620789
  20
386305.556888
  30
44.0266392693
  70
32
  0
VERTEX
  8
0
  10
257160.605254
  20
386299.467567
  30
44.6852810625
  70
32
  0
VERTEX
  8
0
  10
257192.518122
  20
386285.802422
  30
50.4013272038
  70
32
  0
SEQEND
  0
POLYLINE
  8
0
  66
1
  70
8
  0
VERTEX
  8
0
  10
256973.512775
  20
386336.244557
  30
69.4220589332
  70
32
  0
VERTEX
  8
0
  10
256998.746622
  20
386326.531054
  30
72.4744960377
  70
32
  0
VERTEX
  8
0
  10
257011.995552
  20
386324.078025
  30
70.5193644173
  70
32
  0
VERTEX
  8
0
  10
257018.453491
  20
386320.342344
  30
72.9803459021
  70
32
  0
VERTEX
  8
0
  10
257018.640361
  20
386312.040538
  30
84.0645931444
  70
32
  0
VERTEX
  8
0
  10
256999.801029
  20
386314.556092
  30
88.151859484
  70
32
  0
VERTEX
  8
0
  10
256965.374473
  20
386328.387039
  30
83.2094522403
  70
32
  0
VERTEX
  8
0
  10
256965.203301
  20
386331.27687
  30
79.3931324057
  70
32
  0
VERTEX
  8
0
  10
256973.512775
  20
386336.244557
  30
69.4220589332
  70
32
  0
SEQEND
  0
POLYLINE
  8
0
  66
1
  70
8
  0
VERTEX
  8
0
  10
257179.04633
  20
386426.646846
  30
-133.564886861
  70
32
  0
VERTEX
  8
0
  10
257186.194601
  20
386422.134096
  30
-130.333124848
  70
32
  0
VERTEX
  8
0
  10
257191.894039
  20
386420.366554
  30
-130.216799649
  70
32
  0
VERTEX
  8
0
  10
257143.936592
  20
386410.731502
  30
-98.2549436449
  70
32
  0
VERTEX
  8
0
  10
257116.391253
  20
386418.577986
  30
-97.8816155261
  70
32
  0
VERTEX
  8
0
  10
257026.031121
  20
386399.458771
  30
-36.3627587656
  70
32
  0
VERTEX
  8
0
  10
256980.256079
  20
386412.498114
  30
-35.7423594194
  70
32
  0
VERTEX
  8
0
  10
256978.059107
  20
386457.885442
  30
-95.8758170984
  70
32
  0
VERTEX
  8
0
  10
257030.356737
  20
386442.628855
  30
-96.1017701825
  70
32
  0
VERTEX
  8
0
  10
257099.672242
  20
386420.676748
  30
-94.074694369
  70
32
  0
VERTEX
  8
0
  10
257100.8233
  20
386443.468485
  30
-125.165016639
  70
32
  0
VERTEX
  8
0
  10
257100.776569
  20
386444.699333
  30
-126.800854561
  70
32
  0
VERTEX
  8
0
  10
257128.00672
  20
386432.245312
  30
-120.856315921
  70
32
  0
VERTEX
  8
0
  10
257151.284255
  20
386432.564208
  30
-130.512737367
  70
32
  0
VERTEX
  8
0
  10
257179.04633
  20
386426.646846
  30
-133.564886861
  70
32
  0
SEQEND
  0
POLYLINE
  8
0
  66
1
  70
8
  0
VERTEX
  8
0
  10
257386.437428
  20
386221.410026
  30
60.0756553377
  70
32
  0
VERTEX
  8
0
  10
257391.829718
  20
386214.264009
  30
67.5428650785
  70
32
  0
VERTEX
  8
0
  10
257392.299545
  20
386200.59955
  30
85.7227984538
  70
32
  0
VERTEX
  8
0
  10
257389.05214
  20
386186.424302
  30
106.062879218
  70
32
  0
VERTEX
  8
0
  10
257349.126523
  20
386200.622077
  30
102.807388595
  70
32
  0
VERTEX
  8
0
  10
257333.327942
  20
386205.651394
  30
102.310516019
  70
32
  0
VERTEX
  8
0
  10
257252.728532
  20
386228.832816
  30
103.104360083
  70
32
  0
VERTEX
  8
0
  10
257238.31336
  20
386234.071185
  30
101.778086324
  70
32
  0
VERTEX
  8
0
  10
257246.411003
  20
386248.790412
  30
78.7840964729
  70
32
  0
VERTEX
  8
0
  10
257245.801993
  20
386260.264015
  30
63.6040340869
  70
32
  0
VERTEX
  8
0
  10
257261.472552
  20
386261.92089
  30
55.1648523001
  70
32
  0
VERTEX
  8
0
  10
257346.795661
  20
386235.800852
  30
56.4481631787
  70
32
  0
VERTEX
  8
0
  10
257386.437428
  20
386221.410026
  30
60.0756553377
  70
32
  0
SEQEND
  0
POLYLINE
  8
0
  66
1
  70
8
  0
VERTEX
  8
0
  10
257208.922487
  20
386305.408117
  30
17.5465187528
  70
32
  0
VERTEX
  8
0
  10
257196.556266
  20
386320.259547
  30
2.4872270433
  70
32
  0
VERTEX
  8
0
  10
257173.610671
  20
386327.397293
  30
1.98970427808
  70
32
  0
VERTEX
  8
0
  10
257165.558923
  20
386340.925285
  30
-13.0011423097
  70
32
  0
VERTEX
  8
0
  10
257158.191463
  20
386353.683013
  30
-27.2279573434
  70
32
  0
VERTEX
  8
0
  10
257150.603123
  20
386364.085964
  30
-38.2021916483
  70
32
  0
VERTEX
  8
0
  10
257143.26134
  20
386371.420484
  30
-45.1499371619
  70
32
  0
VERTEX
  8
0
  10
257142.771499
  20
386379.201336
  30
-55.4138727247
  70
32
  0
VERTEX
  8
0
  10
257169.418164
  20
386379.012266
  30
-65.723152614
  70
32
  0
VERTEX
  8
0
  10
257253.968185
  20
386401.024371
  30
-128.827023528
  70
32
  0
VERTEX
  8
0
  10
257292.467768
  20
386314.889355
  30
-28.3165067829
  70
32
  0
VERTEX
  8
0
  10
257294.477396
  20
386297.00762
  30
-5.07861556019
  70
32
  0
VERTEX
  8
0
  10
257354.986701
  20
386282.27462
  30
-9.26362813635
  70
32
  0
VERTEX
  8
0
  10
257366.48289
  20
386278.830418
  30
-9.19170838244
  70
32
  0
VERTEX
  8
0
  10
257381.884897
  20
386248.564389
  30
25.3826417233
  70
32
  0
VERTEX
  8
0
  10
257387.554621
  20
386226.286685
  30
53.0781320699
  70
32
  0
VERTEX
  8
0
  10
257347.912854
  20
386240.677511
  30
49.4506399109
  70
32
  0
VERTEX
  8
0
  10
257216.347135
  20
386280.953839
  30
47.4718123821
  70
32
  0
VERTEX
  8
0
  10
257161.722447
  20
386304.344226
  30
37.6877577947
  70
32
  0
VERTEX
  8
0
  10
257142.737982
  20
386310.433547
  30
37.0291160014
  70
32
  0
VERTEX
  8
0
  10
257108.853294
  20
386312.940827
  30
47.0918595205
  70
32
  0
VERTEX
  8
0
  10
257076.68236
  20
386321.025459
  30
48.9787987452
  70
32
  0
VERTEX
  8
0
  10
257063.210195
  20
386334.127916
  30
36.7086970939
  70
32
  0
VERTEX
  8
0
  10
257042.652375
  20
386360.599182
  30
9.27872012064
  70
32
  0
VERTEX
  8
0
  10
257069.909438
  20
386375.099072
  30
-21.0157362889
  70
32
  0
VERTEX
  8
0
  10
257086.496502
  20
386369.479319
  30
-20.0378425918
  70
32
  0
VERTEX
  8
0
  10
257086.883909
  20
386360.952315
  30
-8.73040923431
  70
32
  0
VERTEX
  8
0
  10
257078.96641
  20
386360.937172
  30
-5.57136123535
  70
32
  0
VERTEX
  8
0
  10
257071.285919
  20
386360.748452
  30
-2.27296592897
  70
32
  0
VERTEX
  8
0
  10
257071.178422
  20
386347.477437
  30
15.607010085
  70
32
  0
VERTEX
  8
0
  10
257106.26168
  20
386339.137555
  30
12.9086311505
  70
32
  0
VERTEX
  8
0
  10
257113.358992
  20
386334.682168
  30
16.0834950271
  70
32
  0
VERTEX
  8
0
  10
257132.208257
  20
386321.460031
  30
26.3828394863
  70
32
  0
VERTEX
  8
0
  10
257162.52523
  20
386312.255013
  30
26.736750767
  70
32
  0
VERTEX
  8
0
  10
257184.816264
  20
386305.85407
  30
26.5034325525
  70
32
  0
VERTEX
  8
0
  10
257192.899203
  20
386302.985832
  30
27.1543055418
  70
32
  0
VERTEX
  8
0
  10
257208.922487
  20
386305.408117
  30
17.5465187528
  70
32
  0
SEQEND
  0
POLYLINE
  8
0
  66
1
  70
8
  0
VERTEX
  8
0
  10
257001.499976
  20
386345.82778
  30
45.4465710987
  70
32
  0
VERTEX
  8
0
  10
257006.006797
  20
386366.201015
  30
16.2766106325
  70
32
  0
VERTEX
  8
0
  10
257009.628632
  20
386365.647363
  30
15.5849800003
  70
32
  0
VERTEX
  8
0
  10
257010.327395
  20
386344.295503
  30
44.0066705846
  70
32
  0
VERTEX
  8
0
  10
257001.499976
  20
386345.82778
  30
45.4465710987
  70
32
  0
SEQEND
  0
POLYLINE
  8
0
  66
1
  70
8
  0
VERTEX
  8
0
  10
257277.119521
  20
386175.292466
  30
165.397900201
  70
32
  0
VERTEX
  8
0
  10
257276.148072
  20
386171.051996
  30
171.482555695
  70
32
  0
VERTEX
  8
0
  10
257259.096839
  20
386179.493712
  30
166.895714302
  70
32
  0
VERTEX
  8
0
  10
257251.481741
  20
386182.352753
  30
166.071738083
  70
32
  0
VERTEX
  8
0
  10
257251.793769
  20
386184.698673
  30
162.794928852
  70
32
  0
VERTEX
  8
0
  10
257229.781392
  20
386217.569984
  30
127.339376774
  70
32
  0
VERTEX
  8
0
  10
257237.707861
  20
386232.970559
  30
103.497454921
  70
32
  0
VERTEX
  8
0
  10
257252.449234
  20
386227.613651
  30
104.8537409
  70
32
  0
VERTEX
  8
0
  10
257333.048644
  20
386204.43223
  30
104.059896836
  70
32
  0
VERTEX
  8
0
  10
257348.847225
  20
386199.402912
  30
104.556769412
  70
32
  0
VERTEX
  8
0
  10
257388.772841
  20
386185.205137
  30
107.812260035
  70
32
  0
VERTEX
  8
0
  10
257384.653199
  20
386167.222485
  30
133.615588508
  70
32
  0
VERTEX
  8
0
  10
257449.452222
  20
386148.764027
  30
132.737352906
  70
32
  0
VERTEX
  8
0
  10
257441.628271
  20
386114.611699
  30
181.742568586
  70
32
  0
VERTEX
  8
0
  10
257395.902904
  20
386127.636892
  30
182.362294676
  70
32
  0
VERTEX
  8
0
  10
257398.874822
  20
386140.609612
  30
163.74772347
  70
32
  0
VERTEX
  8
0
  10
257277.119521
  20
386175.292466
  30
165.397900201
  70
32
  0
SEQEND
  0
POLYLINE
  8
0
  66
1
  70
8
  0
VERTEX
  8
0
  10
256980.832499
  20
386280.667358
  30
141.220774255
  70
32
  0
VERTEX
  8
0
  10
256994.37161
  20
386277.887689
  30
139.589639897
  70
32
  0
VERTEX
  8
0
  10
256994.414956
  20
386283.139993
  30
132.512917053
  70
32
  0
VERTEX
  8
0
  10
257001.514532
  20
386281.378673
  30
132.065829479
  70
32
  0
VERTEX
  8
0
  10
257003.54422
  20
386292.485984
  30
116.332048749
  70
32
  0
VERTEX
  8
0
  10
257018.463994
  20
386288.152181
  30
116.242472631
  70
32
  0
VERTEX
  8
0
  10
257031.01161
  20
386286.488583
  30
113.504299099
  70
32
  0
VERTEX
  8
0
  10
257038.333896
  20
386284.476571
  30
113.305874568
  70
32
  0
VERTEX
  8
0
  10
257038.150857
  20
386279.381511
  30
120.226625506
  70
32
  0
VERTEX
  8
0
  10
257068.222792
  20
386270.45232
  30
120.306942576
  70
32
  0
VERTEX
  8
0
  10
257075.74393
  20
386260.125549
  30
131.205424828
  70
32
  0
VERTEX
  8
0
  10
257075.897352
  20
386257.255698
  30
135.001925433
  70
32
  0
VERTEX
  8
0
  10
257045.696737
  20
386266.329738
  30
134.777931826
  70
32
  0
VERTEX
  8
0
  10
257043.063428
  20
386253.297946
  30
153.33766779
  70
32
  0
VERTEX
  8
0
  10
257057.669815
  20
386243.923135
  30
160.147865597
  70
32
  0
VERTEX
  8
0
  10
257057.343791
  20
386241.59297
  30
163.409048096
  70
32
  0
VERTEX
  8
0
  10
257042.441122
  20
386245.907519
  30
163.517721808
  70
32
  0
VERTEX
  8
0
  10
257042.273259
  20
386244.088263
  30
166.02950112
  70
32
  0
VERTEX
  8
0
  10
256993.013817
  20
386258.096043
  30
166.729542521
  70
32
  0
VERTEX
  8
0
  10
256966.075025
  20
386263.703957
  30
169.871246756
  70
32
  0
VERTEX
  8
0
  10
256967.606829
  20
386271.380336
  30
158.946301509
  70
32
  0
VERTEX
  8
0
  10
256964.679285
  20
386285.084424
  30
141.687403848
  70
32
  0
VERTEX
  8
0
  10
256973.366111
  20
386282.841577
  30
141.258303114
  70
32
  0
VERTEX
  8
0
  10
256980.832499
  20
386280.667358
  30
141.220774255
  70
32
  0
SEQEND
  0
ENDSEC
  0
EOF
