  999
DXF Polyline File Exported from Leapfrog Geo
  0
SECTION
  2
ENTITIES
  0
POLYLINE
  8
0
  66
1
  70
8
  0
VERTEX
  8
0
  10
257466.29246
  20
386101.743326
  30
189.261243943
  70
32
  0
VERTEX
  8
0
  10
257456.896759
  20
386098.13074
  30
197.841555315
  70
32
  0
VERTEX
  8
0
  10
257449.721896
  20
386085.948956
  30
217.059194891
  70
32
  0
VERTEX
  8
0
  10
257443.486352
  20
386087.199043
  30
217.85089749
  70
32
  0
VERTEX
  8
0
  10
257420.991414
  20
386093.82951
  30
217.856549108
  70
32
  0
VERTEX
  8
0
  10
257413.318846
  20
386098.932967
  30
214.038671248
  70
32
  0
VERTEX
  8
0
  10
257394.315423
  20
386104.274326
  30
214.392868263
  70
32
  0
VERTEX
  8
0
  10
257376.054215
  20
386118.822815
  30
202.0776747
  70
32
  0
VERTEX
  8
0
  10
257350.30785
  20
386130.052323
  30
197.190774264
  70
32
  0
VERTEX
  8
0
  10
257328.183332
  20
386135.93641
  30
198.052779909
  70
32
  0
VERTEX
  8
0
  10
257314.978576
  20
386139.242279
  30
198.844109828
  70
32
  0
VERTEX
  8
0
  10
257296.759506
  20
386141.079597
  30
203.597096134
  70
32
  0
VERTEX
  8
0
  10
257276.148072
  20
386171.051996
  30
171.482555695
  70
32
  0
VERTEX
  8
0
  10
257277.119521
  20
386175.292466
  30
165.397900201
  70
32
  0
VERTEX
  8
0
  10
257368.38527
  20
386149.294775
  30
164.160955166
  70
32
  0
VERTEX
  8
0
  10
257368.123067
  20
386133.195012
  30
185.904337611
  70
32
  0
VERTEX
  8
0
  10
257379.237144
  20
386128.99155
  30
187.148244556
  70
32
  0
VERTEX
  8
0
  10
257421.127357
  20
386115.066217
  30
189.258734646
  70
32
  0
VERTEX
  8
0
  10
257451.12885
  20
386106.216317
  30
189.260401478
  70
32
  0
VERTEX
  8
0
  10
257466.29246
  20
386101.743326
  30
189.261243943
  70
32
  0
SEQEND
  0
POLYLINE
  8
0
  66
1
  70
8
  0
VERTEX
  8
0
  10
256972.851416
  20
386240.284851
  30
198.662165754
  70
32
  0
VERTEX
  8
0
  10
256964.319474
  20
386251.46596
  30
187.016088835
  70
32
  0
VERTEX
  8
0
  10
256966.075025
  20
386263.703957
  30
169.871246753
  70
32
  0
VERTEX
  8
0
  10
256993.013817
  20
386258.096043
  30
166.729542521
  70
32
  0
VERTEX
  8
0
  10
257042.273259
  20
386244.088263
  30
166.02950112
  70
32
  0
VERTEX
  8
0
  10
257042.928531
  20
386241.110351
  30
169.772299014
  70
32
  0
VERTEX
  8
0
  10
257004.387115
  20
386247.857654
  30
175.982139037
  70
32
  0
VERTEX
  8
0
  10
256972.851416
  20
386240.284851
  30
198.662165754
  70
32
  0
SEQEND
  0
POLYLINE
  8
0
  66
1
  70
8
  0
VERTEX
  8
0
  10
257006.006797
  20
386366.201015
  30
16.2766106324
  70
32
  0
VERTEX
  8
0
  10
257001.499976
  20
386345.82778
  30
45.4465710987
  70
32
  0
VERTEX
  8
0
  10
257010.327395
  20
386344.295503
  30
44.0066705846
  70
32
  0
VERTEX
  8
0
  10
257010.494284
  20
386339.195952
  30
50.7947385957
  70
32
  0
VERTEX
  8
0
  10
256991.098762
  20
386342.697413
  30
53.7773500079
  70
32
  0
VERTEX
  8
0
  10
256946.7227
  20
386362.214279
  30
45.1368225853
  70
32
  0
VERTEX
  8
0
  10
256952.264237
  20
386391.945926
  30
2.97818000978
  70
32
  0
VERTEX
  8
0
  10
256980.420402
  20
386396.265623
  30
-13.9896663258
  70
32
  0
VERTEX
  8
0
  10
257017.318798
  20
386401.940538
  30
-36.2446787076
  70
32
  0
VERTEX
  8
0
  10
257026.031121
  20
386399.458771
  30
-36.3627587656
  70
32
  0
VERTEX
  8
0
  10
257116.391253
  20
386418.577986
  30
-97.8816155261
  70
32
  0
VERTEX
  8
0
  10
257143.936592
  20
386410.731502
  30
-98.2549436449
  70
32
  0
VERTEX
  8
0
  10
257215.272646
  20
386425.063511
  30
-145.797772042
  70
32
  0
VERTEX
  8
0
  10
257253.968185
  20
386401.024371
  30
-128.827023528
  70
32
  0
VERTEX
  8
0
  10
257169.418164
  20
386379.012266
  30
-65.723152614
  70
32
  0
VERTEX
  8
0
  10
257113.766972
  20
386379.407136
  30
-44.1923637855
  70
32
  0
VERTEX
  8
0
  10
257110.635372
  20
386365.737392
  30
-24.5776308346
  70
32
  0
VERTEX
  8
0
  10
257072.651015
  20
386376.557503
  30
-24.062820371
  70
32
  0
VERTEX
  8
0
  10
257042.652375
  20
386360.599182
  30
9.27872012064
  70
32
  0
VERTEX
  8
0
  10
257006.006797
  20
386366.201015
  30
16.2766106324
  70
32
  0
SEQEND
  0
POLYLINE
  8
0
  66
1
  70
8
  0
VERTEX
  8
0
  10
257390.500721
  20
386192.747503
  30
96.9897104656
  70
32
  0
VERTEX
  8
0
  10
257400.497876
  20
386189.254085
  30
97.7220354098
  70
32
  0
VERTEX
  8
0
  10
257412.665113
  20
386188.018659
  30
94.5591541292
  70
32
  0
VERTEX
  8
0
  10
257418.632086
  20
386176.353573
  30
107.872553723
  70
32
  0
VERTEX
  8
0
  10
257450.382076
  20
386159.752315
  30
117.59955091
  70
32
  0
VERTEX
  8
0
  10
257465.574061
  20
386149.735294
  30
125.040786934
  70
32
  0
VERTEX
  8
0
  10
257465.538818
  20
386142.632427
  30
134.601609627
  70
32
  0
VERTEX
  8
0
  10
257458.256771
  20
386144.599145
  30
134.84496132
  70
32
  0
VERTEX
  8
0
  10
257449.140372
  20
386147.402771
  30
134.690620749
  70
32
  0
VERTEX
  8
0
  10
257449.452222
  20
386148.764027
  30
132.737352906
  70
32
  0
VERTEX
  8
0
  10
257384.653199
  20
386167.222485
  30
133.615588508
  70
32
  0
VERTEX
  8
0
  10
257388.772841
  20
386185.205137
  30
107.812260035
  70
32
  0
VERTEX
  8
0
  10
257348.847225
  20
386199.402912
  30
104.556769412
  70
32
  0
VERTEX
  8
0
  10
257333.048644
  20
386204.43223
  30
104.059896836
  70
32
  0
VERTEX
  8
0
  10
257252.449234
  20
386227.613651
  30
104.8537409
  70
32
  0
VERTEX
  8
0
  10
257237.707861
  20
386232.970559
  30
103.497454921
  70
32
  0
VERTEX
  8
0
  10
257238.31336
  20
386234.071185
  30
101.778086324
  70
32
  0
VERTEX
  8
0
  10
257252.728532
  20
386228.832816
  30
103.104360083
  70
32
  0
VERTEX
  8
0
  10
257333.327942
  20
386205.651394
  30
102.310516019
  70
32
  0
VERTEX
  8
0
  10
257349.126523
  20
386200.622077
  30
102.807388595
  70
32
  0
VERTEX
  8
0
  10
257389.05214
  20
386186.424302
  30
106.062879218
  70
32
  0
VERTEX
  8
0
  10
257390.500721
  20
386192.747503
  30
96.9897104656
  70
32
  0
SEQEND
  0
POLYLINE
  8
0
  66
1
  70
8
  0
VERTEX
  8
0
  10
257192.518122
  20
386285.802422
  30
50.4013272038
  70
32
  0
VERTEX
  8
0
  10
257160.605254
  20
386299.467567
  30
44.6852810625
  70
32
  0
VERTEX
  8
0
  10
257141.620789
  20
386305.556888
  30
44.0266392693
  70
32
  0
VERTEX
  8
0
  10
257119.918295
  20
386307.162753
  30
50.4716340205
  70
32
  0
VERTEX
  8
0
  10
257119.963067
  20
386312.110974
  30
43.8030597394
  70
32
  0
VERTEX
  8
0
  10
257142.737982
  20
386310.433547
  30
37.0291160014
  70
32
  0
VERTEX
  8
0
  10
257161.722447
  20
386304.344226
  30
37.6877577947
  70
32
  0
VERTEX
  8
0
  10
257192.6401
  20
386291.105233
  30
43.2255468988
  70
32
  0
VERTEX
  8
0
  10
257192.518122
  20
386285.802422
  30
50.4013272038
  70
32
  0
SEQEND
  0
POLYLINE
  8
0
  66
1
  70
8
  0
VERTEX
  8
0
  10
257386.437428
  20
386221.410026
  30
60.0756553377
  70
32
  0
VERTEX
  8
0
  10
257346.795661
  20
386235.800852
  30
56.4481631787
  70
32
  0
VERTEX
  8
0
  10
257261.472552
  20
386261.92089
  30
55.1648523
  70
32
  0
VERTEX
  8
0
  10
257261.753058
  20
386267.053684
  30
48.1547447682
  70
32
  0
VERTEX
  8
0
  10
257347.912854
  20
386240.677511
  30
49.4506399109
  70
32
  0
VERTEX
  8
0
  10
257387.554621
  20
386226.286685
  30
53.0781320699
  70
32
  0
VERTEX
  8
0
  10
257386.437428
  20
386221.410026
  30
60.0756553377
  70
32
  0
SEQEND
  0
ENDSEC
  0
EOF
