  999
DXF Polyline File Exported from Leapfrog Geo
  0
SECTION
  2
ENTITIES
  0
POLYLINE
  8
0
  66
1
  70
8
  0
VERTEX
  8
0
  10
257137.708904
  20
386189.089727
  30
-120.354854864
  70
32
  0
VERTEX
  8
0
  10
257137.222911
  20
386177.605152
  30
-103.100719555
  70
32
  0
VERTEX
  8
0
  10
257109.546372
  20
386183.370984
  30
-100.50649214
  70
32
  0
VERTEX
  8
0
  10
257109.708374
  20
386144.829587
  30
-43.3257312269
  70
32
  0
VERTEX
  8
0
  10
257099.056041
  20
386148.211386
  30
-44.0540844724
  70
32
  0
VERTEX
  8
0
  10
257097.699968
  20
386127.38125
  30
-12.5680674823
  70
32
  0
VERTEX
  8
0
  10
257117.525915
  20
386122.130607
  30
-12.7624037684
  70
32
  0
VERTEX
  8
0
  10
257116.812399
  20
386108.722299
  30
7.44080996066
  70
32
  0
VERTEX
  8
0
  10
257126.479914
  20
386106.348119
  30
7.06957868829
  70
32
  0
VERTEX
  8
0
  10
257127.783938
  20
386082.796297
  30
41.5256877992
  70
32
  0
VERTEX
  8
0
  10
257089.079374
  20
386092.328319
  30
42.9720877946
  70
32
  0
VERTEX
  8
0
  10
257058.981143
  20
386100.571913
  30
42.862410142
  70
32
  0
VERTEX
  8
0
  10
257057.848751
  20
386135.726476
  30
-8.89660831721
  70
32
  0
VERTEX
  8
0
  10
257048.131326
  20
386138.492025
  30
-9.08656149054
  70
32
  0
VERTEX
  8
0
  10
257048.454871
  20
386150.279639
  30
-26.7253119353
  70
32
  0
VERTEX
  8
0
  10
257035.595466
  20
386153.703663
  30
-26.6265605391
  70
32
  0
VERTEX
  8
0
  10
257037.300608
  20
386200.433641
  30
-96.7227077608
  70
32
  0
VERTEX
  8
0
  10
257037.541175
  20
386205.785734
  30
-104.769235518
  70
32
  0
VERTEX
  8
0
  10
257137.708904
  20
386189.089727
  30
-120.354854864
  70
32
  0
VERTEX
  8
0
  10
257137.708904
  20
386189.089727
  30
-120.354854864
  70
32
  0
SEQEND
  0
POLYLINE
  8
0
  66
1
  70
8
  0
VERTEX
  8
0
  10
256849.677338
  20
386149.897273
  30
53.9833800352
  70
32
  0
VERTEX
  8
0
  10
256885.501223
  20
386140.386687
  30
53.6665393463
  70
32
  0
VERTEX
  8
0
  10
256886.196953
  20
386129.928914
  30
68.9191192306
  70
32
  0
VERTEX
  8
0
  10
256875.98508
  20
386132.860055
  30
68.6825556602
  70
32
  0
VERTEX
  8
0
  10
256876.101586
  20
386120.622202
  30
86.8126386906
  70
32
  0
VERTEX
  8
0
  10
256834.454344
  20
386131.285742
  30
87.764773286
  70
32
  0
VERTEX
  8
0
  10
256834.715177
  20
386138.340958
  30
77.1804025753
  70
32
  0
VERTEX
  8
0
  10
256842.207693
  20
386138.753054
  30
73.5475668186
  70
32
  0
VERTEX
  8
0
  10
256842.680873
  20
386150.387569
  30
56.0758887676
  70
32
  0
VERTEX
  8
0
  10
256849.677338
  20
386149.897273
  30
53.9833800352
  70
32
  0
SEQEND
  0
POLYLINE
  8
0
  66
1
  70
8
  0
VERTEX
  8
0
  10
257287.56625
  20
385931.644177
  30
201.614909564
  70
32
  0
VERTEX
  8
0
  10
257287.414712
  20
385939.036481
  30
190.696112741
  70
32
  0
VERTEX
  8
0
  10
257287.351825
  20
385941.541521
  30
187.00069684
  70
32
  0
VERTEX
  8
0
  10
257309.200383
  20
385948.219379
  30
168.27333874
  70
32
  0
VERTEX
  8
0
  10
257315.201183
  20
385948.696597
  30
165.145190216
  70
32
  0
VERTEX
  8
0
  10
257308.831427
  20
385920.891976
  30
209.011863266
  70
32
  0
VERTEX
  8
0
  10
257294.989582
  20
385927.246152
  30
205.154507528
  70
32
  0
VERTEX
  8
0
  10
257287.56625
  20
385931.644177
  30
201.614909564
  70
32
  0
SEQEND
  0
POLYLINE
  8
0
  66
1
  70
8
  0
VERTEX
  8
0
  10
257369.820886
  20
386054.52862
  30
-14.0695122945
  70
32
  0
VERTEX
  8
0
  10
257408.916074
  20
386044.149562
  30
-14.4152856958
  70
32
  0
VERTEX
  8
0
  10
257403.025521
  20
386018.436711
  30
26.1512542266
  70
32
  0
VERTEX
  8
0
  10
257363.930333
  20
386028.815769
  30
26.4970276278
  70
32
  0
VERTEX
  8
0
  10
257369.820886
  20
386054.52862
  30
-14.0695122945
  70
32
  0
SEQEND
  0
ENDSEC
  0
EOF
