  999
DXF Polyline File Exported from Leapfrog Geo
  0
SECTION
  2
ENTITIES
  0
POLYLINE
  8
0
  66
1
  70
8
  0
VERTEX
  8
0
  10
257369.820886
  20
386054.52862
  30
-14.0695122945
  70
32
  0
VERTEX
  8
0
  10
257408.916074
  20
386044.149562
  30
-14.4152856958
  70
32
  0
VERTEX
  8
0
  10
257403.025521
  20
386018.436711
  30
26.1512542266
  70
32
  0
VERTEX
  8
0
  10
257363.930333
  20
386028.815769
  30
26.4970276278
  70
32
  0
VERTEX
  8
0
  10
257369.820886
  20
386054.52862
  30
-14.0695122945
  70
32
  0
SEQEND
  0
POLYLINE
  8
0
  66
1
  70
8
  0
VERTEX
  8
0
  10
257448.928601
  20
385997.206218
  30
39.1785446415
  70
32
  0
VERTEX
  8
0
  10
257411.488031
  20
386007.419125
  30
39.1040149256
  70
32
  0
VERTEX
  8
0
  10
257410.378571
  20
385996.34077
  30
56.0061486971
  70
32
  0
VERTEX
  8
0
  10
257410.283754
  20
385990.677477
  30
64.456144338
  70
32
  0
VERTEX
  8
0
  10
257299.848619
  20
386019.995986
  30
65.4328766103
  70
32
  0
VERTEX
  8
0
  10
257318.227418
  20
386100.221278
  30
-61.1366146875
  70
32
  0
VERTEX
  8
0
  10
257329.438322
  20
386097.171903
  30
-61.1272139914
  70
32
  0
VERTEX
  8
0
  10
257359.776255
  20
386088.683057
  30
-60.7498996097
  70
32
  0
VERTEX
  8
0
  10
257374.904178
  20
386079.59972
  30
-53.3573885417
  70
32
  0
VERTEX
  8
0
  10
257382.650784
  20
386074.870937
  30
-49.4568441553
  70
32
  0
VERTEX
  8
0
  10
257397.761797
  20
386063.448552
  30
-38.5832945879
  70
32
  0
VERTEX
  8
0
  10
257412.950011
  20
386056.743739
  30
-34.7479466506
  70
32
  0
VERTEX
  8
0
  10
257420.719104
  20
386047.194901
  30
-23.6971748598
  70
32
  0
VERTEX
  8
0
  10
257428.015912
  20
386042.926814
  30
-20.2995654227
  70
32
  0
VERTEX
  8
0
  10
257435.558816
  20
386038.406449
  30
-16.6264619602
  70
32
  0
VERTEX
  8
0
  10
257435.431428
  20
386031.299043
  30
-6.01837481002
  70
32
  0
VERTEX
  8
0
  10
257457.423551
  20
386025.711363
  30
-6.58543755926
  70
32
  0
VERTEX
  8
0
  10
257457.098825
  20
386013.924958
  30
11.0519934663
  70
32
  0
VERTEX
  8
0
  10
257464.399939
  20
386009.652465
  30
14.454410503
  70
32
  0
VERTEX
  8
0
  10
257464.322331
  20
385995.172524
  30
35.9929582861
  70
32
  0
VERTEX
  8
0
  10
257448.928601
  20
385997.206218
  30
39.1785446415
  70
32
  0
SEQEND
  0
POLYLINE
  8
0
  66
1
  70
8
  0
VERTEX
  8
0
  10
257402.58031
  20
385903.765627
  30
196.653309495
  70
32
  0
VERTEX
  8
0
  10
257384.498903
  20
385904.923077
  30
202.22397913
  70
32
  0
VERTEX
  8
0
  10
257342.785386
  20
385919.604792
  30
197.234582858
  70
32
  0
VERTEX
  8
0
  10
257308.831427
  20
385920.891976
  30
209.011863266
  70
32
  0
VERTEX
  8
0
  10
257315.201183
  20
385948.696597
  30
165.145190216
  70
32
  0
VERTEX
  8
0
  10
257316.526699
  20
385948.802009
  30
164.454213754
  70
32
  0
VERTEX
  8
0
  10
257323.986845
  20
385949.24771
  30
160.784515208
  70
32
  0
VERTEX
  8
0
  10
257331.200533
  20
385949.94509
  30
156.840357835
  70
32
  0
VERTEX
  8
0
  10
257361.079431
  20
385941.925907
  30
156.705143698
  70
32
  0
VERTEX
  8
0
  10
257374.908656
  20
385939.052246
  30
155.397931159
  70
32
  0
VERTEX
  8
0
  10
257395.654503
  20
385934.739697
  30
153.439356284
  70
32
  0
VERTEX
  8
0
  10
257402.824851
  20
385930.600998
  30
156.69576793
  70
32
  0
VERTEX
  8
0
  10
257409.896869
  20
385924.121724
  30
163.468311249
  70
32
  0
VERTEX
  8
0
  10
257410.020289
  20
385921.55475
  30
167.231314421
  70
32
  0
VERTEX
  8
0
  10
257403.3838
  20
385920.350668
  30
171.695375193
  70
32
  0
VERTEX
  8
0
  10
257403.607511
  20
385915.24087
  30
179.194836184
  70
32
  0
VERTEX
  8
0
  10
257402.58031
  20
385903.765627
  30
196.653309495
  70
32
  0
SEQEND
  0
ENDSEC
  0
EOF
