  999
DXF Polyline File Exported from Leapfrog Geo
  0
SECTION
  2
ENTITIES
  0
POLYLINE
  8
0
  66
1
  70
8
  0
VERTEX
  8
0
  10
257461.282415
  20
385947.231805
  30
108.425573452
  70
32
  0
VERTEX
  8
0
  10
257323.26002
  20
385983.874227
  30
109.646298435
  70
32
  0
VERTEX
  8
0
  10
257249.511776
  20
385998.102208
  30
118.24622008
  70
32
  0
VERTEX
  8
0
  10
257212.115301
  20
385971.819197
  30
172.361808744
  70
32
  0
VERTEX
  8
0
  10
257143.979449
  20
385990.79172
  30
171.6518573
  70
32
  0
VERTEX
  8
0
  10
257105.615518
  20
385997.057952
  30
177.811648013
  70
32
  0
VERTEX
  8
0
  10
257090.036641
  20
385996.840384
  30
184.415710547
  70
32
  0
VERTEX
  8
0
  10
257052.297879
  20
386007.263534
  30
184.149124775
  70
32
  0
VERTEX
  8
0
  10
256892.895338
  20
386020.795183
  30
228.316397698
  70
32
  0
VERTEX
  8
0
  10
256863.826668
  20
386044.36761
  30
205.023503459
  70
32
  0
VERTEX
  8
0
  10
256806.014527
  20
386075.861638
  30
181.552995341
  70
32
  0
VERTEX
  8
0
  10
256780.233197
  20
386088.037311
  30
173.862507424
  70
32
  0
VERTEX
  8
0
  10
256810.54101
  20
386102.359689
  30
140.370136451
  70
32
  0
VERTEX
  8
0
  10
256872.204627
  20
386101.68016
  30
116.518646769
  70
32
  0
VERTEX
  8
0
  10
256876.101586
  20
386120.622202
  30
86.8126386906
  70
32
  0
VERTEX
  8
0
  10
256875.98508
  20
386132.860055
  30
68.6825556602
  70
32
  0
VERTEX
  8
0
  10
256886.084912
  20
386130.043549
  30
68.7940220511
  70
32
  0
VERTEX
  8
0
  10
256885.505121
  20
386140.399064
  30
53.6465842759
  70
32
  0
VERTEX
  8
0
  10
256911.747583
  20
386133.418758
  30
53.4344060981
  70
32
  0
VERTEX
  8
0
  10
257019.623679
  20
386208.772232
  30
-101.981358926
  70
32
  0
VERTEX
  8
0
  10
257037.541175
  20
386205.785734
  30
-104.769235518
  70
32
  0
VERTEX
  8
0
  10
257036.13276
  20
386167.628929
  30
-47.5265726372
  70
32
  0
VERTEX
  8
0
  10
257035.595466
  20
386153.703663
  30
-26.626560539
  70
32
  0
VERTEX
  8
0
  10
257048.454871
  20
386150.279639
  30
-26.7253119353
  70
32
  0
VERTEX
  8
0
  10
257048.131326
  20
386138.492025
  30
-9.08656149053
  70
32
  0
VERTEX
  8
0
  10
257057.839729
  20
386135.739354
  30
-8.91209921677
  70
32
  0
VERTEX
  8
0
  10
257058.981143
  20
386100.571913
  30
42.862410142
  70
32
  0
VERTEX
  8
0
  10
257089.079374
  20
386092.328319
  30
42.9720877946
  70
32
  0
VERTEX
  8
0
  10
257127.783938
  20
386082.796297
  30
41.5256877992
  70
32
  0
VERTEX
  8
0
  10
257126.479914
  20
386106.348119
  30
7.0695786883
  70
32
  0
VERTEX
  8
0
  10
257116.812399
  20
386108.722299
  30
7.44080996066
  70
32
  0
VERTEX
  8
0
  10
257117.525915
  20
386122.130607
  30
-12.7624037684
  70
32
  0
VERTEX
  8
0
  10
257097.699968
  20
386127.38125
  30
-12.5680674823
  70
32
  0
VERTEX
  8
0
  10
257099.056041
  20
386148.211386
  30
-44.0540844724
  70
32
  0
VERTEX
  8
0
  10
257109.708374
  20
386144.829587
  30
-43.3257312269
  70
32
  0
VERTEX
  8
0
  10
257109.546372
  20
386183.370984
  30
-100.50649214
  70
32
  0
VERTEX
  8
0
  10
257137.222911
  20
386177.605152
  30
-103.100719555
  70
32
  0
VERTEX
  8
0
  10
257137.708904
  20
386189.089727
  30
-120.354854864
  70
32
  0
VERTEX
  8
0
  10
257184.121879
  20
386181.353588
  30
-127.576491735
  70
32
  0
VERTEX
  8
0
  10
257234.750442
  20
386167.912631
  30
-128.024270893
  70
32
  0
VERTEX
  8
0
  10
257259.950686
  20
386117.527508
  30
-63.3464802539
  70
32
  0
VERTEX
  8
0
  10
257291.038639
  20
386108.271277
  30
-62.1317414563
  70
32
  0
VERTEX
  8
0
  10
257318.227418
  20
386100.221278
  30
-61.1366146875
  70
32
  0
VERTEX
  8
0
  10
257299.848619
  20
386019.995986
  30
65.4328766103
  70
32
  0
VERTEX
  8
0
  10
257467.740883
  20
385975.42366
  30
63.9479706291
  70
32
  0
VERTEX
  8
0
  10
257462.63901
  20
385953.153477
  30
99.0830950965
  70
32
  0
VERTEX
  8
0
  10
257515.545323
  20
385939.107819
  30
98.6151706192
  70
32
  0
VERTEX
  8
0
  10
257508.995041
  20
385910.515183
  30
143.725075809
  70
32
  0
VERTEX
  8
0
  10
257514.133034
  20
385881.653757
  30
184.521878755
  70
32
  0
VERTEX
  8
0
  10
257544.197137
  20
385854.387283
  30
212.900265911
  70
32
  0
VERTEX
  8
0
  10
257529.094935
  20
385859.218515
  30
211.813096547
  70
32
  0
VERTEX
  8
0
  10
257495.627269
  20
385875.798962
  30
200.679021691
  70
32
  0
VERTEX
  8
0
  10
257465.511538
  20
385882.38689
  30
203.035582686
  70
32
  0
VERTEX
  8
0
  10
257456.088728
  20
385924.560842
  30
144.193000286
  70
32
  0
VERTEX
  8
0
  10
257461.282415
  20
385947.231805
  30
108.425573452
  70
32
  0
SEQEND
  0
POLYLINE
  8
0
  66
1
  70
8
  0
VERTEX
  8
0
  10
256796.033128
  20
386287.047014
  30
-128.099408889
  70
32
  0
VERTEX
  8
0
  10
256799.37963
  20
386268.937369
  30
-102.550102756
  70
32
  0
VERTEX
  8
0
  10
256786.470022
  20
386201.39542
  30
2.9756385771
  70
32
  0
VERTEX
  8
0
  10
256750.159448
  20
386183.299818
  30
44.4925531223
  70
32
  0
VERTEX
  8
0
  10
256700.505372
  20
386197.506723
  30
43.40977848
  70
32
  0
VERTEX
  8
0
  10
256683.579579
  20
386281.793296
  30
-74.9583054239
  70
32
  0
VERTEX
  8
0
  10
256685.277366
  20
386292.345058
  30
-91.3154771331
  70
32
  0
VERTEX
  8
0
  10
256759.495583
  20
386326.28162
  30
-171.644343401
  70
32
  0
VERTEX
  8
0
  10
256745.955044
  20
386347.057487
  30
-197.043915897
  70
32
  0
VERTEX
  8
0
  10
256746.289652
  20
386376.371882
  30
-240.719899026
  70
32
  0
VERTEX
  8
0
  10
256796.484466
  20
386363.34286
  30
-241.604657927
  70
32
  0
VERTEX
  8
0
  10
256822.719072
  20
386301.958253
  30
-161.006201829
  70
32
  0
VERTEX
  8
0
  10
256796.033128
  20
386287.047014
  30
-128.099408889
  70
32
  0
SEQEND
  0
ENDSEC
  0
EOF
