  999
DXF Polyline File Exported from Leapfrog Geo
  0
SECTION
  2
ENTITIES
  0
POLYLINE
  8
0
  66
1
  70
8
  0
VERTEX
  8
0
  10
257245.354579
  20
386337.900364
  30
134.033236238
  70
32
  0
VERTEX
  8
0
  10
257241.658444
  20
386321.766364
  30
166.611985341
  70
32
  0
VERTEX
  8
0
  10
257237.189031
  20
386323.816629
  30
166.861452449
  70
32
  0
VERTEX
  8
0
  10
257237.372992
  20
386341.513294
  30
134.566772127
  70
32
  0
VERTEX
  8
0
  10
257245.354579
  20
386337.900364
  30
134.033236238
  70
32
  0
SEQEND
  0
POLYLINE
  8
0
  66
1
  70
8
  0
VERTEX
  8
0
  10
256906.050743
  20
386586.098182
  30
-15.0642380141
  70
32
  0
VERTEX
  8
0
  10
256956.548931
  20
386568.300108
  30
-27.6276987097
  70
32
  0
VERTEX
  8
0
  10
256951.645081
  20
386546.894311
  30
15.5961804411
  70
32
  0
VERTEX
  8
0
  10
256893.393532
  20
386573.616361
  30
18.8472727415
  70
32
  0
VERTEX
  8
0
  10
256896.771578
  20
386587.052705
  30
-8.55074743703
  70
32
  0
VERTEX
  8
0
  10
256906.050743
  20
386586.098182
  30
-15.0642380141
  70
32
  0
SEQEND
  0
POLYLINE
  8
0
  66
1
  70
8
  0
VERTEX
  8
0
  10
256997.266034
  20
386443.202018
  30
163.322228899
  70
32
  0
VERTEX
  8
0
  10
256936.831169
  20
386473.655314
  30
161.738990146
  70
32
  0
VERTEX
  8
0
  10
256930.187959
  20
386494.974372
  30
128.934709364
  70
32
  0
VERTEX
  8
0
  10
256975.071803
  20
386473.704951
  30
127.663630857
  70
32
  0
VERTEX
  8
0
  10
256997.45649
  20
386448.981154
  30
152.660000123
  70
32
  0
VERTEX
  8
0
  10
256997.266034
  20
386443.202018
  30
163.322228899
  70
32
  0
SEQEND
  0
POLYLINE
  8
0
  66
1
  70
8
  0
VERTEX
  8
0
  10
257305.457772
  20
386418.806605
  30
-66.2802200921
  70
32
  0
VERTEX
  8
0
  10
257305.596928
  20
386408.739188
  30
-48.1248477844
  70
32
  0
VERTEX
  8
0
  10
257291.627354
  20
386414.946998
  30
-46.9810957174
  70
32
  0
VERTEX
  8
0
  10
257297.950697
  20
386442.549024
  30
-102.716774779
  70
32
  0
VERTEX
  8
0
  10
257305.347637
  20
386433.681339
  30
-93.1898539858
  70
32
  0
VERTEX
  8
0
  10
257305.457772
  20
386418.806605
  30
-66.2802200921
  70
32
  0
SEQEND
  0
POLYLINE
  8
0
  66
1
  70
8
  0
VERTEX
  8
0
  10
257613.623761
  20
386117.959162
  30
206.084107784
  70
32
  0
VERTEX
  8
0
  10
257622.744777
  20
386104.898503
  30
221.691837069
  70
32
  0
VERTEX
  8
0
  10
257570.998924
  20
386128.341228
  30
225.115334065
  70
32
  0
VERTEX
  8
0
  10
257530.525257
  20
386148.443324
  30
224.586467657
  70
32
  0
VERTEX
  8
0
  10
257525.684935
  20
386150.835862
  30
224.544115975
  70
32
  0
VERTEX
  8
0
  10
257524.97622
  20
386161.410793
  30
205.973448314
  70
32
  0
VERTEX
  8
0
  10
257510.278327
  20
386168.419253
  30
206.310761697
  70
32
  0
VERTEX
  8
0
  10
257510.281352
  20
386172.409162
  30
199.063739497
  70
32
  0
VERTEX
  8
0
  10
257517.620761
  20
386168.915465
  30
198.884434415
  70
32
  0
VERTEX
  8
0
  10
257516.838918
  20
386178.871723
  30
181.50206043
  70
32
  0
VERTEX
  8
0
  10
257605.659317
  20
386138.126659
  30
176.544882124
  70
32
  0
VERTEX
  8
0
  10
257613.623761
  20
386117.959162
  30
206.084107784
  70
32
  0
SEQEND
  0
POLYLINE
  8
0
  66
1
  70
8
  0
VERTEX
  8
0
  10
257043.304949
  20
386562.01066
  30
-93.3100262801
  70
32
  0
VERTEX
  8
0
  10
257084.595021
  20
386541.850148
  30
-93.4006511434
  70
32
  0
VERTEX
  8
0
  10
257106.545076
  20
386494.405986
  30
-26.7654777205
  70
32
  0
VERTEX
  8
0
  10
257098.807495
  20
386492.148742
  30
-15.7905350816
  70
32
  0
VERTEX
  8
0
  10
257082.401653
  20
386487.136515
  30
7.89019193744
  70
32
  0
VERTEX
  8
0
  10
257068.925237
  20
386494.333317
  30
6.79998832657
  70
32
  0
VERTEX
  8
0
  10
257057.896797
  20
386490.450158
  30
23.651698739
  70
32
  0
VERTEX
  8
0
  10
257028.209675
  20
386484.961374
  30
60.0010382694
  70
32
  0
VERTEX
  8
0
  10
257007.811651
  20
386493.653078
  30
62.3479694515
  70
32
  0
VERTEX
  8
0
  10
256978.438311
  20
386508.0705
  30
62.2754698497
  70
32
  0
VERTEX
  8
0
  10
256983.385537
  20
386529.665638
  30
18.6692615728
  70
32
  0
VERTEX
  8
0
  10
256971.006262
  20
386535.34445
  30
19.3601645307
  70
32
  0
VERTEX
  8
0
  10
256976.908856
  20
386561.109864
  30
-32.6669155405
  70
32
  0
VERTEX
  8
0
  10
256996.069836
  20
386554.05349
  30
-36.8836712629
  70
32
  0
VERTEX
  8
0
  10
257016.46473
  20
386544.957597
  30
-38.4939474487
  70
32
  0
VERTEX
  8
0
  10
257014.73052
  20
386553.591139
  30
-52.6283286803
  70
32
  0
VERTEX
  8
0
  10
257034.590131
  20
386554.163906
  30
-71.3179244812
  70
32
  0
VERTEX
  8
0
  10
257040.400782
  20
386563.428886
  30
-93.3040554781
  70
32
  0
VERTEX
  8
0
  10
257043.304949
  20
386562.01066
  30
-93.3100262801
  70
32
  0
SEQEND
  0
ENDSEC
  0
EOF
