  999
DXF Polyline File Exported from Leapfrog Geo
  0
SECTION
  2
ENTITIES
  0
POLYLINE
  8
0
  66
1
  70
8
  0
VERTEX
  8
0
  10
257007.666849
  20
386493.813
  30
62.1862923353
  70
32
  0
VERTEX
  8
0
  10
257028.372554
  20
386484.781487
  30
60.1828984126
  70
32
  0
VERTEX
  8
0
  10
257026.790716
  20
386464.357946
  30
98.6709911602
  70
32
  0
VERTEX
  8
0
  10
257018.26353
  20
386467.985895
  30
99.6621395473
  70
32
  0
VERTEX
  8
0
  10
256981.706851
  20
386486.348096
  30
98.8112301619
  70
32
  0
VERTEX
  8
0
  10
256974.298375
  20
386489.999265
  30
98.765999841
  70
32
  0
VERTEX
  8
0
  10
256978.438311
  20
386508.0705
  30
62.2754698497
  70
32
  0
VERTEX
  8
0
  10
257007.666849
  20
386493.813
  30
62.1862923353
  70
32
  0
SEQEND
  0
POLYLINE
  8
0
  66
1
  70
8
  0
VERTEX
  8
0
  10
257251.135605
  20
386363.135118
  30
83.0776966959
  70
32
  0
VERTEX
  8
0
  10
257245.354579
  20
386337.900364
  30
134.033236238
  70
32
  0
VERTEX
  8
0
  10
257237.372992
  20
386341.513294
  30
134.566772127
  70
32
  0
VERTEX
  8
0
  10
257237.189031
  20
386323.816629
  30
166.861452449
  70
32
  0
VERTEX
  8
0
  10
257232.127831
  20
386312.816047
  30
191.332801301
  70
32
  0
VERTEX
  8
0
  10
257211.696601
  20
386323.091872
  30
190.833012214
  70
32
  0
VERTEX
  8
0
  10
257187.314781
  20
386324.876788
  30
209.260827809
  70
32
  0
VERTEX
  8
0
  10
257180.729003
  20
386329.786022
  30
206.200226271
  70
32
  0
VERTEX
  8
0
  10
257157.267336
  20
386374.295263
  30
146.237281433
  70
32
  0
VERTEX
  8
0
  10
257186.050841
  20
386409.446473
  30
56.8340171231
  70
32
  0
VERTEX
  8
0
  10
257192.967948
  20
386415.869642
  30
39.0243292538
  70
32
  0
VERTEX
  8
0
  10
257212.841508
  20
386406.752935
  30
37.9151608072
  70
32
  0
VERTEX
  8
0
  10
257286.88688
  20
386394.254358
  30
-5.19726605583
  70
32
  0
VERTEX
  8
0
  10
257291.627354
  20
386414.946998
  30
-46.9810957174
  70
32
  0
VERTEX
  8
0
  10
257305.596928
  20
386408.739188
  30
-48.1248477844
  70
32
  0
VERTEX
  8
0
  10
257305.347637
  20
386433.681339
  30
-93.1898539858
  70
32
  0
VERTEX
  8
0
  10
257357.232987
  20
386371.479541
  30
-26.3638866073
  70
32
  0
VERTEX
  8
0
  10
257333.650964
  20
386339.177774
  30
53.2430840508
  70
32
  0
VERTEX
  8
0
  10
257269.979235
  20
386354.490877
  30
82.0260099368
  70
32
  0
VERTEX
  8
0
  10
257251.135605
  20
386363.135118
  30
83.0776966959
  70
32
  0
SEQEND
  0
POLYLINE
  8
0
  66
1
  70
8
  0
VERTEX
  8
0
  10
256893.363905
  20
386560.240723
  30
43.1592613021
  70
32
  0
VERTEX
  8
0
  10
256931.321049
  20
386541.446681
  30
43.5496275499
  70
32
  0
VERTEX
  8
0
  10
256980.54355
  20
386517.260077
  30
43.7193210239
  70
32
  0
VERTEX
  8
0
  10
256980.335991
  20
386516.354061
  30
45.5488014261
  70
32
  0
VERTEX
  8
0
  10
256933.940148
  20
386539.031037
  30
45.6079772194
  70
32
  0
VERTEX
  8
0
  10
256893.440805
  20
386559.193861
  30
44.9916671927
  70
32
  0
VERTEX
  8
0
  10
256893.363905
  20
386560.240723
  30
43.1592613021
  70
32
  0
SEQEND
  0
ENDSEC
  0
EOF
