  999
DXF Polyline File Exported from Leapfrog Geo
  0
SECTION
  2
ENTITIES
  0
POLYLINE
  8
0
  66
1
  70
8
  0
VERTEX
  8
0
  10
257286.88688
  20
386394.254358
  30
-5.19726605584
  70
32
  0
VERTEX
  8
0
  10
257212.841508
  20
386406.752935
  30
37.9151608072
  70
32
  0
VERTEX
  8
0
  10
257192.967948
  20
386415.869642
  30
39.0243292538
  70
32
  0
VERTEX
  8
0
  10
257230.003053
  20
386449.265798
  30
-54.5257136934
  70
32
  0
VERTEX
  8
0
  10
257242.091206
  20
386483.927962
  30
-128.203532307
  70
32
  0
VERTEX
  8
0
  10
257268.898192
  20
386477.355285
  30
-140.093680465
  70
32
  0
VERTEX
  8
0
  10
257297.950697
  20
386442.549024
  30
-102.716774779
  70
32
  0
VERTEX
  8
0
  10
257286.88688
  20
386394.254358
  30
-5.19726605584
  70
32
  0
SEQEND
  0
POLYLINE
  8
0
  66
1
  70
8
  0
VERTEX
  8
0
  10
257156.52053
  20
386460.725541
  30
-10.027328641
  70
32
  0
VERTEX
  8
0
  10
257129.086411
  20
386473.163225
  30
-8.22871551599
  70
32
  0
VERTEX
  8
0
  10
257129.00596
  20
386479.241954
  30
-19.194142334
  70
32
  0
VERTEX
  8
0
  10
257121.759744
  20
386482.632725
  30
-18.9107826541
  70
32
  0
VERTEX
  8
0
  10
257109.017546
  20
386489.061842
  30
-19.2596431924
  70
32
  0
VERTEX
  8
0
  10
257084.595021
  20
386541.850148
  30
-93.4006511434
  70
32
  0
VERTEX
  8
0
  10
257114.108061
  20
386528.122455
  30
-94.70462291
  70
32
  0
VERTEX
  8
0
  10
257149.012668
  20
386512.633578
  30
-97.6024711033
  70
32
  0
VERTEX
  8
0
  10
257161.030536
  20
386506.193418
  30
-96.5898323324
  70
32
  0
VERTEX
  8
0
  10
257175.884554
  20
386474.228176
  30
-51.7527756164
  70
32
  0
VERTEX
  8
0
  10
257156.52053
  20
386460.725541
  30
-10.027328641
  70
32
  0
SEQEND
  0
POLYLINE
  8
0
  66
1
  70
8
  0
VERTEX
  8
0
  10
257538.09643
  20
386179.965471
  30
160.624195949
  70
32
  0
VERTEX
  8
0
  10
257565.859578
  20
386166.912097
  30
159.651052456
  70
32
  0
VERTEX
  8
0
  10
257563.677105
  20
386157.385387
  30
178.887962257
  70
32
  0
VERTEX
  8
0
  10
257531.558717
  20
386172.119229
  30
180.680529933
  70
32
  0
VERTEX
  8
0
  10
257530.848866
  20
386177.436855
  30
171.656369454
  70
32
  0
VERTEX
  8
0
  10
257538.09643
  20
386179.965471
  30
160.624195949
  70
32
  0
SEQEND
  0
POLYLINE
  8
0
  66
1
  70
8
  0
VERTEX
  8
0
  10
257251.728096
  20
386316.983582
  30
166.346802793
  70
32
  0
VERTEX
  8
0
  10
257241.658444
  20
386321.766364
  30
166.611985341
  70
32
  0
VERTEX
  8
0
  10
257245.354579
  20
386337.900364
  30
134.033236238
  70
32
  0
VERTEX
  8
0
  10
257251.519308
  20
386335.114007
  30
133.613603268
  70
32
  0
VERTEX
  8
0
  10
257251.728096
  20
386316.983582
  30
166.346802793
  70
32
  0
SEQEND
  0
ENDSEC
  0
EOF
