  999
DXF Polyline File Exported from Leapfrog Geo
  0
SECTION
  2
ENTITIES
  0
POLYLINE
  8
0
  66
1
  70
8
  0
VERTEX
  8
0
  10
257580.916778
  20
386368.177744
  30
-100.134899736
  70
32
  0
VERTEX
  8
0
  10
257603.492699
  20
386358.564819
  30
-100.974375222
  70
32
  0
VERTEX
  8
0
  10
257604.200578
  20
386339.567212
  30
-67.6839224837
  70
32
  0
VERTEX
  8
0
  10
257597.228591
  20
386328.251646
  30
-41.9699776267
  70
32
  0
VERTEX
  8
0
  10
257604.554746
  20
386317.021159
  30
-27.7885612794
  70
32
  0
VERTEX
  8
0
  10
257619.189842
  20
386310.71272
  30
-28.1959893539
  70
32
  0
VERTEX
  8
0
  10
257641.959543
  20
386300.37317
  30
-27.894858397
  70
32
  0
VERTEX
  8
0
  10
257717.091965
  20
386266.730726
  30
-27.7470049553
  70
32
  0
VERTEX
  8
0
  10
257717.644336
  20
386258.000976
  30
-12.630183303
  70
32
  0
VERTEX
  8
0
  10
257725.252045
  20
386252.571316
  30
-9.01000206746
  70
32
  0
VERTEX
  8
0
  10
257725.356904
  20
386250.424849
  30
-5.26844347689
  70
32
  0
VERTEX
  8
0
  10
257717.994954
  20
386247.523722
  30
5.76129407369
  70
32
  0
VERTEX
  8
0
  10
257717.73651
  20
386233.702173
  30
30.5971324882
  70
32
  0
VERTEX
  8
0
  10
257688.145356
  20
386240.560517
  30
41.9292236279
  70
32
  0
VERTEX
  8
0
  10
257688.261883
  20
386238.211545
  30
46.0223596833
  70
32
  0
VERTEX
  8
0
  10
257661.842078
  20
386249.885107
  30
46.2493863419
  70
32
  0
VERTEX
  8
0
  10
257667.896724
  20
386276.31424
  30
-5.66689259572
  70
32
  0
VERTEX
  8
0
  10
257624.018653
  20
386294.767529
  30
-3.62511435587
  70
32
  0
VERTEX
  8
0
  10
257617.964008
  20
386268.338395
  30
48.2911645817
  70
32
  0
VERTEX
  8
0
  10
257576.71167
  20
386285.050226
  30
51.3462271544
  70
32
  0
VERTEX
  8
0
  10
257512.986802
  20
386310.067888
  30
57.4877225777
  70
32
  0
VERTEX
  8
0
  10
257580.916778
  20
386368.177744
  30
-100.134899736
  70
32
  0
SEQEND
  0
POLYLINE
  8
0
  66
1
  70
8
  0
VERTEX
  8
0
  10
257444.694606
  20
386410.460955
  30
-67.054962973
  70
32
  0
VERTEX
  8
0
  10
257381.678063
  20
386436.963088
  30
-64.122614213
  70
32
  0
VERTEX
  8
0
  10
257377.56789
  20
386419.02177
  30
-28.87944416
  70
32
  0
VERTEX
  8
0
  10
257348.593182
  20
386418.338009
  30
-4.59792781376
  70
32
  0
VERTEX
  8
0
  10
257315.320095
  20
386432.331284
  30
-3.04963122923
  70
32
  0
VERTEX
  8
0
  10
257252.049458
  20
386459.757751
  30
-1.56220267147
  70
32
  0
VERTEX
  8
0
  10
257214.856103
  20
386475.399726
  30
0.168515719559
  70
32
  0
VERTEX
  8
0
  10
257227.741447
  20
386531.645538
  30
-110.318392223
  70
32
  0
VERTEX
  8
0
  10
257273.639068
  20
386511.210921
  30
-110.436930356
  70
32
  0
VERTEX
  8
0
  10
257345.64686
  20
386480.921926
  30
-113.777837916
  70
32
  0
VERTEX
  8
0
  10
257396.507524
  20
386459.231085
  30
-115.608215081
  70
32
  0
VERTEX
  8
0
  10
257395.532432
  20
386450.12218
  30
-98.5999203252
  70
32
  0
VERTEX
  8
0
  10
257423.190845
  20
386439.289558
  30
-101.311404914
  70
32
  0
VERTEX
  8
0
  10
257445.636042
  20
386429.298277
  30
-101.372595237
  70
32
  0
VERTEX
  8
0
  10
257461.750118
  20
386422.17695
  30
-101.50867528
  70
32
  0
VERTEX
  8
0
  10
257444.694606
  20
386410.460955
  30
-67.054962973
  70
32
  0
SEQEND
  0
ENDSEC
  0
EOF
