  999
DXF Polyline File Exported from Leapfrog Geo
  0
SECTION
  2
ENTITIES
  0
POLYLINE
  8
0
  66
1
  70
8
  0
VERTEX
  8
0
  10
257624.018653
  20
386294.767529
  30
-3.62511435588
  70
32
  0
VERTEX
  8
0
  10
257667.896724
  20
386276.31424
  30
-5.66689259573
  70
32
  0
VERTEX
  8
0
  10
257661.842078
  20
386249.885107
  30
46.2493863418
  70
32
  0
VERTEX
  8
0
  10
257673.699477
  20
386244.645928
  30
46.1474951384
  70
32
  0
VERTEX
  8
0
  10
257673.938006
  20
386241.476679
  30
51.6052639064
  70
32
  0
VERTEX
  8
0
  10
257661.204003
  20
386247.099846
  30
51.7206347817
  70
32
  0
VERTEX
  8
0
  10
257617.325933
  20
386265.553135
  30
53.7624130216
  70
32
  0
VERTEX
  8
0
  10
257576.073595
  20
386282.264966
  30
56.8174755942
  70
32
  0
VERTEX
  8
0
  10
257512.348727
  20
386307.282628
  30
62.9589710176
  70
32
  0
VERTEX
  8
0
  10
257459.056979
  20
386332.467721
  30
60.4976338998
  70
32
  0
VERTEX
  8
0
  10
257454.692268
  20
386313.415325
  30
97.9233612125
  70
32
  0
VERTEX
  8
0
  10
257493.579477
  20
386294.421669
  30
100.817106926
  70
32
  0
VERTEX
  8
0
  10
257563.342665
  20
386264.546905
  30
98.524677739
  70
32
  0
VERTEX
  8
0
  10
257660.979247
  20
386218.344615
  30
103.1416139
  70
32
  0
VERTEX
  8
0
  10
257661.089764
  20
386216.234183
  30
106.814453978
  70
32
  0
VERTEX
  8
0
  10
257562.917282
  20
386262.690065
  30
102.172176699
  70
32
  0
VERTEX
  8
0
  10
257493.154094
  20
386292.564829
  30
104.464605886
  70
32
  0
VERTEX
  8
0
  10
257454.266885
  20
386311.558484
  30
101.570860172
  70
32
  0
VERTEX
  8
0
  10
257452.654598
  20
386304.520691
  30
115.395606002
  70
32
  0
VERTEX
  8
0
  10
257445.919283
  20
386308.063385
  30
114.443613807
  70
32
  0
VERTEX
  8
0
  10
257446.792417
  20
386297.025351
  30
133.418499265
  70
32
  0
VERTEX
  8
0
  10
257416.445645
  20
386310.797648
  30
133.031315438
  70
32
  0
VERTEX
  8
0
  10
257417.976119
  20
386285.957276
  30
176.078866365
  70
32
  0
VERTEX
  8
0
  10
257440.312003
  20
386276.494193
  30
175.163433
  70
32
  0
VERTEX
  8
0
  10
257447.646718
  20
386271.778852
  30
177.72798716
  70
32
  0
VERTEX
  8
0
  10
257465.43356
  20
386263.18943
  30
178.876589806
  70
32
  0
VERTEX
  8
0
  10
257499.197552
  20
386242.392615
  30
189.061516886
  70
32
  0
VERTEX
  8
0
  10
257473.624543
  20
386255.740761
  30
185.630392704
  70
32
  0
VERTEX
  8
0
  10
257473.20006
  20
386244.061038
  30
206.781641614
  70
32
  0
VERTEX
  8
0
  10
257455.730618
  20
386253.411384
  30
204.024421869
  70
32
  0
VERTEX
  8
0
  10
257370.413081
  20
386293.285611
  30
200.878540595
  70
32
  0
VERTEX
  8
0
  10
257317.215483
  20
386308.65802
  30
215.828554269
  70
32
  0
VERTEX
  8
0
  10
257245.987551
  20
386346.051625
  30
205.88823511
  70
32
  0
VERTEX
  8
0
  10
257239.153328
  20
386359.673006
  30
187.05466094
  70
32
  0
VERTEX
  8
0
  10
257239.832956
  20
386368.59613
  30
170.612610141
  70
32
  0
VERTEX
  8
0
  10
257272.054477
  20
386355.049778
  30
169.10491078
  70
32
  0
VERTEX
  8
0
  10
257289.809862
  20
386379.960886
  30
110.580309984
  70
32
  0
VERTEX
  8
0
  10
257277.422621
  20
386385.170443
  30
111.156725436
  70
32
  0
VERTEX
  8
0
  10
257263.516583
  20
386391.688659
  30
110.610019342
  70
32
  0
VERTEX
  8
0
  10
257263.591663
  20
386393.709698
  30
106.948748462
  70
32
  0
VERTEX
  8
0
  10
257278.308989
  20
386386.72385
  30
107.683016832
  70
32
  0
VERTEX
  8
0
  10
257290.566574
  20
386381.641054
  30
106.983913736
  70
32
  0
VERTEX
  8
0
  10
257295.291501
  20
386407.407054
  30
57.3077637671
  70
32
  0
VERTEX
  8
0
  10
257245.526607
  20
386431.284854
  30
54.3687579586
  70
32
  0
VERTEX
  8
0
  10
257246.164682
  20
386434.070115
  30
48.8975095188
  70
32
  0
VERTEX
  8
0
  10
257297.084411
  20
386409.63821
  30
51.9047174122
  70
32
  0
VERTEX
  8
0
  10
257315.320095
  20
386432.331284
  30
-3.04963122923
  70
32
  0
VERTEX
  8
0
  10
257348.593182
  20
386418.338009
  30
-4.59792781376
  70
32
  0
VERTEX
  8
0
  10
257377.56789
  20
386419.02177
  30
-28.87944416
  70
32
  0
VERTEX
  8
0
  10
257381.678063
  20
386436.963088
  30
-64.122614213
  70
32
  0
VERTEX
  8
0
  10
257444.694606
  20
386410.460955
  30
-67.054962973
  70
32
  0
VERTEX
  8
0
  10
257486.735402
  20
386439.340167
  30
-151.981261092
  70
32
  0
VERTEX
  8
0
  10
257526.604217
  20
386422.573004
  30
-153.836476643
  70
32
  0
VERTEX
  8
0
  10
257511.112918
  20
386403.407981
  30
-107.35359852
  70
32
  0
VERTEX
  8
0
  10
257472.261124
  20
386396.635827
  30
-64.36062992
  70
32
  0
VERTEX
  8
0
  10
257452.538083
  20
386373.154596
  30
-6.81788251678
  70
32
  0
VERTEX
  8
0
  10
257446.521747
  20
386354.509992
  30
31.1958006917
  70
32
  0
VERTEX
  8
0
  10
257481.188364
  20
386339.930657
  30
29.5826590023
  70
32
  0
VERTEX
  8
0
  10
257478.22286
  20
386326.985937
  30
55.0107236035
  70
32
  0
VERTEX
  8
0
  10
257512.986802
  20
386310.067888
  30
57.4877225777
  70
32
  0
VERTEX
  8
0
  10
257576.71167
  20
386285.050226
  30
51.3462271543
  70
32
  0
VERTEX
  8
0
  10
257617.964008
  20
386268.338395
  30
48.2911645817
  70
32
  0
VERTEX
  8
0
  10
257624.018653
  20
386294.767529
  30
-3.62511435588
  70
32
  0
SEQEND
  0
POLYLINE
  8
0
  66
1
  70
8
  0
VERTEX
  8
0
  10
257188.295469
  20
386434.259964
  30
94.6214535359
  70
32
  0
VERTEX
  8
0
  10
257239.056078
  20
386412.912166
  30
92.259410121
  70
32
  0
VERTEX
  8
0
  10
257238.382028
  20
386409.969867
  30
98.0391385936
  70
32
  0
VERTEX
  8
0
  10
257211.226343
  20
386421.35311
  30
99.3692557744
  70
32
  0
VERTEX
  8
0
  10
257188.211627
  20
386431.955617
  30
98.7945568763
  70
32
  0
VERTEX
  8
0
  10
257188.295469
  20
386434.259964
  30
94.6214535359
  70
32
  0
SEQEND
  0
POLYLINE
  8
0
  66
1
  70
8
  0
VERTEX
  8
0
  10
257025.088153
  20
386460.242658
  30
178.228469458
  70
32
  0
VERTEX
  8
0
  10
256995.054424
  20
386476.621428
  30
172.947353959
  70
32
  0
VERTEX
  8
0
  10
256982.874242
  20
386489.745014
  30
159.256086348
  70
32
  0
VERTEX
  8
0
  10
257002.067227
  20
386481.673244
  30
158.36297918
  70
32
  0
VERTEX
  8
0
  10
257005.111721
  20
386494.962765
  30
132.257602238
  70
32
  0
VERTEX
  8
0
  10
257010.363613
  20
386492.58007
  30
132.323228424
  70
32
  0
VERTEX
  8
0
  10
257010.14368
  20
386484.679181
  30
146.577745243
  70
32
  0
VERTEX
  8
0
  10
257017.715048
  20
386479.288524
  30
150.15734965
  70
32
  0
VERTEX
  8
0
  10
257017.93816
  20
386472.946477
  30
161.281342206
  70
32
  0
VERTEX
  8
0
  10
257025.227725
  20
386465.823925
  30
168.171505063
  70
32
  0
VERTEX
  8
0
  10
257025.088153
  20
386460.242658
  30
178.228469458
  70
32
  0
SEQEND
  0
ENDSEC
  0
EOF
