  999
DXF Polyline File Exported from Leapfrog Geo
  0
SECTION
  2
ENTITIES
  0
POLYLINE
  8
0
  66
1
  70
8
  0
VERTEX
  8
0
  10
257504.534036
  20
386402.261233
  30
-100.073479349
  70
32
  0
VERTEX
  8
0
  10
257538.034559
  20
386386.523723
  30
-98.6945646798
  70
32
  0
SEQEND
  0
POLYLINE
  8
0
  66
1
  70
8
  0
VERTEX
  8
0
  10
257538.034559
  20
386386.523723
  30
-98.6945646798
  70
32
  0
VERTEX
  8
0
  10
257580.916778
  20
386368.177744
  30
-100.134899736
  70
32
  0
SEQEND
  0
POLYLINE
  8
0
  66
1
  70
8
  0
VERTEX
  8
0
  10
257580.916778
  20
386368.177744
  30
-100.134899736
  70
32
  0
VERTEX
  8
0
  10
257526.137904
  20
386321.317835
  30
26.9723109726
  70
32
  0
SEQEND
  0
POLYLINE
  8
0
  66
1
  70
8
  0
VERTEX
  8
0
  10
257526.137904
  20
386321.317835
  30
26.9723109726
  70
32
  0
VERTEX
  8
0
  10
257517.257324
  20
386336.083169
  30
7.72904395586
  70
32
  0
SEQEND
  0
POLYLINE
  8
0
  66
1
  70
8
  0
VERTEX
  8
0
  10
257517.257324
  20
386336.083169
  30
7.72904395586
  70
32
  0
VERTEX
  8
0
  10
257516.897523
  20
386340.537986
  30
0.0769133652126
  70
32
  0
SEQEND
  0
POLYLINE
  8
0
  66
1
  70
8
  0
VERTEX
  8
0
  10
257516.897523
  20
386340.537986
  30
0.0769133652126
  70
32
  0
VERTEX
  8
0
  10
257524.669657
  20
386342.928183
  30
-10.3688393942
  70
32
  0
SEQEND
  0
POLYLINE
  8
0
  66
1
  70
8
  0
VERTEX
  8
0
  10
257524.669657
  20
386342.928183
  30
-10.3688393942
  70
32
  0
VERTEX
  8
0
  10
257525.05051
  20
386362.721359
  30
-45.9436036851
  70
32
  0
SEQEND
  0
POLYLINE
  8
0
  66
1
  70
8
  0
VERTEX
  8
0
  10
257525.05051
  20
386362.721359
  30
-45.9436036851
  70
32
  0
VERTEX
  8
0
  10
257466.958366
  20
386390.322638
  30
-48.8896258254
  70
32
  0
SEQEND
  0
POLYLINE
  8
0
  66
1
  70
8
  0
VERTEX
  8
0
  10
257466.958366
  20
386390.322638
  30
-48.8896258254
  70
32
  0
VERTEX
  8
0
  10
257472.261124
  20
386396.635827
  30
-64.36062992
  70
32
  0
SEQEND
  0
POLYLINE
  8
0
  66
1
  70
8
  0
VERTEX
  8
0
  10
257472.261124
  20
386396.635827
  30
-64.36062992
  70
32
  0
VERTEX
  8
0
  10
257504.534036
  20
386402.261233
  30
-100.073479349
  70
32
  0
SEQEND
  0
POLYLINE
  8
0
  66
1
  70
8
  0
VERTEX
  8
0
  10
257452.538083
  20
386373.154596
  30
-6.81788251678
  70
32
  0
VERTEX
  8
0
  10
257453.314448
  20
386374.078896
  30
-9.08295890792
  70
32
  0
SEQEND
  0
POLYLINE
  8
0
  66
1
  70
8
  0
VERTEX
  8
0
  10
257453.314448
  20
386374.078896
  30
-9.08295890792
  70
32
  0
VERTEX
  8
0
  10
257455.182937
  20
386373.246655
  30
-9.08716331315
  70
32
  0
SEQEND
  0
POLYLINE
  8
0
  66
1
  70
8
  0
VERTEX
  8
0
  10
257455.182937
  20
386373.246655
  30
-9.08716331315
  70
32
  0
VERTEX
  8
0
  10
257462.855131
  20
386369.711819
  30
-8.89490229832
  70
32
  0
SEQEND
  0
POLYLINE
  8
0
  66
1
  70
8
  0
VERTEX
  8
0
  10
257462.855131
  20
386369.711819
  30
-8.89490229832
  70
32
  0
VERTEX
  8
0
  10
257463.461228
  20
386348.859418
  30
27.7818262852
  70
32
  0
SEQEND
  0
POLYLINE
  8
0
  66
1
  70
8
  0
VERTEX
  8
0
  10
257463.461228
  20
386348.859418
  30
27.7818262852
  70
32
  0
VERTEX
  8
0
  10
257471.121546
  20
386345.337327
  30
27.960827263
  70
32
  0
SEQEND
  0
POLYLINE
  8
0
  66
1
  70
8
  0
VERTEX
  8
0
  10
257471.121546
  20
386345.337327
  30
27.960827263
  70
32
  0
VERTEX
  8
0
  10
257471.154015
  20
386344.150687
  30
30.0495873861
  70
32
  0
SEQEND
  0
POLYLINE
  8
0
  66
1
  70
8
  0
VERTEX
  8
0
  10
257471.154015
  20
386344.150687
  30
30.0495873861
  70
32
  0
VERTEX
  8
0
  10
257446.521747
  20
386354.509992
  30
31.1958006917
  70
32
  0
SEQEND
  0
POLYLINE
  8
0
  66
1
  70
8
  0
VERTEX
  8
0
  10
257446.521747
  20
386354.509992
  30
31.1958006917
  70
32
  0
VERTEX
  8
0
  10
257452.538083
  20
386373.154596
  30
-6.81788251678
  70
32
  0
SEQEND
  0
POLYLINE
  8
0
  66
1
  70
8
  0
VERTEX
  8
0
  10
257516.603382
  20
386313.161647
  30
49.0959219676
  70
32
  0
VERTEX
  8
0
  10
257512.986802
  20
386310.067888
  30
57.4877225777
  70
32
  0
SEQEND
  0
POLYLINE
  8
0
  66
1
  70
8
  0
VERTEX
  8
0
  10
257512.986802
  20
386310.067888
  30
57.4877225777
  70
32
  0
VERTEX
  8
0
  10
257478.22286
  20
386326.985937
  30
55.0107236035
  70
32
  0
SEQEND
  0
POLYLINE
  8
0
  66
1
  70
8
  0
VERTEX
  8
0
  10
257478.22286
  20
386326.985937
  30
55.0107236035
  70
32
  0
VERTEX
  8
0
  10
257479.117864
  20
386330.892719
  30
47.3364038008
  70
32
  0
SEQEND
  0
POLYLINE
  8
0
  66
1
  70
8
  0
VERTEX
  8
0
  10
257479.117864
  20
386330.892719
  30
47.3364038008
  70
32
  0
VERTEX
  8
0
  10
257516.603382
  20
386313.161647
  30
49.0959219676
  70
32
  0
SEQEND
  0
POLYLINE
  8
0
  66
1
  70
8
  0
VERTEX
  8
0
  10
257493.579477
  20
386294.421669
  30
100.817106926
  70
32
  0
VERTEX
  8
0
  10
257454.692268
  20
386313.415325
  30
97.9233612125
  70
32
  0
SEQEND
  0
POLYLINE
  8
0
  66
1
  70
8
  0
VERTEX
  8
0
  10
257454.692268
  20
386313.415325
  30
97.9233612125
  70
32
  0
VERTEX
  8
0
  10
257459.056979
  20
386332.467721
  30
60.4976338998
  70
32
  0
SEQEND
  0
POLYLINE
  8
0
  66
1
  70
8
  0
VERTEX
  8
0
  10
257459.056979
  20
386332.467721
  30
60.4976338998
  70
32
  0
VERTEX
  8
0
  10
257512.348727
  20
386307.282628
  30
62.9589710176
  70
32
  0
SEQEND
  0
POLYLINE
  8
0
  66
1
  70
8
  0
VERTEX
  8
0
  10
257512.348727
  20
386307.282628
  30
62.9589710176
  70
32
  0
VERTEX
  8
0
  10
257576.073595
  20
386282.264966
  30
56.8174755942
  70
32
  0
SEQEND
  0
POLYLINE
  8
0
  66
1
  70
8
  0
VERTEX
  8
0
  10
257576.073595
  20
386282.264966
  30
56.8174755942
  70
32
  0
VERTEX
  8
0
  10
257617.325933
  20
386265.553135
  30
53.7624130216
  70
32
  0
SEQEND
  0
POLYLINE
  8
0
  66
1
  70
8
  0
VERTEX
  8
0
  10
257617.325933
  20
386265.553135
  30
53.7624130216
  70
32
  0
VERTEX
  8
0
  10
257661.204003
  20
386247.099846
  30
51.7206347817
  70
32
  0
SEQEND
  0
POLYLINE
  8
0
  66
1
  70
8
  0
VERTEX
  8
0
  10
257661.204003
  20
386247.099846
  30
51.7206347817
  70
32
  0
VERTEX
  8
0
  10
257673.938006
  20
386241.476679
  30
51.6052639064
  70
32
  0
SEQEND
  0
POLYLINE
  8
0
  66
1
  70
8
  0
VERTEX
  8
0
  10
257673.938006
  20
386241.476679
  30
51.6052639064
  70
32
  0
VERTEX
  8
0
  10
257674.107657
  20
386236.12685
  30
61.0036676791
  70
32
  0
SEQEND
  0
POLYLINE
  8
0
  66
1
  70
8
  0
VERTEX
  8
0
  10
257674.107657
  20
386236.12685
  30
61.0036676791
  70
32
  0
VERTEX
  8
0
  10
257674.235668
  20
386233.871276
  30
64.9212283256
  70
32
  0
SEQEND
  0
POLYLINE
  8
0
  66
1
  70
8
  0
VERTEX
  8
0
  10
257674.235668
  20
386233.871276
  30
64.9212283256
  70
32
  0
VERTEX
  8
0
  10
257688.777532
  20
386227.817056
  30
64.1349907031
  70
32
  0
SEQEND
  0
POLYLINE
  8
0
  66
1
  70
8
  0
VERTEX
  8
0
  10
257688.777532
  20
386227.817056
  30
64.1349907031
  70
32
  0
VERTEX
  8
0
  10
257703.423543
  20
386217.42864
  30
70.9894292774
  70
32
  0
SEQEND
  0
POLYLINE
  8
0
  66
1
  70
8
  0
VERTEX
  8
0
  10
257703.423543
  20
386217.42864
  30
70.9894292774
  70
32
  0
VERTEX
  8
0
  10
257703.566061
  20
386213.207019
  30
78.3989555692
  70
32
  0
SEQEND
  0
POLYLINE
  8
0
  66
1
  70
8
  0
VERTEX
  8
0
  10
257703.566061
  20
386213.207019
  30
78.3989555692
  70
32
  0
VERTEX
  8
0
  10
257660.253404
  20
386231.496305
  30
80.2829351262
  70
32
  0
SEQEND
  0
POLYLINE
  8
0
  66
1
  70
8
  0
VERTEX
  8
0
  10
257660.253404
  20
386231.496305
  30
80.2829351262
  70
32
  0
VERTEX
  8
0
  10
257660.979247
  20
386218.344615
  30
103.1416139
  70
32
  0
SEQEND
  0
POLYLINE
  8
0
  66
1
  70
8
  0
VERTEX
  8
0
  10
257660.979247
  20
386218.344615
  30
103.1416139
  70
32
  0
VERTEX
  8
0
  10
257594.298986
  20
386249.886872
  30
100.008632335
  70
32
  0
SEQEND
  0
POLYLINE
  8
0
  66
1
  70
8
  0
VERTEX
  8
0
  10
257594.298986
  20
386249.886872
  30
100.008632335
  70
32
  0
VERTEX
  8
0
  10
257563.342665
  20
386264.546905
  30
98.524677739
  70
32
  0
SEQEND
  0
POLYLINE
  8
0
  66
1
  70
8
  0
VERTEX
  8
0
  10
257563.342665
  20
386264.546905
  30
98.524677739
  70
32
  0
VERTEX
  8
0
  10
257493.579477
  20
386294.421669
  30
100.817106926
  70
32
  0
SEQEND
  0
POLYLINE
  8
0
  66
1
  70
8
  0
VERTEX
  8
0
  10
257452.109764
  20
386302.142434
  30
120.067354116
  70
32
  0
VERTEX
  8
0
  10
257454.266885
  20
386311.558484
  30
101.570860172
  70
32
  0
SEQEND
  0
POLYLINE
  8
0
  66
1
  70
8
  0
VERTEX
  8
0
  10
257454.266885
  20
386311.558484
  30
101.570860172
  70
32
  0
VERTEX
  8
0
  10
257493.154094
  20
386292.564829
  30
104.464605886
  70
32
  0
SEQEND
  0
POLYLINE
  8
0
  66
1
  70
8
  0
VERTEX
  8
0
  10
257493.154094
  20
386292.564829
  30
104.464605886
  70
32
  0
VERTEX
  8
0
  10
257562.917282
  20
386262.690065
  30
102.172176699
  70
32
  0
SEQEND
  0
POLYLINE
  8
0
  66
1
  70
8
  0
VERTEX
  8
0
  10
257562.917282
  20
386262.690065
  30
102.172176699
  70
32
  0
VERTEX
  8
0
  10
257661.089764
  20
386216.234183
  30
106.814453978
  70
32
  0
SEQEND
  0
POLYLINE
  8
0
  66
1
  70
8
  0
VERTEX
  8
0
  10
257661.089764
  20
386216.234183
  30
106.814453978
  70
32
  0
VERTEX
  8
0
  10
257661.293041
  20
386210.178616
  30
117.443726278
  70
32
  0
SEQEND
  0
POLYLINE
  8
0
  66
1
  70
8
  0
VERTEX
  8
0
  10
257661.293041
  20
386210.178616
  30
117.443726278
  70
32
  0
VERTEX
  8
0
  10
257661.553581
  20
386207.890895
  30
121.31308327
  70
32
  0
SEQEND
  0
POLYLINE
  8
0
  66
1
  70
8
  0
VERTEX
  8
0
  10
257661.553581
  20
386207.890895
  30
121.31308327
  70
32
  0
VERTEX
  8
0
  10
257668.759284
  20
386204.900782
  30
120.905955124
  70
32
  0
SEQEND
  0
POLYLINE
  8
0
  66
1
  70
8
  0
VERTEX
  8
0
  10
257668.759284
  20
386204.900782
  30
120.905955124
  70
32
  0
VERTEX
  8
0
  10
257670.039571
  20
386195.389808
  30
136.835522235
  70
32
  0
SEQEND
  0
POLYLINE
  8
0
  66
1
  70
8
  0
VERTEX
  8
0
  10
257670.039571
  20
386195.389808
  30
136.835522235
  70
32
  0
VERTEX
  8
0
  10
257662.824801
  20
386198.433724
  30
137.15399125
  70
32
  0
SEQEND
  0
POLYLINE
  8
0
  66
1
  70
8
  0
VERTEX
  8
0
  10
257662.824801
  20
386198.433724
  30
137.15399125
  70
32
  0
VERTEX
  8
0
  10
257663.792165
  20
386191.363225
  30
148.983687735
  70
32
  0
SEQEND
  0
POLYLINE
  8
0
  66
1
  70
8
  0
VERTEX
  8
0
  10
257663.792165
  20
386191.363225
  30
148.983687735
  70
32
  0
VERTEX
  8
0
  10
257656.216986
  20
386186.727317
  30
163.274547096
  70
32
  0
SEQEND
  0
POLYLINE
  8
0
  66
1
  70
8
  0
VERTEX
  8
0
  10
257656.216986
  20
386186.727317
  30
163.274547096
  70
32
  0
VERTEX
  8
0
  10
257639.880376
  20
386188.758873
  30
172.657774586
  70
32
  0
SEQEND
  0
POLYLINE
  8
0
  66
1
  70
8
  0
VERTEX
  8
0
  10
257639.880376
  20
386188.758873
  30
172.657774586
  70
32
  0
VERTEX
  8
0
  10
257594.677711
  20
386209.076575
  30
172.431492139
  70
32
  0
SEQEND
  0
POLYLINE
  8
0
  66
1
  70
8
  0
VERTEX
  8
0
  10
257594.677711
  20
386209.076575
  30
172.431492139
  70
32
  0
VERTEX
  8
0
  10
257587.002377
  20
386218.71778
  30
161.360125883
  70
32
  0
SEQEND
  0
POLYLINE
  8
0
  66
1
  70
8
  0
VERTEX
  8
0
  10
257587.002377
  20
386218.71778
  30
161.360125883
  70
32
  0
VERTEX
  8
0
  10
257571.744628
  20
386229.69243
  30
153.947939234
  70
32
  0
SEQEND
  0
POLYLINE
  8
0
  66
1
  70
8
  0
VERTEX
  8
0
  10
257571.744628
  20
386229.69243
  30
153.947939234
  70
32
  0
VERTEX
  8
0
  10
257556.462803
  20
386240.763624
  30
146.382872117
  70
32
  0
SEQEND
  0
POLYLINE
  8
0
  66
1
  70
8
  0
VERTEX
  8
0
  10
257556.462803
  20
386240.763624
  30
146.382872117
  70
32
  0
VERTEX
  8
0
  10
257556.214231
  20
386243.064733
  30
142.480132827
  70
32
  0
SEQEND
  0
POLYLINE
  8
0
  66
1
  70
8
  0
VERTEX
  8
0
  10
257556.214231
  20
386243.064733
  30
142.480132827
  70
32
  0
VERTEX
  8
0
  10
257542.124566
  20
386248.787798
  30
143.496554051
  70
32
  0
SEQEND
  0
POLYLINE
  8
0
  66
1
  70
8
  0
VERTEX
  8
0
  10
257542.124566
  20
386248.787798
  30
143.496554051
  70
32
  0
VERTEX
  8
0
  10
257534.854001
  20
386247.822927
  30
151.00312665
  70
32
  0
SEQEND
  0
POLYLINE
  8
0
  66
1
  70
8
  0
VERTEX
  8
0
  10
257534.854001
  20
386247.822927
  30
151.00312665
  70
32
  0
VERTEX
  8
0
  10
257527.695358
  20
386246.808242
  30
158.509383158
  70
32
  0
SEQEND
  0
POLYLINE
  8
0
  66
1
  70
8
  0
VERTEX
  8
0
  10
257527.695358
  20
386246.808242
  30
158.509383158
  70
32
  0
VERTEX
  8
0
  10
257528.130987
  20
386235.183318
  30
178.878352701
  70
32
  0
SEQEND
  0
POLYLINE
  8
0
  66
1
  70
8
  0
VERTEX
  8
0
  10
257528.130987
  20
386235.183318
  30
178.878352701
  70
32
  0
VERTEX
  8
0
  10
257486.657307
  20
386252.62542
  30
180.808247442
  70
32
  0
SEQEND
  0
POLYLINE
  8
0
  66
1
  70
8
  0
VERTEX
  8
0
  10
257486.657307
  20
386252.62542
  30
180.808247442
  70
32
  0
VERTEX
  8
0
  10
257452.109764
  20
386302.142434
  30
120.067354116
  70
32
  0
SEQEND
  0
POLYLINE
  8
0
  66
1
  70
8
  0
VERTEX
  8
0
  10
257245.526607
  20
386431.284854
  30
54.3687579587
  70
32
  0
VERTEX
  8
0
  10
257295.291501
  20
386407.407054
  30
57.3077637671
  70
32
  0
SEQEND
  0
POLYLINE
  8
0
  66
1
  70
8
  0
VERTEX
  8
0
  10
257295.291501
  20
386407.407054
  30
57.3077637671
  70
32
  0
VERTEX
  8
0
  10
257290.566574
  20
386381.641054
  30
106.983913736
  70
32
  0
SEQEND
  0
POLYLINE
  8
0
  66
1
  70
8
  0
VERTEX
  8
0
  10
257290.566574
  20
386381.641054
  30
106.983913736
  70
32
  0
VERTEX
  8
0
  10
257278.622874
  20
386386.664076
  30
107.539689928
  70
32
  0
SEQEND
  0
POLYLINE
  8
0
  66
1
  70
8
  0
VERTEX
  8
0
  10
257278.622874
  20
386386.664076
  30
107.539689928
  70
32
  0
VERTEX
  8
0
  10
257237.46276
  20
386405.957172
  30
105.921509114
  70
32
  0
SEQEND
  0
POLYLINE
  8
0
  66
1
  70
8
  0
VERTEX
  8
0
  10
257237.46276
  20
386405.957172
  30
105.921509114
  70
32
  0
VERTEX
  8
0
  10
257239.056078
  20
386412.912166
  30
92.2594101211
  70
32
  0
SEQEND
  0
POLYLINE
  8
0
  66
1
  70
8
  0
VERTEX
  8
0
  10
257239.056078
  20
386412.912166
  30
92.2594101211
  70
32
  0
VERTEX
  8
0
  10
257172.884444
  20
386440.741199
  30
95.3385747887
  70
32
  0
SEQEND
  0
POLYLINE
  8
0
  66
1
  70
8
  0
VERTEX
  8
0
  10
257172.884444
  20
386440.741199
  30
95.3385747887
  70
32
  0
VERTEX
  8
0
  10
257172.832814
  20
386445.165235
  30
87.4959990677
  70
32
  0
SEQEND
  0
POLYLINE
  8
0
  66
1
  70
8
  0
VERTEX
  8
0
  10
257172.832814
  20
386445.165235
  30
87.4959990677
  70
32
  0
VERTEX
  8
0
  10
257188.17621
  20
386442.094586
  30
80.7550131311
  70
32
  0
SEQEND
  0
POLYLINE
  8
0
  66
1
  70
8
  0
VERTEX
  8
0
  10
257188.17621
  20
386442.094586
  30
80.7550131311
  70
32
  0
VERTEX
  8
0
  10
257188.384635
  20
386449.553041
  30
67.2980802846
  70
32
  0
SEQEND
  0
POLYLINE
  8
0
  66
1
  70
8
  0
VERTEX
  8
0
  10
257188.384635
  20
386449.553041
  30
67.2980802846
  70
32
  0
VERTEX
  8
0
  10
257244.322312
  20
386426.027984
  30
64.6951323522
  70
32
  0
SEQEND
  0
POLYLINE
  8
0
  66
1
  70
8
  0
VERTEX
  8
0
  10
257244.322312
  20
386426.027984
  30
64.6951323522
  70
32
  0
VERTEX
  8
0
  10
257245.526607
  20
386431.284854
  30
54.3687579587
  70
32
  0
SEQEND
  0
POLYLINE
  8
0
  66
1
  70
8
  0
VERTEX
  8
0
  10
257297.084411
  20
386409.63821
  30
51.9047174122
  70
32
  0
VERTEX
  8
0
  10
257246.164682
  20
386434.070115
  30
48.8975095188
  70
32
  0
SEQEND
  0
POLYLINE
  8
0
  66
1
  70
8
  0
VERTEX
  8
0
  10
257246.164682
  20
386434.070115
  30
48.8975095188
  70
32
  0
VERTEX
  8
0
  10
257250.639076
  20
386453.05494
  30
11.5048901983
  70
32
  0
SEQEND
  0
POLYLINE
  8
0
  66
1
  70
8
  0
VERTEX
  8
0
  10
257250.639076
  20
386453.05494
  30
11.5048901983
  70
32
  0
VERTEX
  8
0
  10
257252.049458
  20
386459.757751
  30
-1.56220267149
  70
32
  0
SEQEND
  0
POLYLINE
  8
0
  66
1
  70
8
  0
VERTEX
  8
0
  10
257252.049458
  20
386459.757751
  30
-1.56220267149
  70
32
  0
VERTEX
  8
0
  10
257315.320095
  20
386432.331284
  30
-3.04963122923
  70
32
  0
SEQEND
  0
POLYLINE
  8
0
  66
1
  70
8
  0
VERTEX
  8
0
  10
257315.320095
  20
386432.331284
  30
-3.04963122923
  70
32
  0
VERTEX
  8
0
  10
257297.084411
  20
386409.63821
  30
51.9047174122
  70
32
  0
SEQEND
  0
POLYLINE
  8
0
  66
1
  70
8
  0
VERTEX
  8
0
  10
256946.137426
  20
386585.441896
  30
17.9648548894
  70
32
  0
VERTEX
  8
0
  10
257018.835434
  20
386554.868142
  30
14.5819984867
  70
32
  0
SEQEND
  0
POLYLINE
  8
0
  66
1
  70
8
  0
VERTEX
  8
0
  10
257018.835434
  20
386554.868142
  30
14.5819984867
  70
32
  0
VERTEX
  8
0
  10
257015.502237
  20
386540.318405
  30
43.1628908888
  70
32
  0
SEQEND
  0
POLYLINE
  8
0
  66
1
  70
8
  0
VERTEX
  8
0
  10
257015.502237
  20
386540.318405
  30
43.1628908888
  70
32
  0
VERTEX
  8
0
  10
256958.914414
  20
386565.12541
  30
43.9988923043
  70
32
  0
SEQEND
  0
POLYLINE
  8
0
  66
1
  70
8
  0
VERTEX
  8
0
  10
256958.914414
  20
386565.12541
  30
43.9988923043
  70
32
  0
VERTEX
  8
0
  10
256959.922133
  20
386576.390818
  30
23.1217189151
  70
32
  0
SEQEND
  0
POLYLINE
  8
0
  66
1
  70
8
  0
VERTEX
  8
0
  10
256959.922133
  20
386576.390818
  30
23.1217189151
  70
32
  0
VERTEX
  8
0
  10
256931.784975
  20
386587.791688
  30
25.2016489395
  70
32
  0
SEQEND
  0
POLYLINE
  8
0
  66
1
  70
8
  0
VERTEX
  8
0
  10
256931.784975
  20
386587.791688
  30
25.2016489395
  70
32
  0
VERTEX
  8
0
  10
256932.615414
  20
386593.003435
  30
15.2532634095
  70
32
  0
SEQEND
  0
POLYLINE
  8
0
  66
1
  70
8
  0
VERTEX
  8
0
  10
256932.615414
  20
386593.003435
  30
15.2532634095
  70
32
  0
VERTEX
  8
0
  10
256939.098978
  20
386590.744273
  30
14.1183770256
  70
32
  0
SEQEND
  0
POLYLINE
  8
0
  66
1
  70
8
  0
VERTEX
  8
0
  10
256939.098978
  20
386590.744273
  30
14.1183770256
  70
32
  0
VERTEX
  8
0
  10
256941.63208
  20
386610.261518
  30
-22.6778048948
  70
32
  0
SEQEND
  0
POLYLINE
  8
0
  66
1
  70
8
  0
VERTEX
  8
0
  10
256941.63208
  20
386610.261518
  30
-22.6778048948
  70
32
  0
VERTEX
  8
0
  10
256951.02936
  20
386606.79568
  30
-23.9816206692
  70
32
  0
SEQEND
  0
POLYLINE
  8
0
  66
1
  70
8
  0
VERTEX
  8
0
  10
256951.02936
  20
386606.79568
  30
-23.9816206692
  70
32
  0
VERTEX
  8
0
  10
256946.137426
  20
386585.441896
  30
17.9648548894
  70
32
  0
SEQEND
  0
POLYLINE
  8
0
  66
1
  70
8
  0
VERTEX
  8
0
  10
256930.908061
  20
386566.56687
  30
63.7224630955
  70
32
  0
VERTEX
  8
0
  10
256931.550573
  20
386553.742418
  30
86.0643303752
  70
32
  0
SEQEND
  0
POLYLINE
  8
0
  66
1
  70
8
  0
VERTEX
  8
0
  10
256931.550573
  20
386553.742418
  30
86.0643303752
  70
32
  0
VERTEX
  8
0
  10
256904.398965
  20
386564.085564
  30
89.244662623
  70
32
  0
SEQEND
  0
POLYLINE
  8
0
  66
1
  70
8
  0
VERTEX
  8
0
  10
256904.398965
  20
386564.085564
  30
89.244662623
  70
32
  0
VERTEX
  8
0
  10
256904.556036
  20
386576.05188
  30
67.7955578679
  70
32
  0
SEQEND
  0
POLYLINE
  8
0
  66
1
  70
8
  0
VERTEX
  8
0
  10
256904.556036
  20
386576.05188
  30
67.7955578679
  70
32
  0
VERTEX
  8
0
  10
256930.908061
  20
386566.56687
  30
63.7224630955
  70
32
  0
SEQEND
  0
POLYLINE
  8
0
  66
1
  70
8
  0
VERTEX
  8
0
  10
256995.746186
  20
386508.970506
  30
114.750384981
  70
32
  0
VERTEX
  8
0
  10
257007.196127
  20
386504.061405
  30
114.384616355
  70
32
  0
SEQEND
  0
POLYLINE
  8
0
  66
1
  70
8
  0
VERTEX
  8
0
  10
257007.196127
  20
386504.061405
  30
114.384616355
  70
32
  0
VERTEX
  8
0
  10
257002.067227
  20
386481.673244
  30
158.36297918
  70
32
  0
SEQEND
  0
POLYLINE
  8
0
  66
1
  70
8
  0
VERTEX
  8
0
  10
257002.067227
  20
386481.673244
  30
158.36297918
  70
32
  0
VERTEX
  8
0
  10
256982.874242
  20
386489.745014
  30
159.256086348
  70
32
  0
SEQEND
  0
POLYLINE
  8
0
  66
1
  70
8
  0
VERTEX
  8
0
  10
256982.874242
  20
386489.745014
  30
159.256086348
  70
32
  0
VERTEX
  8
0
  10
256943.347421
  20
386531.266857
  30
116.726023636
  70
32
  0
SEQEND
  0
POLYLINE
  8
0
  66
1
  70
8
  0
VERTEX
  8
0
  10
256943.347421
  20
386531.266857
  30
116.726023636
  70
32
  0
VERTEX
  8
0
  10
256995.746186
  20
386508.970506
  30
114.750384981
  70
32
  0
SEQEND
  0
POLYLINE
  8
0
  66
1
  70
8
  0
VERTEX
  8
0
  10
257227.741447
  20
386531.645538
  30
-110.318392223
  70
32
  0
VERTEX
  8
0
  10
257221.621785
  20
386504.932605
  30
-57.8446302533
  70
32
  0
SEQEND
  0
POLYLINE
  8
0
  66
1
  70
8
  0
VERTEX
  8
0
  10
257221.621785
  20
386504.932605
  30
-57.8446302533
  70
32
  0
VERTEX
  8
0
  10
257198.960875
  20
386514.46284
  30
-56.7901501302
  70
32
  0
SEQEND
  0
POLYLINE
  8
0
  66
1
  70
8
  0
VERTEX
  8
0
  10
257198.960875
  20
386514.46284
  30
-56.7901501302
  70
32
  0
VERTEX
  8
0
  10
257198.803243
  20
386542.501119
  30
-106.629143343
  70
32
  0
SEQEND
  0
POLYLINE
  8
0
  66
1
  70
8
  0
VERTEX
  8
0
  10
257198.803243
  20
386542.501119
  30
-106.629143343
  70
32
  0
VERTEX
  8
0
  10
257206.253908
  20
386541.237964
  30
-110.308707274
  70
32
  0
SEQEND
  0
POLYLINE
  8
0
  66
1
  70
8
  0
VERTEX
  8
0
  10
257206.253908
  20
386541.237964
  30
-110.308707274
  70
32
  0
VERTEX
  8
0
  10
257227.741447
  20
386531.645538
  30
-110.318392223
  70
32
  0
SEQEND
  0
POLYLINE
  8
0
  66
1
  70
8
  0
VERTEX
  8
0
  10
257272.054477
  20
386355.049778
  30
169.10491078
  70
32
  0
VERTEX
  8
0
  10
257247.45292
  20
386365.392596
  30
170.25605916
  70
32
  0
SEQEND
  0
POLYLINE
  8
0
  66
1
  70
8
  0
VERTEX
  8
0
  10
257247.45292
  20
386365.392596
  30
170.25605916
  70
32
  0
VERTEX
  8
0
  10
257248.100581
  20
386373.007626
  30
156.170489616
  70
32
  0
SEQEND
  0
POLYLINE
  8
0
  66
1
  70
8
  0
VERTEX
  8
0
  10
257248.100581
  20
386373.007626
  30
156.170489616
  70
32
  0
VERTEX
  8
0
  10
257262.640882
  20
386366.800923
  30
155.657219858
  70
32
  0
SEQEND
  0
POLYLINE
  8
0
  66
1
  70
8
  0
VERTEX
  8
0
  10
257262.640882
  20
386366.800923
  30
155.657219858
  70
32
  0
VERTEX
  8
0
  10
257263.516583
  20
386391.688659
  30
110.610019342
  70
32
  0
SEQEND
  0
POLYLINE
  8
0
  66
1
  70
8
  0
VERTEX
  8
0
  10
257263.516583
  20
386391.688659
  30
110.610019342
  70
32
  0
VERTEX
  8
0
  10
257277.422621
  20
386385.170443
  30
111.156725436
  70
32
  0
SEQEND
  0
POLYLINE
  8
0
  66
1
  70
8
  0
VERTEX
  8
0
  10
257277.422621
  20
386385.170443
  30
111.156725436
  70
32
  0
VERTEX
  8
0
  10
257289.809862
  20
386379.960886
  30
110.580309984
  70
32
  0
SEQEND
  0
POLYLINE
  8
0
  66
1
  70
8
  0
VERTEX
  8
0
  10
257289.809862
  20
386379.960886
  30
110.580309984
  70
32
  0
VERTEX
  8
0
  10
257272.054477
  20
386355.049778
  30
169.10491078
  70
32
  0
SEQEND
  0
ENDSEC
  0
EOF
