  999
DXF Polyline File Exported from Leapfrog Geo
  0
SECTION
  2
ENTITIES
  0
POLYLINE
  8
0
  66
1
  70
8
  0
VERTEX
  8
0
  10
257452.654598
  20
386304.520691
  30
115.395606002
  70
32
  0
VERTEX
  8
0
  10
257452.109764
  20
386302.142434
  30
120.067354116
  70
32
  0
VERTEX
  8
0
  10
257486.657307
  20
386252.62542
  30
180.808247442
  70
32
  0
VERTEX
  8
0
  10
257528.130987
  20
386235.183318
  30
178.878352701
  70
32
  0
VERTEX
  8
0
  10
257528.24858
  20
386232.045284
  30
184.376755942
  70
32
  0
VERTEX
  8
0
  10
257506.729437
  20
386241.042696
  30
185.471917277
  70
32
  0
VERTEX
  8
0
  10
257506.574115
  20
386239.175059
  30
188.923695368
  70
32
  0
VERTEX
  8
0
  10
257499.197552
  20
386242.392615
  30
189.061516886
  70
32
  0
VERTEX
  8
0
  10
257465.43356
  20
386263.18943
  30
178.876589806
  70
32
  0
VERTEX
  8
0
  10
257447.646718
  20
386271.778852
  30
177.72798716
  70
32
  0
VERTEX
  8
0
  10
257440.312003
  20
386276.494193
  30
175.163433
  70
32
  0
VERTEX
  8
0
  10
257417.976119
  20
386285.957276
  30
176.078866365
  70
32
  0
VERTEX
  8
0
  10
257416.445645
  20
386310.797648
  30
133.031315438
  70
32
  0
VERTEX
  8
0
  10
257446.792417
  20
386297.025351
  30
133.418499265
  70
32
  0
VERTEX
  8
0
  10
257445.919283
  20
386308.063385
  30
114.443613807
  70
32
  0
VERTEX
  8
0
  10
257452.654598
  20
386304.520691
  30
115.395606002
  70
32
  0
SEQEND
  0
POLYLINE
  8
0
  66
1
  70
8
  0
VERTEX
  8
0
  10
257188.384635
  20
386449.553041
  30
67.2980802845
  70
32
  0
VERTEX
  8
0
  10
257188.497705
  20
386453.884841
  30
59.4887731907
  70
32
  0
VERTEX
  8
0
  10
257196.434311
  20
386456.168825
  30
49.1013790537
  70
32
  0
VERTEX
  8
0
  10
257246.164682
  20
386434.070115
  30
48.8975095188
  70
32
  0
VERTEX
  8
0
  10
257244.322312
  20
386426.027984
  30
64.6951323522
  70
32
  0
VERTEX
  8
0
  10
257188.384635
  20
386449.553041
  30
67.2980802845
  70
32
  0
SEQEND
  0
POLYLINE
  8
0
  66
1
  70
8
  0
VERTEX
  8
0
  10
257205.563635
  20
386499.541019
  30
-35.4549419615
  70
32
  0
VERTEX
  8
0
  10
257183.777445
  20
386512.822993
  30
-41.7823475608
  70
32
  0
VERTEX
  8
0
  10
257183.924303
  20
386520.786596
  30
-56.0904533135
  70
32
  0
VERTEX
  8
0
  10
257221.621785
  20
386504.932605
  30
-57.8446302533
  70
32
  0
VERTEX
  8
0
  10
257214.856103
  20
386475.399726
  30
0.168515719564
  70
32
  0
VERTEX
  8
0
  10
257252.049458
  20
386459.757751
  30
-1.56220267148
  70
32
  0
VERTEX
  8
0
  10
257250.534475
  20
386453.144695
  30
11.4282059841
  70
32
  0
VERTEX
  8
0
  10
257227.329841
  20
386463.973533
  30
10.6013508241
  70
32
  0
VERTEX
  8
0
  10
257212.056046
  20
386473.001778
  30
6.67044836556
  70
32
  0
VERTEX
  8
0
  10
257212.063069
  20
386489.197795
  30
-22.1965893816
  70
32
  0
VERTEX
  8
0
  10
257205.563635
  20
386499.541019
  30
-35.4549419615
  70
32
  0
SEQEND
  0
POLYLINE
  8
0
  66
1
  70
8
  0
VERTEX
  8
0
  10
256946.137426
  20
386585.441896
  30
17.9648548894
  70
32
  0
VERTEX
  8
0
  10
256951.02936
  20
386606.79568
  30
-23.9816206692
  70
32
  0
VERTEX
  8
0
  10
257019.494946
  20
386577.10208
  30
-25.5640306871
  70
32
  0
VERTEX
  8
0
  10
257039.986466
  20
386567.641146
  30
-25.0152314482
  70
32
  0
VERTEX
  8
0
  10
257072.263116
  20
386551.797644
  30
-22.473270634
  70
32
  0
VERTEX
  8
0
  10
257092.851793
  20
386541.951832
  30
-21.3159509904
  70
32
  0
VERTEX
  8
0
  10
257092.754339
  20
386533.919495
  30
-6.92468247977
  70
32
  0
VERTEX
  8
0
  10
257060.99426
  20
386545.210637
  30
-1.76547362058
  70
32
  0
VERTEX
  8
0
  10
257061.638212
  20
386530.349901
  30
24.2039223742
  70
32
  0
VERTEX
  8
0
  10
257053.384184
  20
386532.474847
  30
26.9872224955
  70
32
  0
VERTEX
  8
0
  10
257036.778208
  20
386540.898495
  30
25.1940930857
  70
32
  0
VERTEX
  8
0
  10
257036.984911
  20
386530.575696
  30
43.4248845456
  70
32
  0
VERTEX
  8
0
  10
257015.502237
  20
386540.318405
  30
43.1628908888
  70
32
  0
VERTEX
  8
0
  10
257018.835434
  20
386554.868142
  30
14.5819984867
  70
32
  0
VERTEX
  8
0
  10
256946.137426
  20
386585.441896
  30
17.9648548894
  70
32
  0
SEQEND
  0
ENDSEC
  0
EOF
