  999
DXF Polyline File Exported from Leapfrog Geo
  0
SECTION
  2
ENTITIES
  0
POLYLINE
  8
0
  66
1
  70
8
  0
VERTEX
  8
0
  10
257599.393992
  20
386189.82429
  30
23.2054969007
  70
32
  0
VERTEX
  8
0
  10
257545.909221
  20
386205.897584
  30
24.1339954823
  70
32
  0
VERTEX
  8
0
  10
257557.264405
  20
386255.464096
  30
-60.7948028944
  70
32
  0
VERTEX
  8
0
  10
257598.959994
  20
386242.933698
  30
-61.5186406341
  70
32
  0
VERTEX
  8
0
  10
257599.393992
  20
386189.82429
  30
23.2054969007
  70
32
  0
SEQEND
  0
POLYLINE
  8
0
  66
1
  70
8
  0
VERTEX
  8
0
  10
256919.706924
  20
386325.969552
  30
143.944186251
  70
32
  0
VERTEX
  8
0
  10
256919.8149
  20
386336.703827
  30
126.722606141
  70
32
  0
VERTEX
  8
0
  10
256975.418924
  20
386335.050427
  30
101.676340543
  70
32
  0
VERTEX
  8
0
  10
256967.341648
  20
386298.310888
  30
164.45799628
  70
32
  0
VERTEX
  8
0
  10
256955.953389
  20
386302.995912
  30
162.636342798
  70
32
  0
VERTEX
  8
0
  10
256935.848214
  20
386308.31764
  30
164.137374291
  70
32
  0
VERTEX
  8
0
  10
256920.788454
  20
386319.860789
  30
153.175607584
  70
32
  0
VERTEX
  8
0
  10
256919.706924
  20
386325.969552
  30
143.944186251
  70
32
  0
SEQEND
  0
POLYLINE
  8
0
  66
1
  70
8
  0
VERTEX
  8
0
  10
257469.185685
  20
386119.206887
  30
200.990399544
  70
32
  0
VERTEX
  8
0
  10
257439.775714
  20
386129.599483
  30
199.015122741
  70
32
  0
VERTEX
  8
0
  10
257397.594945
  20
386145.69679
  30
194.275858911
  70
32
  0
VERTEX
  8
0
  10
257406.876214
  20
386185.953755
  30
125.269040759
  70
32
  0
VERTEX
  8
0
  10
257344.202303
  20
386204.788578
  30
126.35706333
  70
32
  0
VERTEX
  8
0
  10
257336.132842
  20
386169.564574
  30
186.710964381
  70
32
  0
VERTEX
  8
0
  10
257286.174181
  20
386186.29686
  30
184.829515492
  70
32
  0
VERTEX
  8
0
  10
257299.061169
  20
386232.660962
  30
104.259641771
  70
32
  0
VERTEX
  8
0
  10
257318.454295
  20
386226.464899
  30
104.511572217
  70
32
  0
VERTEX
  8
0
  10
257342.687745
  20
386218.278678
  30
105.535984123
  70
32
  0
VERTEX
  8
0
  10
257441.305089
  20
386186.61878
  30
107.059970373
  70
32
  0
VERTEX
  8
0
  10
257470.023404
  20
386178.837576
  30
105.20317205
  70
32
  0
VERTEX
  8
0
  10
257493.20535
  20
386173.271662
  30
102.560456294
  70
32
  0
VERTEX
  8
0
  10
257507.65609
  20
386168.918008
  30
102.327029365
  70
32
  0
VERTEX
  8
0
  10
257541.643465
  20
386157.559171
  30
103.568127085
  70
32
  0
VERTEX
  8
0
  10
257569.745189
  20
386147.188036
  30
106.160584729
  70
32
  0
VERTEX
  8
0
  10
257574.736139
  20
386144.603181
  30
107.809182359
  70
32
  0
VERTEX
  8
0
  10
257624.134633
  20
386129.870544
  30
106.771463293
  70
32
  0
VERTEX
  8
0
  10
257611.822084
  20
386076.6248
  30
198.061388092
  70
32
  0
VERTEX
  8
0
  10
257517.880994
  20
386103.703516
  30
201.535534371
  70
32
  0
VERTEX
  8
0
  10
257501.513524
  20
386107.760709
  30
203.197629238
  70
32
  0
VERTEX
  8
0
  10
257480.647816
  20
386116.799721
  30
199.132186063
  70
32
  0
VERTEX
  8
0
  10
257469.185685
  20
386119.206887
  30
200.990399544
  70
32
  0
SEQEND
  0
POLYLINE
  8
0
  66
1
  70
8
  0
VERTEX
  8
0
  10
257345.741429
  20
386248.138224
  30
56.2595430306
  70
32
  0
VERTEX
  8
0
  10
257415.308431
  20
386225.139778
  30
58.3978544082
  70
32
  0
VERTEX
  8
0
  10
257409.109001
  20
386198.078649
  30
104.765232494
  70
32
  0
VERTEX
  8
0
  10
257342.927539
  20
386219.325402
  30
103.74249517
  70
32
  0
VERTEX
  8
0
  10
257339.288261
  20
386220.554774
  30
103.588653298
  70
32
  0
VERTEX
  8
0
  10
257345.741429
  20
386248.138224
  30
56.2595430306
  70
32
  0
SEQEND
  0
POLYLINE
  8
0
  66
1
  70
8
  0
VERTEX
  8
0
  10
257067.173062
  20
386345.854398
  30
38.7038024778
  70
32
  0
VERTEX
  8
0
  10
257130.667457
  20
386360.682068
  30
-16.6307580884
  70
32
  0
VERTEX
  8
0
  10
257123.455724
  20
386329.195559
  30
37.318451819
  70
32
  0
VERTEX
  8
0
  10
257067.173062
  20
386345.854398
  30
38.7038024778
  70
32
  0
SEQEND
  0
POLYLINE
  8
0
  66
1
  70
8
  0
VERTEX
  8
0
  10
257405.736882
  20
386271.964585
  30
-11.7245682115
  70
32
  0
VERTEX
  8
0
  10
257196.078569
  20
386334.971299
  30
-8.08488825744
  70
32
  0
VERTEX
  8
0
  10
257202.589929
  20
386363.394036
  30
-56.7852869617
  70
32
  0
VERTEX
  8
0
  10
257226.291285
  20
386366.044498
  30
-72.8274876586
  70
32
  0
VERTEX
  8
0
  10
257280.731322
  20
386367.470248
  30
-102.218715103
  70
32
  0
VERTEX
  8
0
  10
257418.155138
  20
386326.171514
  30
-104.604400181
  70
32
  0
VERTEX
  8
0
  10
257405.736882
  20
386271.964585
  30
-11.7245682115
  70
32
  0
SEQEND
  0
POLYLINE
  8
0
  66
1
  70
8
  0
VERTEX
  8
0
  10
257112.440523
  20
386281.103067
  30
119.720474217
  70
32
  0
VERTEX
  8
0
  10
257020.912407
  20
386308.609183
  30
121.309407387
  70
32
  0
VERTEX
  8
0
  10
257023.82377
  20
386321.317573
  30
99.5344579684
  70
32
  0
VERTEX
  8
0
  10
257115.480937
  20
386294.377669
  30
96.9756890756
  70
32
  0
VERTEX
  8
0
  10
257112.440523
  20
386281.103067
  30
119.720474217
  70
32
  0
SEQEND
  0
POLYLINE
  8
0
  66
1
  70
8
  0
VERTEX
  8
0
  10
257115.72071
  20
386295.424399
  30
95.1822005895
  70
32
  0
VERTEX
  8
0
  10
257024.135358
  20
386322.677686
  30
97.203998252
  70
32
  0
VERTEX
  8
0
  10
257028.892633
  20
386343.443666
  30
61.6229233674
  70
32
  0
VERTEX
  8
0
  10
257055.080678
  20
386344.958883
  30
46.1580072847
  70
32
  0
VERTEX
  8
0
  10
257122.496649
  20
386325.008635
  30
44.492405159
  70
32
  0
VERTEX
  8
0
  10
257115.72071
  20
386295.424399
  30
95.1822005895
  70
32
  0
SEQEND
  0
ENDSEC
  0
EOF
