  999
DXF Polyline File Exported from Leapfrog Geo
  0
SECTION
  2
ENTITIES
  0
POLYLINE
  8
0
  66
1
  70
8
  0
VERTEX
  8
0
  10
257574.975932
  20
386145.649905
  30
106.015693407
  70
32
  0
VERTEX
  8
0
  10
257569.984983
  20
386148.234759
  30
104.367095776
  70
32
  0
VERTEX
  8
0
  10
257541.883259
  20
386158.605895
  30
101.774638132
  70
32
  0
VERTEX
  8
0
  10
257507.898062
  20
386169.974241
  30
100.517247086
  70
32
  0
VERTEX
  8
0
  10
257494.425626
  20
386174.022991
  30
100.751129325
  70
32
  0
VERTEX
  8
0
  10
257470.263198
  20
386179.8843
  30
103.409683098
  70
32
  0
VERTEX
  8
0
  10
257441.544883
  20
386187.665503
  30
105.26648142
  70
32
  0
VERTEX
  8
0
  10
257409.109001
  20
386198.078649
  30
104.765232494
  70
32
  0
VERTEX
  8
0
  10
257415.308431
  20
386225.139778
  30
58.3978544083
  70
32
  0
VERTEX
  8
0
  10
257455.539576
  20
386211.839595
  30
59.6344567199
  70
32
  0
VERTEX
  8
0
  10
257525.230407
  20
386192.817691
  30
55.351238743
  70
32
  0
VERTEX
  8
0
  10
257600.803474
  20
386168.372144
  30
56.812962054
  70
32
  0
VERTEX
  8
0
  10
257599.478167
  20
386141.208328
  30
100.917275151
  70
32
  0
VERTEX
  8
0
  10
257614.256438
  20
386136.761531
  30
100.669706535
  70
32
  0
VERTEX
  8
0
  10
257613.77715
  20
386134.077806
  30
105.200592389
  70
32
  0
VERTEX
  8
0
  10
257574.975932
  20
386145.649905
  30
106.015693407
  70
32
  0
SEQEND
  0
POLYLINE
  8
0
  66
1
  70
8
  0
VERTEX
  8
0
  10
256919.65002
  20
386481.270785
  30
-104.40772989
  70
32
  0
VERTEX
  8
0
  10
256929.45485
  20
386500.215391
  30
-139.589464629
  70
32
  0
VERTEX
  8
0
  10
256932.405298
  20
386534.473192
  30
-195.848821245
  70
32
  0
VERTEX
  8
0
  10
257340.897809
  20
386411.712638
  30
-202.940273898
  70
32
  0
VERTEX
  8
0
  10
257296.018125
  20
386405.517851
  30
-170.682736979
  70
32
  0
VERTEX
  8
0
  10
257239.169642
  20
386380.387128
  30
-102.179681525
  70
32
  0
VERTEX
  8
0
  10
257115.208523
  20
386394.333832
  30
-62.753041672
  70
32
  0
VERTEX
  8
0
  10
257072.867548
  20
386374.176528
  30
-9.42889089786
  70
32
  0
VERTEX
  8
0
  10
256985.760531
  20
386379.709081
  30
25.101658057
  70
32
  0
VERTEX
  8
0
  10
256954.033025
  20
386389.243861
  30
25.6524493254
  70
32
  0
VERTEX
  8
0
  10
256965.78398
  20
386440.537952
  30
-62.2364369981
  70
32
  0
VERTEX
  8
0
  10
257016.772647
  20
386425.21479
  30
-63.1216030847
  70
32
  0
VERTEX
  8
0
  10
257022.635789
  20
386450.807993
  30
-106.973791746
  70
32
  0
VERTEX
  8
0
  10
256960.062612
  20
386469.612544
  30
-105.887517922
  70
32
  0
VERTEX
  8
0
  10
256959.898815
  20
386468.897551
  30
-104.662428031
  70
32
  0
VERTEX
  8
0
  10
256921.052448
  20
386480.834011
  30
-104.407582325
  70
32
  0
VERTEX
  8
0
  10
256919.65002
  20
386481.270785
  30
-104.40772989
  70
32
  0
SEQEND
  0
POLYLINE
  8
0
  66
1
  70
8
  0
VERTEX
  8
0
  10
257309.33681
  20
386264.677372
  30
47.9371199491
  70
32
  0
VERTEX
  8
0
  10
257231.532699
  20
386289.847862
  30
46.4270152369
  70
32
  0
VERTEX
  8
0
  10
257162.255779
  20
386317.584095
  30
36.5668887461
  70
32
  0
VERTEX
  8
0
  10
257123.455824
  20
386329.19553
  30
37.3184493488
  70
32
  0
VERTEX
  8
0
  10
257130.667457
  20
386360.682068
  30
-16.6307580884
  70
32
  0
VERTEX
  8
0
  10
257168.636936
  20
386359.59716
  30
-33.8042929864
  70
32
  0
VERTEX
  8
0
  10
257202.589929
  20
386363.394036
  30
-56.7852869617
  70
32
  0
VERTEX
  8
0
  10
257196.078569
  20
386334.971299
  30
-8.08488825744
  70
32
  0
VERTEX
  8
0
  10
257405.736882
  20
386271.964585
  30
-11.7245682115
  70
32
  0
VERTEX
  8
0
  10
257418.155138
  20
386326.171514
  30
-104.604400181
  70
32
  0
VERTEX
  8
0
  10
257368.962566
  20
386340.954912
  30
-103.75041439
  70
32
  0
VERTEX
  8
0
  10
257374.120947
  20
386363.471762
  30
-142.331483006
  70
32
  0
VERTEX
  8
0
  10
257301.969359
  20
386385.154825
  30
-141.078927437
  70
32
  0
VERTEX
  8
0
  10
257328.506006
  20
386395.754563
  30
-171.246728381
  70
32
  0
VERTEX
  8
0
  10
257370.880506
  20
386402.702209
  30
-203.460775178
  70
32
  0
VERTEX
  8
0
  10
257420.309396
  20
386387.847793
  30
-204.318863454
  70
32
  0
VERTEX
  8
0
  10
257423.170111
  20
386367.583914
  30
-173.334556046
  70
32
  0
VERTEX
  8
0
  10
257422.572328
  20
386334.423551
  30
-120.00200162
  70
32
  0
VERTEX
  8
0
  10
257457.415996
  20
386325.42853
  30
-122.96789176
  70
32
  0
VERTEX
  8
0
  10
257547.590914
  20
386291.992258
  30
-114.398571344
  70
32
  0
VERTEX
  8
0
  10
257599.213704
  20
386276.530589
  30
-115.378007883
  70
32
  0
VERTEX
  8
0
  10
257599.558836
  20
386267.115918
  30
-100.492575334
  70
32
  0
VERTEX
  8
0
  10
257598.959994
  20
386242.933698
  30
-61.5186406341
  70
32
  0
VERTEX
  8
0
  10
257557.264405
  20
386255.464096
  30
-60.7948028944
  70
32
  0
VERTEX
  8
0
  10
257545.909221
  20
386205.897584
  30
24.1339954823
  70
32
  0
VERTEX
  8
0
  10
257599.393992
  20
386189.82429
  30
23.2054969007
  70
32
  0
VERTEX
  8
0
  10
257600.745504
  20
386172.888054
  30
49.6193327801
  70
32
  0
VERTEX
  8
0
  10
257526.189582
  20
386197.004586
  30
48.1772829328
  70
32
  0
VERTEX
  8
0
  10
257456.498751
  20
386216.02649
  30
52.4605009097
  70
32
  0
VERTEX
  8
0
  10
257309.33681
  20
386264.677372
  30
47.9371199491
  70
32
  0
SEQEND
  0
POLYLINE
  8
0
  66
1
  70
8
  0
VERTEX
  8
0
  10
257122.496649
  20
386325.008635
  30
44.492405159
  70
32
  0
VERTEX
  8
0
  10
257161.296604
  20
386313.3972
  30
43.7408445563
  70
32
  0
VERTEX
  8
0
  10
257230.573524
  20
386285.660967
  30
53.6009710471
  70
32
  0
VERTEX
  8
0
  10
257308.377635
  20
386260.490477
  30
55.1110757593
  70
32
  0
VERTEX
  8
0
  10
257345.741429
  20
386248.138224
  30
56.2595430306
  70
32
  0
VERTEX
  8
0
  10
257339.284243
  20
386220.537599
  30
103.618122335
  70
32
  0
VERTEX
  8
0
  10
257318.694089
  20
386227.511622
  30
102.718083265
  70
32
  0
VERTEX
  8
0
  10
257299.300962
  20
386233.707686
  30
102.466152819
  70
32
  0
VERTEX
  8
0
  10
257259.495913
  20
386247.347258
  30
100.47455556
  70
32
  0
VERTEX
  8
0
  10
257193.400538
  20
386269.425332
  30
98.0793787779
  70
32
  0
VERTEX
  8
0
  10
257150.782732
  20
386284.229028
  30
95.6266889533
  70
32
  0
VERTEX
  8
0
  10
257115.720731
  20
386295.424393
  30
95.1822001231
  70
32
  0
VERTEX
  8
0
  10
257122.496649
  20
386325.008635
  30
44.492405159
  70
32
  0
SEQEND
  0
POLYLINE
  8
0
  66
1
  70
8
  0
VERTEX
  8
0
  10
257184.416857
  20
386223.330495
  30
176.27477037
  70
32
  0
VERTEX
  8
0
  10
257126.313208
  20
386243.400196
  30
173.111821929
  70
32
  0
VERTEX
  8
0
  10
257109.800332
  20
386249.538835
  30
171.517377032
  70
32
  0
VERTEX
  8
0
  10
257060.643016
  20
386266.516895
  30
168.843784802
  70
32
  0
VERTEX
  8
0
  10
257028.926353
  20
386277.877674
  30
166.468773935
  70
32
  0
VERTEX
  8
0
  10
257003.782218
  20
386284.887712
  30
167.779000948
  70
32
  0
VERTEX
  8
0
  10
256978.480336
  20
386293.156346
  30
167.154857415
  70
32
  0
VERTEX
  8
0
  10
256967.341648
  20
386298.310888
  30
164.45799628
  70
32
  0
VERTEX
  8
0
  10
256975.418924
  20
386335.050427
  30
101.676340543
  70
32
  0
VERTEX
  8
0
  10
257023.583976
  20
386320.270849
  30
101.327946921
  70
32
  0
VERTEX
  8
0
  10
257020.912407
  20
386308.609183
  30
121.309407387
  70
32
  0
VERTEX
  8
0
  10
257112.440523
  20
386281.103067
  30
119.720474217
  70
32
  0
VERTEX
  8
0
  10
257115.480937
  20
386294.377669
  30
96.9756890756
  70
32
  0
VERTEX
  8
0
  10
257150.683547
  20
386283.218651
  30
97.2920234114
  70
32
  0
VERTEX
  8
0
  10
257193.160744
  20
386268.378608
  30
99.8728677304
  70
32
  0
VERTEX
  8
0
  10
257259.256119
  20
386246.300534
  30
102.268044513
  70
32
  0
VERTEX
  8
0
  10
257299.061169
  20
386232.660962
  30
104.259641771
  70
32
  0
VERTEX
  8
0
  10
257286.174181
  20
386186.29686
  30
184.829515492
  70
32
  0
VERTEX
  8
0
  10
257184.416857
  20
386223.330495
  30
176.27477037
  70
32
  0
SEQEND
  0
ENDSEC
  0
EOF
