  999
DXF Polyline File Exported from Leapfrog Geo
  0
SECTION
  2
ENTITIES
  0
POLYLINE
  8
0
  66
1
  70
8
  0
VERTEX
  8
0
  10
257368.962566
  20
386340.954912
  30
-103.75041439
  70
32
  0
VERTEX
  8
0
  10
257280.731322
  20
386367.470248
  30
-102.218715103
  70
32
  0
VERTEX
  8
0
  10
257301.969359
  20
386385.154825
  30
-141.078927437
  70
32
  0
VERTEX
  8
0
  10
257374.120947
  20
386363.471762
  30
-142.331483006
  70
32
  0
VERTEX
  8
0
  10
257368.962566
  20
386340.954912
  30
-103.75041439
  70
32
  0
SEQEND
  0
POLYLINE
  8
0
  66
1
  70
8
  0
VERTEX
  8
0
  10
256960.062612
  20
386469.612544
  30
-105.887517922
  70
32
  0
VERTEX
  8
0
  10
257022.635789
  20
386450.807993
  30
-106.973791746
  70
32
  0
VERTEX
  8
0
  10
257016.772647
  20
386425.21479
  30
-63.1216030847
  70
32
  0
VERTEX
  8
0
  10
256965.78398
  20
386440.537952
  30
-62.2364369981
  70
32
  0
VERTEX
  8
0
  10
256954.033025
  20
386389.243861
  30
25.6524493254
  70
32
  0
VERTEX
  8
0
  10
256985.760531
  20
386379.709081
  30
25.101658057
  70
32
  0
VERTEX
  8
0
  10
256918.419628
  20
386361.711275
  30
87.4219088214
  70
32
  0
VERTEX
  8
0
  10
256911.964744
  20
386402.725985
  30
25.0397478831
  70
32
  0
VERTEX
  8
0
  10
256902.289656
  20
386447.505055
  30
-41.7592734817
  70
32
  0
VERTEX
  8
0
  10
256905.668035
  20
386454.255201
  30
-54.2375074076
  70
32
  0
VERTEX
  8
0
  10
256953.267364
  20
386439.950606
  30
-55.0638344092
  70
32
  0
VERTEX
  8
0
  10
256960.062612
  20
386469.612544
  30
-105.887517922
  70
32
  0
SEQEND
  0
POLYLINE
  8
0
  66
1
  70
8
  0
VERTEX
  8
0
  10
257001.539075
  20
386265.147161
  30
200.46803177
  70
32
  0
VERTEX
  8
0
  10
256986.566846
  20
386272.056435
  30
196.873839131
  70
32
  0
VERTEX
  8
0
  10
256986.498188
  20
386274.391973
  30
193.172700323
  70
32
  0
VERTEX
  8
0
  10
256991.686845
  20
386272.9573
  30
192.883302471
  70
32
  0
VERTEX
  8
0
  10
257011.172264
  20
386267.249259
  30
192.308754336
  70
32
  0
VERTEX
  8
0
  10
257011.058203
  20
386262.523178
  30
199.924190611
  70
32
  0
VERTEX
  8
0
  10
257001.539075
  20
386265.147161
  30
200.46803177
  70
32
  0
SEQEND
  0
POLYLINE
  8
0
  66
1
  70
8
  0
VERTEX
  8
0
  10
257032.577683
  20
386349.639843
  30
49.8779549895
  70
32
  0
VERTEX
  8
0
  10
257031.849857
  20
386343.614768
  30
59.8765838571
  70
32
  0
VERTEX
  8
0
  10
257028.892633
  20
386343.443666
  30
61.6229233674
  70
32
  0
VERTEX
  8
0
  10
257026.307141
  20
386332.157736
  30
80.9605851594
  70
32
  0
VERTEX
  8
0
  10
256991.253116
  20
386342.798484
  30
81.3991486237
  70
32
  0
VERTEX
  8
0
  10
257001.637116
  20
386348.675997
  30
66.8277788174
  70
32
  0
VERTEX
  8
0
  10
257002.416082
  20
386359.144241
  30
49.697521967
  70
32
  0
VERTEX
  8
0
  10
257032.577683
  20
386349.639843
  30
49.8779549895
  70
32
  0
SEQEND
  0
POLYLINE
  8
0
  66
1
  70
8
  0
VERTEX
  8
0
  10
257391.429181
  20
386161.797542
  30
171.595731771
  70
32
  0
VERTEX
  8
0
  10
257390.69919
  20
386173.789073
  30
152.780670055
  70
32
  0
VERTEX
  8
0
  10
257380.693386
  20
386176.908686
  30
152.774190147
  70
32
  0
VERTEX
  8
0
  10
257380.988211
  20
386187.865669
  30
135.103372331
  70
32
  0
VERTEX
  8
0
  10
257343.053507
  20
386199.773967
  30
134.949254107
  70
32
  0
VERTEX
  8
0
  10
257344.202303
  20
386204.788578
  30
126.35706333
  70
32
  0
VERTEX
  8
0
  10
257406.876214
  20
386185.953755
  30
125.269040759
  70
32
  0
VERTEX
  8
0
  10
257400.604472
  20
386158.750436
  30
171.899840813
  70
32
  0
VERTEX
  8
0
  10
257391.429181
  20
386161.797542
  30
171.595731771
  70
32
  0
SEQEND
  0
POLYLINE
  8
0
  66
1
  70
8
  0
VERTEX
  8
0
  10
257650.032683
  20
386048.485871
  30
224.036491792
  70
32
  0
VERTEX
  8
0
  10
257630.651102
  20
386054.089088
  30
224.726978299
  70
32
  0
VERTEX
  8
0
  10
257629.794332
  20
386064.332908
  30
208.77024404
  70
32
  0
VERTEX
  8
0
  10
257649.372526
  20
386058.531211
  30
208.299282962
  70
32
  0
VERTEX
  8
0
  10
257650.032683
  20
386048.485871
  30
224.036491792
  70
32
  0
SEQEND
  0
ENDSEC
  0
EOF
