  999
DXF Polyline File Exported from Leapfrog Geo
  0
SECTION
  2
ENTITIES
  0
POLYLINE
  8
0
  66
1
  70
8
  0
VERTEX
  8
0
  10
257239.169642
  20
386380.387128
  30
-102.179681525
  70
32
  0
VERTEX
  8
0
  10
257296.018125
  20
386405.517851
  30
-170.682736979
  70
32
  0
VERTEX
  8
0
  10
257340.897809
  20
386411.712638
  30
-202.940273898
  70
32
  0
VERTEX
  8
0
  10
257370.880506
  20
386402.702209
  30
-203.460775178
  70
32
  0
VERTEX
  8
0
  10
257328.506006
  20
386395.754563
  30
-171.246728381
  70
32
  0
VERTEX
  8
0
  10
257301.969359
  20
386385.154825
  30
-141.078927437
  70
32
  0
VERTEX
  8
0
  10
257280.731322
  20
386367.470248
  30
-102.218715103
  70
32
  0
VERTEX
  8
0
  10
257226.291285
  20
386366.044498
  30
-72.8274876586
  70
32
  0
VERTEX
  8
0
  10
257168.636936
  20
386359.59716
  30
-33.8042929864
  70
32
  0
VERTEX
  8
0
  10
257130.667457
  20
386360.682068
  30
-16.6307580884
  70
32
  0
VERTEX
  8
0
  10
257067.173062
  20
386345.854398
  30
38.7038024778
  70
32
  0
VERTEX
  8
0
  10
257123.455724
  20
386329.195559
  30
37.318451819
  70
32
  0
VERTEX
  8
0
  10
257162.255779
  20
386317.584095
  30
36.5668887461
  70
32
  0
VERTEX
  8
0
  10
257231.532699
  20
386289.847862
  30
46.4270152369
  70
32
  0
VERTEX
  8
0
  10
257309.33681
  20
386264.677372
  30
47.9371199491
  70
32
  0
VERTEX
  8
0
  10
257456.498751
  20
386216.02649
  30
52.4605009097
  70
32
  0
VERTEX
  8
0
  10
257526.189582
  20
386197.004586
  30
48.1772829328
  70
32
  0
VERTEX
  8
0
  10
257601.019478
  20
386172.799432
  30
49.6246319502
  70
32
  0
VERTEX
  8
0
  10
257600.803474
  20
386168.372144
  30
56.812962054
  70
32
  0
VERTEX
  8
0
  10
257525.230407
  20
386192.817691
  30
55.351238743
  70
32
  0
VERTEX
  8
0
  10
257455.539576
  20
386211.839595
  30
59.6344567199
  70
32
  0
VERTEX
  8
0
  10
257308.377635
  20
386260.490477
  30
55.1110757593
  70
32
  0
VERTEX
  8
0
  10
257230.573524
  20
386285.660967
  30
53.6009710471
  70
32
  0
VERTEX
  8
0
  10
257161.296604
  20
386313.3972
  30
43.7408445563
  70
32
  0
VERTEX
  8
0
  10
257122.507101
  20
386325.054258
  30
44.4142324756
  70
32
  0
VERTEX
  8
0
  10
257055.080678
  20
386344.958883
  30
46.1580072847
  70
32
  0
VERTEX
  8
0
  10
257031.849857
  20
386343.614768
  30
59.8765838571
  70
32
  0
VERTEX
  8
0
  10
257032.577683
  20
386349.639843
  30
49.8779549895
  70
32
  0
VERTEX
  8
0
  10
257002.416082
  20
386359.144241
  30
49.697521967
  70
32
  0
VERTEX
  8
0
  10
257001.637116
  20
386348.675997
  30
66.8277788174
  70
32
  0
VERTEX
  8
0
  10
256991.253116
  20
386342.798484
  30
81.3991486237
  70
32
  0
VERTEX
  8
0
  10
257026.307141
  20
386332.157736
  30
80.9605851594
  70
32
  0
VERTEX
  8
0
  10
257024.135358
  20
386322.677686
  30
97.203998252
  70
32
  0
VERTEX
  8
0
  10
257115.720731
  20
386295.424393
  30
95.1822001231
  70
32
  0
VERTEX
  8
0
  10
257150.923341
  20
386284.265375
  30
95.4985344589
  70
32
  0
VERTEX
  8
0
  10
257193.400538
  20
386269.425332
  30
98.0793787779
  70
32
  0
VERTEX
  8
0
  10
257259.495913
  20
386247.347258
  30
100.47455556
  70
32
  0
VERTEX
  8
0
  10
257299.300962
  20
386233.707686
  30
102.466152819
  70
32
  0
VERTEX
  8
0
  10
257339.284243
  20
386220.537599
  30
103.618122335
  70
32
  0
VERTEX
  8
0
  10
257342.927539
  20
386219.325402
  30
103.74249517
  70
32
  0
VERTEX
  8
0
  10
257441.544883
  20
386187.665503
  30
105.26648142
  70
32
  0
VERTEX
  8
0
  10
257470.263198
  20
386179.8843
  30
103.409683098
  70
32
  0
VERTEX
  8
0
  10
257494.425626
  20
386174.022991
  30
100.751129325
  70
32
  0
VERTEX
  8
0
  10
257507.895884
  20
386169.964732
  30
100.533540413
  70
32
  0
VERTEX
  8
0
  10
257541.883259
  20
386158.605895
  30
101.774638132
  70
32
  0
VERTEX
  8
0
  10
257569.984983
  20
386148.234759
  30
104.367095776
  70
32
  0
VERTEX
  8
0
  10
257574.975932
  20
386145.649905
  30
106.015693407
  70
32
  0
VERTEX
  8
0
  10
257624.374427
  20
386130.917268
  30
104.97797434
  70
32
  0
VERTEX
  8
0
  10
257624.134633
  20
386129.870544
  30
106.771463293
  70
32
  0
VERTEX
  8
0
  10
257574.736139
  20
386144.603181
  30
107.809182359
  70
32
  0
VERTEX
  8
0
  10
257569.745189
  20
386147.188036
  30
106.160584729
  70
32
  0
VERTEX
  8
0
  10
257541.643465
  20
386157.559171
  30
103.568127085
  70
32
  0
VERTEX
  8
0
  10
257507.65609
  20
386168.918008
  30
102.327029365
  70
32
  0
VERTEX
  8
0
  10
257494.185832
  20
386172.976267
  30
102.544618278
  70
32
  0
VERTEX
  8
0
  10
257470.023404
  20
386178.837576
  30
105.20317205
  70
32
  0
VERTEX
  8
0
  10
257441.305089
  20
386186.61878
  30
107.059970373
  70
32
  0
VERTEX
  8
0
  10
257342.687745
  20
386218.278678
  30
105.535984123
  70
32
  0
VERTEX
  8
0
  10
257299.061169
  20
386232.660962
  30
104.259641771
  70
32
  0
VERTEX
  8
0
  10
257259.256119
  20
386246.300534
  30
102.268044513
  70
32
  0
VERTEX
  8
0
  10
257193.160744
  20
386268.378608
  30
99.8728677305
  70
32
  0
VERTEX
  8
0
  10
257150.683547
  20
386283.218651
  30
97.2920234114
  70
32
  0
VERTEX
  8
0
  10
257115.480937
  20
386294.377669
  30
96.9756890756
  70
32
  0
VERTEX
  8
0
  10
257023.82377
  20
386321.317573
  30
99.5344579684
  70
32
  0
VERTEX
  8
0
  10
257023.583976
  20
386320.270849
  30
101.327946921
  70
32
  0
VERTEX
  8
0
  10
256975.418924
  20
386335.050427
  30
101.676340543
  70
32
  0
VERTEX
  8
0
  10
256919.8149
  20
386336.703827
  30
126.722606141
  70
32
  0
VERTEX
  8
0
  10
256918.419628
  20
386361.711275
  30
87.4219088214
  70
32
  0
VERTEX
  8
0
  10
256985.760531
  20
386379.709081
  30
25.101658057
  70
32
  0
VERTEX
  8
0
  10
257072.867548
  20
386374.176528
  30
-9.42889089786
  70
32
  0
VERTEX
  8
0
  10
257115.208523
  20
386394.333832
  30
-62.753041672
  70
32
  0
VERTEX
  8
0
  10
257239.169642
  20
386380.387128
  30
-102.179681525
  70
32
  0
SEQEND
  0
POLYLINE
  8
0
  66
1
  70
8
  0
VERTEX
  8
0
  10
257132.749593
  20
386226.936946
  30
196.236939773
  70
32
  0
VERTEX
  8
0
  10
257119.8027
  20
386229.534973
  30
198.52930779
  70
32
  0
VERTEX
  8
0
  10
257104.762655
  20
386234.24603
  30
198.48459588
  70
32
  0
VERTEX
  8
0
  10
257097.314529
  20
386236.528979
  30
198.542515477
  70
32
  0
VERTEX
  8
0
  10
257011.058203
  20
386262.523178
  30
199.924190611
  70
32
  0
VERTEX
  8
0
  10
257011.172264
  20
386267.249259
  30
192.308754336
  70
32
  0
VERTEX
  8
0
  10
257059.903554
  20
386252.648593
  30
191.39223428
  70
32
  0
VERTEX
  8
0
  10
257058.639529
  20
386265.315737
  30
171.762579879
  70
32
  0
VERTEX
  8
0
  10
256974.148989
  20
386293.428945
  30
168.875873446
  70
32
  0
VERTEX
  8
0
  10
256938.296904
  20
386306.43049
  30
165.936138936
  70
32
  0
VERTEX
  8
0
  10
256935.828584
  20
386308.323878
  30
164.137174437
  70
32
  0
VERTEX
  8
0
  10
256955.953389
  20
386302.995912
  30
162.636342798
  70
32
  0
VERTEX
  8
0
  10
256967.341648
  20
386298.310888
  30
164.45799628
  70
32
  0
VERTEX
  8
0
  10
256978.480336
  20
386293.156346
  30
167.154857415
  70
32
  0
VERTEX
  8
0
  10
257003.782218
  20
386284.887712
  30
167.779000948
  70
32
  0
VERTEX
  8
0
  10
257028.926353
  20
386277.877674
  30
166.468773935
  70
32
  0
VERTEX
  8
0
  10
257060.643016
  20
386266.516895
  30
168.843784802
  70
32
  0
VERTEX
  8
0
  10
257109.800332
  20
386249.538835
  30
171.517377032
  70
32
  0
VERTEX
  8
0
  10
257126.313208
  20
386243.400196
  30
173.111821929
  70
32
  0
VERTEX
  8
0
  10
257127.220603
  20
386234.003785
  30
187.688043809
  70
32
  0
VERTEX
  8
0
  10
257133.084445
  20
386231.13182
  30
189.36113427
  70
32
  0
VERTEX
  8
0
  10
257132.749593
  20
386226.936946
  30
196.236939773
  70
32
  0
SEQEND
  0
POLYLINE
  8
0
  66
1
  70
8
  0
VERTEX
  8
0
  10
257405.816431
  20
386130.781692
  30
214.035974786
  70
32
  0
VERTEX
  8
0
  10
257368.255885
  20
386142.519391
  30
213.968372268
  70
32
  0
VERTEX
  8
0
  10
257352.11089
  20
386151.70657
  30
207.315057968
  70
32
  0
VERTEX
  8
0
  10
257332.734786
  20
386159.727204
  30
204.136534052
  70
32
  0
VERTEX
  8
0
  10
257327.621094
  20
386161.815102
  30
203.34386694
  70
32
  0
VERTEX
  8
0
  10
257327.944741
  20
386169.903897
  30
190.245917085
  70
32
  0
VERTEX
  8
0
  10
257290.43018
  20
386182.783852
  30
188.328553531
  70
32
  0
VERTEX
  8
0
  10
257184.944374
  20
386217.619105
  30
185.146551911
  70
32
  0
VERTEX
  8
0
  10
257184.416857
  20
386223.330495
  30
176.27477037
  70
32
  0
VERTEX
  8
0
  10
257286.174181
  20
386186.29686
  30
184.829515492
  70
32
  0
VERTEX
  8
0
  10
257336.132842
  20
386169.564574
  30
186.710964381
  70
32
  0
VERTEX
  8
0
  10
257343.053507
  20
386199.773967
  30
134.949254107
  70
32
  0
VERTEX
  8
0
  10
257380.988211
  20
386187.865669
  30
135.103372331
  70
32
  0
VERTEX
  8
0
  10
257380.693386
  20
386176.908686
  30
152.774190147
  70
32
  0
VERTEX
  8
0
  10
257390.69919
  20
386173.789073
  30
152.780670055
  70
32
  0
VERTEX
  8
0
  10
257391.429181
  20
386161.797542
  30
171.595731771
  70
32
  0
VERTEX
  8
0
  10
257400.604472
  20
386158.750436
  30
171.899840813
  70
32
  0
VERTEX
  8
0
  10
257397.594945
  20
386145.69679
  30
194.275858911
  70
32
  0
VERTEX
  8
0
  10
257439.775714
  20
386129.599483
  30
199.015122741
  70
32
  0
VERTEX
  8
0
  10
257469.185685
  20
386119.206887
  30
200.990399544
  70
32
  0
VERTEX
  8
0
  10
257480.647816
  20
386116.799721
  30
199.132186063
  70
32
  0
VERTEX
  8
0
  10
257501.513524
  20
386107.760709
  30
203.197629238
  70
32
  0
VERTEX
  8
0
  10
257517.880994
  20
386103.703516
  30
201.535534371
  70
32
  0
VERTEX
  8
0
  10
257611.822084
  20
386076.6248
  30
198.061388092
  70
32
  0
VERTEX
  8
0
  10
257614.440802
  20
386073.502797
  30
201.750435617
  70
32
  0
VERTEX
  8
0
  10
257659.053666
  20
386059.881716
  30
201.318183919
  70
32
  0
VERTEX
  8
0
  10
257659.874398
  20
386041.077331
  30
230.984161022
  70
32
  0
VERTEX
  8
0
  10
257652.937312
  20
386040.577709
  30
235.237874975
  70
32
  0
VERTEX
  8
0
  10
257602.237272
  20
386055.107866
  30
237.247594298
  70
32
  0
VERTEX
  8
0
  10
257594.764012
  20
386059.682866
  30
233.652250773
  70
32
  0
VERTEX
  8
0
  10
257544.373316
  20
386073.900742
  30
236.007363688
  70
32
  0
VERTEX
  8
0
  10
257544.368482
  20
386078.360195
  30
228.877566262
  70
32
  0
VERTEX
  8
0
  10
257508.300546
  20
386088.591111
  30
230.476516399
  70
32
  0
VERTEX
  8
0
  10
257478.193358
  20
386098.040578
  30
230.3568381
  70
32
  0
VERTEX
  8
0
  10
257477.341304
  20
386101.167402
  30
225.780289021
  70
32
  0
VERTEX
  8
0
  10
257447.45415
  20
386110.394747
  30
225.90628533
  70
32
  0
VERTEX
  8
0
  10
257447.45113
  20
386112.664474
  30
222.277712998
  70
32
  0
VERTEX
  8
0
  10
257424.986837
  20
386119.634375
  30
222.317581401
  70
32
  0
VERTEX
  8
0
  10
257405.816431
  20
386130.781692
  30
214.035974786
  70
32
  0
SEQEND
  0
POLYLINE
  8
0
  66
1
  70
8
  0
VERTEX
  8
0
  10
257650.032683
  20
386048.485871
  30
224.036491792
  70
32
  0
VERTEX
  8
0
  10
257630.651102
  20
386054.089088
  30
224.726978299
  70
32
  0
VERTEX
  8
0
  10
257629.794332
  20
386064.332908
  30
208.77024404
  70
32
  0
VERTEX
  8
0
  10
257649.372526
  20
386058.531211
  30
208.299282962
  70
32
  0
VERTEX
  8
0
  10
257650.032683
  20
386048.485871
  30
224.036491792
  70
32
  0
SEQEND
  0
ENDSEC
  0
EOF
