  999
DXF Polyline File Exported from Leapfrog Geo
  0
SECTION
  2
ENTITIES
  0
POLYLINE
  8
0
  66
1
  70
8
  0
VERTEX
  8
0
  10
256955.340027
  20
386676.686292
  30
126.105461306
  70
32
  0
VERTEX
  8
0
  10
257065.104791
  20
386627.201916
  30
120.190451809
  70
32
  0
VERTEX
  8
0
  10
257062.088985
  20
386614.037624
  30
145.992064616
  70
32
  0
VERTEX
  8
0
  10
257079.323344
  20
386606.267994
  30
145.063338552
  70
32
  0
VERTEX
  8
0
  10
257078.567542
  20
386602.968841
  30
151.529579604
  70
32
  0
VERTEX
  8
0
  10
257059.613743
  20
386612.07004
  30
151.568730694
  70
32
  0
VERTEX
  8
0
  10
257044.842945
  20
386623.142134
  30
144.574242992
  70
32
  0
VERTEX
  8
0
  10
257029.68665
  20
386630.536444
  30
144.399733998
  70
32
  0
VERTEX
  8
0
  10
257021.571778
  20
386636.885005
  30
140.088007486
  70
32
  0
VERTEX
  8
0
  10
257005.972718
  20
386644.772484
  30
139.41913556
  70
32
  0
VERTEX
  8
0
  10
256998.486776
  20
386652.402725
  30
132.310431735
  70
32
  0
VERTEX
  8
0
  10
256955.500562
  20
386671.820367
  30
134.558895363
  70
32
  0
VERTEX
  8
0
  10
256955.340027
  20
386676.686292
  30
126.105461306
  70
32
  0
SEQEND
  0
POLYLINE
  8
0
  66
1
  70
8
  0
VERTEX
  8
0
  10
256950.109555
  20
386721.169971
  30
52.022635263
  70
32
  0
VERTEX
  8
0
  10
256943.509895
  20
386724.625495
  30
51.5304874837
  70
32
  0
VERTEX
  8
0
  10
256943.723127
  20
386725.553808
  30
49.7105407101
  70
32
  0
VERTEX
  8
0
  10
256960.748429
  20
386716.644367
  30
50.9715723323
  70
32
  0
VERTEX
  8
0
  10
257008.578152
  20
386694.721872
  30
49.0292813652
  70
32
  0
VERTEX
  8
0
  10
257055.21433
  20
386674.402423
  30
45.2713108626
  70
32
  0
VERTEX
  8
0
  10
257090.258841
  20
386657.718687
  30
44.9449451968
  70
32
  0
VERTEX
  8
0
  10
257146.304166
  20
386632.079312
  30
42.5830653288
  70
32
  0
VERTEX
  8
0
  10
257215.688142
  20
386598.725316
  30
42.5056421645
  70
32
  0
VERTEX
  8
0
  10
257224.868055
  20
386593.779172
  30
43.4366798576
  70
32
  0
VERTEX
  8
0
  10
257224.654714
  20
386592.848958
  30
45.2600744284
  70
32
  0
VERTEX
  8
0
  10
257215.481449
  20
386597.791349
  30
44.3300121784
  70
32
  0
VERTEX
  8
0
  10
257146.091053
  20
386631.149053
  30
44.4063444818
  70
32
  0
VERTEX
  8
0
  10
257090.045728
  20
386656.788428
  30
46.7682243498
  70
32
  0
VERTEX
  8
0
  10
257055.001217
  20
386673.472164
  30
47.0945900156
  70
32
  0
VERTEX
  8
0
  10
257008.365039
  20
386693.791613
  30
50.8525605182
  70
32
  0
VERTEX
  8
0
  10
256960.535316
  20
386715.714109
  30
52.7948514853
  70
32
  0
VERTEX
  8
0
  10
256950.109555
  20
386721.169971
  30
52.022635263
  70
32
  0
SEQEND
  0
ENDSEC
  0
EOF
