  999
DXF Polyline File Exported from Leapfrog Geo
  0
SECTION
  2
ENTITIES
  0
POLYLINE
  8
0
  66
1
  70
8
  0
VERTEX
  8
0
  10
257090.258841
  20
386657.718687
  30
44.9449451968
  70
32
  0
VERTEX
  8
0
  10
257055.21433
  20
386674.402423
  30
45.2713108626
  70
32
  0
VERTEX
  8
0
  10
257043.983423
  20
386679.295745
  30
46.1763038708
  70
32
  0
VERTEX
  8
0
  10
257006.721897
  20
386721.527431
  30
3.28658127962
  70
32
  0
VERTEX
  8
0
  10
257006.26932
  20
386728.067559
  30
-7.87417793341
  70
32
  0
VERTEX
  8
0
  10
257012.826401
  20
386735.704238
  30
-26.9269810758
  70
32
  0
VERTEX
  8
0
  10
257038.327147
  20
386722.644675
  30
-25.5415261594
  70
32
  0
VERTEX
  8
0
  10
257099.235392
  20
386653.612133
  30
44.5666525342
  70
32
  0
VERTEX
  8
0
  10
257090.258841
  20
386657.718687
  30
44.9449451968
  70
32
  0
SEQEND
  0
POLYLINE
  8
0
  66
1
  70
8
  0
VERTEX
  8
0
  10
257324.696493
  20
386528.369163
  30
74.078445301
  70
32
  0
VERTEX
  8
0
  10
257317.46474
  20
386531.270147
  30
75.1023368402
  70
32
  0
VERTEX
  8
0
  10
257318.419484
  20
386535.437704
  30
66.9340532194
  70
32
  0
VERTEX
  8
0
  10
257324.362842
  20
386532.84796
  30
66.455511811
  70
32
  0
VERTEX
  8
0
  10
257324.696493
  20
386528.369163
  30
74.078445301
  70
32
  0
SEQEND
  0
POLYLINE
  8
0
  66
1
  70
8
  0
VERTEX
  8
0
  10
256960.535316
  20
386715.714109
  30
52.7948514853
  70
32
  0
VERTEX
  8
0
  10
257008.365039
  20
386693.791613
  30
50.8525605182
  70
32
  0
VERTEX
  8
0
  10
257055.001217
  20
386673.472164
  30
47.0945900156
  70
32
  0
VERTEX
  8
0
  10
257073.668876
  20
386664.585001
  30
46.9207401688
  70
32
  0
VERTEX
  8
0
  10
257065.104791
  20
386627.201916
  30
120.190451809
  70
32
  0
VERTEX
  8
0
  10
256941.36239
  20
386682.987719
  30
126.858689006
  70
32
  0
VERTEX
  8
0
  10
256950.109555
  20
386721.169971
  30
52.022635263
  70
32
  0
VERTEX
  8
0
  10
256960.535316
  20
386715.714109
  30
52.7948514853
  70
32
  0
SEQEND
  0
POLYLINE
  8
0
  66
1
  70
8
  0
VERTEX
  8
0
  10
257365.554207
  20
386459.882797
  30
160.259931122
  70
32
  0
VERTEX
  8
0
  10
257308.518447
  20
386485.17681
  30
164.07308057
  70
32
  0
VERTEX
  8
0
  10
257309.812585
  20
386490.82585
  30
153.001133453
  70
32
  0
VERTEX
  8
0
  10
257255.396467
  20
386515.357835
  30
155.933512135
  70
32
  0
VERTEX
  8
0
  10
257254.364494
  20
386525.932108
  30
138.143582527
  70
32
  0
VERTEX
  8
0
  10
257310.449464
  20
386500.647767
  30
135.121272654
  70
32
  0
VERTEX
  8
0
  10
257312.395817
  20
386509.143795
  30
118.469316024
  70
32
  0
VERTEX
  8
0
  10
257332.879528
  20
386499.909286
  30
117.365488734
  70
32
  0
VERTEX
  8
0
  10
257340.056218
  20
386492.212247
  30
124.854890591
  70
32
  0
VERTEX
  8
0
  10
257340.252983
  20
386485.903713
  30
135.824186126
  70
32
  0
VERTEX
  8
0
  10
257347.743873
  20
386480.250167
  30
139.439213922
  70
32
  0
VERTEX
  8
0
  10
257355.067541
  20
386474.782878
  30
142.867533622
  70
32
  0
VERTEX
  8
0
  10
257362.725826
  20
386466.960267
  30
150.169384147
  70
32
  0
VERTEX
  8
0
  10
257375.868927
  20
386459.476478
  30
152.212515037
  70
32
  0
VERTEX
  8
0
  10
257365.554207
  20
386459.882797
  30
160.259931122
  70
32
  0
SEQEND
  0
POLYLINE
  8
0
  66
1
  70
8
  0
VERTEX
  8
0
  10
257220.704896
  20
386575.607607
  30
79.0525988745
  70
32
  0
VERTEX
  8
0
  10
257179.670724
  20
386588.941548
  30
90.3819515781
  70
32
  0
VERTEX
  8
0
  10
257158.396579
  20
386597.884603
  30
92.6719372676
  70
32
  0
VERTEX
  8
0
  10
257128.931018
  20
386611.168328
  30
94.2597790193
  70
32
  0
VERTEX
  8
0
  10
257134.702006
  20
386636.359266
  30
44.8863053047
  70
32
  0
VERTEX
  8
0
  10
257146.091053
  20
386631.149053
  30
44.4063444818
  70
32
  0
VERTEX
  8
0
  10
257215.481449
  20
386597.791349
  30
44.3300121784
  70
32
  0
VERTEX
  8
0
  10
257224.654714
  20
386592.848958
  30
45.2600744284
  70
32
  0
VERTEX
  8
0
  10
257220.704896
  20
386575.607607
  30
79.0525988745
  70
32
  0
SEQEND
  0
POLYLINE
  8
0
  66
1
  70
8
  0
VERTEX
  8
0
  10
257078.567542
  20
386602.968841
  30
151.529579604
  70
32
  0
VERTEX
  8
0
  10
257079.323344
  20
386606.267994
  30
145.063338552
  70
32
  0
VERTEX
  8
0
  10
257104.973109
  20
386594.704515
  30
143.681122672
  70
32
  0
VERTEX
  8
0
  10
257104.720516
  20
386590.290442
  30
151.687945898
  70
32
  0
VERTEX
  8
0
  10
257078.567542
  20
386602.968841
  30
151.529579604
  70
32
  0
SEQEND
  0
ENDSEC
  0
EOF
