  999
DXF Polyline File Exported from Leapfrog Geo
  0
SECTION
  2
ENTITIES
  0
POLYLINE
  8
0
  66
1
  70
8
  0
VERTEX
  8
0
  10
257443.708242
  20
386415.791627
  30
61.1821297242
  70
32
  0
VERTEX
  8
0
  10
257410.228582
  20
386435.390682
  30
56.9059005453
  70
32
  0
VERTEX
  8
0
  10
257355.110482
  20
386465.697018
  30
53.4111112145
  70
32
  0
VERTEX
  8
0
  10
257321.368659
  20
386485.725137
  30
48.602880908
  70
32
  0
VERTEX
  8
0
  10
257269.788533
  20
386512.800086
  30
47.6587421873
  70
32
  0
VERTEX
  8
0
  10
257257.153503
  20
386518.385147
  30
49.3217268654
  70
32
  0
VERTEX
  8
0
  10
257184.265332
  20
386557.375288
  30
46.6663931747
  70
32
  0
VERTEX
  8
0
  10
257160.270368
  20
386568.569519
  30
48.7613864191
  70
32
  0
VERTEX
  8
0
  10
257150.70662
  20
386574.376491
  30
47.16298952
  70
32
  0
VERTEX
  8
0
  10
257150.718607
  20
386576.272196
  30
43.7227167919
  70
32
  0
VERTEX
  8
0
  10
257161.601335
  20
386569.4189
  30
45.9855617483
  70
32
  0
VERTEX
  8
0
  10
257184.465968
  20
386558.62799
  30
44.2135694194
  70
32
  0
VERTEX
  8
0
  10
257188.664022
  20
386556.369533
  30
44.3896364492
  70
32
  0
VERTEX
  8
0
  10
257257.300407
  20
386519.298236
  30
47.5332580718
  70
32
  0
VERTEX
  8
0
  10
257269.935436
  20
386513.713175
  30
45.8702733937
  70
32
  0
VERTEX
  8
0
  10
257319.335948
  20
386487.931979
  30
46.5038157522
  70
32
  0
VERTEX
  8
0
  10
257355.257385
  20
386466.610108
  30
51.6226424208
  70
32
  0
VERTEX
  8
0
  10
257410.222548
  20
386436.430879
  30
55.0299243948
  70
32
  0
VERTEX
  8
0
  10
257437.556489
  20
386420.391962
  30
58.5891575106
  70
32
  0
VERTEX
  8
0
  10
257443.769372
  20
386416.754928
  30
59.3827053078
  70
32
  0
VERTEX
  8
0
  10
257443.708242
  20
386415.791627
  30
61.1821297242
  70
32
  0
SEQEND
  0
POLYLINE
  8
0
  66
1
  70
8
  0
VERTEX
  8
0
  10
257014.673599
  20
386606.779859
  30
115.222698001
  70
32
  0
VERTEX
  8
0
  10
256918.116148
  20
386655.245913
  30
117.467318059
  70
32
  0
VERTEX
  8
0
  10
256918.654698
  20
386674.161437
  30
82.7498396819
  70
32
  0
VERTEX
  8
0
  10
256889.333384
  20
386688.362292
  30
84.366086187
  70
32
  0
VERTEX
  8
0
  10
256886.617672
  20
386693.220607
  30
78.1068229038
  70
32
  0
VERTEX
  8
0
  10
256882.382619
  20
386701.168294
  30
67.6740541912
  70
32
  0
VERTEX
  8
0
  10
256882.749923
  20
386708.511682
  30
54.0486869646
  70
32
  0
VERTEX
  8
0
  10
256926.46392
  20
386687.87553
  30
50.6707137632
  70
32
  0
VERTEX
  8
0
  10
257030.078688
  20
386640.810955
  30
39.3192238675
  70
32
  0
VERTEX
  8
0
  10
257029.568478
  20
386633.111383
  30
53.7219590925
  70
32
  0
VERTEX
  8
0
  10
257029.127295
  20
386625.972548
  30
67.0461090995
  70
32
  0
VERTEX
  8
0
  10
257043.960384
  20
386618.556344
  30
66.6486217501
  70
32
  0
VERTEX
  8
0
  10
257051.609561
  20
386614.422218
  30
67.0038774423
  70
32
  0
VERTEX
  8
0
  10
257048.896265
  20
386598.478178
  30
98.3714058036
  70
32
  0
VERTEX
  8
0
  10
257049.223186
  20
386585.634944
  30
121.298893954
  70
32
  0
VERTEX
  8
0
  10
257014.585441
  20
386603.002742
  30
122.137155085
  70
32
  0
VERTEX
  8
0
  10
257014.673599
  20
386606.779859
  30
115.222698001
  70
32
  0
SEQEND
  0
POLYLINE
  8
0
  66
1
  70
8
  0
VERTEX
  8
0
  10
257553.968079
  20
386332.088665
  30
109.917345441
  70
32
  0
VERTEX
  8
0
  10
257547.754851
  20
386327.650445
  30
123.731311705
  70
32
  0
VERTEX
  8
0
  10
257532.677721
  20
386335.513565
  30
123.547630734
  70
32
  0
VERTEX
  8
0
  10
257531.70259
  20
386319.401268
  30
153.600939828
  70
32
  0
VERTEX
  8
0
  10
257555.519331
  20
386305.407098
  30
156.736672748
  70
32
  0
VERTEX
  8
0
  10
257555.731457
  20
386281.109029
  30
200.491519262
  70
32
  0
VERTEX
  8
0
  10
257490.0831
  20
386305.423283
  30
217.641460635
  70
32
  0
VERTEX
  8
0
  10
257471.211231
  20
386314.484909
  30
218.823473645
  70
32
  0
VERTEX
  8
0
  10
257380.028746
  20
386377.733189
  30
189.323611908
  70
32
  0
VERTEX
  8
0
  10
257340.447587
  20
386399.630255
  30
186.572249278
  70
32
  0
VERTEX
  8
0
  10
257278.673361
  20
386437.702437
  30
175.228117424
  70
32
  0
VERTEX
  8
0
  10
257214.900009
  20
386475.365622
  30
166.485394712
  70
32
  0
VERTEX
  8
0
  10
257167.106945
  20
386500.2294
  30
166.014503451
  70
32
  0
VERTEX
  8
0
  10
257155.847247
  20
386505.99839
  30
166.06407517
  70
32
  0
VERTEX
  8
0
  10
257155.664987
  20
386507.311548
  30
163.858445888
  70
32
  0
VERTEX
  8
0
  10
257162.030021
  20
386504.646888
  30
162.751402391
  70
32
  0
VERTEX
  8
0
  10
257206.318298
  20
386482.290518
  30
161.950333079
  70
32
  0
VERTEX
  8
0
  10
257214.736914
  20
386477.641556
  30
162.520368978
  70
32
  0
VERTEX
  8
0
  10
257279.360231
  20
386438.441916
  30
173.250875092
  70
32
  0
VERTEX
  8
0
  10
257313.958877
  20
386418.343824
  30
177.387805427
  70
32
  0
VERTEX
  8
0
  10
257339.60341
  20
386404.657087
  30
178.265391013
  70
32
  0
VERTEX
  8
0
  10
257343.40881
  20
386403.942243
  30
176.014881686
  70
32
  0
VERTEX
  8
0
  10
257359.014693
  20
386395.864773
  30
176.093923159
  70
32
  0
VERTEX
  8
0
  10
257378.165983
  20
386387.135405
  30
174.050698427
  70
32
  0
VERTEX
  8
0
  10
257448.446342
  20
386351.141603
  30
173.714390244
  70
32
  0
VERTEX
  8
0
  10
257491.984403
  20
386335.320307
  30
161.790733598
  70
32
  0
VERTEX
  8
0
  10
257495.397172
  20
386338.778183
  30
152.357876676
  70
32
  0
VERTEX
  8
0
  10
257501.943206
  20
386356.424309
  30
114.342436829
  70
32
  0
VERTEX
  8
0
  10
257539.391726
  20
386354.138222
  30
83.6057287802
  70
32
  0
VERTEX
  8
0
  10
257610.841191
  20
386363.866512
  30
-0.525191688198
  70
32
  0
VERTEX
  8
0
  10
257612.237157
  20
386338.56012
  30
43.9512075799
  70
32
  0
VERTEX
  8
0
  10
257576.700037
  20
386329.871321
  30
92.7603161854
  70
32
  0
VERTEX
  8
0
  10
257575.976513
  20
386323.410179
  30
105.121514019
  70
32
  0
VERTEX
  8
0
  10
257553.696697
  20
386334.355047
  30
106.070434432
  70
32
  0
VERTEX
  8
0
  10
257553.968079
  20
386332.088665
  30
109.917345441
  70
32
  0
SEQEND
  0
ENDSEC
  0
EOF
