  999
DXF Polyline File Exported from Leapfrog Geo
  0
SECTION
  2
ENTITIES
  0
POLYLINE
  8
0
  66
1
  70
8
  0
VERTEX
  8
0
  10
257339.60341
  20
386404.657087
  30
178.265391013
  70
32
  0
VERTEX
  8
0
  10
257313.958877
  20
386418.343824
  30
177.387805427
  70
32
  0
VERTEX
  8
0
  10
257279.360231
  20
386438.441916
  30
173.250875092
  70
32
  0
VERTEX
  8
0
  10
257214.736914
  20
386477.641556
  30
162.520368978
  70
32
  0
VERTEX
  8
0
  10
257206.318298
  20
386482.290518
  30
161.950333079
  70
32
  0
VERTEX
  8
0
  10
257162.030021
  20
386504.646888
  30
162.751402391
  70
32
  0
VERTEX
  8
0
  10
257155.664987
  20
386507.311548
  30
163.858445888
  70
32
  0
VERTEX
  8
0
  10
257126.480415
  20
386522.286712
  30
163.946722925
  70
32
  0
VERTEX
  8
0
  10
257089.578171
  20
386542.500817
  30
161.745041409
  70
32
  0
VERTEX
  8
0
  10
257067.327853
  20
386555.630486
  30
158.714442311
  70
32
  0
VERTEX
  8
0
  10
257049.383351
  20
386579.342808
  30
132.531490261
  70
32
  0
VERTEX
  8
0
  10
257048.896265
  20
386598.478178
  30
98.3714058036
  70
32
  0
VERTEX
  8
0
  10
257051.610139
  20
386614.421161
  30
67.0052522205
  70
32
  0
VERTEX
  8
0
  10
257074.594458
  20
386601.951416
  30
68.1586266441
  70
32
  0
VERTEX
  8
0
  10
257074.275698
  20
386596.522837
  30
78.2751217972
  70
32
  0
VERTEX
  8
0
  10
257067.003482
  20
386599.966628
  30
78.8175747927
  70
32
  0
VERTEX
  8
0
  10
257059.509308
  20
386603.979555
  30
78.5372144135
  70
32
  0
VERTEX
  8
0
  10
257058.77373
  20
386593.278229
  30
98.5796364379
  70
32
  0
VERTEX
  8
0
  10
257073.578693
  20
386585.913533
  30
98.1151681469
  70
32
  0
VERTEX
  8
0
  10
257078.885447
  20
386573.10336
  30
116.345642928
  70
32
  0
VERTEX
  8
0
  10
257098.657974
  20
386563.224108
  30
115.803929909
  70
32
  0
VERTEX
  8
0
  10
257119.361651
  20
386551.639627
  30
117.4796924
  70
32
  0
VERTEX
  8
0
  10
257150.299411
  20
386546.087858
  30
98.7130273281
  70
32
  0
VERTEX
  8
0
  10
257150.639166
  20
386563.709021
  30
66.5220139894
  70
32
  0
VERTEX
  8
0
  10
257150.761842
  20
386583.109705
  30
31.3141989414
  70
32
  0
VERTEX
  8
0
  10
257158.712428
  20
386590.509861
  30
10.5246109041
  70
32
  0
VERTEX
  8
0
  10
257187.475751
  20
386577.419993
  30
7.41832056833
  70
32
  0
VERTEX
  8
0
  10
257180.703232
  20
386535.134815
  30
90.2138394191
  70
32
  0
VERTEX
  8
0
  10
257221.807804
  20
386489.076806
  30
135.250935488
  70
32
  0
VERTEX
  8
0
  10
257287.857956
  20
386459.075076
  30
128.014827658
  70
32
  0
VERTEX
  8
0
  10
257291.158381
  20
386477.019509
  30
92.4820897576
  70
32
  0
VERTEX
  8
0
  10
257318.170348
  20
386464.749957
  30
89.5228004986
  70
32
  0
VERTEX
  8
0
  10
257319.909217
  20
386475.558017
  30
68.3530479918
  70
32
  0
VERTEX
  8
0
  10
257340.640272
  20
386466.141421
  30
66.0818623829
  70
32
  0
VERTEX
  8
0
  10
257335.909337
  20
386436.73597
  30
123.678337977
  70
32
  0
VERTEX
  8
0
  10
257369.434141
  20
386421.508115
  30
120.005536506
  70
32
  0
VERTEX
  8
0
  10
257364.759137
  20
386393.246392
  30
175.481056396
  70
32
  0
VERTEX
  8
0
  10
257359.014693
  20
386395.864773
  30
176.093923159
  70
32
  0
VERTEX
  8
0
  10
257343.40881
  20
386403.942243
  30
176.014881686
  70
32
  0
VERTEX
  8
0
  10
257339.60341
  20
386404.657087
  30
178.265391013
  70
32
  0
SEQEND
  0
ENDSEC
  0
EOF
