  999
DXF Polyline File Exported from Leapfrog Geo
  0
SECTION
  2
ENTITIES
  0
POLYLINE
  8
0
  66
1
  70
8
  0
VERTEX
  8
0
  10
257436.254725
  20
386475.2951
  30
-39.5120317245
  70
32
  0
VERTEX
  8
0
  10
257445.743604
  20
386471.279539
  30
-41.0843698178
  70
32
  0
VERTEX
  8
0
  10
257437.556489
  20
386420.391962
  30
58.5891575106
  70
32
  0
VERTEX
  8
0
  10
257410.222548
  20
386436.430879
  30
55.0299243948
  70
32
  0
VERTEX
  8
0
  10
257355.257385
  20
386466.610108
  30
51.6226424208
  70
32
  0
VERTEX
  8
0
  10
257319.335948
  20
386487.931979
  30
46.5038157522
  70
32
  0
VERTEX
  8
0
  10
257269.935436
  20
386513.713175
  30
45.8702733937
  70
32
  0
VERTEX
  8
0
  10
257257.300407
  20
386519.298236
  30
47.5332580718
  70
32
  0
VERTEX
  8
0
  10
257188.664022
  20
386556.369533
  30
44.3896364492
  70
32
  0
VERTEX
  8
0
  10
257184.465968
  20
386558.62799
  30
44.2135694194
  70
32
  0
VERTEX
  8
0
  10
257187.475751
  20
386577.419993
  30
7.41832056834
  70
32
  0
VERTEX
  8
0
  10
257195.372883
  20
386572.54214
  30
8.88799764176
  70
32
  0
VERTEX
  8
0
  10
257195.48804
  20
386580.34729
  30
-5.33784420721
  70
32
  0
VERTEX
  8
0
  10
257278.520232
  20
386536.902393
  30
-4.0704632532
  70
32
  0
VERTEX
  8
0
  10
257278.68727
  20
386556.498272
  30
-39.6726730307
  70
32
  0
VERTEX
  8
0
  10
257374.776312
  20
386508.89002
  30
-43.0327780677
  70
32
  0
VERTEX
  8
0
  10
257436.254725
  20
386475.2951
  30
-39.5120317245
  70
32
  0
SEQEND
  0
POLYLINE
  8
0
  66
1
  70
8
  0
VERTEX
  8
0
  10
257030.078688
  20
386640.810955
  30
39.3192238675
  70
32
  0
VERTEX
  8
0
  10
256926.46392
  20
386687.87553
  30
50.6707137632
  70
32
  0
VERTEX
  8
0
  10
256927.023581
  20
386706.57801
  30
16.3189487304
  70
32
  0
VERTEX
  8
0
  10
256941.327838
  20
386700.130263
  30
14.6620819917
  70
32
  0
VERTEX
  8
0
  10
256958.358041
  20
386688.690454
  30
19.4968795006
  70
32
  0
VERTEX
  8
0
  10
257016.358847
  20
386661.464124
  30
14.7359276502
  70
32
  0
VERTEX
  8
0
  10
257031.193646
  20
386654.044788
  30
14.3425128312
  70
32
  0
VERTEX
  8
0
  10
257032.138629
  20
386653.614658
  30
14.2406024837
  70
32
  0
VERTEX
  8
0
  10
257030.078688
  20
386640.810955
  30
39.3192238675
  70
32
  0
SEQEND
  0
POLYLINE
  8
0
  66
1
  70
8
  0
VERTEX
  8
0
  10
257340.640272
  20
386466.141421
  30
66.0818623829
  70
32
  0
VERTEX
  8
0
  10
257319.909217
  20
386475.558017
  30
68.3530479918
  70
32
  0
VERTEX
  8
0
  10
257321.368659
  20
386485.725137
  30
48.602880908
  70
32
  0
VERTEX
  8
0
  10
257355.110482
  20
386465.697018
  30
53.4111112145
  70
32
  0
VERTEX
  8
0
  10
257371.106222
  20
386456.911685
  30
54.4075610412
  70
32
  0
VERTEX
  8
0
  10
257410.228582
  20
386435.390682
  30
56.9059005453
  70
32
  0
VERTEX
  8
0
  10
257437.409585
  20
386419.478872
  30
60.3776263043
  70
32
  0
VERTEX
  8
0
  10
257436.122785
  20
386411.480677
  30
76.0436947364
  70
32
  0
VERTEX
  8
0
  10
257338.947558
  20
386455.620242
  30
86.6897023582
  70
32
  0
VERTEX
  8
0
  10
257340.640272
  20
386466.141421
  30
66.0818623829
  70
32
  0
SEQEND
  0
ENDSEC
  0
EOF
