  999
DXF Polyline File Exported from Leapfrog Geo
  0
SECTION
  2
ENTITIES
  0
POLYLINE
  8
0
  66
1
  70
8
  0
VERTEX
  8
0
  10
257458.647223
  20
386416.089571
  30
46.7320388429
  70
32
  0
VERTEX
  8
0
  10
257443.376057
  20
386424.308033
  30
46.0862729165
  70
32
  0
VERTEX
  8
0
  10
257443.769372
  20
386416.754928
  30
59.3827053078
  70
32
  0
VERTEX
  8
0
  10
257437.556489
  20
386420.391962
  30
58.5891575106
  70
32
  0
VERTEX
  8
0
  10
257445.743604
  20
386471.279539
  30
-41.0843698178
  70
32
  0
VERTEX
  8
0
  10
257457.290996
  20
386466.392843
  30
-42.9978102144
  70
32
  0
VERTEX
  8
0
  10
257458.075028
  20
386435.104368
  30
12.8693117347
  70
32
  0
VERTEX
  8
0
  10
257486.313173
  20
386422.887137
  30
8.67356644997
  70
32
  0
VERTEX
  8
0
  10
257486.401221
  20
386404.758965
  30
41.3833281841
  70
32
  0
VERTEX
  8
0
  10
257458.647223
  20
386416.089571
  30
46.7320388429
  70
32
  0
SEQEND
  0
POLYLINE
  8
0
  66
1
  70
8
  0
VERTEX
  8
0
  10
257436.122785
  20
386411.480677
  30
76.0436947364
  70
32
  0
VERTEX
  8
0
  10
257437.409585
  20
386419.478872
  30
60.3776263043
  70
32
  0
VERTEX
  8
0
  10
257443.708242
  20
386415.791627
  30
61.1821297242
  70
32
  0
VERTEX
  8
0
  10
257442.238148
  20
386404.729201
  30
82.5617185681
  70
32
  0
VERTEX
  8
0
  10
257429.176583
  20
386410.66211
  30
83.9926750631
  70
32
  0
VERTEX
  8
0
  10
257421.281769
  20
386405.295184
  30
101.052451592
  70
32
  0
VERTEX
  8
0
  10
257413.233882
  20
386390.257696
  30
135.747691978
  70
32
  0
VERTEX
  8
0
  10
257398.129931
  20
386390.223153
  30
149.874939335
  70
32
  0
VERTEX
  8
0
  10
257382.819602
  20
386390.566552
  30
163.510711893
  70
32
  0
VERTEX
  8
0
  10
257375.398148
  20
386390.275428
  30
170.948163488
  70
32
  0
VERTEX
  8
0
  10
257375.375239
  20
386389.889588
  30
171.667435355
  70
32
  0
VERTEX
  8
0
  10
257364.984586
  20
386394.609298
  30
172.805780694
  70
32
  0
VERTEX
  8
0
  10
257369.434141
  20
386421.508115
  30
120.005536506
  70
32
  0
VERTEX
  8
0
  10
257335.909337
  20
386436.73597
  30
123.678337977
  70
32
  0
VERTEX
  8
0
  10
257338.947558
  20
386455.620242
  30
86.6897023582
  70
32
  0
VERTEX
  8
0
  10
257436.122785
  20
386411.480677
  30
76.0436947364
  70
32
  0
SEQEND
  0
POLYLINE
  8
0
  66
1
  70
8
  0
VERTEX
  8
0
  10
257520.166241
  20
386355.311863
  30
99.3854740471
  70
32
  0
VERTEX
  8
0
  10
257501.943206
  20
386356.424309
  30
114.342436829
  70
32
  0
VERTEX
  8
0
  10
257493.471473
  20
386361.881479
  30
112.359909807
  70
32
  0
VERTEX
  8
0
  10
257485.358276
  20
386368.869478
  30
107.274421812
  70
32
  0
VERTEX
  8
0
  10
257485.14244
  20
386371.26885
  30
103.135222162
  70
32
  0
VERTEX
  8
0
  10
257500.930127
  20
386366.112299
  30
97.7613667955
  70
32
  0
VERTEX
  8
0
  10
257516.676398
  20
386357.023772
  30
99.5385643645
  70
32
  0
VERTEX
  8
0
  10
257520.166241
  20
386355.311863
  30
99.3854740471
  70
32
  0
SEQEND
  0
POLYLINE
  8
0
  66
1
  70
8
  0
VERTEX
  8
0
  10
257495.397172
  20
386338.778183
  30
152.357876676
  70
32
  0
VERTEX
  8
0
  10
257491.984403
  20
386335.320307
  30
161.790733598
  70
32
  0
VERTEX
  8
0
  10
257451.415897
  20
386350.07795
  30
172.873172399
  70
32
  0
VERTEX
  8
0
  10
257450.942154
  20
386362.624827
  30
150.618480375
  70
32
  0
VERTEX
  8
0
  10
257457.894465
  20
386361.770992
  30
145.688993848
  70
32
  0
VERTEX
  8
0
  10
257464.914644
  20
386358.78876
  30
144.54632999
  70
32
  0
VERTEX
  8
0
  10
257472.022182
  20
386349.703476
  30
154.36202782
  70
32
  0
VERTEX
  8
0
  10
257493.166536
  20
386340.603284
  30
151.133643404
  70
32
  0
VERTEX
  8
0
  10
257495.397172
  20
386338.778183
  30
152.357876676
  70
32
  0
SEQEND
  0
ENDSEC
  0
EOF
