  999
DXF Polyline File Exported from Leapfrog Geo
  0
SECTION
  2
ENTITIES
  0
POLYLINE
  8
0
  66
1
  70
8
  0
VERTEX
  8
0
  10
256971.721219
  20
386288.502284
  30
47.0736099185
  70
32
  0
VERTEX
  8
0
  10
257034.640561
  20
386271.513442
  30
44.0365484846
  70
32
  0
VERTEX
  8
0
  10
257066.448989
  20
386259.805808
  30
46.4375317794
  70
32
  0
VERTEX
  8
0
  10
257065.496295
  20
386257.331535
  30
49.9307820651
  70
32
  0
VERTEX
  8
0
  10
257034.052854
  20
386268.948046
  30
47.5028079862
  70
32
  0
VERTEX
  8
0
  10
256971.256608
  20
386285.903651
  30
50.533927733
  70
32
  0
VERTEX
  8
0
  10
256971.721219
  20
386288.502284
  30
47.0736099185
  70
32
  0
SEQEND
  0
POLYLINE
  8
0
  66
1
  70
8
  0
VERTEX
  8
0
  10
256952.976334
  20
386426.993716
  30
-120.415247682
  70
32
  0
VERTEX
  8
0
  10
257065.377504
  20
386387.725281
  30
-114.584637072
  70
32
  0
VERTEX
  8
0
  10
256933.285074
  20
386393.315868
  30
-70.2520662284
  70
32
  0
VERTEX
  8
0
  10
256947.568143
  20
386423.953811
  30
-114.474821797
  70
32
  0
VERTEX
  8
0
  10
256952.976334
  20
386426.993716
  30
-120.415247682
  70
32
  0
SEQEND
  0
POLYLINE
  8
0
  66
1
  70
8
  0
VERTEX
  8
0
  10
257380.87416
  20
386258.275293
  30
-73.9521453422
  70
32
  0
VERTEX
  8
0
  10
257345.810897
  20
386268.635551
  30
-73.3864586056
  70
32
  0
VERTEX
  8
0
  10
257351.463438
  20
386293.30946
  30
-106.724841234
  70
32
  0
VERTEX
  8
0
  10
257386.526702
  20
386282.949201
  30
-107.290527971
  70
32
  0
VERTEX
  8
0
  10
257380.87416
  20
386258.275293
  30
-73.9521453422
  70
32
  0
SEQEND
  0
POLYLINE
  8
0
  66
1
  70
8
  0
VERTEX
  8
0
  10
257402.946801
  20
386206.477654
  30
-17.1685967121
  70
32
  0
VERTEX
  8
0
  10
257369.263977
  20
386216.430029
  30
-16.6251810518
  70
32
  0
VERTEX
  8
0
  10
257374.874336
  20
386240.919805
  30
-49.7147712296
  70
32
  0
VERTEX
  8
0
  10
257408.557159
  20
386230.96743
  30
-50.2581868899
  70
32
  0
VERTEX
  8
0
  10
257402.946801
  20
386206.477654
  30
-17.1685967121
  70
32
  0
SEQEND
  0
POLYLINE
  8
0
  66
1
  70
8
  0
VERTEX
  8
0
  10
257247.470518
  20
386302.01004
  30
-77.2487839035
  70
32
  0
VERTEX
  8
0
  10
257247.801661
  20
386291.143137
  30
-63.6631846527
  70
32
  0
VERTEX
  8
0
  10
257232.004872
  20
386296.717533
  30
-64.5528278707
  70
32
  0
VERTEX
  8
0
  10
257232.684037
  20
386293.134079
  30
-60.2945955741
  70
32
  0
VERTEX
  8
0
  10
257232.961168
  20
386278.540806
  30
-41.9851690864
  70
32
  0
VERTEX
  8
0
  10
257271.226628
  20
386267.538543
  30
-42.986377047
  70
32
  0
VERTEX
  8
0
  10
257268.975586
  20
386257.712519
  30
-29.7098534102
  70
32
  0
VERTEX
  8
0
  10
257216.518728
  20
386273.21212
  30
-28.8635503025
  70
32
  0
VERTEX
  8
0
  10
257224.660076
  20
386308.749916
  30
-76.8807758109
  70
32
  0
VERTEX
  8
0
  10
257247.470518
  20
386302.01004
  30
-77.2487839035
  70
32
  0
SEQEND
  0
POLYLINE
  8
0
  66
1
  70
8
  0
VERTEX
  8
0
  10
257348.69715
  20
386095.393233
  30
144.128782074
  70
32
  0
VERTEX
  8
0
  10
257348.581313
  20
386098.403922
  30
140.374246543
  70
32
  0
VERTEX
  8
0
  10
257355.913461
  20
386102.036669
  30
132.937153446
  70
32
  0
VERTEX
  8
0
  10
257363.468381
  20
386105.304958
  30
125.873353584
  70
32
  0
VERTEX
  8
0
  10
257364.211394
  20
386115.808733
  30
112.328153755
  70
32
  0
VERTEX
  8
0
  10
257356.8854
  20
386117.913076
  30
112.522437597
  70
32
  0
VERTEX
  8
0
  10
257356.588732
  20
386132.529656
  30
94.1911969665
  70
32
  0
VERTEX
  8
0
  10
257334.632204
  20
386138.817091
  30
94.7980037864
  70
32
  0
VERTEX
  8
0
  10
257334.801386
  20
386148.68029
  30
82.284472743
  70
32
  0
VERTEX
  8
0
  10
257397.806854
  20
386130.063856
  30
81.2679855593
  70
32
  0
VERTEX
  8
0
  10
257386.402769
  20
386080.283884
  30
148.52866071
  70
32
  0
VERTEX
  8
0
  10
257377.173145
  20
386085.091112
  30
146.052376587
  70
32
  0
VERTEX
  8
0
  10
257348.69715
  20
386095.393233
  30
144.128782074
  70
32
  0
SEQEND
  0
POLYLINE
  8
0
  66
1
  70
8
  0
VERTEX
  8
0
  10
257167.762101
  20
386411.855987
  30
-184.869278327
  70
32
  0
VERTEX
  8
0
  10
257207.4402
  20
386400.094063
  30
-185.461328388
  70
32
  0
VERTEX
  8
0
  10
257143.656595
  20
386374.111144
  30
-127.85612191
  70
32
  0
VERTEX
  8
0
  10
257140.911229
  20
386377.428118
  30
-130.97422922
  70
32
  0
VERTEX
  8
0
  10
257141.369541
  20
386394.100778
  30
-152.194028946
  70
32
  0
VERTEX
  8
0
  10
257165.009808
  20
386402.922754
  30
-172.524486742
  70
32
  0
VERTEX
  8
0
  10
257167.762101
  20
386411.855987
  30
-184.869278327
  70
32
  0
SEQEND
  0
POLYLINE
  8
0
  66
1
  70
8
  0
VERTEX
  8
0
  10
257380.809148
  20
386157.070775
  30
53.7969155264
  70
32
  0
VERTEX
  8
0
  10
257422.43168
  20
386146.225577
  30
51.2914788389
  70
32
  0
VERTEX
  8
0
  10
257421.801879
  20
386143.671149
  30
54.7602721873
  70
32
  0
VERTEX
  8
0
  10
257380.221441
  20
386154.505378
  30
57.263175028
  70
32
  0
VERTEX
  8
0
  10
257335.085412
  20
386169.659336
  30
55.6976612427
  70
32
  0
VERTEX
  8
0
  10
257335.673118
  20
386172.224732
  30
52.2314017411
  70
32
  0
VERTEX
  8
0
  10
257380.809148
  20
386157.070775
  30
53.7969155264
  70
32
  0
SEQEND
  0
POLYLINE
  8
0
  66
1
  70
8
  0
VERTEX
  8
0
  10
256830.912952
  20
386293.682579
  30
95.3147178595
  70
32
  0
VERTEX
  8
0
  10
256831.041309
  20
386296.732928
  30
91.4151313321
  70
32
  0
VERTEX
  8
0
  10
256842.120307
  20
386293.39179
  30
91.3216916126
  70
32
  0
VERTEX
  8
0
  10
256841.500614
  20
386290.686767
  30
94.9766085818
  70
32
  0
VERTEX
  8
0
  10
256830.912952
  20
386293.682579
  30
95.3147178595
  70
32
  0
SEQEND
  0
POLYLINE
  8
0
  66
1
  70
8
  0
VERTEX
  8
0
  10
257129.136019
  20
386233.901182
  30
54.7428896761
  70
32
  0
VERTEX
  8
0
  10
257189.291422
  20
386217.747385
  30
51.7272309421
  70
32
  0
VERTEX
  8
0
  10
257225.804146
  20
386202.014099
  30
57.3786139507
  70
32
  0
VERTEX
  8
0
  10
257225.669224
  20
386199.253598
  30
60.9149547359
  70
32
  0
VERTEX
  8
0
  10
257188.703716
  20
386215.181988
  30
55.1934904437
  70
32
  0
VERTEX
  8
0
  10
257128.548313
  20
386231.335786
  30
58.2091491777
  70
32
  0
VERTEX
  8
0
  10
257080.17622
  20
386247.494511
  30
56.6345127707
  70
32
  0
VERTEX
  8
0
  10
257081.569409
  20
386249.657167
  30
53.3631682486
  70
32
  0
VERTEX
  8
0
  10
257129.136019
  20
386233.901182
  30
54.7428896761
  70
32
  0
SEQEND
  0
POLYLINE
  8
0
  66
1
  70
8
  0
VERTEX
  8
0
  10
257414.586956
  20
386059.371636
  30
163.956143518
  70
32
  0
VERTEX
  8
0
  10
257414.966108
  20
386071.844179
  30
148.067839302
  70
32
  0
VERTEX
  8
0
  10
257425.417523
  20
386068.756065
  30
147.899223308
  70
32
  0
VERTEX
  8
0
  10
257422.647307
  20
386056.663793
  30
164.237810424
  70
32
  0
VERTEX
  8
0
  10
257414.586956
  20
386059.371636
  30
163.956143518
  70
32
  0
SEQEND
  0
POLYLINE
  8
0
  66
1
  70
8
  0
VERTEX
  8
0
  10
257125.062746
  20
386117.46142
  30
203.278719224
  70
32
  0
VERTEX
  8
0
  10
257094.446165
  20
386127.444688
  30
202.590283929
  70
32
  0
VERTEX
  8
0
  10
257057.26015
  20
386141.874415
  30
198.845970241
  70
32
  0
VERTEX
  8
0
  10
257060.710944
  20
386151.363142
  30
185.528385293
  70
32
  0
VERTEX
  8
0
  10
257054.852082
  20
386166.244662
  30
169.026648571
  70
32
  0
VERTEX
  8
0
  10
257075.208604
  20
386160.229853
  30
168.698230352
  70
32
  0
VERTEX
  8
0
  10
257090.367234
  20
386154.4422
  30
170.105276419
  70
32
  0
VERTEX
  8
0
  10
257147.127391
  20
386133.860536
  30
173.998603545
  70
32
  0
VERTEX
  8
0
  10
257198.881539
  20
386112.292306
  30
181.084505392
  70
32
  0
VERTEX
  8
0
  10
257199.399751
  20
386109.395751
  30
184.538461731
  70
32
  0
VERTEX
  8
0
  10
257207.087343
  20
386107.168599
  30
184.358495526
  70
32
  0
VERTEX
  8
0
  10
257206.91414
  20
386092.803995
  30
202.55452718
  70
32
  0
VERTEX
  8
0
  10
257199.165197
  20
386095.412902
  30
202.276573831
  70
32
  0
VERTEX
  8
0
  10
257162.600043
  20
386105.857294
  30
203.320362575
  70
32
  0
VERTEX
  8
0
  10
257161.606524
  20
386124.177695
  30
180.585863179
  70
32
  0
VERTEX
  8
0
  10
257146.544568
  20
386128.875459
  30
180.516686691
  70
32
  0
VERTEX
  8
0
  10
257146.413154
  20
386126.159731
  30
183.995158112
  70
32
  0
VERTEX
  8
0
  10
257131.454133
  20
386130.734698
  30
184.040912322
  70
32
  0
VERTEX
  8
0
  10
257125.062746
  20
386117.46142
  30
203.278719224
  70
32
  0
SEQEND
  0
ENDSEC
  0
EOF
