  999
DXF Polyline File Exported from Leapfrog Geo
  0
SECTION
  2
ENTITIES
  0
POLYLINE
  8
0
  66
1
  70
8
  0
VERTEX
  8
0
  10
256842.120307
  20
386293.39179
  30
91.3216916126
  70
32
  0
VERTEX
  8
0
  10
256831.041309
  20
386296.732928
  30
91.4151313321
  70
32
  0
VERTEX
  8
0
  10
256831.73805
  20
386301.498955
  30
85.1291790801
  70
32
  0
VERTEX
  8
0
  10
256868.689323
  20
386296.344109
  30
77.2595779327
  70
32
  0
VERTEX
  8
0
  10
256889.913005
  20
386290.354222
  30
76.5623553014
  70
32
  0
VERTEX
  8
0
  10
256891.177164
  20
386287.849517
  30
79.2315869383
  70
32
  0
VERTEX
  8
0
  10
256891.345243
  20
386281.904574
  30
86.6689329937
  70
32
  0
VERTEX
  8
0
  10
256899.023034
  20
386276.508047
  30
90.4926437126
  70
32
  0
VERTEX
  8
0
  10
256899.139959
  20
386273.496059
  30
94.2483937966
  70
32
  0
VERTEX
  8
0
  10
256841.500614
  20
386290.686767
  30
94.9766085818
  70
32
  0
VERTEX
  8
0
  10
256842.120307
  20
386293.39179
  30
91.3216916126
  70
32
  0
SEQEND
  0
POLYLINE
  8
0
  66
1
  70
8
  0
VERTEX
  8
0
  10
257371.763659
  20
386227.341388
  30
-31.3681659654
  70
32
  0
VERTEX
  8
0
  10
257369.263977
  20
386216.430029
  30
-16.6251810519
  70
32
  0
VERTEX
  8
0
  10
257402.946801
  20
386206.477654
  30
-17.1685967121
  70
32
  0
VERTEX
  8
0
  10
257408.557159
  20
386230.96743
  30
-50.2581868899
  70
32
  0
VERTEX
  8
0
  10
257381.37686
  20
386238.998483
  30
-49.8196785128
  70
32
  0
VERTEX
  8
0
  10
257380.87416
  20
386258.275293
  30
-73.9521453422
  70
32
  0
VERTEX
  8
0
  10
257393.2208
  20
386312.169608
  30
-146.771953532
  70
32
  0
VERTEX
  8
0
  10
257310.601328
  20
386336.581456
  30
-145.439027411
  70
32
  0
VERTEX
  8
0
  10
257313.912834
  20
386351.036511
  30
-164.970110294
  70
32
  0
VERTEX
  8
0
  10
257341.005445
  20
386343.271662
  30
-165.710463694
  70
32
  0
VERTEX
  8
0
  10
257355.690299
  20
386341.896268
  30
-169.687535537
  70
32
  0
VERTEX
  8
0
  10
257363.508622
  20
386342.076523
  30
-172.956595711
  70
32
  0
VERTEX
  8
0
  10
257386.957972
  20
386345.398935
  30
-186.272132605
  70
32
  0
VERTEX
  8
0
  10
257391.848164
  20
386345.644538
  30
-188.484529787
  70
32
  0
VERTEX
  8
0
  10
257430.266988
  20
386334.291782
  30
-189.103067027
  70
32
  0
VERTEX
  8
0
  10
257433.823624
  20
386318.422014
  30
-170.458487856
  70
32
  0
VERTEX
  8
0
  10
257427.972648
  20
386227.85799
  30
-53.8871947149
  70
32
  0
VERTEX
  8
0
  10
257434.567918
  20
386204.414352
  30
-26.8662403938
  70
32
  0
VERTEX
  8
0
  10
257438.188633
  20
386162.44968
  30
24.686124656
  70
32
  0
VERTEX
  8
0
  10
257461.634824
  20
386154.385126
  30
25.7425809883
  70
32
  0
VERTEX
  8
0
  10
257469.338449
  20
386146.08585
  30
33.219615944
  70
32
  0
VERTEX
  8
0
  10
257469.186803
  20
386140.521759
  30
40.3006967746
  70
32
  0
VERTEX
  8
0
  10
257445.912293
  20
386148.381502
  30
39.4359291855
  70
32
  0
VERTEX
  8
0
  10
257422.43168
  20
386146.225577
  30
51.2914788389
  70
32
  0
VERTEX
  8
0
  10
257380.809148
  20
386157.070775
  30
53.7969155263
  70
32
  0
VERTEX
  8
0
  10
257335.673118
  20
386172.224732
  30
52.2314017411
  70
32
  0
VERTEX
  8
0
  10
257334.779009
  20
386187.174954
  30
33.7115163773
  70
32
  0
VERTEX
  8
0
  10
257313.490796
  20
386192.665112
  30
35.0645200922
  70
32
  0
VERTEX
  8
0
  10
257313.236629
  20
386201.485988
  30
24.0311336875
  70
32
  0
VERTEX
  8
0
  10
257292.225466
  20
386206.645636
  30
25.6934725068
  70
32
  0
VERTEX
  8
0
  10
257291.888348
  20
386221.31047
  30
7.31706920586
  70
32
  0
VERTEX
  8
0
  10
257284.967327
  20
386222.931695
  30
7.9635194184
  70
32
  0
VERTEX
  8
0
  10
257284.643164
  20
386237.581075
  30
-10.3984203674
  70
32
  0
VERTEX
  8
0
  10
257277.895055
  20
386238.996021
  30
-9.55890736167
  70
32
  0
VERTEX
  8
0
  10
257248.215545
  20
386247.861393
  30
-9.20106842221
  70
32
  0
VERTEX
  8
0
  10
257240.662689
  20
386238.84621
  30
5.11471618384
  70
32
  0
VERTEX
  8
0
  10
257224.649044
  20
386239.033575
  30
11.1080647817
  70
32
  0
VERTEX
  8
0
  10
257226.260867
  20
386211.358626
  30
45.4078035349
  70
32
  0
VERTEX
  8
0
  10
257225.804146
  20
386202.014099
  30
57.3786139507
  70
32
  0
VERTEX
  8
0
  10
257189.291422
  20
386217.747385
  30
51.727230942
  70
32
  0
VERTEX
  8
0
  10
257129.136019
  20
386233.901182
  30
54.7428896761
  70
32
  0
VERTEX
  8
0
  10
257081.569409
  20
386249.657167
  30
53.3631682486
  70
32
  0
VERTEX
  8
0
  10
257093.943701
  20
386268.865856
  30
24.3071188496
  70
32
  0
VERTEX
  8
0
  10
257177.652478
  20
386255.354738
  30
8.79330209261
  70
32
  0
VERTEX
  8
0
  10
257195.954446
  20
386274.918263
  30
-23.0166136373
  70
32
  0
VERTEX
  8
0
  10
257200.815777
  20
386279.471121
  30
-30.6536958207
  70
32
  0
VERTEX
  8
0
  10
257174.242378
  20
386318.935086
  30
-70.1207651009
  70
32
  0
VERTEX
  8
0
  10
257159.338489
  20
386355.166896
  30
-110.048542167
  70
32
  0
VERTEX
  8
0
  10
257143.656595
  20
386374.111144
  30
-127.85612191
  70
32
  0
VERTEX
  8
0
  10
257159.009969
  20
386380.365502
  30
-141.722291579
  70
32
  0
VERTEX
  8
0
  10
257270.439124
  20
386347.441161
  30
-143.52001344
  70
32
  0
VERTEX
  8
0
  10
257259.23498
  20
386298.533955
  30
-77.4385837016
  70
32
  0
VERTEX
  8
0
  10
257224.660076
  20
386308.749916
  30
-76.8807758109
  70
32
  0
VERTEX
  8
0
  10
257216.518728
  20
386273.21212
  30
-28.8635503025
  70
32
  0
VERTEX
  8
0
  10
257371.763659
  20
386227.341388
  30
-31.3681659654
  70
32
  0
SEQEND
  0
POLYLINE
  8
0
  66
1
  70
8
  0
VERTEX
  8
0
  10
256999.252642
  20
386281.068529
  30
45.7446922817
  70
32
  0
VERTEX
  8
0
  10
256998.98225
  20
386286.307235
  30
39.2384460596
  70
32
  0
VERTEX
  8
0
  10
256985.122784
  20
386295.315471
  30
33.2614927644
  70
32
  0
VERTEX
  8
0
  10
256984.966572
  20
386298.373757
  30
29.4625964197
  70
32
  0
VERTEX
  8
0
  10
257026.112182
  20
386289.100356
  30
25.1590327422
  70
32
  0
VERTEX
  8
0
  10
257071.751279
  20
386273.424206
  30
27.1878629494
  70
32
  0
VERTEX
  8
0
  10
257066.448989
  20
386259.805808
  30
46.4375317794
  70
32
  0
VERTEX
  8
0
  10
257034.640561
  20
386271.513442
  30
44.0365484846
  70
32
  0
VERTEX
  8
0
  10
256999.252642
  20
386281.068529
  30
45.7446922817
  70
32
  0
SEQEND
  0
POLYLINE
  8
0
  66
1
  70
8
  0
VERTEX
  8
0
  10
257065.764811
  20
386239.907387
  30
71.8162271877
  70
32
  0
VERTEX
  8
0
  10
257064.176442
  20
386220.928964
  30
96.3856097439
  70
32
  0
VERTEX
  8
0
  10
257065.968019
  20
386209.062698
  30
110.664288512
  70
32
  0
VERTEX
  8
0
  10
257087.950156
  20
386202.744712
  30
110.086075721
  70
32
  0
VERTEX
  8
0
  10
257118.393975
  20
386192.967545
  30
110.581615586
  70
32
  0
VERTEX
  8
0
  10
257129.367938
  20
386189.324547
  30
110.909994394
  70
32
  0
VERTEX
  8
0
  10
257090.367234
  20
386154.4422
  30
170.105276419
  70
32
  0
VERTEX
  8
0
  10
257075.208604
  20
386160.229853
  30
168.698230352
  70
32
  0
VERTEX
  8
0
  10
257054.852082
  20
386166.244662
  30
169.026648571
  70
32
  0
VERTEX
  8
0
  10
257047.39018
  20
386171.403976
  30
165.418321318
  70
32
  0
VERTEX
  8
0
  10
257046.928334
  20
386177.699374
  30
157.652973636
  70
32
  0
VERTEX
  8
0
  10
257054.137274
  20
386178.507904
  30
153.828075336
  70
32
  0
VERTEX
  8
0
  10
257054.455384
  20
386192.391076
  30
136.183255644
  70
32
  0
VERTEX
  8
0
  10
257039.051614
  20
386197.496612
  30
135.732432175
  70
32
  0
VERTEX
  8
0
  10
257031.330425
  20
386185.809745
  30
153.485466504
  70
32
  0
VERTEX
  8
0
  10
257016.134393
  20
386190.667458
  30
153.266590113
  70
32
  0
VERTEX
  8
0
  10
257008.39022
  20
386179.008009
  30
170.993962106
  70
32
  0
VERTEX
  8
0
  10
256992.831265
  20
386184.298676
  30
170.369869566
  70
32
  0
VERTEX
  8
0
  10
256985.195911
  20
386201.034742
  30
152.218741108
  70
32
  0
VERTEX
  8
0
  10
256977.717468
  20
386217.583615
  30
134.242811072
  70
32
  0
VERTEX
  8
0
  10
256977.844873
  20
386231.69429
  30
116.385063168
  70
32
  0
VERTEX
  8
0
  10
256954.021107
  20
386240.209278
  30
114.907031302
  70
32
  0
VERTEX
  8
0
  10
256956.398306
  20
386260.253527
  30
88.6856583342
  70
32
  0
VERTEX
  8
0
  10
256978.632883
  20
386253.634388
  30
88.3893043882
  70
32
  0
VERTEX
  8
0
  10
256978.423877
  20
386276.664054
  30
59.4063411809
  70
32
  0
VERTEX
  8
0
  10
256971.351704
  20
386281.338098
  30
56.2588252599
  70
32
  0
VERTEX
  8
0
  10
256971.256608
  20
386285.903651
  30
50.533927733
  70
32
  0
VERTEX
  8
0
  10
257034.052854
  20
386268.948046
  30
47.5028079861
  70
32
  0
VERTEX
  8
0
  10
257065.496295
  20
386257.331535
  30
49.9307820651
  70
32
  0
VERTEX
  8
0
  10
257064.564304
  20
386254.911032
  30
53.3481181436
  70
32
  0
VERTEX
  8
0
  10
257065.764811
  20
386239.907387
  30
71.8162271877
  70
32
  0
SEQEND
  0
POLYLINE
  8
0
  66
1
  70
8
  0
VERTEX
  8
0
  10
257217.088036
  20
386201.40352
  30
61.5400271489
  70
32
  0
VERTEX
  8
0
  10
257199.840479
  20
386200.19097
  30
69.7801493326
  70
32
  0
VERTEX
  8
0
  10
257191.759492
  20
386197.450992
  30
76.3818571204
  70
32
  0
VERTEX
  8
0
  10
257157.811126
  20
386204.773644
  30
80.3473830326
  70
32
  0
VERTEX
  8
0
  10
257136.24161
  20
386210.599387
  30
81.3863018496
  70
32
  0
VERTEX
  8
0
  10
257128.837433
  20
386215.669501
  30
77.8680919929
  70
32
  0
VERTEX
  8
0
  10
257128.433321
  20
386221.896594
  30
70.1664861957
  70
32
  0
VERTEX
  8
0
  10
257128.404003
  20
386224.803499
  30
66.5092721552
  70
32
  0
VERTEX
  8
0
  10
257111.280379
  20
386229.088835
  30
67.762649419
  70
32
  0
VERTEX
  8
0
  10
257104.053282
  20
386231.075198
  30
68.0673551669
  70
32
  0
VERTEX
  8
0
  10
257081.735133
  20
386229.176533
  30
79.1459983984
  70
32
  0
VERTEX
  8
0
  10
257071.302113
  20
386232.117108
  30
79.4936580691
  70
32
  0
VERTEX
  8
0
  10
257072.269939
  20
386235.221543
  30
75.1992342782
  70
32
  0
VERTEX
  8
0
  10
257080.17622
  20
386247.494511
  30
56.6345127707
  70
32
  0
VERTEX
  8
0
  10
257128.548313
  20
386231.335786
  30
58.2091491777
  70
32
  0
VERTEX
  8
0
  10
257188.703716
  20
386215.181988
  30
55.1934904437
  70
32
  0
VERTEX
  8
0
  10
257217.168367
  20
386202.916607
  30
59.599205117
  70
32
  0
VERTEX
  8
0
  10
257217.088036
  20
386201.40352
  30
61.5400271489
  70
32
  0
SEQEND
  0
POLYLINE
  8
0
  66
1
  70
8
  0
VERTEX
  8
0
  10
257206.658053
  20
386146.237569
  30
135.219046359
  70
32
  0
VERTEX
  8
0
  10
257185.325524
  20
386174.124625
  30
108.323593093
  70
32
  0
VERTEX
  8
0
  10
257191.343546
  20
386172.294372
  30
108.292238871
  70
32
  0
VERTEX
  8
0
  10
257217.020652
  20
386161.568412
  30
111.839590536
  70
32
  0
VERTEX
  8
0
  10
257217.125527
  20
386155.797566
  30
119.081807811
  70
32
  0
VERTEX
  8
0
  10
257240.099848
  20
386148.295938
  30
119.611403844
  70
32
  0
VERTEX
  8
0
  10
257247.54807
  20
386143.173851
  30
123.178071936
  70
32
  0
VERTEX
  8
0
  10
257247.212777
  20
386134.254731
  30
134.564764152
  70
32
  0
VERTEX
  8
0
  10
257206.658053
  20
386146.237569
  30
135.219046359
  70
32
  0
SEQEND
  0
POLYLINE
  8
0
  66
1
  70
8
  0
VERTEX
  8
0
  10
257523.214337
  20
386093.990645
  30
78.0062438801
  70
32
  0
VERTEX
  8
0
  10
257507.614842
  20
386099.329676
  30
77.3368860201
  70
32
  0
VERTEX
  8
0
  10
257507.739327
  20
386107.225942
  30
67.3230842933
  70
32
  0
VERTEX
  8
0
  10
257542.498732
  20
386096.955466
  30
66.7622997913
  70
32
  0
VERTEX
  8
0
  10
257562.544428
  20
386077.243588
  30
83.840999691
  70
32
  0
VERTEX
  8
0
  10
257550.049722
  20
386065.743365
  30
103.215530209
  70
32
  0
VERTEX
  8
0
  10
257522.343746
  20
386075.121404
  30
102.158597596
  70
32
  0
VERTEX
  8
0
  10
257523.214337
  20
386093.990645
  30
78.0062438801
  70
32
  0
SEQEND
  0
POLYLINE
  8
0
  66
1
  70
8
  0
VERTEX
  8
0
  10
257534.413992
  20
386024.305944
  30
161.5938454
  70
32
  0
VERTEX
  8
0
  10
257507.571531
  20
386013.498996
  30
185.675164498
  70
32
  0
VERTEX
  8
0
  10
257501.461486
  20
386014.133485
  30
187.251415315
  70
32
  0
VERTEX
  8
0
  10
257443.309988
  20
386026.493048
  30
194.275952995
  70
32
  0
VERTEX
  8
0
  10
257418.081555
  20
386036.73383
  30
191.166365673
  70
32
  0
VERTEX
  8
0
  10
257419.024047
  20
386040.847904
  30
185.607597029
  70
32
  0
VERTEX
  8
0
  10
257452.95866
  20
386029.736192
  30
186.429351752
  70
32
  0
VERTEX
  8
0
  10
257453.298531
  20
386046.366635
  30
165.308909725
  70
32
  0
VERTEX
  8
0
  10
257422.647307
  20
386056.663793
  30
164.237810424
  70
32
  0
VERTEX
  8
0
  10
257425.417523
  20
386068.756065
  30
147.899223308
  70
32
  0
VERTEX
  8
0
  10
257386.402769
  20
386080.283884
  30
148.52866071
  70
32
  0
VERTEX
  8
0
  10
257397.806854
  20
386130.063856
  30
81.2679855593
  70
32
  0
VERTEX
  8
0
  10
257334.801386
  20
386148.68029
  30
82.284472743
  70
32
  0
VERTEX
  8
0
  10
257334.752654
  20
386155.808564
  30
73.3072900912
  70
32
  0
VERTEX
  8
0
  10
257349.916173
  20
386159.60657
  30
62.6149848871
  70
32
  0
VERTEX
  8
0
  10
257357.956747
  20
386159.42299
  30
59.7186350017
  70
32
  0
VERTEX
  8
0
  10
257358.076675
  20
386161.940256
  30
56.4950982439
  70
32
  0
VERTEX
  8
0
  10
257380.221441
  20
386154.505378
  30
57.263175028
  70
32
  0
VERTEX
  8
0
  10
257415.610727
  20
386145.28432
  30
55.1329438688
  70
32
  0
VERTEX
  8
0
  10
257415.736203
  20
386140.80338
  30
60.7392388066
  70
32
  0
VERTEX
  8
0
  10
257423.11695
  20
386132.889288
  30
67.855767872
  70
32
  0
VERTEX
  8
0
  10
257423.123653
  20
386124.363057
  30
78.6135717592
  70
32
  0
VERTEX
  8
0
  10
257430.392393
  20
386119.455086
  30
81.9798419105
  70
32
  0
VERTEX
  8
0
  10
257437.896119
  20
386111.393712
  30
89.2344027121
  70
32
  0
VERTEX
  8
0
  10
257438.139479
  20
386093.968227
  30
111.1313227
  70
32
  0
VERTEX
  8
0
  10
257445.505955
  20
386089.042358
  30
114.482158046
  70
32
  0
VERTEX
  8
0
  10
257446.263213
  20
386073.876309
  30
133.327664209
  70
32
  0
VERTEX
  8
0
  10
257461.391295
  20
386069.099658
  30
133.470671943
  70
32
  0
VERTEX
  8
0
  10
257476.420492
  20
386058.696543
  30
140.752951897
  70
32
  0
VERTEX
  8
0
  10
257476.734112
  20
386049.804172
  30
151.853439151
  70
32
  0
VERTEX
  8
0
  10
257484.503899
  20
386047.170398
  30
152.15466631
  70
32
  0
VERTEX
  8
0
  10
257491.665218
  20
386045.262507
  30
151.776516782
  70
32
  0
VERTEX
  8
0
  10
257499.578273
  20
386050.976053
  30
141.487387353
  70
32
  0
VERTEX
  8
0
  10
257507.072289
  20
386054.415697
  30
134.231025918
  70
32
  0
VERTEX
  8
0
  10
257536.516532
  20
386045.83099
  30
133.610503436
  70
32
  0
VERTEX
  8
0
  10
257538.9345
  20
386045.108693
  30
133.581403818
  70
32
  0
VERTEX
  8
0
  10
257534.413992
  20
386024.305944
  30
161.5938454
  70
32
  0
SEQEND
  0
ENDSEC
  0
EOF
