  999
DXF Polyline File Exported from Leapfrog Geo
  0
SECTION
  2
ENTITIES
  0
POLYLINE
  8
0
  66
1
  70
8
  0
VERTEX
  8
0
  10
257198.881539
  20
386112.292306
  30
181.084505392
  70
32
  0
VERTEX
  8
0
  10
257147.127391
  20
386133.860536
  30
173.998603545
  70
32
  0
VERTEX
  8
0
  10
257090.367234
  20
386154.4422
  30
170.105276419
  70
32
  0
VERTEX
  8
0
  10
257114.523692
  20
386176.047809
  30
133.440595514
  70
32
  0
VERTEX
  8
0
  10
257132.467073
  20
386169.541057
  30
134.671816167
  70
32
  0
VERTEX
  8
0
  10
257133.088931
  20
386180.189935
  30
120.990623499
  70
32
  0
VERTEX
  8
0
  10
257140.367507
  20
386181.014091
  30
117.118915073
  70
32
  0
VERTEX
  8
0
  10
257169.00483
  20
386173.392013
  30
115.59743779
  70
32
  0
VERTEX
  8
0
  10
257169.103188
  20
386178.920408
  30
108.582137971
  70
32
  0
VERTEX
  8
0
  10
257185.325524
  20
386174.124625
  30
108.323593093
  70
32
  0
VERTEX
  8
0
  10
257206.658053
  20
386146.237569
  30
135.219046359
  70
32
  0
VERTEX
  8
0
  10
257198.881539
  20
386112.292306
  30
181.084505392
  70
32
  0
SEQEND
  0
POLYLINE
  8
0
  66
1
  70
8
  0
VERTEX
  8
0
  10
257261.612355
  20
386308.911433
  30
-91.4602102151
  70
32
  0
VERTEX
  8
0
  10
257270.439124
  20
386347.441161
  30
-143.52001344
  70
32
  0
VERTEX
  8
0
  10
257159.009969
  20
386380.365502
  30
-141.722291579
  70
32
  0
VERTEX
  8
0
  10
257207.4402
  20
386400.094063
  30
-185.461328388
  70
32
  0
VERTEX
  8
0
  10
257279.436994
  20
386378.751791
  30
-186.535616399
  70
32
  0
VERTEX
  8
0
  10
257277.596392
  20
386364.852177
  30
-168.277747381
  70
32
  0
VERTEX
  8
0
  10
257283.900024
  20
386363.75955
  30
-169.351123663
  70
32
  0
VERTEX
  8
0
  10
257291.05395
  20
386362.159297
  30
-170.114646618
  70
32
  0
VERTEX
  8
0
  10
257290.129577
  20
386357.517611
  30
-163.897061482
  70
32
  0
VERTEX
  8
0
  10
257313.912834
  20
386351.036511
  30
-164.970110294
  70
32
  0
VERTEX
  8
0
  10
257310.601328
  20
386336.581456
  30
-145.439027411
  70
32
  0
VERTEX
  8
0
  10
257393.2208
  20
386312.169608
  30
-146.771953531
  70
32
  0
VERTEX
  8
0
  10
257386.526702
  20
386282.949201
  30
-107.290527971
  70
32
  0
VERTEX
  8
0
  10
257351.463438
  20
386293.30946
  30
-106.724841234
  70
32
  0
VERTEX
  8
0
  10
257345.810897
  20
386268.635551
  30
-73.3864586056
  70
32
  0
VERTEX
  8
0
  10
257380.87416
  20
386258.275293
  30
-73.9521453422
  70
32
  0
VERTEX
  8
0
  10
257381.37686
  20
386238.998483
  30
-49.8196785128
  70
32
  0
SEQEND
  0
POLYLINE
  8
0
  66
1
  70
8
  0
VERTEX
  8
0
  10
257381.37686
  20
386238.998483
  30
-49.8196785128
  70
32
  0
VERTEX
  8
0
  10
257374.874336
  20
386240.919805
  30
-49.7147712296
  70
32
  0
VERTEX
  8
0
  10
257371.763659
  20
386227.341388
  30
-31.3681659654
  70
32
  0
VERTEX
  8
0
  10
257268.975586
  20
386257.712519
  30
-29.7098534102
  70
32
  0
VERTEX
  8
0
  10
257271.226628
  20
386267.538543
  30
-42.986377047
  70
32
  0
VERTEX
  8
0
  10
257277.926048
  20
386270.356878
  30
-49.1495022928
  70
32
  0
VERTEX
  8
0
  10
257293.101431
  20
386274.140731
  30
-59.8285610575
  70
32
  0
VERTEX
  8
0
  10
257301.167616
  20
386279.671599
  30
-69.9467154292
  70
32
  0
VERTEX
  8
0
  10
257308.677118
  20
386285.865999
  30
-80.6857055304
  70
32
  0
VERTEX
  8
0
  10
257308.698328
  20
386294.4582
  30
-91.5376245441
  70
32
  0
VERTEX
  8
0
  10
257287.943927
  20
386299.311537
  30
-89.5886005989
  70
32
  0
VERTEX
  8
0
  10
257280.693561
  20
386301.325659
  30
-89.3098751093
  70
32
  0
VERTEX
  8
0
  10
257261.612355
  20
386308.911433
  30
-91.4602102151
  70
32
  0
SEQEND
  0
ENDSEC
  0
EOF
