  999
DXF Polyline File Exported from Leapfrog Geo
  0
SECTION
  2
ENTITIES
  0
POLYLINE
  8
0
  66
1
  70
8
  0
VERTEX
  8
0
  10
257283.267328
  20
386476.158125
  30
-2.56335661738
  70
32
  0
VERTEX
  8
0
  10
257282.677405
  20
386473.583049
  30
3.3955868734
  70
32
  0
VERTEX
  8
0
  10
257270.210105
  20
386480.824705
  30
1.79545845315
  70
32
  0
VERTEX
  8
0
  10
257271.075672
  20
386482.111733
  30
-1.79522348388
  70
32
  0
VERTEX
  8
0
  10
257283.267328
  20
386476.158125
  30
-2.56335661738
  70
32
  0
SEQEND
  0
POLYLINE
  8
0
  66
1
  70
8
  0
VERTEX
  8
0
  10
257582.740568
  20
386218.0285
  30
209.979652877
  70
32
  0
VERTEX
  8
0
  10
257507.113982
  20
386254.204734
  30
216.305721622
  70
32
  0
VERTEX
  8
0
  10
257506.584039
  20
386257.8619
  30
209.310357151
  70
32
  0
VERTEX
  8
0
  10
257469.402526
  20
386276.979633
  30
209.665959434
  70
32
  0
VERTEX
  8
0
  10
257468.402333
  20
386283.235866
  30
197.79960898
  70
32
  0
VERTEX
  8
0
  10
257513.312658
  20
386259.984924
  30
197.699482642
  70
32
  0
VERTEX
  8
0
  10
257536.96817
  20
386248.841488
  30
195.364453044
  70
32
  0
VERTEX
  8
0
  10
257551.095922
  20
386241.721384
  30
194.931492679
  70
32
  0
VERTEX
  8
0
  10
257551.989958
  20
386244.541656
  30
188.139100129
  70
32
  0
VERTEX
  8
0
  10
257581.5918
  20
386229.399244
  30
187.694543028
  70
32
  0
VERTEX
  8
0
  10
257582.740568
  20
386218.0285
  30
209.979652877
  70
32
  0
SEQEND
  0
POLYLINE
  8
0
  66
1
  70
8
  0
VERTEX
  8
0
  10
257546.099053
  20
386317.433399
  30
43.7004070498
  70
32
  0
VERTEX
  8
0
  10
257560.8092
  20
386310.069364
  30
43.1470440076
  70
32
  0
VERTEX
  8
0
  10
257560.379398
  20
386307.575175
  30
48.7668797933
  70
32
  0
VERTEX
  8
0
  10
257543.626021
  20
386315.956101
  30
49.4094475489
  70
32
  0
VERTEX
  8
0
  10
257497.16028
  20
386302.919988
  30
126.229931752
  70
32
  0
VERTEX
  8
0
  10
257483.692898
  20
386309.496578
  30
127.078441727
  70
32
  0
VERTEX
  8
0
  10
257450.460397
  20
386308.129263
  30
165.56528916
  70
32
  0
VERTEX
  8
0
  10
257409.086234
  20
386305.500746
  30
215.396743298
  70
32
  0
VERTEX
  8
0
  10
257370.133199
  20
386332.250728
  30
201.867672024
  70
32
  0
VERTEX
  8
0
  10
257385.759542
  20
386339.788969
  30
169.509310789
  70
32
  0
VERTEX
  8
0
  10
257455.334984
  20
386345.810319
  30
82.4002525492
  70
32
  0
VERTEX
  8
0
  10
257468.802366
  20
386339.23373
  30
81.5517425741
  70
32
  0
VERTEX
  8
0
  10
257516.248277
  20
386352.544833
  30
3.11077126671
  70
32
  0
VERTEX
  8
0
  10
257526.987351
  20
386361.365495
  30
-26.6558830712
  70
32
  0
VERTEX
  8
0
  10
257544.008399
  20
386381.871945
  30
-87.3325214786
  70
32
  0
VERTEX
  8
0
  10
257580.609997
  20
386345.803232
  30
-52.0066881226
  70
32
  0
VERTEX
  8
0
  10
257546.099053
  20
386317.433399
  30
43.7004070498
  70
32
  0
SEQEND
  0
ENDSEC
  0
EOF
