  999
DXF Polyline File Exported from Leapfrog Geo
  0
SECTION
  2
ENTITIES
  0
POLYLINE
  8
0
  66
1
  70
8
  0
VERTEX
  8
0
  10
257009.38893
  20
386613.921204
  30
6.38040968588
  70
32
  0
VERTEX
  8
0
  10
257011.871492
  20
386624.757837
  30
-18.6964773798
  70
32
  0
VERTEX
  8
0
  10
257050.841881
  20
386605.727246
  30
-21.1517997107
  70
32
  0
VERTEX
  8
0
  10
257049.967948
  20
386594.662266
  30
2.67129105612
  70
32
  0
VERTEX
  8
0
  10
257041.022631
  20
386594.825002
  30
11.9331432129
  70
32
  0
VERTEX
  8
0
  10
257030.693336
  20
386601.29039
  30
9.64444139337
  70
32
  0
VERTEX
  8
0
  10
257031.152214
  20
386603.293439
  30
5.00921793784
  70
32
  0
VERTEX
  8
0
  10
257009.38893
  20
386613.921204
  30
6.38040968588
  70
32
  0
SEQEND
  0
POLYLINE
  8
0
  66
1
  70
8
  0
VERTEX
  8
0
  10
257189.942701
  20
386509.39959
  30
28.8228121621
  70
32
  0
VERTEX
  8
0
  10
257175.724143
  20
386509.450273
  30
43.9746710708
  70
32
  0
VERTEX
  8
0
  10
257154.768218
  20
386519.488594
  30
45.6986859582
  70
32
  0
VERTEX
  8
0
  10
257140.196212
  20
386535.520393
  30
28.1765565313
  70
32
  0
VERTEX
  8
0
  10
257140.168933
  20
386547.970029
  30
2.45663738548
  70
32
  0
VERTEX
  8
0
  10
257125.222174
  20
386555.48334
  30
2.95514379597
  70
32
  0
VERTEX
  8
0
  10
257110.439402
  20
386568.232723
  30
-7.55191354808
  70
32
  0
VERTEX
  8
0
  10
257095.817187
  20
386587.823216
  30
-32.3805029236
  70
32
  0
VERTEX
  8
0
  10
257095.561716
  20
386590.285643
  30
-37.1993387112
  70
32
  0
VERTEX
  8
0
  10
257163.449245
  20
386557.13381
  30
-41.4765802261
  70
32
  0
VERTEX
  8
0
  10
257159.920796
  20
386541.731775
  30
-5.83496435096
  70
32
  0
VERTEX
  8
0
  10
257193.58372
  20
386525.293002
  30
-7.9558908341
  70
32
  0
VERTEX
  8
0
  10
257189.942701
  20
386509.39959
  30
28.8228121621
  70
32
  0
SEQEND
  0
POLYLINE
  8
0
  66
1
  70
8
  0
VERTEX
  8
0
  10
257377.965555
  20
386418.684427
  30
14.6953502996
  70
32
  0
VERTEX
  8
0
  10
257338.072962
  20
386438.165362
  30
17.2087759488
  70
32
  0
VERTEX
  8
0
  10
257343.874317
  20
386463.488856
  30
-41.3919361939
  70
32
  0
VERTEX
  8
0
  10
257365.557164
  20
386449.013171
  30
-34.7182860199
  70
32
  0
VERTEX
  8
0
  10
257383.690734
  20
386443.675406
  30
-43.1358936031
  70
32
  0
VERTEX
  8
0
  10
257377.965555
  20
386418.684427
  30
14.6953502996
  70
32
  0
SEQEND
  0
POLYLINE
  8
0
  66
1
  70
8
  0
VERTEX
  8
0
  10
257551.753513
  20
386301.340187
  30
70.9181881123
  70
32
  0
VERTEX
  8
0
  10
257561.423443
  20
386296.562407
  30
70.4239680945
  70
32
  0
VERTEX
  8
0
  10
257575.640196
  20
386289.609624
  30
69.549444546
  70
32
  0
VERTEX
  8
0
  10
257575.273632
  20
386291.750453
  30
65.5149630388
  70
32
  0
VERTEX
  8
0
  10
257560.887968
  20
386298.882052
  30
66.2008906074
  70
32
  0
VERTEX
  8
0
  10
257575.273632
  20
386291.750453
  30
65.5149630388
  70
32
  0
VERTEX
  8
0
  10
257575.640196
  20
386289.609624
  30
69.549444546
  70
32
  0
VERTEX
  8
0
  10
257561.423443
  20
386296.562407
  30
70.4239680945
  70
32
  0
VERTEX
  8
0
  10
257551.753513
  20
386301.340187
  30
70.9181881123
  70
32
  0
VERTEX
  8
0
  10
257553.081854
  20
386307.510214
  30
56.7315876002
  70
32
  0
VERTEX
  8
0
  10
257560.214394
  20
386304.027148
  30
56.2822032505
  70
32
  0
VERTEX
  8
0
  10
257560.887968
  20
386298.882052
  30
66.2008906074
  70
32
  0
VERTEX
  8
0
  10
257560.214394
  20
386304.027148
  30
56.2822032505
  70
32
  0
VERTEX
  8
0
  10
257553.081854
  20
386307.510214
  30
56.7315876002
  70
32
  0
SEQEND
  0
POLYLINE
  8
0
  66
1
  70
8
  0
VERTEX
  8
0
  10
257461.239198
  20
386293.720388
  30
183.800930135
  70
32
  0
VERTEX
  8
0
  10
257450.460397
  20
386308.129263
  30
165.56528916
  70
32
  0
VERTEX
  8
0
  10
257490.450227
  20
386288.600844
  30
163.045737134
  70
32
  0
VERTEX
  8
0
  10
257489.506482
  20
386279.99079
  30
181.866291308
  70
32
  0
VERTEX
  8
0
  10
257461.239198
  20
386293.720388
  30
183.800930135
  70
32
  0
SEQEND
  0
POLYLINE
  8
0
  66
1
  70
8
  0
VERTEX
  8
0
  10
257038.771217
  20
386619.225267
  30
-36.1173654501
  70
32
  0
VERTEX
  8
0
  10
257003.017725
  20
386636.684936
  30
-33.8647231602
  70
32
  0
VERTEX
  8
0
  10
257004.33846
  20
386642.450078
  30
-47.2057499162
  70
32
  0
VERTEX
  8
0
  10
257039.140164
  20
386620.83576
  30
-39.8441830583
  70
32
  0
VERTEX
  8
0
  10
257038.771217
  20
386619.225267
  30
-36.1173654501
  70
32
  0
SEQEND
  0
ENDSEC
  0
EOF
