  999
DXF Polyline File Exported from Leapfrog Geo
  0
SECTION
  2
ENTITIES
  0
POLYLINE
  8
0
  66
1
  70
8
  0
VERTEX
  8
0
  10
257526.76525
  20
386307.811468
  30
84.3465469968
  70
32
  0
VERTEX
  8
0
  10
257522.381412
  20
386309.995858
  30
84.5325545067
  70
32
  0
VERTEX
  8
0
  10
257543.626021
  20
386315.956101
  30
49.4094475489
  70
32
  0
VERTEX
  8
0
  10
257560.379398
  20
386307.575175
  30
48.7668797933
  70
32
  0
VERTEX
  8
0
  10
257560.214394
  20
386304.027148
  30
56.2822032505
  70
32
  0
VERTEX
  8
0
  10
257553.081854
  20
386307.510214
  30
56.7315876002
  70
32
  0
VERTEX
  8
0
  10
257551.677022
  20
386301.37798
  30
70.9220975214
  70
32
  0
VERTEX
  8
0
  10
257547.770111
  20
386299.474112
  30
79.0519710155
  70
32
  0
VERTEX
  8
0
  10
257526.76525
  20
386307.811468
  30
84.3465469968
  70
32
  0
SEQEND
  0
POLYLINE
  8
0
  66
1
  70
8
  0
VERTEX
  8
0
  10
257438.421087
  20
386344.34652
  30
103.576598475
  70
32
  0
VERTEX
  8
0
  10
257385.759542
  20
386339.788969
  30
169.509310789
  70
32
  0
VERTEX
  8
0
  10
257375.396475
  20
386344.849613
  30
170.162233958
  70
32
  0
VERTEX
  8
0
  10
257381.566232
  20
386371.781218
  30
107.840216704
  70
32
  0
VERTEX
  8
0
  10
257416.720971
  20
386354.644941
  30
105.561183434
  70
32
  0
VERTEX
  8
0
  10
257438.421087
  20
386344.34652
  30
103.576598475
  70
32
  0
SEQEND
  0
POLYLINE
  8
0
  66
1
  70
8
  0
VERTEX
  8
0
  10
257447.108166
  20
386345.098336
  30
92.7003000487
  70
32
  0
VERTEX
  8
0
  10
257447.573206
  20
386350.615505
  30
80.790318272
  70
32
  0
VERTEX
  8
0
  10
257447.397645
  20
386355.9991
  30
69.8439772936
  70
32
  0
VERTEX
  8
0
  10
257447.269173
  20
386356.135105
  30
69.7005337051
  70
32
  0
VERTEX
  8
0
  10
257479.090464
  20
386342.120089
  30
64.5427246802
  70
32
  0
VERTEX
  8
0
  10
257468.802366
  20
386339.23373
  30
81.5517425741
  70
32
  0
VERTEX
  8
0
  10
257455.334984
  20
386345.810319
  30
82.4002525492
  70
32
  0
VERTEX
  8
0
  10
257447.108166
  20
386345.098336
  30
92.7003000487
  70
32
  0
SEQEND
  0
POLYLINE
  8
0
  66
1
  70
8
  0
VERTEX
  8
0
  10
257496.260531
  20
386346.937206
  30
36.1559416941
  70
32
  0
VERTEX
  8
0
  10
257495.579325
  20
386347.234104
  30
36.2728190717
  70
32
  0
VERTEX
  8
0
  10
257481.384751
  20
386359.421719
  30
26.296506526
  70
32
  0
VERTEX
  8
0
  10
257481.250886
  20
386361.315856
  30
22.5225608524
  70
32
  0
VERTEX
  8
0
  10
257494.360538
  20
386355.535092
  30
20.4119196801
  70
32
  0
VERTEX
  8
0
  10
257506.715872
  20
386349.870486
  30
18.8704246626
  70
32
  0
VERTEX
  8
0
  10
257496.260531
  20
386346.937206
  30
36.1559416941
  70
32
  0
SEQEND
  0
POLYLINE
  8
0
  66
1
  70
8
  0
VERTEX
  8
0
  10
257575.325823
  20
386307.348294
  30
33.198435715
  70
32
  0
VERTEX
  8
0
  10
257549.930197
  20
386320.582803
  30
33.0757282314
  70
32
  0
VERTEX
  8
0
  10
257555.03656
  20
386324.780505
  30
18.9145646361
  70
32
  0
VERTEX
  8
0
  10
257575.727981
  20
386313.933288
  30
19.1473793163
  70
32
  0
VERTEX
  8
0
  10
257575.325823
  20
386307.348294
  30
33.198435715
  70
32
  0
SEQEND
  0
POLYLINE
  8
0
  66
1
  70
8
  0
VERTEX
  8
0
  10
257529.047238
  20
386279.286875
  30
140.894468411
  70
32
  0
VERTEX
  8
0
  10
257529.081638
  20
386275.744918
  30
148.183276601
  70
32
  0
VERTEX
  8
0
  10
257521.469842
  20
386274.556858
  30
158.808052375
  70
32
  0
VERTEX
  8
0
  10
257513.627018
  20
386275.305223
  30
165.67567735
  70
32
  0
VERTEX
  8
0
  10
257490.450227
  20
386288.600844
  30
163.045737134
  70
32
  0
VERTEX
  8
0
  10
257450.460397
  20
386308.129263
  30
165.56528916
  70
32
  0
VERTEX
  8
0
  10
257483.692898
  20
386309.496578
  30
127.078441727
  70
32
  0
VERTEX
  8
0
  10
257497.16028
  20
386302.919988
  30
126.229931752
  70
32
  0
VERTEX
  8
0
  10
257515.479279
  20
386308.059442
  30
95.9436540423
  70
32
  0
VERTEX
  8
0
  10
257549.150724
  20
386290.35044
  30
96.4407611642
  70
32
  0
VERTEX
  8
0
  10
257558.351542
  20
386285.854998
  30
95.8659539687
  70
32
  0
VERTEX
  8
0
  10
257558.687688
  20
386279.756684
  30
108.118217331
  70
32
  0
VERTEX
  8
0
  10
257566.846739
  20
386275.168008
  30
108.854071171
  70
32
  0
VERTEX
  8
0
  10
257567.236889
  20
386271.310012
  30
116.414808047
  70
32
  0
VERTEX
  8
0
  10
257574.689075
  20
386267.469651
  30
116.361421878
  70
32
  0
VERTEX
  8
0
  10
257575.292907
  20
386263.325218
  30
124.285301785
  70
32
  0
VERTEX
  8
0
  10
257560.397592
  20
386267.490813
  30
131.652586388
  70
32
  0
VERTEX
  8
0
  10
257552.943133
  20
386266.13619
  30
142.453034442
  70
32
  0
VERTEX
  8
0
  10
257529.047238
  20
386279.286875
  30
140.894468411
  70
32
  0
SEQEND
  0
ENDSEC
  0
EOF
