  999
DXF Polyline File Exported from Leapfrog Geo
  0
SECTION
  2
ENTITIES
  0
POLYLINE
  8
0
  66
1
  70
8
  0
VERTEX
  8
0
  10
257049.304301
  20
386614.523113
  30
-37.6941741326
  70
32
  0
VERTEX
  8
0
  10
257049.221942
  20
386612.857879
  30
-34.161651125
  70
32
  0
VERTEX
  8
0
  10
257040.19599
  20
386611.41378
  30
-21.4899105192
  70
32
  0
VERTEX
  8
0
  10
257040.121818
  20
386610.962224
  30
-20.4763840601
  70
32
  0
VERTEX
  8
0
  10
257011.871492
  20
386624.757837
  30
-18.6964773798
  70
32
  0
VERTEX
  8
0
  10
257009.38893
  20
386613.921204
  30
6.38040968589
  70
32
  0
VERTEX
  8
0
  10
257031.152214
  20
386603.293439
  30
5.00921793785
  70
32
  0
VERTEX
  8
0
  10
257028.943777
  20
386593.653392
  30
27.3171030976
  70
32
  0
VERTEX
  8
0
  10
257024.364266
  20
386592.215017
  30
35.2059194808
  70
32
  0
VERTEX
  8
0
  10
257009.982962
  20
386595.836459
  30
43.1471159138
  70
32
  0
VERTEX
  8
0
  10
256987.164591
  20
386606.093667
  30
46.4168433559
  70
32
  0
VERTEX
  8
0
  10
256942.118279
  20
386629.48857
  30
46.3651343872
  70
32
  0
VERTEX
  8
0
  10
256927.999214
  20
386639.843478
  30
40.0983298467
  70
32
  0
VERTEX
  8
0
  10
256920.239269
  20
386649.207035
  30
29.0584920162
  70
32
  0
VERTEX
  8
0
  10
256916.678651
  20
386670.097696
  30
-10.3284206039
  70
32
  0
VERTEX
  8
0
  10
256935.170925
  20
386668.253072
  30
-26.3556759164
  70
32
  0
VERTEX
  8
0
  10
256947.038223
  20
386671.741245
  30
-46.3039083426
  70
32
  0
VERTEX
  8
0
  10
257003.127979
  20
386643.163094
  30
-47.3815978625
  70
32
  0
VERTEX
  8
0
  10
257004.331235
  20
386642.41854
  30
-47.1327703371
  70
32
  0
VERTEX
  8
0
  10
257003.017725
  20
386636.684936
  30
-33.8647231602
  70
32
  0
VERTEX
  8
0
  10
257038.771217
  20
386619.225267
  30
-36.1173654501
  70
32
  0
VERTEX
  8
0
  10
257039.140164
  20
386620.83576
  30
-39.8441830582
  70
32
  0
VERTEX
  8
0
  10
257049.304301
  20
386614.523113
  30
-37.6941741326
  70
32
  0
SEQEND
  0
POLYLINE
  8
0
  66
1
  70
8
  0
VERTEX
  8
0
  10
257163.449245
  20
386557.13381
  30
-41.4765802261
  70
32
  0
VERTEX
  8
0
  10
257237.178783
  20
386520.900996
  30
-45.6500698862
  70
32
  0
VERTEX
  8
0
  10
257238.125982
  20
386505.93736
  30
-15.7176075197
  70
32
  0
VERTEX
  8
0
  10
257218.224007
  20
386506.156999
  30
5.18317931813
  70
32
  0
VERTEX
  8
0
  10
257192.077854
  20
386518.719748
  30
7.25517737018
  70
32
  0
VERTEX
  8
0
  10
257193.58372
  20
386525.293002
  30
-7.9558908341
  70
32
  0
VERTEX
  8
0
  10
257159.920796
  20
386541.731775
  30
-5.83496435095
  70
32
  0
VERTEX
  8
0
  10
257163.449245
  20
386557.13381
  30
-41.4765802261
  70
32
  0
SEQEND
  0
POLYLINE
  8
0
  66
1
  70
8
  0
VERTEX
  8
0
  10
257375.396475
  20
386344.849613
  30
170.162233958
  70
32
  0
VERTEX
  8
0
  10
257341.316905
  20
386361.491848
  30
172.309411085
  70
32
  0
VERTEX
  8
0
  10
257343.741384
  20
386375.991322
  30
139.719110036
  70
32
  0
VERTEX
  8
0
  10
257373.001061
  20
386361.211138
  30
138.89251369
  70
32
  0
VERTEX
  8
0
  10
257373.43699
  20
386375.74384
  30
108.367224245
  70
32
  0
VERTEX
  8
0
  10
257381.566232
  20
386371.781218
  30
107.840216704
  70
32
  0
VERTEX
  8
0
  10
257375.396475
  20
386344.849613
  30
170.162233958
  70
32
  0
SEQEND
  0
POLYLINE
  8
0
  66
1
  70
8
  0
VERTEX
  8
0
  10
257282.677405
  20
386473.583049
  30
3.3955868734
  70
32
  0
VERTEX
  8
0
  10
257283.267328
  20
386476.158125
  30
-2.56335661738
  70
32
  0
VERTEX
  8
0
  10
257271.075672
  20
386482.111733
  30
-1.79522348387
  70
32
  0
VERTEX
  8
0
  10
257283.769108
  20
386497.32722
  30
-46.8851487313
  70
32
  0
VERTEX
  8
0
  10
257326.948318
  20
386474.830241
  30
-46.6871665607
  70
32
  0
VERTEX
  8
0
  10
257343.874317
  20
386463.488856
  30
-41.3919361939
  70
32
  0
VERTEX
  8
0
  10
257338.072962
  20
386438.165362
  30
17.2087759488
  70
32
  0
VERTEX
  8
0
  10
257325.25668
  20
386448.38284
  30
9.82831369249
  70
32
  0
VERTEX
  8
0
  10
257325.265242
  20
386450.126197
  30
6.21339400936
  70
32
  0
VERTEX
  8
0
  10
257327.750331
  20
386466.869706
  30
-31.0832098324
  70
32
  0
VERTEX
  8
0
  10
257297.778835
  20
386482.127191
  30
-30.480010455
  70
32
  0
VERTEX
  8
0
  10
257297.103921
  20
386468.941358
  30
-2.483975678
  70
32
  0
VERTEX
  8
0
  10
257296.444084
  20
386466.134345
  30
4.02969329712
  70
32
  0
VERTEX
  8
0
  10
257282.677405
  20
386473.583049
  30
3.3955868734
  70
32
  0
SEQEND
  0
POLYLINE
  8
0
  66
1
  70
8
  0
VERTEX
  8
0
  10
257383.690734
  20
386443.675406
  30
-43.1358936031
  70
32
  0
VERTEX
  8
0
  10
257389.105583
  20
386441.961678
  30
-45.4016431252
  70
32
  0
VERTEX
  8
0
  10
257412.052285
  20
386428.895793
  30
-42.9999701013
  70
32
  0
VERTEX
  8
0
  10
257431.829493
  20
386420.105306
  30
-46.0400639714
  70
32
  0
VERTEX
  8
0
  10
257431.89506
  20
386395.316031
  30
5.16046253296
  70
32
  0
VERTEX
  8
0
  10
257378.576926
  20
386421.353123
  30
8.51976194092
  70
32
  0
VERTEX
  8
0
  10
257383.690734
  20
386443.675406
  30
-43.1358936031
  70
32
  0
SEQEND
  0
ENDSEC
  0
EOF
