  999
DXF Polyline File Exported from Leapfrog Geo
  0
SECTION
  2
ENTITIES
  0
POLYLINE
  8
0
  66
1
  70
8
  0
VERTEX
  8
0
  10
256906.34298
  20
386518.128596
  30
49.8144211422
  70
32
  0
VERTEX
  8
0
  10
256906.410146
  20
386519.382255
  30
48.0426975513
  70
32
  0
VERTEX
  8
0
  10
256939.914916
  20
386507.409205
  30
50.1143158643
  70
32
  0
VERTEX
  8
0
  10
256939.644366
  20
386506.228226
  30
51.8734641347
  70
32
  0
VERTEX
  8
0
  10
256906.34298
  20
386518.128596
  30
49.8144211422
  70
32
  0
SEQEND
  0
POLYLINE
  8
0
  66
1
  70
8
  0
VERTEX
  8
0
  10
257206.02897
  20
386421.02976
  30
54.4516394803
  70
32
  0
VERTEX
  8
0
  10
257200.057198
  20
386417.812072
  30
61.5209942922
  70
32
  0
VERTEX
  8
0
  10
257265.128701
  20
386391.196648
  30
70.2172361687
  70
32
  0
VERTEX
  8
0
  10
257312.724585
  20
386376.664804
  30
69.7176192521
  70
32
  0
VERTEX
  8
0
  10
257360.33318
  20
386364.367764
  30
66.1062229521
  70
32
  0
VERTEX
  8
0
  10
257419.118957
  20
386343.097505
  30
70.1064653155
  70
32
  0
VERTEX
  8
0
  10
257419.07791
  20
386341.833486
  30
71.8812307315
  70
32
  0
VERTEX
  8
0
  10
257360.06263
  20
386363.186786
  30
67.8653712224
  70
32
  0
VERTEX
  8
0
  10
257312.454035
  20
386375.483825
  30
71.4767675224
  70
32
  0
VERTEX
  8
0
  10
257264.85815
  20
386390.015669
  30
71.976384439
  70
32
  0
VERTEX
  8
0
  10
257198.609097
  20
386417.010195
  30
63.2652950777
  70
32
  0
VERTEX
  8
0
  10
257110.557743
  20
386369.31016
  30
167.85661634
  70
32
  0
VERTEX
  8
0
  10
257109.123648
  20
386363.05019
  30
177.181267767
  70
32
  0
VERTEX
  8
0
  10
257108.955736
  20
386360.02888
  30
181.453737816
  70
32
  0
VERTEX
  8
0
  10
257189.375832
  20
386330.03845
  30
188.166392593
  70
32
  0
VERTEX
  8
0
  10
257235.738141
  20
386309.654813
  30
196.336883724
  70
32
  0
VERTEX
  8
0
  10
257273.950447
  20
386295.405475
  30
199.525243499
  70
32
  0
VERTEX
  8
0
  10
257323.512055
  20
386278.431475
  30
201.565250036
  70
32
  0
VERTEX
  8
0
  10
257339.583429
  20
386271.937114
  30
203.603073926
  70
32
  0
VERTEX
  8
0
  10
257391.89701
  20
386253.384222
  30
206.640898212
  70
32
  0
VERTEX
  8
0
  10
257438.152173
  20
386237.538541
  30
208.550482342
  70
32
  0
VERTEX
  8
0
  10
257493.192233
  20
386216.614857
  30
213.697907562
  70
32
  0
VERTEX
  8
0
  10
257512.465137
  20
386210.978128
  30
213.151419532
  70
32
  0
VERTEX
  8
0
  10
257564.992396
  20
386191.550282
  30
217.312459098
  70
32
  0
VERTEX
  8
0
  10
257587.11932
  20
386186.540464
  30
214.653470123
  70
32
  0
VERTEX
  8
0
  10
257585.868594
  20
386167.46021
  30
241.717851447
  70
32
  0
VERTEX
  8
0
  10
257606.075737
  20
386162.979856
  30
239.157794923
  70
32
  0
VERTEX
  8
0
  10
257629.840398
  20
386154.528723
  30
240.569834672
  70
32
  0
VERTEX
  8
0
  10
257670.394567
  20
386142.929905
  30
239.055713977
  70
32
  0
VERTEX
  8
0
  10
257669.99572
  20
386135.760598
  30
249.194093625
  70
32
  0
VERTEX
  8
0
  10
257629.469116
  20
386147.209297
  30
250.904884693
  70
32
  0
VERTEX
  8
0
  10
257599.072268
  20
386157.038326
  30
250.461790075
  70
32
  0
VERTEX
  8
0
  10
257565.498843
  20
386166.996386
  30
251.220750788
  70
32
  0
VERTEX
  8
0
  10
257564.991881
  20
386172.687914
  30
243.530310236
  70
32
  0
VERTEX
  8
0
  10
257551.004851
  20
386176.250314
  30
244.661326568
  70
32
  0
VERTEX
  8
0
  10
257536.294061
  20
386180.620548
  30
244.984240649
  70
32
  0
VERTEX
  8
0
  10
257520.036117
  20
386185.65555
  30
245.055976952
  70
32
  0
VERTEX
  8
0
  10
257514.743506
  20
386198.650193
  30
229.295757858
  70
32
  0
VERTEX
  8
0
  10
257486.663049
  20
386195.104542
  30
246.435383315
  70
32
  0
VERTEX
  8
0
  10
257453.934791
  20
386212.813024
  30
236.054156339
  70
32
  0
VERTEX
  8
0
  10
257428.270126
  20
386222.063371
  30
234.357509012
  70
32
  0
VERTEX
  8
0
  10
257428.201866
  20
386224.747724
  30
230.656093951
  70
32
  0
VERTEX
  8
0
  10
257403.020827
  20
386232.459114
  30
230.888195409
  70
32
  0
VERTEX
  8
0
  10
257395.25311
  20
386245.109235
  30
216.683194553
  70
32
  0
VERTEX
  8
0
  10
257390.104297
  20
386241.755305
  30
223.58403577
  70
32
  0
VERTEX
  8
0
  10
257376.207927
  20
386245.734195
  30
224.096729334
  70
32
  0
VERTEX
  8
0
  10
257337.398997
  20
386258.927779
  30
222.635262358
  70
32
  0
VERTEX
  8
0
  10
257321.93686
  20
386264.136641
  30
222.119269452
  70
32
  0
VERTEX
  8
0
  10
257321.281774
  20
386277.81799
  30
203.387843435
  70
32
  0
VERTEX
  8
0
  10
257238.328998
  20
386304.135088
  30
202.882302143
  70
32
  0
VERTEX
  8
0
  10
257214.62441
  20
386312.519168
  30
201.537336492
  70
32
  0
VERTEX
  8
0
  10
257181.139516
  20
386325.794967
  30
197.646327793
  70
32
  0
VERTEX
  8
0
  10
257105.066162
  20
386349.758258
  30
197.420785445
  70
32
  0
VERTEX
  8
0
  10
257099.217755
  20
386341.92836
  30
210.847203139
  70
32
  0
VERTEX
  8
0
  10
257065.330757
  20
386352.021955
  30
211.55414158
  70
32
  0
VERTEX
  8
0
  10
257073.705015
  20
386362.06319
  30
193.955669879
  70
32
  0
VERTEX
  8
0
  10
256985.438446
  20
386387.587007
  30
196.86355855
  70
32
  0
VERTEX
  8
0
  10
256955.668266
  20
386396.983154
  30
196.749625083
  70
32
  0
VERTEX
  8
0
  10
256955.102659
  20
386397.510299
  30
196.26289058
  70
32
  0
VERTEX
  8
0
  10
256955.819641
  20
386409.497778
  30
179.289176052
  70
32
  0
VERTEX
  8
0
  10
256925.72598
  20
386418.9884
  30
179.184600881
  70
32
  0
VERTEX
  8
0
  10
256896.773939
  20
386427.204787
  30
180.354684097
  70
32
  0
VERTEX
  8
0
  10
256830.219888
  20
386447.267634
  30
181.410870402
  70
32
  0
VERTEX
  8
0
  10
256831.044171
  20
386458.729258
  30
165.121403219
  70
32
  0
VERTEX
  8
0
  10
256872.331907
  20
386446.323952
  30
164.409248637
  70
32
  0
VERTEX
  8
0
  10
256876.732211
  20
386465.531721
  30
135.797969309
  70
32
  0
VERTEX
  8
0
  10
256883.918729
  20
386463.22871
  30
135.873818297
  70
32
  0
VERTEX
  8
0
  10
256898.246795
  20
386459.285658
  30
135.123580449
  70
32
  0
VERTEX
  8
0
  10
256905.300251
  20
386460.045199
  30
131.000518433
  70
32
  0
VERTEX
  8
0
  10
256925.947888
  20
386455.073182
  30
128.932288486
  70
32
  0
VERTEX
  8
0
  10
256950.267152
  20
386446.362777
  30
130.463521819
  70
32
  0
VERTEX
  8
0
  10
256949.741936
  20
386436.157114
  30
144.877219238
  70
32
  0
VERTEX
  8
0
  10
256969.177081
  20
386430.71485
  30
143.989881281
  70
32
  0
VERTEX
  8
0
  10
256968.472256
  20
386418.366732
  30
161.459576632
  70
32
  0
VERTEX
  8
0
  10
257063.292005
  20
386390.290591
  30
159.249488556
  70
32
  0
VERTEX
  8
0
  10
257077.104124
  20
386385.478161
  30
159.932008512
  70
32
  0
VERTEX
  8
0
  10
257077.812663
  20
386397.63748
  30
142.723117305
  70
32
  0
VERTEX
  8
0
  10
257088.383515
  20
386393.871621
  30
143.360494346
  70
32
  0
VERTEX
  8
0
  10
257088.830337
  20
386406.32306
  30
125.859386857
  70
32
  0
VERTEX
  8
0
  10
257099.56473
  20
386402.374663
  30
126.67936246
  70
32
  0
VERTEX
  8
0
  10
257099.253971
  20
386415.671687
  30
108.33238891
  70
32
  0
VERTEX
  8
0
  10
257109.501144
  20
386412.267107
  30
108.608366286
  70
32
  0
VERTEX
  8
0
  10
257128.361789
  20
386407.281427
  30
107.336236265
  70
32
  0
VERTEX
  8
0
  10
257129.007707
  20
386419.510642
  30
90.0574264297
  70
32
  0
VERTEX
  8
0
  10
257149.147731
  20
386413.010596
  30
90.3338150591
  70
32
  0
VERTEX
  8
0
  10
257149.499735
  20
386425.654236
  30
72.6067932586
  70
32
  0
VERTEX
  8
0
  10
257159.871881
  20
386422.110165
  30
73.0223082658
  70
32
  0
VERTEX
  8
0
  10
257160.020114
  20
386437.662044
  30
51.3416117316
  70
32
  0
VERTEX
  8
0
  10
257176.872282
  20
386432.599642
  30
51.049549794
  70
32
  0
VERTEX
  8
0
  10
257235.655566
  20
386468.800761
  30
-24.8310975771
  70
32
  0
VERTEX
  8
0
  10
257268.614303
  20
386460.343648
  30
-27.4089804372
  70
32
  0
VERTEX
  8
0
  10
257299.25485
  20
386484.784533
  30
-74.7051105462
  70
32
  0
VERTEX
  8
0
  10
257341.911764
  20
386506.349465
  30
-123.229396258
  70
32
  0
VERTEX
  8
0
  10
257455.105413
  20
386472.346018
  30
-125.191135393
  70
32
  0
VERTEX
  8
0
  10
257498.613224
  20
386500.36271
  30
-183.053033489
  70
32
  0
VERTEX
  8
0
  10
257542.068795
  20
386487.308627
  30
-183.806154314
  70
32
  0
VERTEX
  8
0
  10
257453.236753
  20
386446.027201
  30
-87.7968386128
  70
32
  0
VERTEX
  8
0
  10
257358.195582
  20
386473.942329
  30
-85.266661821
  70
32
  0
VERTEX
  8
0
  10
257351.429555
  20
386475.469614
  30
-84.4471548372
  70
32
  0
VERTEX
  8
0
  10
257349.018522
  20
386452.260392
  30
-51.1391583939
  70
32
  0
VERTEX
  8
0
  10
257342.08339
  20
386454.065453
  30
-50.6322036574
  70
32
  0
VERTEX
  8
0
  10
257341.349092
  20
386443.755268
  30
-35.9823041895
  70
32
  0
VERTEX
  8
0
  10
257310.129704
  20
386453.133593
  30
-35.4412464936
  70
32
  0
VERTEX
  8
0
  10
257304.462339
  20
386439.333673
  30
-13.7955644059
  70
32
  0
VERTEX
  8
0
  10
257252.108777
  20
386445.992561
  30
-0.284008414658
  70
32
  0
VERTEX
  8
0
  10
257206.02897
  20
386421.02976
  30
54.4516394803
  70
32
  0
SEQEND
  0
ENDSEC
  0
EOF
