  999
DXF Polyline File Exported from Leapfrog Geo
  0
SECTION
  2
ENTITIES
  0
POLYLINE
  8
0
  66
1
  70
8
  0
VERTEX
  8
0
  10
257123.080479
  20
386368.879208
  30
50.6589665051
  70
32
  0
VERTEX
  8
0
  10
257061.106105
  20
386318.031322
  30
169.784942918
  70
32
  0
VERTEX
  8
0
  10
257076.805697
  20
386309.853459
  30
171.268986143
  70
32
  0
VERTEX
  8
0
  10
257088.83047
  20
386304.569028
  30
170.933405312
  70
32
  0
VERTEX
  8
0
  10
257103.377402
  20
386297.212391
  30
171.976506976
  70
32
  0
VERTEX
  8
0
  10
257111.765038
  20
386293.205034
  30
172.225510865
  70
32
  0
VERTEX
  8
0
  10
257110.704238
  20
386284.532499
  30
185.994967521
  70
32
  0
VERTEX
  8
0
  10
257089.385755
  20
386293.419439
  30
187.314173401
  70
32
  0
VERTEX
  8
0
  10
257022.329778
  20
386323.306252
  30
188.556697792
  70
32
  0
VERTEX
  8
0
  10
257022.023852
  20
386347.250762
  30
152.767339278
  70
32
  0
VERTEX
  8
0
  10
257052.478184
  20
386345.800771
  30
133.97564112
  70
32
  0
VERTEX
  8
0
  10
257052.922371
  20
386354.911815
  30
119.971512457
  70
32
  0
VERTEX
  8
0
  10
257052.935676
  20
386355.552424
  30
118.999209076
  70
32
  0
VERTEX
  8
0
  10
257060.874414
  20
386353.135098
  30
117.166760387
  70
32
  0
VERTEX
  8
0
  10
257072.709236
  20
386377.855407
  30
71.8505379435
  70
32
  0
VERTEX
  8
0
  10
257089.989154
  20
386413.949312
  30
5.68472169856
  70
32
  0
VERTEX
  8
0
  10
257089.780997
  20
386419.392588
  30
-2.35577699431
  70
32
  0
VERTEX
  8
0
  10
257150.730022
  20
386393.418118
  30
-5.27499826487
  70
32
  0
VERTEX
  8
0
  10
257181.111991
  20
386403.190855
  30
-40.8899813873
  70
32
  0
VERTEX
  8
0
  10
257264.536733
  20
386395.383012
  30
-86.5997394917
  70
32
  0
VERTEX
  8
0
  10
257284.647045
  20
386380.309339
  30
-77.7853507776
  70
32
  0
VERTEX
  8
0
  10
257229.556376
  20
386380.524186
  30
-40.1713520095
  70
32
  0
VERTEX
  8
0
  10
257132.593365
  20
386369.403189
  30
43.3203264901
  70
32
  0
VERTEX
  8
0
  10
257147.597257
  20
386360.995681
  30
45.628713998
  70
32
  0
VERTEX
  8
0
  10
257173.657028
  20
386348.497933
  30
46.473288603
  70
32
  0
VERTEX
  8
0
  10
257189.364576
  20
386339.653844
  30
48.9535080108
  70
32
  0
VERTEX
  8
0
  10
257189.44546
  20
386338.394387
  30
50.7913730966
  70
32
  0
VERTEX
  8
0
  10
257173.410705
  20
386347.422709
  30
48.2594876952
  70
32
  0
VERTEX
  8
0
  10
257132.053376
  20
386367.046081
  30
47.2360365832
  70
32
  0
VERTEX
  8
0
  10
257123.080479
  20
386368.879208
  30
50.6589665051
  70
32
  0
SEQEND
  0
POLYLINE
  8
0
  66
1
  70
8
  0
VERTEX
  8
0
  10
257365.000495
  20
386166.467301
  30
188.387616121
  70
32
  0
VERTEX
  8
0
  10
257323.533566
  20
386185.590211
  30
188.192071613
  70
32
  0
VERTEX
  8
0
  10
257326.252366
  20
386197.458047
  30
168.476805779
  70
32
  0
VERTEX
  8
0
  10
257393.129835
  20
386168.957069
  30
165.273635163
  70
32
  0
VERTEX
  8
0
  10
257389.494825
  20
386167.745904
  30
169.597766761
  70
32
  0
VERTEX
  8
0
  10
257378.288607
  20
386169.330402
  30
174.932433478
  70
32
  0
VERTEX
  8
0
  10
257365.000495
  20
386166.467301
  30
188.387616121
  70
32
  0
SEQEND
  0
ENDSEC
  0
EOF
