  999
DXF Polyline File Exported from Leapfrog Geo
  0
SECTION
  2
ENTITIES
  0
POLYLINE
  8
0
  66
1
  70
8
  0
VERTEX
  8
0
  10
257103.377402
  20
386297.212391
  30
171.976506976
  70
32
  0
VERTEX
  8
0
  10
257088.83047
  20
386304.569028
  30
170.933405312
  70
32
  0
VERTEX
  8
0
  10
257076.805697
  20
386309.853459
  30
171.268986143
  70
32
  0
VERTEX
  8
0
  10
257061.106105
  20
386318.031322
  30
169.784942918
  70
32
  0
VERTEX
  8
0
  10
257068.971904
  20
386324.484945
  30
154.665452159
  70
32
  0
VERTEX
  8
0
  10
257104.409715
  20
386308.13692
  30
154.840845206
  70
32
  0
VERTEX
  8
0
  10
257118.829477
  20
386297.141286
  30
161.442669038
  70
32
  0
VERTEX
  8
0
  10
257119.029332
  20
386292.078907
  30
168.916214965
  70
32
  0
VERTEX
  8
0
  10
257111.765038
  20
386293.205034
  30
172.225510865
  70
32
  0
VERTEX
  8
0
  10
257103.377402
  20
386297.212391
  30
171.976506976
  70
32
  0
SEQEND
  0
POLYLINE
  8
0
  66
1
  70
8
  0
VERTEX
  8
0
  10
257148.565095
  20
386343.579227
  30
71.147477081
  70
32
  0
VERTEX
  8
0
  10
257156.551116
  20
386339.560501
  30
71.6901366215
  70
32
  0
VERTEX
  8
0
  10
257188.474531
  20
386323.510415
  30
73.8376984394
  70
32
  0
VERTEX
  8
0
  10
257188.056106
  20
386316.862496
  30
84.1208322499
  70
32
  0
VERTEX
  8
0
  10
257196.041368
  20
386312.844682
  30
84.6626447529
  70
32
  0
VERTEX
  8
0
  10
257195.744509
  20
386305.967956
  30
95.2060712818
  70
32
  0
VERTEX
  8
0
  10
257187.894975
  20
386307.411598
  30
98.4410037174
  70
32
  0
VERTEX
  8
0
  10
257164.858179
  20
386318.361647
  30
97.8416513568
  70
32
  0
VERTEX
  8
0
  10
257164.924829
  20
386311.131798
  30
108.665669215
  70
32
  0
VERTEX
  8
0
  10
257157.458436
  20
386314.526627
  30
108.70319234
  70
32
  0
VERTEX
  8
0
  10
257157.040717
  20
386310.205746
  30
115.487193694
  70
32
  0
VERTEX
  8
0
  10
257149.548382
  20
386313.631722
  30
115.495752487
  70
32
  0
VERTEX
  8
0
  10
257148.755148
  20
386302.611881
  30
132.6100779
  70
32
  0
VERTEX
  8
0
  10
257090.089395
  20
386328.491343
  30
134.099813016
  70
32
  0
VERTEX
  8
0
  10
257089.871278
  20
386324.014613
  30
140.980677289
  70
32
  0
VERTEX
  8
0
  10
257076.070314
  20
386330.308951
  30
141.021023535
  70
32
  0
VERTEX
  8
0
  10
257112.505407
  20
386360.202718
  30
70.9861709749
  70
32
  0
VERTEX
  8
0
  10
257114.23914
  20
386359.355389
  30
71.0662124871
  70
32
  0
VERTEX
  8
0
  10
257141.663589
  20
386348.707029
  30
68.1905177841
  70
32
  0
VERTEX
  8
0
  10
257148.565095
  20
386343.579227
  30
71.147477081
  70
32
  0
SEQEND
  0
POLYLINE
  8
0
  66
1
  70
8
  0
VERTEX
  8
0
  10
257174.126402
  20
386351.13138
  30
42.1907361117
  70
32
  0
VERTEX
  8
0
  10
257189.063873
  20
386344.336096
  30
42.1209201214
  70
32
  0
VERTEX
  8
0
  10
257189.364576
  20
386339.653844
  30
48.9535080108
  70
32
  0
VERTEX
  8
0
  10
257173.657028
  20
386348.497933
  30
46.473288603
  70
32
  0
VERTEX
  8
0
  10
257147.597257
  20
386360.995681
  30
45.628713998
  70
32
  0
VERTEX
  8
0
  10
257132.593365
  20
386369.403189
  30
43.3203264901
  70
32
  0
VERTEX
  8
0
  10
257170.69729
  20
386373.773449
  30
10.5102825897
  70
32
  0
VERTEX
  8
0
  10
257202.138124
  20
386358.983303
  30
11.0958724803
  70
32
  0
VERTEX
  8
0
  10
257202.526096
  20
386353.695538
  30
18.7787375006
  70
32
  0
VERTEX
  8
0
  10
257194.937246
  20
386357.237397
  30
18.6795334413
  70
32
  0
VERTEX
  8
0
  10
257180.215971
  20
386358.950683
  30
26.2411394606
  70
32
  0
VERTEX
  8
0
  10
257172.749851
  20
386362.345185
  30
26.2789672895
  70
32
  0
VERTEX
  8
0
  10
257174.126402
  20
386351.13138
  30
42.1907361117
  70
32
  0
SEQEND
  0
POLYLINE
  8
0
  66
1
  70
8
  0
VERTEX
  8
0
  10
257333.676693
  20
386228.156623
  30
117.209586758
  70
32
  0
VERTEX
  8
0
  10
257301.160835
  20
386217.66741
  30
155.37123524
  70
32
  0
VERTEX
  8
0
  10
257299.397213
  20
386209.969025
  30
168.160062002
  70
32
  0
VERTEX
  8
0
  10
257225.720826
  20
386244.292557
  30
167.291084008
  70
32
  0
VERTEX
  8
0
  10
257226.029177
  20
386258.379921
  30
145.89871256
  70
32
  0
VERTEX
  8
0
  10
257241.540745
  20
386253.306552
  30
142.844697242
  70
32
  0
VERTEX
  8
0
  10
257256.949528
  20
386245.945383
  30
143.3011179
  70
32
  0
VERTEX
  8
0
  10
257271.109666
  20
386247.233236
  30
131.613782097
  70
32
  0
VERTEX
  8
0
  10
257278.041637
  20
386246.891276
  30
127.354357479
  70
32
  0
VERTEX
  8
0
  10
257292.333746
  20
386243.282063
  30
122.938771269
  70
32
  0
VERTEX
  8
0
  10
257306.471598
  20
386239.857581
  30
118.351671942
  70
32
  0
VERTEX
  8
0
  10
257333.676693
  20
386228.156623
  30
117.209586758
  70
32
  0
SEQEND
  0
POLYLINE
  8
0
  66
1
  70
8
  0
VERTEX
  8
0
  10
257172.319584
  20
386420.395133
  30
-60.7015203846
  70
32
  0
VERTEX
  8
0
  10
257215.444829
  20
386402.034995
  30
-62.7947513501
  70
32
  0
VERTEX
  8
0
  10
257215.491882
  20
386399.973191
  30
-59.7272764835
  70
32
  0
VERTEX
  8
0
  10
257181.111991
  20
386403.190855
  30
-40.8899813873
  70
32
  0
VERTEX
  8
0
  10
257150.730022
  20
386393.418118
  30
-5.27499826487
  70
32
  0
VERTEX
  8
0
  10
257116.004428
  20
386408.217024
  30
-3.61177736005
  70
32
  0
VERTEX
  8
0
  10
257114.632176
  20
386421.155446
  30
-22.1194288851
  70
32
  0
VERTEX
  8
0
  10
257114.75617
  20
386432.978817
  30
-39.9809857742
  70
32
  0
VERTEX
  8
0
  10
257122.359238
  20
386441.392133
  30
-57.8659063496
  70
32
  0
VERTEX
  8
0
  10
257172.319584
  20
386420.395133
  30
-60.7015203846
  70
32
  0
SEQEND
  0
ENDSEC
  0
EOF
