  999
DXF Polyline File Exported from Leapfrog Geo
  0
SECTION
  2
ENTITIES
  0
POLYLINE
  8
0
  66
1
  70
8
  0
VERTEX
  8
0
  10
257444.205302
  20
386077.564907
  30
7.09116768343
  70
32
  0
VERTEX
  8
0
  10
257387.760582
  20
386114.57052
  30
-13.7358806652
  70
32
  0
VERTEX
  8
0
  10
257399.03198
  20
386160.042714
  30
-82.1780841011
  70
32
  0
VERTEX
  8
0
  10
257384.735083
  20
386197.002224
  30
-125.34084138
  70
32
  0
VERTEX
  8
0
  10
257345.253451
  20
386257.96724
  30
-188.088921364
  70
32
  0
VERTEX
  8
0
  10
257374.097538
  20
386247.543244
  30
-189.101357193
  70
32
  0
VERTEX
  8
0
  10
257409.062706
  20
386187.157453
  30
-124.748562948
  70
32
  0
VERTEX
  8
0
  10
257419.927407
  20
386163.732769
  30
-98.3507160782
  70
32
  0
VERTEX
  8
0
  10
257435.169182
  20
386109.207928
  30
-31.5656369812
  70
32
  0
VERTEX
  8
0
  10
257590.065724
  20
386000.918477
  30
34.842402784
  70
32
  0
VERTEX
  8
0
  10
257584.9252
  20
385980.841142
  30
65.1487684668
  70
32
  0
VERTEX
  8
0
  10
257549.441307
  20
386005.5811
  30
50.0281214163
  70
32
  0
VERTEX
  8
0
  10
257444.205302
  20
386077.564907
  30
7.09116768343
  70
32
  0
SEQEND
  0
POLYLINE
  8
0
  66
1
  70
8
  0
VERTEX
  8
0
  10
257579.939033
  20
385884.844403
  30
199.641850987
  70
32
  0
VERTEX
  8
0
  10
257558.597561
  20
385884.093876
  30
212.014340623
  70
32
  0
VERTEX
  8
0
  10
257495.234246
  20
385904.532444
  30
217.617513919
  70
32
  0
VERTEX
  8
0
  10
257469.866822
  20
385905.875062
  30
229.254801659
  70
32
  0
VERTEX
  8
0
  10
257438.094455
  20
385924.482453
  30
220.584253513
  70
32
  0
VERTEX
  8
0
  10
257390.073617
  20
385952.407219
  30
207.752178545
  70
32
  0
VERTEX
  8
0
  10
257393.498689
  20
385953.568518
  30
204.337015392
  70
32
  0
VERTEX
  8
0
  10
257440.070418
  20
385932.565494
  30
208.432788244
  70
32
  0
VERTEX
  8
0
  10
257442.635629
  20
385943.05896
  30
192.657664291
  70
32
  0
VERTEX
  8
0
  10
257580.333597
  20
385893.31583
  30
187.79739076
  70
32
  0
VERTEX
  8
0
  10
257579.939033
  20
385884.844403
  30
199.641850987
  70
32
  0
SEQEND
  0
POLYLINE
  8
0
  66
1
  70
8
  0
VERTEX
  8
0
  10
256981.054391
  20
386387.793642
  30
-172.844433514
  70
32
  0
VERTEX
  8
0
  10
256884.318137
  20
386378.53982
  30
-108.725620348
  70
32
  0
VERTEX
  8
0
  10
256849.026276
  20
386384.994493
  30
-98.8350605126
  70
32
  0
VERTEX
  8
0
  10
256813.721645
  20
386396.027993
  30
-95.2263363142
  70
32
  0
VERTEX
  8
0
  10
256758.629043
  20
386383.107611
  30
-48.2029101096
  70
32
  0
VERTEX
  8
0
  10
256752.55863
  20
386358.617748
  30
-11.3421380865
  70
32
  0
VERTEX
  8
0
  10
256731.243427
  20
386366.219394
  30
-10.4545973503
  70
32
  0
VERTEX
  8
0
  10
256738.021326
  20
386411.307175
  30
-75.9808188639
  70
32
  0
VERTEX
  8
0
  10
256760.80305
  20
386403.182524
  30
-76.9294238565
  70
32
  0
VERTEX
  8
0
  10
256812.422385
  20
386416.442868
  30
-122.573927056
  70
32
  0
VERTEX
  8
0
  10
256853.620145
  20
386403.527534
  30
-126.729957204
  70
32
  0
VERTEX
  8
0
  10
256880.022948
  20
386400.242968
  30
-136.250386809
  70
32
  0
VERTEX
  8
0
  10
256932.937943
  20
386404.955939
  30
-170.844375384
  70
32
  0
VERTEX
  8
0
  10
256981.054391
  20
386387.793642
  30
-172.844433514
  70
32
  0
SEQEND
  0
POLYLINE
  8
0
  66
1
  70
8
  0
VERTEX
  8
0
  10
256896.678158
  20
386187.884904
  30
146.55384517
  70
32
  0
VERTEX
  8
0
  10
256876.452399
  20
386195.980719
  30
146.183713797
  70
32
  0
VERTEX
  8
0
  10
256876.907708
  20
386206.182797
  30
131.930071851
  70
32
  0
VERTEX
  8
0
  10
256921.338688
  20
386189.382648
  30
131.39123843
  70
32
  0
VERTEX
  8
0
  10
256949.585211
  20
386180.545906
  30
128.516416587
  70
32
  0
VERTEX
  8
0
  10
256976.545429
  20
386169.765243
  30
128.994995921
  70
32
  0
VERTEX
  8
0
  10
256971.032332
  20
386147.404764
  30
162.635063663
  70
32
  0
VERTEX
  8
0
  10
256943.440551
  20
386158.364868
  30
162.245674308
  70
32
  0
VERTEX
  8
0
  10
256905.545875
  20
386170.514929
  30
165.697349878
  70
32
  0
VERTEX
  8
0
  10
256895.597212
  20
386174.303262
  30
165.781516893
  70
32
  0
VERTEX
  8
0
  10
256896.678158
  20
386187.884904
  30
146.55384517
  70
32
  0
SEQEND
  0
POLYLINE
  8
0
  66
1
  70
8
  0
VERTEX
  8
0
  10
256965.740769
  20
386125.946802
  30
194.917868745
  70
32
  0
VERTEX
  8
0
  10
256952.48775
  20
386131.616933
  30
194.173613458
  70
32
  0
VERTEX
  8
0
  10
256931.752705
  20
386140.874498
  30
192.478573742
  70
32
  0
VERTEX
  8
0
  10
256933.097431
  20
386151.854936
  30
176.683248961
  70
32
  0
VERTEX
  8
0
  10
256942.53195
  20
386148.879304
  30
175.756144791
  70
32
  0
VERTEX
  8
0
  10
256968.266591
  20
386136.190659
  30
179.506492443
  70
32
  0
VERTEX
  8
0
  10
256965.740769
  20
386125.946802
  30
194.917868745
  70
32
  0
SEQEND
  0
POLYLINE
  8
0
  66
1
  70
8
  0
VERTEX
  8
0
  10
257581.012939
  20
385907.901583
  30
167.404088193
  70
32
  0
VERTEX
  8
0
  10
257549.230337
  20
385919.228459
  30
168.738139244
  70
32
  0
VERTEX
  8
0
  10
257548.522366
  20
385936.72311
  30
145.086989242
  70
32
  0
VERTEX
  8
0
  10
257580.887497
  20
385946.486129
  30
114.478209542
  70
32
  0
VERTEX
  8
0
  10
257582.086845
  20
385930.958763
  30
135.166325399
  70
32
  0
VERTEX
  8
0
  10
257581.012939
  20
385907.901583
  30
167.404088193
  70
32
  0
SEQEND
  0
POLYLINE
  8
0
  66
1
  70
8
  0
VERTEX
  8
0
  10
257393.498689
  20
385953.568518
  30
204.337015392
  70
32
  0
VERTEX
  8
0
  10
257390.073617
  20
385952.407219
  30
207.752178545
  70
32
  0
VERTEX
  8
0
  10
257320.066025
  20
385979.475888
  30
207.780512807
  70
32
  0
VERTEX
  8
0
  10
257190.173878
  20
386022.686995
  30
217.463632838
  70
32
  0
VERTEX
  8
0
  10
257126.14902
  20
386060.578665
  30
199.448047547
  70
32
  0
VERTEX
  8
0
  10
257057.030169
  20
386088.516678
  30
197.810100026
  70
32
  0
VERTEX
  8
0
  10
257061.567056
  20
386106.534783
  30
170.652706094
  70
32
  0
VERTEX
  8
0
  10
257128.903272
  20
386075.739319
  30
177.162478074
  70
32
  0
VERTEX
  8
0
  10
257190.442125
  20
386041.852702
  30
190.998631944
  70
32
  0
VERTEX
  8
0
  10
257252.882369
  20
386015.064449
  30
194.606759241
  70
32
  0
VERTEX
  8
0
  10
257324.938403
  20
385986.281903
  30
195.843662879
  70
32
  0
VERTEX
  8
0
  10
257340.323616
  20
385978.635941
  30
198.16841848
  70
32
  0
VERTEX
  8
0
  10
257393.498689
  20
385953.568518
  30
204.337015392
  70
32
  0
SEQEND
  0
POLYLINE
  8
0
  66
1
  70
8
  0
VERTEX
  8
0
  10
257120.216557
  20
386167.868308
  30
55.2477281042
  70
32
  0
VERTEX
  8
0
  10
257128.73162
  20
386166.473199
  30
52.638548001
  70
32
  0
VERTEX
  8
0
  10
257168.093269
  20
386145.770348
  30
60.153783574
  70
32
  0
VERTEX
  8
0
  10
257231.536033
  20
386126.343487
  30
53.1188957176
  70
32
  0
VERTEX
  8
0
  10
257320.248176
  20
386088.685378
  30
57.6939021077
  70
32
  0
VERTEX
  8
0
  10
257345.177588
  20
386078.387931
  30
58.5880760092
  70
32
  0
VERTEX
  8
0
  10
257376.183819
  20
386067.866394
  30
56.5605557474
  70
32
  0
VERTEX
  8
0
  10
257403.502472
  20
386058.888921
  30
54.3721234807
  70
32
  0
VERTEX
  8
0
  10
257419.033787
  20
386053.78501
  30
53.1279468085
  70
32
  0
VERTEX
  8
0
  10
257417.670138
  20
386048.283642
  30
61.4082987821
  70
32
  0
VERTEX
  8
0
  10
257412.633556
  20
386050.155449
  30
61.514172598
  70
32
  0
VERTEX
  8
0
  10
257375.04104
  20
386063.37682
  30
63.333916821
  70
32
  0
VERTEX
  8
0
  10
257344.062415
  20
386073.888989
  30
65.3596318588
  70
32
  0
VERTEX
  8
0
  10
257319.133003
  20
386084.186436
  30
64.4654579574
  70
32
  0
VERTEX
  8
0
  10
257319.133003
  20
386084.186436
  30
64.4654579573
  70
32
  0
VERTEX
  8
0
  10
257230.42086
  20
386121.844545
  30
59.8904515672
  70
32
  0
VERTEX
  8
0
  10
257166.978096
  20
386141.271406
  30
66.9253394236
  70
32
  0
VERTEX
  8
0
  10
257127.616447
  20
386161.974257
  30
59.4101038507
  70
32
  0
VERTEX
  8
0
  10
257119.101384
  20
386163.369366
  30
62.0192839538
  70
32
  0
VERTEX
  8
0
  10
257090.111951
  20
386172.117014
  30
65.4112806308
  70
32
  0
VERTEX
  8
0
  10
257058.189258
  20
386185.570341
  30
63.8992849338
  70
32
  0
VERTEX
  8
0
  10
256921.014255
  20
386252.383369
  30
45.0376024094
  70
32
  0
VERTEX
  8
0
  10
256873.869427
  20
386272.598512
  30
42.3284826888
  70
32
  0
SEQEND
  0
POLYLINE
  8
0
  66
1
  70
8
  0
VERTEX
  8
0
  10
256874.28317
  20
386277.398219
  30
35.516619974
  70
32
  0
VERTEX
  8
0
  10
256922.129429
  20
386256.882311
  30
38.2660465598
  70
32
  0
VERTEX
  8
0
  10
257059.304431
  20
386190.069283
  30
57.1277290841
  70
32
  0
VERTEX
  8
0
  10
257091.227124
  20
386176.615956
  30
58.6397247811
  70
32
  0
VERTEX
  8
0
  10
257120.216525
  20
386167.868318
  30
55.2477318302
  70
32
  0
SEQEND
  0
POLYLINE
  8
0
  66
1
  70
8
  0
VERTEX
  8
0
  10
256873.869427
  20
386272.598512
  30
42.3284826889
  70
32
  0
VERTEX
  8
0
  10
256855.756151
  20
386280.524519
  30
41.0689094737
  70
32
  0
VERTEX
  8
0
  10
256803.072654
  20
386303.992571
  30
36.8356680932
  70
32
  0
SEQEND
  0
POLYLINE
  8
0
  66
1
  70
8
  0
VERTEX
  8
0
  10
256803.072654
  20
386303.992571
  30
36.8356680932
  70
32
  0
VERTEX
  8
0
  10
256727.691716
  20
386336.351662
  30
32.4536746985
  70
32
  0
VERTEX
  8
0
  10
256728.806889
  20
386340.850604
  30
25.6821188489
  70
32
  0
VERTEX
  8
0
  10
256774.795396
  20
386322.931106
  30
25.8528837531
  70
32
  0
VERTEX
  8
0
  10
256804.187827
  20
386308.491514
  30
30.0641122436
  70
32
  0
VERTEX
  8
0
  10
256853.674248
  20
386286.44761
  30
34.0404611004
  70
32
  0
VERTEX
  8
0
  10
256874.28317
  20
386277.398219
  30
35.5166199741
  70
32
  0
SEQEND
  0
ENDSEC
  0
EOF
