  999
DXF Polyline File Exported from Leapfrog Geo
  0
SECTION
  2
ENTITIES
  0
POLYLINE
  8
0
  66
1
  70
8
  0
VERTEX
  8
0
  10
257434.793477
  20
386018.671677
  30
92.9777542521
  70
32
  0
VERTEX
  8
0
  10
257369.739558
  20
386041.868316
  30
95.691409582
  70
32
  0
VERTEX
  8
0
  10
257375.076344
  20
386063.36484
  30
63.331608231
  70
32
  0
VERTEX
  8
0
  10
257412.633556
  20
386050.155449
  30
61.514172598
  70
32
  0
VERTEX
  8
0
  10
257424.9115
  20
386045.592445
  30
61.2560783603
  70
32
  0
VERTEX
  8
0
  10
257425.011816
  20
386034.876184
  30
75.9206257743
  70
32
  0
VERTEX
  8
0
  10
257434.017902
  20
386027.045086
  30
81.8897712278
  70
32
  0
VERTEX
  8
0
  10
257434.793477
  20
386018.671677
  30
92.9777542521
  70
32
  0
SEQEND
  0
POLYLINE
  8
0
  66
1
  70
8
  0
VERTEX
  8
0
  10
257403.994731
  20
386080.556577
  30
24.3518623628
  70
32
  0
VERTEX
  8
0
  10
257403.502472
  20
386058.888921
  30
54.3721234807
  70
32
  0
VERTEX
  8
0
  10
257376.183819
  20
386067.866394
  30
56.5605557474
  70
32
  0
VERTEX
  8
0
  10
257387.760582
  20
386114.57052
  30
-13.7358806652
  70
32
  0
VERTEX
  8
0
  10
257444.205302
  20
386077.564907
  30
7.09116768343
  70
32
  0
VERTEX
  8
0
  10
257441.8338
  20
386065.510064
  30
24.9077656886
  70
32
  0
VERTEX
  8
0
  10
257403.994731
  20
386080.556577
  30
24.3518623628
  70
32
  0
SEQEND
  0
POLYLINE
  8
0
  66
1
  70
8
  0
VERTEX
  8
0
  10
257581.012939
  20
385907.901583
  30
167.404088193
  70
32
  0
VERTEX
  8
0
  10
257580.333597
  20
385893.31583
  30
187.79739076
  70
32
  0
VERTEX
  8
0
  10
257442.635629
  20
385943.05896
  30
192.657664291
  70
32
  0
VERTEX
  8
0
  10
257456.720518
  20
386000.675781
  30
106.040663769
  70
32
  0
VERTEX
  8
0
  10
257477.663262
  20
385993.389073
  30
104.918522547
  70
32
  0
VERTEX
  8
0
  10
257485.442905
  20
385961.755041
  30
144.230724138
  70
32
  0
VERTEX
  8
0
  10
257548.522366
  20
385936.72311
  30
145.086989242
  70
32
  0
VERTEX
  8
0
  10
257549.230337
  20
385919.228459
  30
168.738139244
  70
32
  0
VERTEX
  8
0
  10
257581.012939
  20
385907.901583
  30
167.404088193
  70
32
  0
SEQEND
  0
POLYLINE
  8
0
  66
1
  70
8
  0
VERTEX
  8
0
  10
256802.914338
  20
386304.060533
  30
36.8264649616
  70
32
  0
VERTEX
  8
0
  10
256803.072654
  20
386303.992571
  30
36.8356680932
  70
32
  0
VERTEX
  8
0
  10
256787.800018
  20
386242.378183
  30
129.574198333
  70
32
  0
VERTEX
  8
0
  10
256856.130063
  20
386217.970285
  30
126.783039321
  70
32
  0
VERTEX
  8
0
  10
256870.314888
  20
386212.950885
  30
126.138373275
  70
32
  0
VERTEX
  8
0
  10
256875.650363
  20
386234.475787
  30
93.7402948729
  70
32
  0
VERTEX
  8
0
  10
256983.092933
  20
386196.321157
  30
89.0431361197
  70
32
  0
VERTEX
  8
0
  10
256976.54509
  20
386169.765379
  30
128.994989906
  70
32
  0
VERTEX
  8
0
  10
256949.585211
  20
386180.545906
  30
128.516416587
  70
32
  0
VERTEX
  8
0
  10
256921.338688
  20
386189.382648
  30
131.39123843
  70
32
  0
VERTEX
  8
0
  10
256876.907708
  20
386206.182797
  30
131.930071851
  70
32
  0
VERTEX
  8
0
  10
256876.452189
  20
386195.981051
  30
146.183369905
  70
32
  0
VERTEX
  8
0
  10
256896.678158
  20
386187.884904
  30
146.55384517
  70
32
  0
VERTEX
  8
0
  10
256895.579367
  20
386174.331469
  30
165.752259968
  70
32
  0
VERTEX
  8
0
  10
256905.545875
  20
386170.514929
  30
165.697349878
  70
32
  0
VERTEX
  8
0
  10
256943.440551
  20
386158.364868
  30
162.245674308
  70
32
  0
VERTEX
  8
0
  10
256970.766738
  20
386147.634456
  30
162.460747744
  70
32
  0
VERTEX
  8
0
  10
256968.266593
  20
386136.190669
  30
179.506477383
  70
32
  0
VERTEX
  8
0
  10
256942.53195
  20
386148.879304
  30
175.756144791
  70
32
  0
VERTEX
  8
0
  10
256933.097431
  20
386151.854936
  30
176.683248961
  70
32
  0
VERTEX
  8
0
  10
256931.752705
  20
386140.874498
  30
192.478573742
  70
32
  0
VERTEX
  8
0
  10
256923.137579
  20
386142.554924
  30
194.749072905
  70
32
  0
VERTEX
  8
0
  10
256886.604935
  20
386152.55204
  30
200.43379631
  70
32
  0
VERTEX
  8
0
  10
256876.995212
  20
386155.804613
  30
201.073655534
  70
32
  0
VERTEX
  8
0
  10
256853.992464
  20
386165.305632
  30
200.249399894
  70
32
  0
VERTEX
  8
0
  10
256815.14803
  20
386181.941313
  30
198.045203192
  70
32
  0
VERTEX
  8
0
  10
256805.205163
  20
386185.720484
  30
198.138872458
  70
32
  0
VERTEX
  8
0
  10
256795.893496
  20
386188.501924
  30
199.267393798
  70
32
  0
VERTEX
  8
0
  10
256785.919026
  20
386192.33105
  30
199.30924949
  70
32
  0
VERTEX
  8
0
  10
256768.665603
  20
386210.898462
  30
182.977666649
  70
32
  0
VERTEX
  8
0
  10
256723.903575
  20
386259.218217
  30
140.40297299
  70
32
  0
VERTEX
  8
0
  10
256727.691716
  20
386336.351662
  30
32.4536746985
  70
32
  0
VERTEX
  8
0
  10
256802.259308
  20
386304.34172
  30
36.7883872091
  70
32
  0
SEQEND
  0
ENDSEC
  0
EOF
