  999
DXF Polyline File Exported from Leapfrog Geo
  0
SECTION
  2
ENTITIES
  0
POLYLINE
  8
0
  66
1
  70
8
  0
VERTEX
  8
0
  10
257128.903272
  20
386075.739319
  30
177.162478074
  70
32
  0
VERTEX
  8
0
  10
257061.567056
  20
386106.534783
  30
170.652706094
  70
32
  0
VERTEX
  8
0
  10
257066.311342
  20
386125.957581
  30
141.455866593
  70
32
  0
VERTEX
  8
0
  10
257106.293547
  20
386111.698718
  30
139.791053209
  70
32
  0
VERTEX
  8
0
  10
257113.872113
  20
386142.27331
  30
93.7719395917
  70
32
  0
VERTEX
  8
0
  10
257119.101384
  20
386163.369366
  30
62.0192839538
  70
32
  0
VERTEX
  8
0
  10
257127.616447
  20
386161.974257
  30
59.4101038507
  70
32
  0
VERTEX
  8
0
  10
257166.978096
  20
386141.271406
  30
66.9253394236
  70
32
  0
VERTEX
  8
0
  10
257230.42086
  20
386121.844545
  30
59.8904515672
  70
32
  0
VERTEX
  8
0
  10
257319.133003
  20
386084.186436
  30
64.4654579573
  70
32
  0
VERTEX
  8
0
  10
257344.062415
  20
386073.888989
  30
65.3596318588
  70
32
  0
VERTEX
  8
0
  10
257375.04104
  20
386063.37682
  30
63.333916821
  70
32
  0
VERTEX
  8
0
  10
257369.739558
  20
386041.868316
  30
95.691409582
  70
32
  0
VERTEX
  8
0
  10
257381.576252
  20
386037.658365
  30
95.1829240831
  70
32
  0
VERTEX
  8
0
  10
257459.007853
  20
386010.032542
  30
91.9743796507
  70
32
  0
VERTEX
  8
0
  10
257440.070418
  20
385932.565494
  30
208.432788244
  70
32
  0
VERTEX
  8
0
  10
257415.242722
  20
385943.74603
  30
206.271712189
  70
32
  0
VERTEX
  8
0
  10
257393.498689
  20
385953.568518
  30
204.337015392
  70
32
  0
VERTEX
  8
0
  10
257340.323616
  20
385978.635941
  30
198.16841848
  70
32
  0
VERTEX
  8
0
  10
257324.938403
  20
385986.281903
  30
195.843662879
  70
32
  0
VERTEX
  8
0
  10
257252.882369
  20
386015.064449
  30
194.606759241
  70
32
  0
VERTEX
  8
0
  10
257190.61606
  20
386041.981995
  30
190.728622935
  70
32
  0
VERTEX
  8
0
  10
257128.903272
  20
386075.739319
  30
177.162478074
  70
32
  0
SEQEND
  0
POLYLINE
  8
0
  66
1
  70
8
  0
VERTEX
  8
0
  10
257345.177588
  20
386078.387931
  30
58.5880760092
  70
32
  0
VERTEX
  8
0
  10
257320.248176
  20
386088.685378
  30
57.6939021077
  70
32
  0
VERTEX
  8
0
  10
257334.163578
  20
386097.593182
  30
38.0646040383
  70
32
  0
VERTEX
  8
0
  10
257317.671056
  20
386143.962063
  30
-16.8542708464
  70
32
  0
VERTEX
  8
0
  10
257299.796803
  20
386171.510461
  30
-45.1905301113
  70
32
  0
VERTEX
  8
0
  10
257290.527134
  20
386185.802941
  30
-59.8937472544
  70
32
  0
VERTEX
  8
0
  10
257315.992561
  20
386175.205763
  30
-58.8727776036
  70
32
  0
VERTEX
  8
0
  10
257393.743016
  20
386150.790099
  30
-66.6596493429
  70
32
  0
VERTEX
  8
0
  10
257396.367443
  20
386149.293172
  30
-65.9984746521
  70
32
  0
VERTEX
  8
0
  10
257387.760582
  20
386114.57052
  30
-13.7358806652
  70
32
  0
VERTEX
  8
0
  10
257376.183819
  20
386067.866395
  30
56.5605557229
  70
32
  0
VERTEX
  8
0
  10
257345.177588
  20
386078.387931
  30
58.5880760092
  70
32
  0
SEQEND
  0
ENDSEC
  0
EOF
