  999
DXF Polyline File Exported from Leapfrog Geo
  0
SECTION
  2
ENTITIES
  0
POLYLINE
  8
0
  66
1
  70
8
  0
VERTEX
  8
0
  10
257057.030169
  20
386088.516678
  30
197.810100026
  70
32
  0
VERTEX
  8
0
  10
256990.306775
  20
386115.113041
  30
196.741752796
  70
32
  0
VERTEX
  8
0
  10
256965.740769
  20
386125.946802
  30
194.917868745
  70
32
  0
VERTEX
  8
0
  10
256968.266593
  20
386136.190669
  30
179.506477383
  70
32
  0
VERTEX
  8
0
  10
256971.032332
  20
386147.404764
  30
162.635063663
  70
32
  0
VERTEX
  8
0
  10
256983.092933
  20
386196.321157
  30
89.0431361193
  70
32
  0
VERTEX
  8
0
  10
256875.650363
  20
386234.475787
  30
93.7402948729
  70
32
  0
VERTEX
  8
0
  10
256870.314888
  20
386212.950885
  30
126.138373275
  70
32
  0
VERTEX
  8
0
  10
256856.130063
  20
386217.970285
  30
126.783039321
  70
32
  0
VERTEX
  8
0
  10
256787.800018
  20
386242.378183
  30
129.574198333
  70
32
  0
VERTEX
  8
0
  10
256803.072654
  20
386303.992571
  30
36.8356680932
  70
32
  0
VERTEX
  8
0
  10
256921.014255
  20
386252.383369
  30
45.0376024094
  70
32
  0
VERTEX
  8
0
  10
257058.189258
  20
386185.570341
  30
63.8992849338
  70
32
  0
VERTEX
  8
0
  10
257090.111951
  20
386172.117014
  30
65.4112806308
  70
32
  0
VERTEX
  8
0
  10
257119.101407
  20
386163.36946
  30
62.0191424116
  70
32
  0
VERTEX
  8
0
  10
257113.872113
  20
386142.27331
  30
93.7719395917
  70
32
  0
VERTEX
  8
0
  10
257111.009033
  20
386130.722964
  30
111.156896396
  70
32
  0
VERTEX
  8
0
  10
257106.293547
  20
386111.698718
  30
139.791053209
  70
32
  0
VERTEX
  8
0
  10
257066.311342
  20
386125.957581
  30
141.455866593
  70
32
  0
VERTEX
  8
0
  10
257057.030169
  20
386088.516678
  30
197.810100026
  70
32
  0
SEQEND
  0
POLYLINE
  8
0
  66
1
  70
8
  0
VERTEX
  8
0
  10
256804.187827
  20
386308.491514
  30
30.0641122436
  70
32
  0
VERTEX
  8
0
  10
256865.243039
  20
386284.98699
  30
29.8983817763
  70
32
  0
VERTEX
  8
0
  10
256913.44927
  20
386268.552133
  30
26.8515340473
  70
32
  0
VERTEX
  8
0
  10
256930.895012
  20
386261.789151
  30
26.8685454452
  70
32
  0
VERTEX
  8
0
  10
257044.471086
  20
386216.556561
  30
28.6327670351
  70
32
  0
VERTEX
  8
0
  10
257045.797984
  20
386235.392624
  30
2.05789375232
  70
32
  0
VERTEX
  8
0
  10
257045.873319
  20
386256.206493
  30
-26.5681950453
  70
32
  0
VERTEX
  8
0
  10
257045.377511
  20
386280.653933
  30
-59.8811508875
  70
32
  0
VERTEX
  8
0
  10
257113.856975
  20
386256.048219
  30
-62.480034097
  70
32
  0
VERTEX
  8
0
  10
257147.94542
  20
386243.868766
  30
-63.8685607141
  70
32
  0
VERTEX
  8
0
  10
257183.822177
  20
386231.924055
  30
-66.5298641502
  70
32
  0
VERTEX
  8
0
  10
257191.194825
  20
386229.223248
  30
-66.7386575234
  70
32
  0
VERTEX
  8
0
  10
257221.268714
  20
386217.498012
  30
-66.6175165654
  70
32
  0
VERTEX
  8
0
  10
257243.726472
  20
386208.858453
  30
-66.6867722375
  70
32
  0
VERTEX
  8
0
  10
257290.527134
  20
386185.802941
  30
-59.8937472544
  70
32
  0
VERTEX
  8
0
  10
257299.796803
  20
386171.510461
  30
-45.1905301113
  70
32
  0
VERTEX
  8
0
  10
257317.671056
  20
386143.962063
  30
-16.8542708463
  70
32
  0
VERTEX
  8
0
  10
257334.163578
  20
386097.593182
  30
38.0646040383
  70
32
  0
VERTEX
  8
0
  10
257320.248176
  20
386088.685378
  30
57.6939021077
  70
32
  0
VERTEX
  8
0
  10
257231.536033
  20
386126.343487
  30
53.1188957176
  70
32
  0
VERTEX
  8
0
  10
257168.093269
  20
386145.770348
  30
60.1537835739
  70
32
  0
VERTEX
  8
0
  10
257128.73162
  20
386166.473199
  30
52.638548001
  70
32
  0
VERTEX
  8
0
  10
257120.216557
  20
386167.868308
  30
55.247728104
  70
32
  0
VERTEX
  8
0
  10
257091.227124
  20
386176.615956
  30
58.6397247812
  70
32
  0
VERTEX
  8
0
  10
257059.304431
  20
386190.069283
  30
57.1277290841
  70
32
  0
VERTEX
  8
0
  10
256922.129429
  20
386256.882311
  30
38.2660465598
  70
32
  0
VERTEX
  8
0
  10
256874.28317
  20
386277.398219
  30
35.516619974
  70
32
  0
VERTEX
  8
0
  10
256853.674248
  20
386286.44761
  30
34.0404611003
  70
32
  0
VERTEX
  8
0
  10
256804.187827
  20
386308.491514
  30
30.0641122436
  70
32
  0
SEQEND
  0
ENDSEC
  0
EOF
