  0
SECTION
  2
HEADER
  9
$ACADVER
  1
AC1021
  9
$HANDSEED
  5
1810000
  9
$EXTMIN
 10
256775
 20
-575
 30
0
  9
$EXTMAX
 10
257671.1
 20
251.2
 30
0
  9
$PEXTMIN
 10
0
 20
0
 30
0
  9
$PEXTMAX
 10
31.49927272727189
 20
29.04218181818182
 30
0
  0
ENDSEC
  0
SECTION
  2
CLASSES
  0
CLASS
  1
IMAGEDEF
  2
AcDbRasterImageDef
  3
ISM
 90
     0
 91
     1
280
     0
281
     0
  0
CLASS
  1
IMAGE
  2
AcDbRasterImage
  3
ISM
 90
     2175
 91
     1
280
     0
281
     1
  0
ENDSEC
  0
SECTION
  2
TABLES
  0
TABLE
  2
VPORT
  5
8
330
0
100
AcDbSymbolTable
 70
     3
  0
VPORT
  5
2F
330
8
100
AcDbSymbolTableRecord
100
AcDbViewportTableRecord
  2
*ACTIVE
 70
     0
 10
0.0
 20
0.0
 11
1.0
 21
1.0
 12
9.22892441860465
 22
4.5
 13
0.0
 23
0.0
 14
0.5
 24
0.5
 15
0.5
 25
0.5
 16
0.0
 26
0.0
 36
1.0
 17
0.0
 27
0.0
 37
0.0
 40
9.0
 41
2.050872093023255
 42
50.0
 43
0.0
 44
0.0
 50
0.0
 51
0.0
 71
     0
 72
   100
 73
     1
 74
     3
 75
     0
 76
     0
 77
     0
 78
     0
  0
ENDTAB
  0
TABLE
  2
LAYER
  5
2
330
0
100
AcDbSymbolTable
 70
     1
  0
LAYER
  5
10
330
2
100
AcDbSymbolTableRecord
100
AcDbLayerTableRecord
  2
0
 70
     0
 62
     7
  6
CONTINUOUS
390
4000004
  0
ENDTAB
  0
TABLE
  2
STYLE
  5
3
330
0
100
AcDbSymbolTable
 70
     1
  0
STYLE
  5
11
330
3
100
AcDbSymbolTableRecord
100
AcDbTextStyleTableRecord
  2
STANDARD
 70
     0
 40
0.0
 41
1.0
 50
0.0
 71
     0
 42
0.2
  3
txt
  4

  0
ENDTAB
  0
TABLE
  2
VIEW
  5
6
330
0
100
AcDbSymbolTable
 70
     0
  0
ENDTAB
  0
TABLE
  2
UCS
  5
7
330
0
100
AcDbSymbolTable
 70
     0
  0
ENDTAB
  0
TABLE
  2
APPID
  5
9
330
0
100
AcDbSymbolTable
 70
     1
  0
APPID
  5
12
330
9
100
AcDbSymbolTableRecord
100
AcDbRegAppTableRecord
  2
ACAD
 70
     0
  0
ENDTAB
  0
TABLE
  2
DIMSTYLE
  5
A
330
0
100
AcDbSymbolTable
 70
     1
100
AcDbDimStyleTable
 71
     0
  0
DIMSTYLE
105
27
330
A
100
AcDbSymbolTableRecord
100
AcDbDimStyleTableRecord
  2
STANDARD
 70
     0
  3

  4

  5

  6

  7

 40
1.0
 41
0.18
 42
0.0625
 43
0.38
 44
0.18
 45
0.0
 46
0.0
 47
0.0
 48
0.0
140
0.18
141
0.09
142
0.0
143
25.4
144
1.0
145
0.0
146
1.0
147
0.09
 71
     0
 72
     0
 73
     1
 74
     1
 75
     0
 76
     0
 77
     0
 78
     0
170
     0
171
     2
172
     0
173
     0
174
     0
175
     0
176
     0
177
     0
178
     0
270
     2
271
     4
272
     4
273
     2
274
     2
340
11
275
     0
280
     0
281
     0
282
     0
283
     1
284
     0
285
     0
286
     0
287
     3
288
     0
  0
ENDTAB
  0
TABLE
  2
BLOCK_RECORD
  5
1
330
0
100
AcDbSymbolTable
 70
     1
  0
BLOCK_RECORD
  5
1F
102
{ACAD_XDICTIONARY
360
52
102
}
330
1
100
AcDbSymbolTableRecord
100
AcDbBlockTableRecord
  2
*MODEL_SPACE
  0
BLOCK_RECORD
  5
1B
102
{ACAD_XDICTIONARY
360
50
102
}
330
1
100
AcDbSymbolTableRecord
100
AcDbBlockTableRecord
  2
*PAPER_SPACE
  0
ENDTAB
  0
TABLE
  2
LTYPE
  5
10000
100
AcDbSymbolTable
 70
1
  0
LTYPE
  5
10001
100
AcDbSymbolTableRecord
100
AcDbLinetypeTableRecord
  2
BYBLOCK
 70
0
  3

 72
65
 73
0
 40
0
  0
LTYPE
  5
10002
100
AcDbSymbolTableRecord
100
AcDbLinetypeTableRecord
  2
BYLAYER
 70
0
  3

 72
65
 73
0
 40
0
  0
LTYPE
  5
10003
100
AcDbSymbolTableRecord
100
AcDbLinetypeTableRecord
  2
CONTINUOUS
 70
64
  3
CONTINUOUS
 72
65
 73
0
 40
0
  0
ENDTAB
  0
ENDSEC
  0
SECTION
  2
BLOCKS
  0
BLOCK
  5
20
330
1F
100
AcDbEntity
  8
0
100
AcDbBlockBegin
  2
*MODEL_SPACE
 70
     0
 10
0.0
 20
0.0
 30
0.0
  3
*MODEL_SPACE
  1

  0
ENDBLK
  5
21
330
1F
100
AcDbEntity
  8
0
100
AcDbBlockEnd
  0
BLOCK
  5
1C
330
1B
100
AcDbEntity
 67
     1
  8
0
100
AcDbBlockBegin
  2
*PAPER_SPACE
 70
     0
 10
0.0
 20
0.0
 30
0.0
  3
*PAPER_SPACE
  1

  0
ENDBLK
  5
1D
330
1B
100
AcDbEntity
 67
     1
  8
0
100
AcDbBlockEnd
  0
ENDSEC
  0
SECTION
  2
ENTITIES
  0
LWPOLYLINE
  5
20000
100
AcDbEntity
100
AcDbPolyline
  8
Base_srk_outline_red_bln
  6
CONTINUOUS
420
16711680
 43
4.267241548875283
 90
111
 38
0
 70
128
 10
257539.8
 20
49.79999999999997
 30
0
 10
257539.7
 20
47.99999999999997
 30
0
 10
257506.2
 20
50.09999999999997
 30
0
 10
257506.5
 20
51.89999999999997
 30
0
 10
257539.8
 20
49.79999999999997
 30
0
 10
257240.1
 20
54.49999999999997
 30
0
 10
257246
 20
61.49999999999997
 30
0
 10
257181
 20
70.19999999999997
 30
0
 10
257133.4
 20
69.69999999999997
 30
0
 10
257085.8
 20
66.09999999999997
 30
0
 10
257027
 20
70.09999999999997
 30
0
 10
257027
 20
71.89999999999998
 30
0
 10
257086
 20
67.89999999999998
 30
0
 10
257133.6
 20
71.49999999999997
 30
0
 10
257181.2
 20
71.99999999999997
 30
0
 10
257247.5
 20
63.29999999999997
 30
0
 10
257335.5
 20
167.9
 30
0
 10
257337
 20
177.2
 30
0
 10
257337.1
 20
181.5
 30
0
 10
257256.7
 20
188.2
 30
0
 10
257210.4
 20
196.3
 30
0
 10
257172.1
 20
199.5
 30
0
 10
257122.6
 20
201.6
 30
0
 10
257106.5
 20
203.6
 30
0
 10
257054.2
 20
206.6
 30
0
 10
257007.9
 20
208.6
 30
0
 10
256952.9
 20
213.7
 30
0
 10
256933.6
 20
213.2
 30
0
 10
256881.1
 20
217.3
 30
0
 10
256859
 20
214.7
 30
0
 10
256860.2
 20
241.7
 30
0
 10
256840
 20
239.2
 30
0
 10
256816.3
 20
240.6
 30
0
 10
256775.7
 20
239.1
 30
0
 10
256776.1
 20
249.2
 30
0
 10
256816.6
 20
250.9
 30
0
 10
256847
 20
250.5
 30
0
 10
256880.6
 20
251.2
 30
0
 10
256881.1
 20
243.5
 30
0
 10
256895.1
 20
244.7
 30
0
 10
256909.8
 20
245
 30
0
 10
256926.1
 20
245.1
 30
0
 10
256931.4
 20
229.3
 30
0
 10
256959.4
 20
246.4
 30
0
 10
256992.2
 20
236.1
 30
0
 10
257017.8
 20
234.4
 30
0
 10
257017.9
 20
230.7
 30
0
 10
257043.1
 20
230.9
 30
0
 10
257050.8
 20
216.7
 30
0
 10
257056
 20
223.6
 30
0
 10
257069.9
 20
224.1
 30
0
 10
257108.7
 20
222.6
 30
0
 10
257124.2
 20
222.1
 30
0
 10
257124.8
 20
203.4
 30
0
 10
257207.8
 20
202.9
 30
0
 10
257231.5
 20
201.5
 30
0
 10
257265
 20
197.6
 30
0
 10
257341
 20
197.4
 30
0
 10
257346.9
 20
210.8
 30
0
 10
257380.8
 20
211.6
 30
0
 10
257372.4
 20
194
 30
0
 10
257460.7
 20
196.9
 30
0
 10
257490.4
 20
196.7
 30
0
 10
257491
 20
196.3
 30
0
 10
257490.3
 20
179.3
 30
0
 10
257520.4
 20
179.2
 30
0
 10
257549.3
 20
180.4
 30
0
 10
257615.9
 20
181.4
 30
0
 10
257615.1
 20
165.1
 30
0
 10
257573.8
 20
164.4
 30
0
 10
257569.4
 20
135.8
 30
0
 10
257562.2
 20
135.9
 30
0
 10
257547.9
 20
135.1
 30
0
 10
257540.8
 20
131
 30
0
 10
257520.2
 20
128.9
 30
0
 10
257495.8
 20
130.5
 30
0
 10
257496.4
 20
144.9
 30
0
 10
257476.9
 20
144
 30
0
 10
257477.6
 20
161.5
 30
0
 10
257382.8
 20
159.2
 30
0
 10
257369
 20
159.9
 30
0
 10
257368.3
 20
142.7
 30
0
 10
257357.7
 20
143.4
 30
0
 10
257357.3
 20
125.9
 30
0
 10
257346.5
 20
126.7
 30
0
 10
257346.8
 20
108.3
 30
0
 10
257336.6
 20
108.6
 30
0
 10
257317.7
 20
107.3
 30
0
 10
257317.1
 20
90.09999999999997
 30
0
 10
257297
 20
90.29999999999997
 30
0
 10
257296.6
 20
72.59999999999997
 30
0
 10
257286.2
 20
72.99999999999997
 30
0
 10
257286.1
 20
51.29999999999997
 30
0
 10
257269.2
 20
50.99999999999997
 30
0
 10
257210.4
 20
-24.80000000000003
 30
0
 10
257177.5
 20
-27.40000000000003
 30
0
 10
257146.8
 20
-74.70000000000003
 30
0
 10
257104.2
 20
-123.2
 30
0
 10
256991
 20
-125.2
 30
0
 10
256947.5
 20
-183.1
 30
0
 10
256904
 20
-183.8
 30
0
 10
256992.9
 20
-87.80000000000003
 30
0
 10
257087.9
 20
-85.30000000000003
 30
0
 10
257094.7
 20
-84.40000000000003
 30
0
 10
257097.1
 20
-51.10000000000003
 30
0
 10
257104
 20
-50.60000000000003
 30
0
 10
257104.8
 20
-36.00000000000003
 30
0
 10
257136
 20
-35.40000000000003
 30
0
 10
257141.6
 20
-13.80000000000003
 30
0
 10
257194
 20
-0.3000000000000284
 30
0
 10
257240.1
 20
54.49999999999997
 30
0
  0
LWPOLYLINE
  5
20001
100
AcDbEntity
100
AcDbPolyline
  8
Base_srk_outline_green_bln
  6
CONTINUOUS
420
65280
 43
1.991379318823075
 90
65
 38
0
 70
128
 10
256911.7
 20
8.799999999999972
 30
0
 10
256912
 20
26.49999999999997
 30
0
 10
256919.2
 20
26.89999999999997
 30
0
 10
256919.7
 20
48.89999999999997
 30
0
 10
257240.1
 20
54.49999999999997
 30
0
 10
257194
 20
-0.3000000000000284
 30
0
 10
257141.6
 20
-13.80000000000003
 30
0
 10
257136
 20
-35.40000000000003
 30
0
 10
257104.8
 20
-36.00000000000003
 30
0
 10
257104.9
 20
-33.50000000000003
 30
0
 10
257118.9
 20
-32.40000000000003
 30
0
 10
257120.9
 20
-9.500000000000028
 30
0
 10
257098.7
 20
-9.800000000000029
 30
0
 10
257098.4
 20
-13.10000000000003
 30
0
 10
257060.8
 20
-13.00000000000003
 30
0
 10
257037.7
 20
-8.700000000000028
 30
0
 10
257014.9
 20
-4.700000000000029
 30
0
 10
257007.1
 20
9.999999999999972
 30
0
 10
257006.2
 20
25.29999999999997
 30
0
 10
256963.9
 20
30.69999999999997
 30
0
 10
256964
 20
12.49999999999997
 30
0
 10
256926.5
 20
12.49999999999997
 30
0
 10
256926
 20
-4.900000000000029
 30
0
 10
256904
 20
-5.400000000000029
 30
0
 10
256904.4
 20
8.699999999999971
 30
0
 10
256911.7
 20
8.799999999999972
 30
0
 10
257300.6
 20
-43.00000000000003
 30
0
 10
257221
 20
-44.30000000000003
 30
0
 10
257165.2
 20
-122.2
 30
0
 10
257158.2
 20
-167.7
 30
0
 10
257143.9
 20
-167.3
 30
0
 10
257099.2
 20
-167.6
 30
0
 10
257101.1
 20
-123.3
 30
0
 10
257104.2
 20
-123.2
 30
0
 10
257146.8
 20
-74.70000000000003
 30
0
 10
257177.5
 20
-27.40000000000003
 30
0
 10
257210.4
 20
-24.80000000000003
 30
0
 10
257269.2
 20
50.99999999999997
 30
0
 10
257336.9
 20
52.19999999999997
 30
0
 10
257329.1
 20
1.999999999999972
 30
0
 10
257405.4
 20
3.299999999999971
 30
0
 10
257412.6
 20
50.49999999999997
 30
0
 10
257452.9
 20
51.19999999999997
 30
0
 10
257444
 20
-6.700000000000029
 30
0
 10
257483.9
 20
-6.000000000000028
 30
0
 10
257473.1
 20
-76.20000000000003
 30
0
 10
257506.5
 20
-75.70000000000003
 30
0
 10
257495.8
 20
-145.6
 30
0
 10
257496.3
 20
-173.5
 30
0
 10
257394
 20
-175.3
 30
0
 10
257394.6
 20
-152.9
 30
0
 10
257386.9
 20
-152.6
 30
0
 10
257387.1
 20
-134.9
 30
0
 10
257286.4
 20
-135.6
 30
0
 10
257300.6
 20
-43.00000000000003
 30
0
 10
257566.4
 20
-59.80000000000003
 30
0
 10
257534.9
 20
-60.30000000000003
 30
0
 10
257546.7
 20
15.89999999999997
 30
0
 10
257578
 20
16.19999999999997
 30
0
 10
257566.4
 20
-59.80000000000003
 30
0
 10
257383.7
 20
-38.10000000000003
 30
0
 10
257444.5
 20
-37.30000000000003
 30
0
 10
257435.3
 20
-96.60000000000002
 30
0
 10
257374.6
 20
-97.40000000000003
 30
0
 10
257383.7
 20
-38.10000000000003
 30
0
  0
LWPOLYLINE
  5
20002
100
AcDbEntity
100
AcDbPolyline
  8
Base_srk_outline_pink_bln
  6
CONTINUOUS
420
16711935
 43
1.706896513572027
 90
68
 38
0
 70
128
 10
256775.7
 20
239.1
 30
0
 10
256816.3
 20
240.6
 30
0
 10
256840
 20
239.2
 30
0
 10
256860.2
 20
241.7
 30
0
 10
256859
 20
214.7
 30
0
 10
256838.9
 20
212.2
 30
0
 10
256821.3
 20
213.5
 30
0
 10
256788.1
 20
213.2
 30
0
 10
256776.3
 20
212.3
 30
0
 10
256775
 20
220.9
 30
0
 10
256775.7
 20
239.1
 30
0
 10
257286.2
 20
72.99999999999997
 30
0
 10
257296.6
 20
72.59999999999997
 30
0
 10
257296.9
 20
90.29999999999997
 30
0
 10
257317.1
 20
90.09999999999997
 30
0
 10
257317.7
 20
107.3
 30
0
 10
257336.6
 20
108.6
 30
0
 10
257346.8
 20
108.3
 30
0
 10
257346.5
 20
126.7
 30
0
 10
257357.3
 20
125.9
 30
0
 10
257357.7
 20
143.4
 30
0
 10
257368.3
 20
142.7
 30
0
 10
257369
 20
159.9
 30
0
 10
257382.8
 20
159.2
 30
0
 10
257448.1
 20
160.9
 30
0
 10
257477.6
 20
161.5
 30
0
 10
257476.9
 20
144
 30
0
 10
257496.4
 20
144.9
 30
0
 10
257495.8
 20
130.5
 30
0
 10
257520.2
 20
128.9
 30
0
 10
257509.4
 20
70.99999999999997
 30
0
 10
257502.8
 20
27.99999999999997
 30
0
 10
257548.7
 20
28.79999999999997
 30
0
 10
257534.9
 20
-60.30000000000003
 30
0
 10
257566.4
 20
-59.80000000000003
 30
0
 10
257579.3
 20
24.49999999999997
 30
0
 10
257617.7
 20
25.09999999999997
 30
0
 10
257621.2
 20
6.599999999999971
 30
0
 10
257619.3
 20
-75.70000000000003
 30
0
 10
257608.3
 20
-93.20000000000003
 30
0
 10
257572
 20
-144.3
 30
0
 10
257495.8
 20
-145.6
 30
0
 10
257506.5
 20
-75.70000000000003
 30
0
 10
257473.1
 20
-76.20000000000003
 30
0
 10
257483.9
 20
-6.000000000000028
 30
0
 10
257444
 20
-6.700000000000029
 30
0
 10
257452.9
 20
51.19999999999997
 30
0
 10
257412.6
 20
50.49999999999997
 30
0
 10
257405.4
 20
3.299999999999971
 30
0
 10
257329.1
 20
1.999999999999972
 30
0
 10
257336.9
 20
52.19999999999997
 30
0
 10
257286.1
 20
51.29999999999997
 30
0
 10
257286.2
 20
72.99999999999997
 30
0
 10
257383.7
 20
-38.10000000000003
 30
0
 10
257444.5
 20
-37.30000000000003
 30
0
 10
257435.3
 20
-96.60000000000002
 30
0
 10
257374.6
 20
-97.40000000000003
 30
0
 10
257383.7
 20
-38.10000000000003
 30
0
 10
257383.7
 20
-38.10000000000003
 30
0
 10
257444.5
 20
-37.30000000000003
 30
0
 10
257435.3
 20
-96.60000000000002
 30
0
 10
257374.6
 20
-97.40000000000003
 30
0
 10
257383.7
 20
-38.10000000000003
 30
0
 10
257383.7
 20
-38.10000000000003
 30
0
 10
257444.5
 20
-37.30000000000003
 30
0
 10
257435.3
 20
-96.60000000000002
 30
0
 10
257374.6
 20
-97.40000000000003
 30
0
 10
257383.7
 20
-38.10000000000003
 30
0
  0
LWPOLYLINE
  5
20003
100
AcDbEntity
100
AcDbPolyline
  8
Base_srk_outline_yellow_bln
  6
CONTINUOUS
420
16776960
 43
2.275862018096036
 90
83
 38
0
 70
128
 10
257158.2
 20
-167.7
 30
0
 10
257165.2
 20
-122.2
 30
0
 10
257221
 20
-44.30000000000003
 30
0
 10
257300.6
 20
-43.00000000000003
 30
0
 10
257286.4
 20
-135.6
 30
0
 10
257252.9
 20
-135.7
 30
0
 10
257213.4
 20
-133.6
 30
0
 10
257214.7
 20
-171
 30
0
 10
257158.2
 20
-167.7
 30
0
 10
257509.4
 20
70.99999999999997
 30
0
 10
257540
 20
70.69999999999997
 30
0
 10
257540.4
 20
63.09999999999997
 30
0
 10
257539.8
 20
49.79999999999997
 30
0
 10
257506.5
 20
51.89999999999997
 30
0
 10
257509.4
 20
70.99999999999997
 30
0
 10
257538.4
 20
28.69999999999997
 30
0
 10
257502.8
 20
27.99999999999997
 30
0
 10
257506.2
 20
50.09999999999997
 30
0
 10
257539.7
 20
47.99999999999997
 30
0
 10
257538.4
 20
28.69999999999997
 30
0
 10
257181
 20
70.19999999999997
 30
0
 10
257246
 20
61.49999999999997
 30
0
 10
257240.1
 20
54.49999999999997
 30
0
 10
256919.7
 20
48.89999999999997
 30
0
 10
256919.8
 20
51.29999999999997
 30
0
 10
256934.7
 20
58.59999999999997
 30
0
 10
256949.6
 20
62.49999999999997
 30
0
 10
257002.7
 20
61.79999999999997
 30
0
 10
257027.4
 20
59.19999999999997
 30
0
 10
257027
 20
70.09999999999997
 30
0
 10
257085.8
 20
66.09999999999997
 30
0
 10
257133.4
 20
69.69999999999997
 30
0
 10
257181
 20
70.19999999999997
 30
0
 10
257573.8
 20
164.4
 30
0
 10
257615.1
 20
165.1
 30
0
 10
257614.6
 20
150.4
 30
0
 10
257607.3
 20
139.4
 30
0
 10
257600
 20
135.5
 30
0
 10
257569.4
 20
135.8
 30
0
 10
257573.8
 20
164.4
 30
0
 10
257027.2
 20
77.59999999999997
 30
0
 10
257034.8
 20
77.49999999999997
 30
0
 10
257034
 20
96.29999999999997
 30
0
 10
257065.6
 20
94.49999999999997
 30
0
 10
257064.5
 20
120.8
 30
0
 10
257057.1
 20
120.7
 30
0
 10
257057.7
 20
134.7
 30
0
 10
257042.7
 20
134.4
 30
0
 10
257043.3
 20
151.8
 30
0
 10
256987.9
 20
155.1
 30
0
 10
256987.9
 20
147.9
 30
0
 10
256934.7
 20
112.7
 30
0
 10
256911.8
 20
102.3
 30
0
 10
256845.1
 20
101.4
 30
0
 10
256845.3
 20
119.1
 30
0
 10
256801.3
 20
118
 30
0
 10
256797.7
 20
117.8
 30
0
 10
256784.3
 20
161.5
 30
0
 10
256782.7
 20
172.6
 30
0
 10
256777.2
 20
207
 30
0
 10
256776.3
 20
212.3
 30
0
 10
256788.1
 20
213.2
 30
0
 10
256820.2
 20
213.6
 30
0
 10
256838.9
 20
212.2
 30
0
 10
256881.1
 20
217.3
 30
0
 10
256933.6
 20
213.2
 30
0
 10
256952.9
 20
213.7
 30
0
 10
257007.9
 20
208.6
 30
0
 10
257054.2
 20
206.6
 30
0
 10
257106.5
 20
203.6
 30
0
 10
257122.6
 20
201.6
 30
0
 10
257172.1
 20
199.5
 30
0
 10
257210.4
 20
196.3
 30
0
 10
257256.7
 20
188.2
 30
0
 10
257337.1
 20
181.5
 30
0
 10
257337
 20
177.2
 30
0
 10
257335.5
 20
167.9
 30
0
 10
257247.5
 20
63.29999999999997
 30
0
 10
257181.2
 20
71.99999999999997
 30
0
 10
257133.6
 20
71.49999999999997
 30
0
 10
257086
 20
67.89999999999998
 30
0
 10
257027
 20
71.89999999999998
 30
0
 10
257027.2
 20
77.59999999999997
 30
0
  0
ENDSEC
  0
SECTION
  2
OBJECTS
  0
DICTIONARY
  5
C
330
0
100
AcDbDictionary
  3
ACAD_GROUP
350
D
  3
ACAD_MLINESTYLE
350
17
  3
ACAD_PLOTSETTINGS
350
19
  3
ACAD_LAYOUT
350
1A
  3
ACDBVARIABLEDICTIONARY
350
2C
  3
ACDBHEADERROUNDTRIPXREC
350
30
  0
DICTIONARY
  5
52
330
1F
100
AcDbDictionary
280
     1
  3
ACAD_LAYOUTSELFREF
360
53
  0
DICTIONARY
  5
50
330
1B
100
AcDbDictionary
280
     1
  3
ACAD_LAYOUTSELFREF
360
51
  0
DICTIONARY
  5
D
102
{ACAD_REACTORS
330
C
102
}
330
C
100
AcDbDictionary
  0
DICTIONARY
  5
17
102
{ACAD_REACTORS
330
C
102
}
330
C
100
AcDbDictionary
  3
STANDARD
350
18
  0
DICTIONARY
  5
19
102
{ACAD_REACTORS
330
C
102
}
330
C
100
AcDbDictionary
  0
DICTIONARY
  5
1A
102
{ACAD_REACTORS
330
C
102
}
330
C
100
AcDbDictionary
  0
DICTIONARY
  5
2C
102
{ACAD_REACTORS
330
C
102
}
330
C
100
AcDbDictionary
  3
SORTENTS
350
2D
  0
DICTIONARY
  5
30
102
{ACAD_REACTORS
330
C
102
}
330
C
100
AcDbDictionary
  3
TSTACKALIGN
350
31
  3
TSTACKSIZE
350
32
  3
HYPERLINKBASE
350
33
  3
STYLESHEET
350
34
  3
LAYOUTDICT
350
35
  3
PLOTSETDICT
350
36
  3
PLOTSTYLNAMDICT
350
37
  3
LWETCUNION
350
38
  3
INSUNITS
350
39
  3
CEPSNTYPE
350
3A
  3
FINGERPRINTGUID
350
3B
  3
VERSIONGUID
350
3C
  3
PSVPSCALE
350
3D
  3
PUCSORTHOREF
350
3E
  3
PUCSORTHOVIEW
350
3F
  3
PUCSBASE
350
40
  3
PUCSORGTOP
350
41
  3
PUCSORGBOTTOM
350
42
  3
PUCSORGLEFT
350
43
  3
PUCSORGRIGHT
350
44
  3
PUCSORGFRONT
350
45
  3
PUCSORGBACK
350
46
  3
UCSORTHOREF
350
47
  3
UCSORTHOVIEW
350
48
  3
UCSBASE
350
49
  3
UCSORGTOP
350
4A
  3
UCSORGBOTTOM
350
4B
  3
UCSORGLEFT
350
4C
  3
UCSORGRIGHT
350
4D
  3
UCSORGFRONT
350
4E
  3
UCSORGBACK
350
4F
  0
XRECORD
  5
53
102
{ACAD_REACTORS
330
52
102
}
330
52
100
AcDbXrecord
340
1F
  0
XRECORD
  5
51
102
{ACAD_REACTORS
330
50
102
}
330
50
100
AcDbXrecord
340
1B
  0
MLINESTYLE
  5
18
102
{ACAD_REACTORS
330
17
102
}
330
17
100
AcDbMlineStyle
  2
STANDARD
 70
     0
  3

 62
   256
 51
90.0
 52
90.0
 71
     2
 49
0.5
 62
   256
  6
BYLAYER
 49
-0.5
 62
   256
  6
BYLAYER
  0
DICTIONARYVAR
  5
2D
102
{ACAD_REACTORS
330
2C
102
}
330
2C
100
DictionaryVariables
280
     0
  1
127
  0
XRECORD
  5
31
102
{ACAD_REACTORS
330
30
102
}
330
30
100
AcDbXrecord
 90
        1
  0
XRECORD
  5
32
102
{ACAD_REACTORS
330
30
102
}
330
30
100
AcDbXrecord
 90
       70
  0
XRECORD
  5
33
102
{ACAD_REACTORS
330
30
102
}
330
30
100
AcDbXrecord
  1

  0
XRECORD
  5
34
102
{ACAD_REACTORS
330
30
102
}
330
30
100
AcDbXrecord
  1

  0
XRECORD
  5
35
102
{ACAD_REACTORS
330
30
102
}
330
30
100
AcDbXrecord
340
1A
  0
XRECORD
  5
36
102
{ACAD_REACTORS
330
30
102
}
330
30
100
AcDbXrecord
340
19
  0
XRECORD
  5
37
102
{ACAD_REACTORS
330
30
102
}
330
30
100
AcDbXrecord
340
E
  0
XRECORD
  5
38
102
{ACAD_REACTORS
330
30
102
}
330
30
100
AcDbXrecord
 90
    10781
  0
XRECORD
  5
39
102
{ACAD_REACTORS
330
30
102
}
330
30
100
AcDbXrecord
 90
        1
  0
XRECORD
  5
3A
102
{ACAD_REACTORS
330
30
102
}
330
30
100
AcDbXrecord
 90
        0
  0
XRECORD
  5
3B
102
{ACAD_REACTORS
330
30
102
}
330
30
100
AcDbXrecord
  1
{05DB923C-A77A-4D98-BEAE-5B8B8A44788A}
  0
XRECORD
  5
3C
102
{ACAD_REACTORS
330
30
102
}
330
30
100
AcDbXrecord
  1
{D64795F3-22EB-40D3-A2F7-433F47AAFA2C}
  0
XRECORD
  5
3D
102
{ACAD_REACTORS
330
30
102
}
330
30
100
AcDbXrecord
 40
0.0
  0
XRECORD
  5
3E
102
{ACAD_REACTORS
330
30
102
}
330
30
100
AcDbXrecord
340
0
  0
XRECORD
  5
3F
102
{ACAD_REACTORS
330
30
102
}
330
30
100
AcDbXrecord
 70
     0
  0
XRECORD
  5
40
102
{ACAD_REACTORS
330
30
102
}
330
30
100
AcDbXrecord
340
0
  0
XRECORD
  5
41
102
{ACAD_REACTORS
330
30
102
}
330
30
100
AcDbXrecord
 10
0.0
 20
0.0
 30
0.0
  0
XRECORD
  5
42
102
{ACAD_REACTORS
330
30
102
}
330
30
100
AcDbXrecord
 10
0.0
 20
0.0
 30
0.0
  0
XRECORD
  5
43
102
{ACAD_REACTORS
330
30
102
}
330
30
100
AcDbXrecord
 10
0.0
 20
0.0
 30
0.0
  0
XRECORD
  5
44
102
{ACAD_REACTORS
330
30
102
}
330
30
100
AcDbXrecord
 10
0.0
 20
0.0
 30
0.0
  0
XRECORD
  5
45
102
{ACAD_REACTORS
330
30
102
}
330
30
100
AcDbXrecord
 10
0.0
 20
0.0
 30
0.0
  0
XRECORD
  5
46
102
{ACAD_REACTORS
330
30
102
}
330
30
100
AcDbXrecord
 10
0.0
 20
0.0
 30
0.0
  0
XRECORD
  5
47
102
{ACAD_REACTORS
330
30
102
}
330
30
100
AcDbXrecord
340
0
  0
XRECORD
  5
48
102
{ACAD_REACTORS
330
30
102
}
330
30
100
AcDbXrecord
 70
     0
  0
XRECORD
  5
49
102
{ACAD_REACTORS
330
30
102
}
330
30
100
AcDbXrecord
340
0
  0
XRECORD
  5
4A
102
{ACAD_REACTORS
330
30
102
}
330
30
100
AcDbXrecord
 10
0.0
 20
0.0
 30
0.0
  0
XRECORD
  5
4B
102
{ACAD_REACTORS
330
30
102
}
330
30
100
AcDbXrecord
 10
0.0
 20
0.0
 30
0.0
  0
XRECORD
  5
4C
102
{ACAD_REACTORS
330
30
102
}
330
30
100
AcDbXrecord
 10
0.0
 20
0.0
 30
0.0
  0
XRECORD
  5
4D
102
{ACAD_REACTORS
330
30
102
}
330
30
100
AcDbXrecord
 10
0.0
 20
0.0
 30
0.0
  0
XRECORD
  5
4E
102
{ACAD_REACTORS
330
30
102
}
330
30
100
AcDbXrecord
 10
0.0
 20
0.0
 30
0.0
  0
XRECORD
  5
4F
102
{ACAD_REACTORS
330
30
102
}
330
30
100
AcDbXrecord
 10
0.0
 20
0.0
 30
0.0
  0
ENDSEC
  0
EOF
