  999
DXF Polyline File Exported from Leapfrog Geo
  0
SECTION
  2
ENTITIES
  0
POLYLINE
  8
0
  66
1
  70
8
  0
VERTEX
  8
0
  10
257670.394567
  20
386142.929905
  30
239.055713977
  70
32
  0
VERTEX
  8
0
  10
257629.840398
  20
386154.528723
  30
240.569834672
  70
32
  0
VERTEX
  8
0
  10
257606.075737
  20
386162.979856
  30
239.157794923
  70
32
  0
VERTEX
  8
0
  10
257585.868594
  20
386167.46021
  30
241.717851447
  70
32
  0
VERTEX
  8
0
  10
257587.11932
  20
386186.540464
  30
214.653470123
  70
32
  0
VERTEX
  8
0
  10
257607.201655
  20
386181.993567
  30
212.240179148
  70
32
  0
VERTEX
  8
0
  10
257624.771244
  20
386175.584564
  30
213.507831075
  70
32
  0
VERTEX
  8
0
  10
257658.006045
  20
386165.385764
  30
213.230743562
  70
32
  0
VERTEX
  8
0
  10
257669.751268
  20
386162.412897
  30
212.255206067
  70
32
  0
VERTEX
  8
0
  10
257671.109015
  20
386155.772189
  30
220.894970709
  70
32
  0
VERTEX
  8
0
  10
257670.394567
  20
386142.929905
  30
239.055713977
  70
32
  0
SEQEND
  0
POLYLINE
  8
0
  66
1
  70
8
  0
VERTEX
  8
0
  10
257159.871881
  20
386422.110165
  30
73.0223082658
  70
32
  0
VERTEX
  8
0
  10
257149.499735
  20
386425.654236
  30
72.6067932586
  70
32
  0
VERTEX
  8
0
  10
257149.245217
  20
386412.988154
  30
90.3226149081
  70
32
  0
VERTEX
  8
0
  10
257129.007707
  20
386419.510642
  30
90.0574264297
  70
32
  0
VERTEX
  8
0
  10
257128.361789
  20
386407.281427
  30
107.336236265
  70
32
  0
VERTEX
  8
0
  10
257109.501144
  20
386412.267107
  30
108.608366286
  70
32
  0
VERTEX
  8
0
  10
257099.253971
  20
386415.671687
  30
108.33238891
  70
32
  0
VERTEX
  8
0
  10
257099.56473
  20
386402.374663
  30
126.67936246
  70
32
  0
VERTEX
  8
0
  10
257088.830337
  20
386406.32306
  30
125.859386857
  70
32
  0
VERTEX
  8
0
  10
257088.383515
  20
386393.871621
  30
143.360494346
  70
32
  0
VERTEX
  8
0
  10
257077.812663
  20
386397.63748
  30
142.723117305
  70
32
  0
VERTEX
  8
0
  10
257077.104124
  20
386385.478161
  30
159.932008512
  70
32
  0
VERTEX
  8
0
  10
257063.292005
  20
386390.290591
  30
159.249488556
  70
32
  0
VERTEX
  8
0
  10
256997.970257
  20
386409.540964
  30
160.899076849
  70
32
  0
VERTEX
  8
0
  10
256968.472256
  20
386418.366732
  30
161.459576632
  70
32
  0
VERTEX
  8
0
  10
256969.177081
  20
386430.71485
  30
143.989881281
  70
32
  0
VERTEX
  8
0
  10
256949.7396
  20
386436.159721
  30
144.874610746
  70
32
  0
VERTEX
  8
0
  10
256950.267152
  20
386446.362777
  30
130.463521819
  70
32
  0
VERTEX
  8
0
  10
256925.947888
  20
386455.073182
  30
128.932288486
  70
32
  0
VERTEX
  8
0
  10
256936.705899
  20
386493.401525
  30
70.9797082064
  70
32
  0
VERTEX
  8
0
  10
256943.309737
  20
386522.227938
  30
28.0408035418
  70
32
  0
VERTEX
  8
0
  10
256897.444173
  20
386536.005984
  30
28.8356915327
  70
32
  0
VERTEX
  8
0
  10
256911.156559
  20
386595.861919
  30
-60.3237989507
  70
32
  0
VERTEX
  8
0
  10
256879.735342
  20
386605.300874
  30
-59.7792433908
  70
32
  0
VERTEX
  8
0
  10
256866.781099
  20
386548.754308
  30
24.4507153433
  70
32
  0
VERTEX
  8
0
  10
256828.437761
  20
386560.272672
  30
25.1152369689
  70
32
  0
VERTEX
  8
0
  10
256824.86234
  20
386574.716243
  30
6.59433379555
  70
32
  0
VERTEX
  8
0
  10
256826.805718
  20
386633.346749
  30
-75.7438795903
  70
32
  0
VERTEX
  8
0
  10
256837.792665
  20
386642.434211
  30
-93.1528423607
  70
32
  0
VERTEX
  8
0
  10
256874.135172
  20
386667.877437
  30
-144.321785861
  70
32
  0
VERTEX
  8
0
  10
256950.332939
  20
386644.987577
  30
-145.64235591
  70
32
  0
VERTEX
  8
0
  10
256939.571516
  20
386598.012891
  30
-75.6703633477
  70
32
  0
VERTEX
  8
0
  10
256972.993156
  20
386587.973008
  30
-76.2495878819
  70
32
  0
VERTEX
  8
0
  10
256962.188286
  20
386540.808673
  30
-5.99509962197
  70
32
  0
VERTEX
  8
0
  10
257002.088998
  20
386528.822473
  30
-6.68661180476
  70
32
  0
VERTEX
  8
0
  10
256993.179813
  20
386489.93299
  30
51.241919686
  70
32
  0
VERTEX
  8
0
  10
257033.479175
  20
386477.827035
  30
50.5434985572
  70
32
  0
VERTEX
  8
0
  10
257040.741329
  20
386509.527063
  30
3.32414921682
  70
32
  0
VERTEX
  8
0
  10
257116.95131
  20
386486.633534
  30
2.00336748727
  70
32
  0
VERTEX
  8
0
  10
257109.227896
  20
386452.92006
  30
52.2218826912
  70
32
  0
VERTEX
  8
0
  10
257160.020114
  20
386437.662044
  30
51.3416117316
  70
32
  0
VERTEX
  8
0
  10
257159.871881
  20
386422.110165
  30
73.0223082658
  70
32
  0
SEQEND
  0
POLYLINE
  8
0
  66
1
  70
8
  0
VERTEX
  8
0
  10
257062.410566
  20
386532.544456
  30
-38.0920472522
  70
32
  0
VERTEX
  8
0
  10
257001.643353
  20
386550.959809
  30
-37.2624623802
  70
32
  0
VERTEX
  8
0
  10
257010.778365
  20
386590.759265
  30
-96.5540121519
  70
32
  0
VERTEX
  8
0
  10
257071.545578
  20
386572.343913
  30
-97.3835970239
  70
32
  0
VERTEX
  8
0
  10
257062.410566
  20
386532.544456
  30
-38.0920472522
  70
32
  0
SEQEND
  0
POLYLINE
  8
0
  66
1
  70
8
  0
VERTEX
  8
0
  10
257062.410566
  20
386532.544456
  30
-38.0920472522
  70
32
  0
VERTEX
  8
0
  10
257001.643353
  20
386550.959809
  30
-37.2624623802
  70
32
  0
VERTEX
  8
0
  10
257010.778365
  20
386590.759265
  30
-96.5540121519
  70
32
  0
VERTEX
  8
0
  10
257071.545578
  20
386572.343913
  30
-97.3835970239
  70
32
  0
VERTEX
  8
0
  10
257062.410566
  20
386532.544456
  30
-38.0920472522
  70
32
  0
SEQEND
  0
POLYLINE
  8
0
  66
1
  70
8
  0
VERTEX
  8
0
  10
257062.410566
  20
386532.544456
  30
-38.0920472522
  70
32
  0
VERTEX
  8
0
  10
257001.643353
  20
386550.959809
  30
-37.2624623802
  70
32
  0
VERTEX
  8
0
  10
257010.778365
  20
386590.759265
  30
-96.5540121518
  70
32
  0
VERTEX
  8
0
  10
257071.545578
  20
386572.343913
  30
-97.3835970238
  70
32
  0
VERTEX
  8
0
  10
257062.410566
  20
386532.544456
  30
-38.0920472522
  70
32
  0
SEQEND
  0
ENDSEC
  0
EOF
