  999
DXF Polyline File Exported from Leapfrog Geo
  0
SECTION
  2
ENTITIES
  0
POLYLINE
  8
0
  66
1
  70
8
  0
VERTEX
  8
0
  10
257287.869121
  20
386555.225362
  30
-167.662569343
  70
32
  0
VERTEX
  8
0
  10
257280.872776
  20
386524.685617
  30
-122.171540338
  70
32
  0
VERTEX
  8
0
  10
257225.121155
  20
386486.134853
  30
-44.3434008493
  70
32
  0
VERTEX
  8
0
  10
257145.479361
  20
386510.059301
  30
-42.9631429867
  70
32
  0
VERTEX
  8
0
  10
257159.724786
  20
386572.242002
  30
-135.588508906
  70
32
  0
VERTEX
  8
0
  10
257193.211776
  20
386561.880169
  30
-135.748660557
  70
32
  0
VERTEX
  8
0
  10
257232.671003
  20
386547.960746
  30
-133.561113303
  70
32
  0
VERTEX
  8
0
  10
257231.371889
  20
386575.311103
  30
-171.011620239
  70
32
  0
VERTEX
  8
0
  10
257287.869121
  20
386555.225362
  30
-167.662569343
  70
32
  0
SEQEND
  0
POLYLINE
  8
0
  66
1
  70
8
  0
VERTEX
  8
0
  10
256936.705899
  20
386493.401525
  30
70.9797082064
  70
32
  0
VERTEX
  8
0
  10
256906.055542
  20
386503.178861
  30
70.7187076043
  70
32
  0
VERTEX
  8
0
  10
256905.710619
  20
386508.780179
  30
63.0831887383
  70
32
  0
VERTEX
  8
0
  10
256906.34298
  20
386518.128596
  30
49.8144211422
  70
32
  0
VERTEX
  8
0
  10
256939.644366
  20
386506.228226
  30
51.8734641347
  70
32
  0
VERTEX
  8
0
  10
256936.705899
  20
386493.401525
  30
70.9797082064
  70
32
  0
SEQEND
  0
POLYLINE
  8
0
  66
1
  70
8
  0
VERTEX
  8
0
  10
256907.749314
  20
386532.910313
  30
28.6570949515
  70
32
  0
VERTEX
  8
0
  10
256943.309737
  20
386522.227938
  30
28.0408035418
  70
32
  0
VERTEX
  8
0
  10
256939.914916
  20
386507.409205
  30
50.1143158644
  70
32
  0
VERTEX
  8
0
  10
256906.410146
  20
386519.382255
  30
48.0426975513
  70
32
  0
VERTEX
  8
0
  10
256907.749314
  20
386532.910313
  30
28.6570949515
  70
32
  0
SEQEND
  0
POLYLINE
  8
0
  66
1
  70
8
  0
VERTEX
  8
0
  10
257265.128701
  20
386391.196648
  30
70.2172361687
  70
32
  0
VERTEX
  8
0
  10
257200.075497
  20
386417.804587
  30
61.523439773
  70
32
  0
VERTEX
  8
0
  10
257206.02897
  20
386421.02976
  30
54.4516394803
  70
32
  0
VERTEX
  8
0
  10
257526.364243
  20
386324.800832
  30
48.8999654346
  70
32
  0
VERTEX
  8
0
  10
257526.304562
  20
386323.071908
  30
51.3290261929
  70
32
  0
VERTEX
  8
0
  10
257511.363229
  20
386322.48314
  30
58.6449300775
  70
32
  0
VERTEX
  8
0
  10
257496.53813
  20
386324.3728
  30
62.4654124404
  70
32
  0
VERTEX
  8
0
  10
257443.415574
  20
386341.493318
  30
61.7703063329
  70
32
  0
VERTEX
  8
0
  10
257418.652163
  20
386351.059219
  30
59.2431274609
  70
32
  0
VERTEX
  8
0
  10
257419.118957
  20
386343.097505
  30
70.1064653155
  70
32
  0
VERTEX
  8
0
  10
257360.33318
  20
386364.367764
  30
66.1062229521
  70
32
  0
VERTEX
  8
0
  10
257312.724585
  20
386376.664804
  30
69.7176192521
  70
32
  0
VERTEX
  8
0
  10
257265.128701
  20
386391.196648
  30
70.2172361687
  70
32
  0
SEQEND
  0
POLYLINE
  8
0
  66
1
  70
8
  0
VERTEX
  8
0
  10
256872.331907
  20
386446.323952
  30
164.409248637
  70
32
  0
VERTEX
  8
0
  10
256831.044171
  20
386458.729258
  30
165.121403219
  70
32
  0
VERTEX
  8
0
  10
256831.520457
  20
386469.198286
  30
150.362922205
  70
32
  0
VERTEX
  8
0
  10
256838.834304
  20
386474.793901
  30
139.404755101
  70
32
  0
VERTEX
  8
0
  10
256846.07337
  20
386475.346789
  30
135.488212995
  70
32
  0
VERTEX
  8
0
  10
256876.732211
  20
386465.531721
  30
135.797969309
  70
32
  0
VERTEX
  8
0
  10
256872.331907
  20
386446.323952
  30
164.409248637
  70
32
  0
SEQEND
  0
POLYLINE
  8
0
  66
1
  70
8
  0
VERTEX
  8
0
  10
257418.946301
  20
386337.780746
  30
77.5715435401
  70
32
  0
VERTEX
  8
0
  10
257411.337635
  20
386340.248556
  30
77.4502140401
  70
32
  0
VERTEX
  8
0
  10
257412.113259
  20
386326.432666
  30
96.3162255346
  70
32
  0
VERTEX
  8
0
  10
257380.451555
  20
386337.673484
  30
94.4608731812
  70
32
  0
VERTEX
  8
0
  10
257381.570003
  20
386318.34927
  30
120.834060466
  70
32
  0
VERTEX
  8
0
  10
257388.983993
  20
386316.098751
  30
120.738027076
  70
32
  0
VERTEX
  8
0
  10
257388.431089
  20
386306.191088
  30
134.749561551
  70
32
  0
VERTEX
  8
0
  10
257403.370287
  20
386301.748186
  30
134.428323459
  70
32
  0
VERTEX
  8
0
  10
257402.844413
  20
386289.384983
  30
151.84116632
  70
32
  0
VERTEX
  8
0
  10
257458.240958
  20
386269.726318
  30
155.075261771
  70
32
  0
VERTEX
  8
0
  10
257458.238723
  20
386274.855006
  30
147.947646134
  70
32
  0
VERTEX
  8
0
  10
257511.372786
  20
386283.621976
  30
112.655600698
  70
32
  0
VERTEX
  8
0
  10
257534.329115
  20
386283.897049
  30
102.290227786
  70
32
  0
VERTEX
  8
0
  10
257601.043216
  20
386263.655558
  30
101.412743281
  70
32
  0
VERTEX
  8
0
  10
257600.804106
  20
386250.972279
  30
119.145768511
  70
32
  0
VERTEX
  8
0
  10
257644.803223
  20
386238.010306
  30
118.028247428
  70
32
  0
VERTEX
  8
0
  10
257648.368222
  20
386237.051237
  30
117.810985276
  70
32
  0
VERTEX
  8
0
  10
257661.769041
  20
386201.453782
  30
161.461814916
  70
32
  0
VERTEX
  8
0
  10
257663.3748
  20
386192.911377
  30
172.63697859
  70
32
  0
VERTEX
  8
0
  10
257668.921503
  20
386166.471258
  30
206.975154103
  70
32
  0
VERTEX
  8
0
  10
257669.751268
  20
386162.412897
  30
212.255206067
  70
32
  0
VERTEX
  8
0
  10
257658.006045
  20
386165.385764
  30
213.230743562
  70
32
  0
VERTEX
  8
0
  10
257625.924796
  20
386175.163773
  30
213.591060323
  70
32
  0
VERTEX
  8
0
  10
257607.201655
  20
386181.993567
  30
212.240179148
  70
32
  0
VERTEX
  8
0
  10
257564.992396
  20
386191.550282
  30
217.312459098
  70
32
  0
VERTEX
  8
0
  10
257512.465137
  20
386210.978128
  30
213.151419532
  70
32
  0
VERTEX
  8
0
  10
257493.192233
  20
386216.614857
  30
213.697907562
  70
32
  0
VERTEX
  8
0
  10
257438.152173
  20
386237.538541
  30
208.550482342
  70
32
  0
VERTEX
  8
0
  10
257391.89701
  20
386253.384222
  30
206.640898212
  70
32
  0
VERTEX
  8
0
  10
257339.583429
  20
386271.937114
  30
203.603073926
  70
32
  0
VERTEX
  8
0
  10
257323.512055
  20
386278.431475
  30
201.565250036
  70
32
  0
VERTEX
  8
0
  10
257273.950447
  20
386295.405475
  30
199.525243499
  70
32
  0
VERTEX
  8
0
  10
257235.738141
  20
386309.654813
  30
196.336883724
  70
32
  0
VERTEX
  8
0
  10
257189.375832
  20
386330.03845
  30
188.166392593
  70
32
  0
VERTEX
  8
0
  10
257108.955736
  20
386360.02888
  30
181.453737816
  70
32
  0
VERTEX
  8
0
  10
257109.123648
  20
386363.05019
  30
177.181267767
  70
32
  0
VERTEX
  8
0
  10
257110.557743
  20
386369.31016
  30
167.85661634
  70
32
  0
VERTEX
  8
0
  10
257198.609097
  20
386417.010195
  30
63.2652950776
  70
32
  0
VERTEX
  8
0
  10
257264.85815
  20
386390.015669
  30
71.976384439
  70
32
  0
VERTEX
  8
0
  10
257312.454035
  20
386375.483825
  30
71.4767675224
  70
32
  0
VERTEX
  8
0
  10
257360.06263
  20
386363.186786
  30
67.8653712224
  70
32
  0
VERTEX
  8
0
  10
257419.07791
  20
386341.833486
  30
71.8812307315
  70
32
  0
VERTEX
  8
0
  10
257418.946301
  20
386337.780746
  30
77.5715435401
  70
32
  0
SEQEND
  0
ENDSEC
  0
EOF
