  999
DXF Polyline File Exported from Leapfrog Geo
  0
SECTION
  2
ENTITIES
  0
POLYLINE
  8
0
  66
1
  70
8
  0
VERTEX
  8
0
  10
257534.359159
  20
386351.132374
  30
8.8238525985
  70
32
  0
VERTEX
  8
0
  10
257534.078114
  20
386338.4959
  30
26.5100564091
  70
32
  0
VERTEX
  8
0
  10
257526.905375
  20
386340.477144
  30
26.875454596
  70
32
  0
VERTEX
  8
0
  10
257526.364243
  20
386324.800832
  30
48.8999654346
  70
32
  0
VERTEX
  8
0
  10
257206.02897
  20
386421.02976
  30
54.4516394803
  70
32
  0
VERTEX
  8
0
  10
257252.108777
  20
386445.992561
  30
-0.284008414649
  70
32
  0
VERTEX
  8
0
  10
257304.462339
  20
386439.333673
  30
-13.7955644059
  70
32
  0
VERTEX
  8
0
  10
257310.129704
  20
386453.133593
  30
-35.4412464936
  70
32
  0
VERTEX
  8
0
  10
257341.349092
  20
386443.755268
  30
-35.9823041895
  70
32
  0
VERTEX
  8
0
  10
257341.223117
  20
386441.986469
  30
-33.4689895872
  70
32
  0
VERTEX
  8
0
  10
257327.15356
  20
386445.640982
  30
-32.4301166777
  70
32
  0
VERTEX
  8
0
  10
257325.216454
  20
386429.72727
  30
-9.46856463332
  70
32
  0
VERTEX
  8
0
  10
257347.442081
  20
386422.993954
  30
-9.77491142193
  70
32
  0
VERTEX
  8
0
  10
257347.679406
  20
386425.336706
  30
-13.1344099612
  70
32
  0
VERTEX
  8
0
  10
257385.288128
  20
386413.482752
  30
-13.0130180074
  70
32
  0
VERTEX
  8
0
  10
257408.364291
  20
386403.192453
  30
-8.74523142567
  70
32
  0
VERTEX
  8
0
  10
257431.213481
  20
386393.154974
  30
-4.73014823809
  70
32
  0
VERTEX
  8
0
  10
257439.043594
  20
386380.097991
  30
10.013234515
  70
32
  0
VERTEX
  8
0
  10
257439.902601
  20
386368.796677
  30
25.3478664192
  70
32
  0
VERTEX
  8
0
  10
257482.152975
  20
386351.761873
  30
30.6518290495
  70
32
  0
VERTEX
  8
0
  10
257482.059419
  20
386364.816463
  30
12.5473707084
  70
32
  0
VERTEX
  8
0
  10
257519.560564
  20
386353.082583
  30
12.5486490486
  70
32
  0
VERTEX
  8
0
  10
257520.066208
  20
386365.468367
  30
-4.88678155585
  70
32
  0
VERTEX
  8
0
  10
257542.077969
  20
386358.973761
  30
-5.43191788587
  70
32
  0
VERTEX
  8
0
  10
257541.709479
  20
386348.95292
  30
8.65673061699
  70
32
  0
VERTEX
  8
0
  10
257534.359159
  20
386351.132374
  30
8.8238525985
  70
32
  0
SEQEND
  0
POLYLINE
  8
0
  66
1
  70
8
  0
VERTEX
  8
0
  10
257145.479361
  20
386510.059301
  30
-42.9631429867
  70
32
  0
VERTEX
  8
0
  10
257225.121155
  20
386486.134853
  30
-44.3434008493
  70
32
  0
VERTEX
  8
0
  10
257280.872776
  20
386524.685617
  30
-122.171540338
  70
32
  0
VERTEX
  8
0
  10
257287.869121
  20
386555.225362
  30
-167.662569343
  70
32
  0
VERTEX
  8
0
  10
257302.23168
  20
386550.442338
  30
-167.260293634
  70
32
  0
VERTEX
  8
0
  10
257346.914354
  20
386536.717405
  30
-167.614600175
  70
32
  0
VERTEX
  8
0
  10
257345.02685
  20
386505.413691
  30
-123.283383262
  70
32
  0
VERTEX
  8
0
  10
257341.911764
  20
386506.349465
  30
-123.229396258
  70
32
  0
VERTEX
  8
0
  10
257299.25485
  20
386484.784533
  30
-74.7051105462
  70
32
  0
VERTEX
  8
0
  10
257268.614303
  20
386460.343648
  30
-27.4089804372
  70
32
  0
VERTEX
  8
0
  10
257235.655566
  20
386468.800761
  30
-24.8310975771
  70
32
  0
VERTEX
  8
0
  10
257176.872282
  20
386432.599642
  30
51.049549794
  70
32
  0
VERTEX
  8
0
  10
257109.227896
  20
386452.92006
  30
52.2218826912
  70
32
  0
VERTEX
  8
0
  10
257116.95131
  20
386486.633534
  30
2.00336748727
  70
32
  0
VERTEX
  8
0
  10
257040.741329
  20
386509.527063
  30
3.32414921682
  70
32
  0
VERTEX
  8
0
  10
257033.479175
  20
386477.827035
  30
50.5434985572
  70
32
  0
VERTEX
  8
0
  10
256993.179813
  20
386489.93299
  30
51.241919686
  70
32
  0
VERTEX
  8
0
  10
257002.088998
  20
386528.822473
  30
-6.68661180477
  70
32
  0
VERTEX
  8
0
  10
256962.188286
  20
386540.808673
  30
-5.99509962197
  70
32
  0
VERTEX
  8
0
  10
256972.993156
  20
386587.973008
  30
-76.2495878819
  70
32
  0
VERTEX
  8
0
  10
256939.571516
  20
386598.012891
  30
-75.6703633477
  70
32
  0
VERTEX
  8
0
  10
256950.332939
  20
386644.987577
  30
-145.64235591
  70
32
  0
VERTEX
  8
0
  10
256949.801128
  20
386665.226226
  30
-173.541667972
  70
32
  0
VERTEX
  8
0
  10
257052.101507
  20
386634.495125
  30
-175.31461778
  70
32
  0
VERTEX
  8
0
  10
257051.512649
  20
386618.520316
  30
-152.854456961
  70
32
  0
VERTEX
  8
0
  10
257059.217378
  20
386615.945284
  30
-152.62586978
  70
32
  0
VERTEX
  8
0
  10
257059.006061
  20
386603.230983
  30
-134.861812529
  70
32
  0
VERTEX
  8
0
  10
257159.724786
  20
386572.242002
  30
-135.588508906
  70
32
  0
VERTEX
  8
0
  10
257145.479361
  20
386510.059301
  30
-42.9631429867
  70
32
  0
SEQEND
  0
POLYLINE
  8
0
  66
1
  70
8
  0
VERTEX
  8
0
  10
256879.735342
  20
386605.300874
  30
-59.7792433908
  70
32
  0
VERTEX
  8
0
  10
256911.156559
  20
386595.861919
  30
-60.3237989507
  70
32
  0
VERTEX
  8
0
  10
256899.428938
  20
386544.669682
  30
15.9305233243
  70
32
  0
VERTEX
  8
0
  10
256868.050571
  20
386554.29568
  30
16.1964649637
  70
32
  0
VERTEX
  8
0
  10
256879.735342
  20
386605.300874
  30
-59.7792433908
  70
32
  0
SEQEND
  0
POLYLINE
  8
0
  66
1
  70
8
  0
VERTEX
  8
0
  10
257062.410566
  20
386532.544456
  30
-38.0920472522
  70
32
  0
VERTEX
  8
0
  10
257001.643353
  20
386550.959809
  30
-37.2624623802
  70
32
  0
VERTEX
  8
0
  10
257010.778365
  20
386590.759265
  30
-96.5540121519
  70
32
  0
VERTEX
  8
0
  10
257071.545578
  20
386572.343913
  30
-97.3835970239
  70
32
  0
VERTEX
  8
0
  10
257062.410566
  20
386532.544456
  30
-38.0920472522
  70
32
  0
SEQEND
  0
ENDSEC
  0
EOF
