0
SECTION
2
HEADER
9
$EXTMIN
10
10789.114
20
14010
9
$EXTMAX
10
10841.834
20
14118.021
9
$LIMMIN
10
10789.114
20
14010
9
$LIMMAX
10
10841.834
20
14118.021
0
ENDSEC
0
SECTION
2
TABLES
0
TABLE
2
STYLE
70
1
0
ENDTAB
0
ENDSEC
0
SECTION
2
ENTITIES
0
POLYLINE
70
8
8
1
62
1
66
1
0
VERTEX
70
32
8
1
10
10841.834
20
14010
30
10150.232
0
VERTEX
70
32
8
1
10
10836.745
20
14011.737
30
10131.71
0
VERTEX
70
32
8
1
10
10835.334
20
14035
30
10131.047
0
VERTEX
70
32
8
1
10
10838.679
20
14035
30
10150.657
0
VERTEX
70
32
8
1
10
10841.834
20
14010
30
10150.232
0
SEQEND
8
1
0
POLYLINE
70
8
8
1
62
1
66
1
0
VERTEX
70
32
8
1
10
10838.679
20
14035
30
10150.657
0
VERTEX
70
32
8
1
10
10835.334
20
14035
30
10131.047
0
VERTEX
70
32
8
1
10
10834.957
20
14049.922
30
10131.208
0
VERTEX
70
32
8
1
10
10839.1
20
14050.094
30
10150.825
0
VERTEX
70
32
8
1
10
10838.679
20
14035
30
10150.657
0
SEQEND
8
1
0
POLYLINE
70
8
8
1
62
1
66
1
0
VERTEX
70
32
8
1
10
10839.1
20
14050.094
30
10150.825
0
VERTEX
70
32
8
1
10
10834.957
20
14049.922
30
10131.208
0
VERTEX
70
32
8
1
10
10833.667
20
14064.881
30
10130.977
0
VERTEX
70
32
8
1
10
10838.491
20
14065.082
30
10151.148
0
VERTEX
70
32
8
1
10
10839.1
20
14050.094
30
10150.825
0
SEQEND
8
1
0
POLYLINE
70
8
8
1
62
1
66
1
0
VERTEX
70
32
8
1
10
10838.491
20
14065.082
30
10151.148
0
VERTEX
70
32
8
1
10
10833.667
20
14064.881
30
10130.977
0
VERTEX
70
32
8
1
10
10831.17
20
14080
30
10130.622
0
VERTEX
70
32
8
1
10
10839.059
20
14079.96
30
10151.563
0
VERTEX
70
32
8
1
10
10838.491
20
14065.082
30
10151.148
0
SEQEND
8
1
0
POLYLINE
70
8
8
1
62
1
66
1
0
VERTEX
70
32
8
1
10
10839.059
20
14079.96
30
10151.563
0
VERTEX
70
32
8
1
10
10831.125
20
14080
30
10130.183
0
VERTEX
70
32
8
1
10
10828.466
20
14107.571
30
10132.692
0
VERTEX
70
32
8
1
10
10836.63
20
14108.5
30
10152.359
0
VERTEX
70
32
8
1
10
10840.514
20
14080.254
30
10150
0
SEQEND
8
1
0
POLYLINE
70
8
8
1
62
1
66
1
0
VERTEX
70
32
8
1
10
10833.72
20
14020
30
10126.279
0
VERTEX
70
32
8
1
10
10828.206
20
14020
30
10103.947
0
VERTEX
70
32
8
1
10
10818.774
20
14095.001
30
10108.69
0
VERTEX
70
32
8
1
10
10827.741
20
14095
30
10127.297
0
VERTEX
70
32
8
1
10
10833.72
20
14020
30
10126.279
0
SEQEND
8
1
0
POLYLINE
70
8
8
1
62
1
66
1
0
VERTEX
70
32
8
1
10
10811.669
20
14017.7
30
10048.469
0
VERTEX
70
32
8
1
10
10801.727
20
14018.001
30
10030.929
0
VERTEX
70
32
8
1
10
10799.05
20
14047.7
30
10031.276
0
VERTEX
70
32
8
1
10
10807.607
20
14047.7
30
10048.572
0
VERTEX
70
32
8
1
10
10811.669
20
14017.7
30
10048.469
0
SEQEND
8
1
0
POLYLINE
70
8
8
1
62
1
66
1
0
VERTEX
70
32
8
1
10
10807.607
20
14047.7
30
10048.572
0
VERTEX
70
32
8
1
10
10799.05
20
14047.7
30
10031.276
0
VERTEX
70
32
8
1
10
10796.07
20
14064.5
30
10032.23
0
VERTEX
70
32
8
1
10
10805.006
20
14064.5
30
10049.147
0
VERTEX
70
32
8
1
10
10807.607
20
14047.7
30
10048.572
0
SEQEND
8
1
0
POLYLINE
70
8
8
1
62
1
66
1
0
VERTEX
70
32
8
1
10
10797.603
20
14097.952
30
10050.253
0
VERTEX
70
32
8
1
10
10789.553
20
14097.944
30
10031.955
0
VERTEX
70
32
8
1
10
10789.114
20
14118.021
30
10031.688
0
VERTEX
70
32
8
1
10
10793.54
20
14118.002
30
10050.119
0
VERTEX
70
32
8
1
10
10797.603
20
14097.952
30
10050.253
0
SEQEND
8
1
0
POLYLINE
70
8
8
1
62
1
66
1
0
VERTEX
70
32
8
1
10
10800.659
20
14084.447
30
10049.707
0
VERTEX
70
32
8
1
10
10792.021
20
14084.467
30
10032.35
0
VERTEX
70
32
8
1
10
10789.553
20
14097.944
30
10031.955
0
VERTEX
70
32
8
1
10
10797.603
20
14097.952
30
10050.253
0
VERTEX
70
32
8
1
10
10800.659
20
14084.447
30
10049.707
0
SEQEND
8
1
0
POLYLINE
70
8
8
1
62
1
66
1
0
VERTEX
70
32
8
1
10
10805.006
20
14064.5
30
10049.147
0
VERTEX
70
32
8
1
10
10796.07
20
14064.5
30
10032.23
0
VERTEX
70
32
8
1
10
10792.021
20
14084.467
30
10032.35
0
VERTEX
70
32
8
1
10
10800.659
20
14084.447
30
10049.707
0
VERTEX
70
32
8
1
10
10805.006
20
14064.5
30
10049.147
0
SEQEND
8
1
0
POLYLINE
70
8
8
1
62
1
66
1
0
VERTEX
70
32
8
1
10
10814.575
20
14048
30
10076.275
0
VERTEX
70
32
8
1
10
10809.065
20
14048
30
10054.234
0
VERTEX
70
32
8
1
10
10805.05
20
14064.431
30
10053.698
0
VERTEX
70
32
8
1
10
10811.514
20
14064.5
30
10075.812
0
VERTEX
70
32
8
1
10
10814.575
20
14048
30
10076.275
0
SEQEND
8
1
0
POLYLINE
70
8
8
1
62
1
66
1
0
VERTEX
70
32
8
1
10
10811.514
20
14064.5
30
10075.812
0
VERTEX
70
32
8
1
10
10805.05
20
14064.431
30
10053.698
0
VERTEX
70
32
8
1
10
10800.65
20
14080
30
10053.997
0
VERTEX
70
32
8
1
10
10810.556
20
14079.684
30
10075.582
0
VERTEX
70
32
8
1
10
10811.514
20
14064.5
30
10075.812
0
SEQEND
8
1
0
POLYLINE
70
8
8
1
62
1
66
1
0
VERTEX
70
32
8
1
10
10810.556
20
14079.684
30
10075.582
0
VERTEX
70
32
8
1
10
10800.65
20
14080
30
10053.997
0
VERTEX
70
32
8
1
10
10795.423
20
14109.767
30
10055.101
0
VERTEX
70
32
8
1
10
10804.333
20
14109.767
30
10075.69
0
VERTEX
70
32
8
1
10
10810.556
20
14079.684
30
10075.582
0
SEQEND
8
1
0
POLYLINE
70
8
8
1
62
1
66
1
0
VERTEX
70
32
8
1
10
10826.555
20
14033
30
10103.904
0
VERTEX
70
32
8
1
10
10811.733
20
14033
30
10053.521
0
VERTEX
70
32
8
1
10
10809.065
20
14048
30
10054.234
0
VERTEX
70
32
8
1
10
10823.874
20
14047.139
30
10103.461
0
VERTEX
70
32
8
1
10
10826.555
20
14033
30
10103.904
0
SEQEND
8
1
0
POLYLINE
70
8
8
1
62
1
66
1
0
VERTEX
70
32
8
1
10
10825.774
20
14012.987
30
10103.927
0
VERTEX
70
32
8
1
10
10814.495
20
14013
30
10054.25
0
VERTEX
70
32
8
1
10
10811.733
20
14033
30
10053.521
0
VERTEX
70
32
8
1
10
10826.555
20
14033
30
10103.904
0
VERTEX
70
32
8
1
10
10825.774
20
14012.987
30
10103.927
0
SEQEND
8
1
0
POLYLINE
70
8
8
1
62
1
66
1
0
VERTEX
70
32
8
1
10
10823.874
20
14047.139
30
10103.461
0
VERTEX
70
32
8
1
10
10814.814
20
14048
30
10082.18
0
VERTEX
70
32
8
1
10
10811.379
20
14074.9
30
10080.381
0
VERTEX
70
32
8
1
10
10820.508
20
14074.9
30
10103.648
0
VERTEX
70
32
8
1
10
10823.874
20
14047.139
30
10103.461
0
SEQEND
8
1
0
POLYLINE
70
8
8
1
62
1
66
1
0
VERTEX
70
32
8
1
10
10820.508
20
14074.9
30
10103.648
0
VERTEX
70
32
8
1
10
10811.379
20
14074.9
30
10080.381
0
VERTEX
70
32
8
1
10
10806.562
20
14094.899
30
10080.572
0
VERTEX
70
32
8
1
10
10816.691
20
14094.9
30
10103.506
0
VERTEX
70
32
8
1
10
10820.508
20
14074.9
30
10103.648
0
SEQEND
8
1
0
ENDSEC
0
EOF
